<?xml version="1.0" encoding="UTF-8" standalone="no"?>
<!-- Created with Inkscape (http://www.inkscape.org/) -->

<svg
   version="1.1"
   id="svg2"
   width="793.70667"
   height="408.04001"
   viewBox="0 0 793.70667 408.04001"
   sodipodi:docname="hackit-logo-01.eps"
   xmlns:inkscape="http://www.inkscape.org/namespaces/inkscape"
   xmlns:sodipodi="http://sodipodi.sourceforge.net/DTD/sodipodi-0.dtd"
   xmlns="http://www.w3.org/2000/svg"
   xmlns:svg="http://www.w3.org/2000/svg">
  <defs
     id="defs6">
    <clipPath
       clipPathUnits="userSpaceOnUse"
       id="clipPath20">
      <path
         d="m 4084.04,2177.02 c 0,0 -135.19,-134.19 -364,-232.12 -247.25,-71.55 -350.79,-34.64 -509.77,-9.15 -529.17,-206.81 194.86,-178.9 194.86,-178.9 240.9,11.78 595.42,73.44 870.26,308.11 0,0 129.22,113.75 21.21,174.66 0,0 -26.08,12.95 -64.76,12.95 -41,0 -95.79,-14.7 -147.8,-75.55"
         id="path18" />
    </clipPath>
    <clipPath
       clipPathUnits="userSpaceOnUse"
       id="clipPath44">
      <path
         d="m 3773.73,864.191 c 0,0 276.87,62.149 411.27,272.359 0,0 -26.48,48.32 -58.55,75.74 0,0 111.46,135.6 211.46,208.06 0,0 -98.86,119.45 -252.81,169.99 0,0 -72.27,-442.36 -311.37,-726.149"
         id="path42" />
    </clipPath>
    <clipPath
       clipPathUnits="userSpaceOnUse"
       id="clipPath58">
      <path
         d="m 3054.47,1387 c 156.27,-105.76 239.02,-195.39 239.02,-195.39 -34.54,-27.5 -80.4,-89.6 -80.4,-89.6 C 3422.2,860.711 3608.16,869.891 3608.16,869.891 3456.6,1019.35 3295.78,1563.91 3295.78,1563.91 3141.88,1524.88 3054.47,1387 3054.47,1387"
         id="path56" />
    </clipPath>
    <clipPath
       clipPathUnits="userSpaceOnUse"
       id="clipPath82">
      <path
         d="m 3300.2,1755.82 c 0,0 36.85,-97.75 156.4,-95.33 0,0 108.05,-18.43 179.22,112.56 0,0 78.14,16.16 110.35,13.75 0,0 63.16,-89.58 195.35,-73.58 0,0 152.27,9.29 174.57,200.63 l 86.21,103.96 c 0,0 -301.11,-271.12 -902.1,-261.99"
         id="path80" />
    </clipPath>
    <clipPath
       clipPathUnits="userSpaceOnUse"
       id="clipPath150">
      <path
         d="m 3182.17,2031.26 3.32,-142.92 c 0,0 525.62,-77.44 868.79,261.62 0,76.25 -8.38,161.24 -8.38,161.24 0,0 -137.9,-297.51 -863.73,-279.94"
         id="path148" />
    </clipPath>
  </defs>
  <sodipodi:namedview
     id="namedview4"
     pagecolor="#ffffff"
     bordercolor="#000000"
     borderopacity="0.25"
     inkscape:showpageshadow="2"
     inkscape:pageopacity="0.0"
     inkscape:pagecheckerboard="0"
     inkscape:deskcolor="#d1d1d1" />
  <g
     id="g8"
     inkscape:groupmode="layer"
     inkscape:label="ink_ext_XXXXXX"
     transform="matrix(1.3333333,0,0,-1.3333333,0,408.04)">
    <g
       id="g10"
       transform="scale(0.1)">
      <path
         d="m 3795.85,1898.31 h -212.98 v 96.41 h 212.98 v -96.41"
         style="fill:#231f20;fill-opacity:1;fill-rule:nonzero;stroke:none"
         id="path12" />
      <g
         id="g14">
        <g
           id="g16"
           clip-path="url(#clipPath20)">
          <path
             d="M 2681.1,2252.57 H 4404.61 V 1728.89 H 2681.1 v 523.68"
             style="fill:#231f20;fill-opacity:1;fill-rule:nonzero;stroke:none"
             id="path22" />
        </g>
      </g>
      <path
         d="m 882.836,863.129 0.508,579.691 c 0.578,30.1 -15.02,46.18 -47.055,48.48 -129.586,0.94 -193.867,-14.84 -192.875,-47.47 v -433.94 h -145.98 v 823.63 l 146.921,-0.54 -0.941,-243.84 c -1.223,33.9 62.832,50.16 192.461,48.55 129.164,-1.98 193.845,-43.01 193.845,-123.12 V 862.512 l -146.884,0.617"
         style="fill:#231f20;fill-opacity:1;fill-rule:nonzero;stroke:none"
         id="path24" />
      <path
         d="m 1127.09,1104.97 v 145.94 c 0,65.18 64.91,110.76 194.4,136.68 l 193.04,57.62 v 49.98 h -241.45 v -74.16 h -145.99 v 122.57 c 0,63.46 48.54,95.06 145.5,95.06 h 240.37 c 97.31,0 145.94,-32.68 145.94,-97.98 v -530.76 h -144.37 v 290.44 L 1324,1245.06 c -33.93,-11.04 -50.92,-33.44 -50.92,-67.45 v -23.65 h 48.98 v 48.94 h 142.99 v -98.46 c 0,-63.01 -48.22,-94.52 -144.5,-94.52 h -46.02 c -98.26,0 -147.44,31.78 -147.44,95.05"
         style="fill:#231f20;fill-opacity:1;fill-rule:nonzero;stroke:none"
         id="path26" />
      <path
         d="m 1902.28,1154.95 h 244.74 v 72.63 l 146.42,-0.43 v -119.79 c 0,-64.95 -49.48,-97.44 -148.4,-97.44 h -241.31 c -97.27,0 -145.91,32.68 -145.91,97.93 v 432.83 c 0,65.27 48.64,97.98 145.91,97.98 h 241.84 c 96.94,0 145.41,-31.62 145.41,-95.11 V 1416.6 h -145.94 v 78.57 h -242.76 v -340.22"
         style="fill:#231f20;fill-opacity:1;fill-rule:nonzero;stroke:none"
         id="path28" />
      <path
         d="m 2773.78,863.129 -0.96,337.361 c -0.6,33.53 -15.76,50.39 -45.56,50.39 l -92.62,-0.57 v 145.52 l 91.72,0.37 c 31.93,-0.23 47.98,15.31 47.98,46.62 0.55,30.1 -15.07,46.18 -47.08,48.48 -129.58,0.94 -193.89,-14.84 -192.9,-47.47 v -433.94 h -145.94 v 823.63 l 216.69,-0.54 -0.51,-144.89 -69.83,-0.92 -0.41,-98.03 c -1.31,33.9 62.79,50.16 192.46,48.55 129.26,-1.98 193.89,-43.01 193.89,-123.12 V 1395.3 c 0.55,-47.2 -21.76,-72.59 -67.48,-76.17 45.72,0.66 68.03,-21.72 67.48,-67.3 V 862.512 l -146.93,0.617"
         style="fill:#231f20;fill-opacity:1;fill-rule:nonzero;stroke:none"
         id="path30" />
      <path
         d="m 4541.78,1639.1 h 144.99 v -483.71 h 77 l 0.56,-147.38 -76.73,0.55 c -97.52,0 -146.15,31.58 -145.82,94.92 v 535.62"
         style="fill:#231f20;fill-opacity:1;fill-rule:nonzero;stroke:none"
         id="path32" />
      <path
         d="m 4853.97,1784.98 h 144.95 v -146.83 l 75.53,-1.45 1.11,-141.08 -76.64,-0.94 v -339.29 h 77.01 l 0.54,-147.38 -76.63,0.57 c -97.61,0 -146.24,31.56 -145.87,94.9 v 681.5"
         style="fill:#231f20;fill-opacity:1;fill-rule:nonzero;stroke:none"
         id="path34" />
      <path
         d="m 3773.67,864.211 c 0,0 276.88,62.078 411.38,272.339 0,0 -26.53,48.35 -58.56,75.76 0,0 111.42,135.56 211.42,208.01 0,0 -98.86,119.44 -252.81,170.04 0,0 -72.32,-442.35 -311.43,-726.149"
         style="fill:#231f20;fill-opacity:1;fill-rule:nonzero;stroke:none"
         id="path36" />
      <g
         id="g38">
        <g
           id="g40"
           clip-path="url(#clipPath44)">
          <path
             d="m 3599.16,908.879 209.2,817.061 704.07,-180.27 -209.21,-816.932 -704.06,180.141"
             style="fill:#231f20;fill-opacity:1;fill-rule:nonzero;stroke:none"
             id="path46" />
        </g>
      </g>
      <path
         d="m 4090.43,1581.3 c -11.13,-60.06 -88.22,-443.85 -297.8,-704.812 65.69,18.891 273.51,90.301 384.37,260.292 -6.72,11.41 -29.21,48.23 -55.01,70.33 l -5.15,4.33 4.31,5.26 c 1.02,1.39 108.57,131.68 206.55,204.68 -21.17,23.46 -109.85,115.64 -237.27,159.92 m -335.2,-728.179 13.21,15.5 c 234.96,279.079 309.11,718.429 309.84,722.839 l 1.29,8.03 7.64,-2.6 c 154.1,-50.65 254.93,-170.88 256.03,-172.27 l 4.69,-5.63 -6.07,-4.26 c -87.21,-63.2 -184.55,-176.5 -205.81,-201.59 30.33,-28.5 54.01,-71.41 55.12,-73.3 l 1.84,-3.59 -2.17,-3.42 C 4056.39,922.66 3778.05,857.98 3775.23,857.449 l -20,-4.328"
         style="fill:#231f20;fill-opacity:1;fill-rule:nonzero;stroke:none"
         id="path48" />
      <path
         d="m 3054.47,1387 c 156.27,-105.8 239.02,-195.34 239.02,-195.34 -34.54,-27.55 -80.4,-89.59 -80.4,-89.59 C 3422.15,860.711 3608.16,869.891 3608.16,869.891 3456.6,1019.35 3295.78,1563.91 3295.78,1563.91 3141.83,1524.86 3054.47,1387 3054.47,1387"
         style="fill:#231f20;fill-opacity:1;fill-rule:nonzero;stroke:none"
         id="path50" />
      <g
         id="g52">
        <g
           id="g54"
           clip-path="url(#clipPath58)">
          <path
             d="m 3089.76,725.48 -207.09,793.6 690.26,180.16 207,-793.611 -690.17,-180.149"
             style="fill:#231f20;fill-opacity:1;fill-rule:nonzero;stroke:none"
             id="path60" />
        </g>
      </g>
      <path
         d="m 3219.01,1102.37 c 168.09,-191.999 321.18,-220.768 369.61,-224.858 -140.25,155.658 -281.61,615.118 -300.55,678.138 -128.26,-35.42 -209.12,-141.35 -227.02,-166.74 151.57,-103.37 233.72,-191.64 234.55,-192.56 l 5.11,-5.43 -5.89,-4.62 c -28.1,-22.52 -64.67,-69.37 -75.81,-83.93 m 383.55,-239.429 c -19.96,0 -200.24,6.75 -397.72,234.539 l -3.58,4.27 3.27,4.3 c 1.88,2.53 42.13,56.74 75.9,86.19 -20.11,20.63 -100.28,99.49 -232.72,189.07 l -5.56,3.73 3.53,5.71 c 0.78,1.31 90.53,140.64 245.37,179.87 l 6.44,1.62 1.85,-6.33 c 1.56,-5.4 162.18,-544.61 310.76,-691.101 l 11.23,-10.868 -18.77,-1"
         style="fill:#231f20;fill-opacity:1;fill-rule:nonzero;stroke:none"
         id="path62" />
      <path
         d="m 3736.23,1257.85 c -5.52,0 -8.79,0.46 -10.02,0.55 -259.63,7.73 -441.33,379.06 -490.72,492.66 l 12.46,5.52 c 48.71,-111.74 227.1,-476.92 479.45,-484.52 3.63,-0.27 315.92,-27.5 477.84,757.52 l 13.53,-2.85 c -150.64,-730.17 -426.14,-768.88 -482.54,-768.88"
         style="fill:#231f20;fill-opacity:1;fill-rule:nonzero;stroke:none"
         id="path64" />
      <path
         d="m 3190.59,2021.23 c 0,0 -24.24,350.41 41.26,468.79 0,0 56.35,113.8 167.86,80.45 0,0 38.45,-14.33 70.5,16.05 40.9,38.48 318.97,259.08 498.23,-40.22 0,0 71.11,-137.82 24.01,-203.34 -48.66,-67.69 -449.23,-247.02 -801.86,-321.73"
         style="fill:#231f20;fill-opacity:1;fill-rule:nonzero;stroke:none"
         id="path66" />
      <path
         d="m 3359.73,2569.69 c -79.63,0 -121.25,-81.86 -121.76,-82.71 -58.38,-105.75 -44.12,-404.72 -40.99,-457.28 343.94,74.18 742.38,251.16 789.95,317.28 44.16,61.32 -23.96,194.81 -24.66,196.24 -59.89,99.96 -137.11,150.83 -229.49,150.83 -136.84,0 -256.53,-111.36 -257.73,-112.49 -18.68,-17.71 -39.38,-21.39 -53.36,-21.39 -14.17,0 -24.05,3.63 -24.47,3.81 -12.51,3.73 -25.26,5.71 -37.49,5.71 m -175.49,-556.8 -0.55,7.86 c -1.01,14.4 -23.51,353.88 42.18,472.63 1.71,3.49 45.58,90.06 133.86,90.06 13.57,0 27.64,-2.11 41.9,-6.37 0.56,-0.18 8.6,-3.11 20.06,-3.11 16.83,0 31.55,5.99 43.88,17.63 1.25,1.17 124.94,116.21 267.21,116.21 97.57,0 178.8,-53.13 241.46,-157.94 3.22,-6.18 72.95,-142.78 23.91,-210.93 -49.21,-68.3 -446.29,-248.23 -806.27,-324.45 l -7.64,-1.59"
         style="fill:#231f20;fill-opacity:1;fill-rule:nonzero;stroke:none"
         id="path68" />
      <path
         d="m 3192.89,2025.79 c 0,0 10.3,275.75 242.28,454.96 0,0 77.05,69.07 154.05,-3.34 127.6,-130.98 361.92,-236.69 361.92,91.95 0,0 142.51,-215.96 68.91,-302.25 0,0 -175.71,-248.19 -827.16,-241.32"
         style="fill:#231f20;fill-opacity:1;fill-rule:nonzero;stroke:none"
         id="path70" />
      <path
         d="m 3200.25,2032.69 c 6.39,0 12.79,-0.04 19.18,-0.04 618.87,0 793.27,236.14 795,238.48 57.05,66.88 -24.47,219.88 -56.85,274.57 -6.02,-165.8 -76.63,-201.61 -136.29,-201.61 -82.66,0 -179.36,69.2 -236.99,128.49 -21.8,20.55 -45.96,31.01 -71.44,31.01 -41.22,0 -72.68,-27.65 -72.96,-27.9 -206.76,-159.62 -235.97,-398.91 -239.65,-443 m 19.18,-13.85 c -8.83,0 -17.66,0 -26.68,0.1 l -6.99,0.14 0.23,7.01 c 0.04,2.78 13.11,281.13 244.99,460.25 1.11,0.89 35.33,31.05 81.88,31.05 29.11,0 56.49,-11.82 81.14,-35.01 56.03,-57.45 149.13,-124.59 227.29,-124.59 80.45,0 122.86,73.26 122.86,211.56 v 23.02 l 12.7,-19.26 c 5.98,-9.01 144.53,-221.39 68.44,-310.42 -6.62,-9.45 -179.94,-243.85 -805.86,-243.85"
         style="fill:#231f20;fill-opacity:1;fill-rule:nonzero;stroke:none"
         id="path72" />
      <path
         d="m 3297.3,1755.82 c 0,0 36.8,-97.75 156.35,-95.33 0,0 108.07,-18.43 179.22,112.51 0,0 78.15,16.21 110.31,13.8 0,0 63.21,-89.58 195.4,-73.55 0,0 152.22,9.26 174.57,200.6 l 86.2,103.96 c 0,0 -301.11,-271.12 -902.05,-261.99"
         style="fill:#231f20;fill-opacity:1;fill-rule:nonzero;stroke:none"
         id="path74" />
      <g
         id="g76">
        <g
           id="g78"
           clip-path="url(#clipPath82)">
          <path
             d="m 3324.63,1495.9 -85.24,511.72 938.53,156.36 85.24,-511.8 -938.53,-156.28"
             style="fill:#231f20;fill-opacity:1;fill-rule:nonzero;stroke:none"
             id="path84" />
        </g>
      </g>
      <path
         d="m 3305.4,1743.95 c -109.15,0 -180.13,8.67 -182.33,8.95 -84.28,12.37 -124.71,32.31 -127.39,62.6 -5.01,57.6 147.52,112.77 194.5,128.25 l 8.41,-25.44 c -86.89,-28.77 -178.52,-75.97 -176.45,-100.51 0.36,-3.9 6.9,-24.06 104.56,-38.38 6.25,-0.86 664.36,-81.03 1071.05,258.97 l 16.98,-20.58 C 3933.1,1782.34 3534.94,1743.95 3305.4,1743.95"
         style="fill:#231f20;fill-opacity:1;fill-rule:nonzero;stroke:none"
         id="path86" />
      <path
         d="m 566.914,524.719 c 0,-8.91 1.563,-15.02 4.856,-17.719 3.285,-2.828 11.011,-4.309 23.367,-4.309 h 4.093 c 1.036,0.309 1.93,0.309 2.645,0.411 l 0.32,-26.532 c -1.929,-0.269 -4.527,-0.371 -7.632,-0.371 -7.825,-0.429 -12.766,-0.75 -14.93,-0.75 -14.281,0 -24.91,3.02 -31.945,8.723 -7.02,5.789 -10.493,14.348 -10.493,25.937 V 671.73 H 507.09 v 25.149 h 30.105 v 57.84 h 29.719 v -57.84 h 35.281 V 671.73 H 566.914 V 524.719"
         style="fill:#231f20;fill-opacity:1;fill-rule:nonzero;stroke:none"
         id="path88" />
      <path
         d="m 652.195,611.84 h 73.719 v 5.879 c 0,19.929 -2.832,35 -8.672,45.121 -5.847,10.039 -14.699,15.219 -26.34,15.219 -13.129,0 -22.836,-5.411 -29.226,-16.289 -6.238,-10.879 -9.481,-27.598 -9.481,-49.93 m 74.082,-58.711 h 29.832 c -0.273,-25.52 -6.121,-45.109 -17.617,-58.777 -11.457,-13.622 -27.894,-20.34 -49.129,-20.34 -23.367,0 -40.57,9.179 -51.769,27.359 -11.067,18.188 -16.676,46.41 -16.676,84.617 0,40.492 5.609,70.071 16.676,88.91 11.199,18.84 28.633,28.133 52.578,28.133 22.402,0 39.164,-7.91 50.16,-23.902 11.016,-16.09 16.633,-40.41 16.633,-72.949 0,-5.168 -0.094,-9.039 -0.164,-11.692 -0.09,-2.707 -0.231,-4.988 -0.321,-7.199 l -104.285,-0.09 v -9.711 c 0,-27.179 3.2,-46.867 9.43,-59.316 6.348,-12.5 16.285,-18.672 30.039,-18.672 10.649,0 19.09,4.691 25.348,14.121 6.254,9.277 9.265,21.988 9.265,38.168 v 1.34"
         style="fill:#231f20;fill-opacity:1;fill-rule:nonzero;stroke:none"
         id="path90" />
      <path
         d="m 902.066,556.219 29.715,0.101 c 0,-26.148 -5.98,-46.488 -18.031,-60.769 -12.102,-14.313 -29.207,-21.582 -51.105,-21.582 -24.172,0 -42.02,9.48 -53.661,28.601 -11.589,18.828 -17.429,48 -17.429,87.461 0,37.789 5.98,66.051 18.097,84.668 12.145,18.692 30.383,27.973 54.828,27.973 20.247,0 36.208,-6.223 48.047,-18.621 11.668,-12.321 17.602,-29.211 17.602,-50.531 v -4.532 h -29.625 c -0.645,15.231 -3.863,26.703 -9.844,34.832 -5.933,7.719 -14.172,11.68 -25,11.68 -14.883,0 -25.394,-6.512 -31.765,-19.641 -6.395,-13.07 -9.543,-35.398 -9.543,-67.039 0,-31.89 3.285,-54.488 9.589,-67.871 6.465,-13.148 17.114,-19.789 32.082,-19.789 11.364,0 19.946,4.77 26.2,14.121 6.211,9.438 9.425,23.231 9.843,40.938"
         style="fill:#231f20;fill-opacity:1;fill-rule:nonzero;stroke:none"
         id="path92" />
      <path
         d="m 974.516,479.809 v 290.363 h 30.614 v -96.723 c 5.66,9.43 12.85,16.403 21.39,21.11 8.62,4.73 18.88,7.023 30.98,7.023 16.74,0 29.83,-4.344 39.05,-12.902 9.29,-8.668 13.94,-20.77 13.94,-36.321 v -172.55 h -30.48 v 158.132 c 0,12.707 -2.48,22.028 -7.24,27.649 -4.9,5.922 -12.72,8.941 -23.37,8.941 -13.48,0 -24.15,-4.461 -32.27,-12.801 -8.05,-8.589 -12,-20.281 -12,-34.859 V 479.809 h -30.614"
         style="fill:#231f20;fill-opacity:1;fill-rule:nonzero;stroke:none"
         id="path94" />
      <path
         d="m 1156.12,479.809 v 217.05 h 28.45 V 669.98 c 5.31,10.34 12.45,18.45 21.58,23.54 9.04,5.32 19.91,8.062 33.02,8.062 19.02,0 32.59,-4.953 40.74,-14.562 C 1288,677.5 1292,660.781 1292,637 V 479.809 h -30.52 v 159.57 c 0,11.742 -2.52,20.59 -7.47,26.211 -5.08,5.922 -12.67,8.941 -23.09,8.941 -13.57,0 -24.41,-4.461 -32.22,-12.801 -8.1,-8.589 -12.06,-20.281 -12.06,-34.859 V 479.809 h -30.52"
         style="fill:#231f20;fill-opacity:1;fill-rule:nonzero;stroke:none"
         id="path96" />
      <path
         d="m 1363.9,588.262 c 0,-32.364 3.24,-55.364 9.89,-68.543 6.79,-13.231 17.99,-19.867 33.76,-19.867 15.55,0 26.73,6.878 33.49,20.347 6.74,13.41 10.15,36.121 10.15,68.063 0,32.218 -3.41,54.918 -10.15,68.097 -6.76,13.34 -17.94,19.903 -33.49,19.903 -15.64,0 -26.93,-6.563 -33.62,-19.774 -6.79,-13.078 -10.03,-35.816 -10.03,-68.226 m -32.45,0 c 0,39.09 6.25,67.82 18.79,86.609 12.44,18.848 31.6,28.188 57.31,28.188 26.11,0 45.48,-9.34 57.8,-27.84 12.35,-18.731 18.65,-47.668 18.65,-86.957 0,-39.371 -6.2,-68.063 -18.6,-86.672 -12.24,-18.418 -31.56,-27.621 -57.85,-27.621 -26.31,0 -45.63,9.203 -57.89,27.511 -12.09,18.239 -18.21,47.258 -18.21,86.782"
         style="fill:#231f20;fill-opacity:1;fill-rule:nonzero;stroke:none"
         id="path98" />
      <path
         d="m 1523.73,770.121 h 30.17 V 479.93 h -30.17 v 290.191"
         style="fill:#231f20;fill-opacity:1;fill-rule:nonzero;stroke:none"
         id="path100" />
      <path
         d="m 1625.82,588.262 c 0,-32.364 3.45,-55.364 10.08,-68.543 6.64,-13.231 17.84,-19.867 33.69,-19.867 15.53,0 26.7,6.878 33.44,20.347 6.74,13.41 10.12,36.121 10.12,68.063 0,32.218 -3.38,54.918 -10.12,68.097 -6.74,13.34 -17.91,19.903 -33.44,19.903 -15.73,0 -26.95,-6.563 -33.6,-19.774 -6.72,-13.078 -10.17,-35.816 -10.17,-68.226 m -32.36,0 c 0,39.09 6.26,67.82 18.79,86.609 12.54,18.848 31.56,28.188 57.34,28.188 26.13,0 45.45,-9.34 57.75,-27.84 12.38,-18.731 18.63,-47.668 18.63,-86.957 0,-39.371 -6.25,-68.063 -18.44,-86.672 -12.35,-18.418 -31.68,-27.621 -57.94,-27.621 -26.38,0 -45.65,9.203 -57.8,27.511 -12.21,18.239 -18.33,47.258 -18.33,86.782"
         style="fill:#231f20;fill-opacity:1;fill-rule:nonzero;stroke:none"
         id="path102" />
      <path
         d="m 1812.35,587.84 c 0,-30.102 3.15,-51.899 9.48,-65.149 6.25,-12.992 16.71,-19.582 31.07,-19.582 14.88,0 25.58,6.59 31.99,19.93 6.49,13.359 9.62,35.691 9.62,67.68 0,29.953 -3.36,51.48 -10.15,64.992 -6.69,13.398 -17.41,20.18 -32.31,20.18 -13.9,0 -24.01,-6.782 -30.27,-20.493 -6.46,-13.668 -9.43,-36.128 -9.43,-67.558 m -25.44,-127.988 30.11,-0.231 c 0.64,-8.762 3.96,-15.289 9.89,-19.781 5.98,-4.461 14.51,-6.781 25.53,-6.781 14.88,0 25.67,4.992 32.17,14.613 6.58,9.648 9.9,25.387 9.9,46.957 0,0.512 -0.1,2.262 -0.26,4.582 -0.13,2.519 -0.18,4.898 -0.18,6.871 -4.32,-9.75 -10.7,-17.203 -18.75,-22.141 -8,-5.082 -17.98,-7.39 -29.48,-7.39 -21.99,0 -38.35,9.687 -49.22,29.179 -10.88,19.551 -16.31,49.301 -16.31,89.129 0,35.661 5.66,62.34 17.07,80.321 11.29,17.761 28.31,26.742 50.96,26.742 11.43,0 21.23,-2.633 29.19,-8.043 8.01,-5.18 13.66,-12.777 16.98,-22.469 v 25.469 h 29.44 V 489.961 c 0,-26.852 -6.47,-47.152 -19.33,-61.852 -12.76,-14.347 -30.9,-21.48 -54.46,-21.48 -18.58,0 -33.81,4.723 -45.59,14.609 -11.82,9.711 -17.66,22.102 -17.66,37.301 v 1.313"
         style="fill:#231f20;fill-opacity:1;fill-rule:nonzero;stroke:none"
         id="path104" />
      <path
         d="m 1961.06,410.379 v 27.562 c 3.07,-1.461 6.31,-2.601 9.39,-3.019 3.2,-0.762 6.35,-0.981 9.41,-0.981 8.99,0 16.03,2.77 21.25,9.028 5.22,6.121 10.35,17.633 15.59,35.101 l -63.78,218.828 h 32.78 l 46.51,-174.976 47.74,174.976 h 31.14 l -66.74,-226.656 c -7.06,-24.633 -15.16,-41.25 -24.31,-50.051 C 2011,411.371 1997.91,407 1981.03,407 c -2.49,0 -5.5,0.238 -8.95,0.82 -3.42,0.489 -7.1,1.391 -11.02,2.559"
         style="fill:#231f20;fill-opacity:1;fill-rule:nonzero;stroke:none"
         id="path106" />
      <path
         d="m 2318.11,663.309 c 9.94,6.691 17.85,14.312 23.37,23.16 5.5,8.761 8.28,17.91 8.28,27.269 0,9.434 -2.44,17.071 -7.33,22.25 -4.86,5.703 -11.27,8.242 -19.65,8.242 -8.44,0 -14.99,-2.539 -19.64,-8.242 -4.81,-5.179 -7.13,-12.988 -7.13,-22.558 0,-6.168 1.93,-13.578 5.75,-22.621 3.96,-8.809 9.48,-17.887 16.35,-27.5 m 53.32,-131.43 -63.69,92.84 c -13.45,-8.828 -23.39,-18.309 -29.81,-28.688 -6.41,-10.351 -9.7,-21.941 -9.7,-34.699 0,-15.973 5.17,-29.723 15.27,-40.852 10.12,-11.25 22.66,-16.718 37.63,-16.718 9.48,0 18.65,2.558 27.37,7.539 8.76,4.801 16.35,11.738 22.93,20.578 m 35.81,-52.09 -19.99,28.359 c -9.08,-10.839 -19.73,-19.179 -31.97,-24.839 -12.44,-5.68 -25.57,-8.457 -39.86,-8.457 -23.59,0 -42.92,7.91 -57.7,23.636 -14.84,15.782 -22.17,36.133 -22.17,61.321 0,18.293 4.41,34.203 13.8,47.863 9.03,13.668 23.82,26.476 43.99,38.617 -8.76,11.551 -15.54,23.09 -20.49,34.543 -4.9,11.598 -7.41,21.859 -7.41,30.938 0,17.66 5.38,31.851 16.08,42.781 10.58,10.789 24.64,16.359 41.95,16.359 16.59,0 30.11,-5.16 40.76,-15.762 10.6,-10.359 16.01,-23.867 16.01,-40.316 0,-13.98 -4.01,-27.371 -12.1,-39.332 -7.91,-12.191 -19.99,-23.168 -36.13,-33.012 l 55.63,-81.156 c 1.98,6.207 3.82,13.699 5.46,23.02 1.69,9.187 2.87,19.23 3.81,30.679 h 30.96 c -1.24,-16.672 -3.68,-31.761 -7.45,-45.031 -3.77,-13.559 -8.63,-24.641 -14.7,-33.84 l 39.01,-56.371 h -37.49"
         style="fill:#231f20;fill-opacity:1;fill-rule:nonzero;stroke:none"
         id="path108" />
      <path
         d="m 2662.28,597.039 c -4.76,-5.469 -15.31,-11.051 -31.64,-16.848 -1.43,-0.531 -2.42,-0.902 -3.06,-1.082 -14.01,-5 -23.23,-10.468 -27.51,-16.679 -4.3,-6.231 -6.42,-15.41 -6.42,-27.321 0,-10.75 2.35,-19.23 7.11,-25.019 4.85,-5.899 11.54,-8.949 20.22,-8.949 12.62,0 22.56,4.89 30.1,14.461 7.43,9.429 11.2,22.339 11.2,38.339 z m 47.96,-117.617 c -3.82,-0.621 -7.15,-0.981 -9.99,-1.352 -2.73,-0.351 -5.42,-0.441 -7.86,-0.441 -8.4,0 -15.27,2.691 -20.08,8.07 -4.99,5.551 -7.59,13.102 -7.91,23.082 -4.67,-11.109 -11.46,-19.601 -20.2,-25.492 -8.8,-5.937 -19.22,-8.769 -31.28,-8.769 -15.77,0 -28.03,5.14 -36.61,15.742 -8.85,10.457 -13.18,25.34 -13.18,44.457 0,18.703 4,32.98 12.1,42.73 8.21,9.84 25.69,19.281 52.58,28.313 l 0.5,0.226 c 22.2,7.364 33.21,16.153 33.21,26.063 v 19.871 c 0,9 -2.48,15.508 -7.61,19.508 -5.11,4.179 -13.25,6.211 -24.35,6.211 -10.93,0 -18.96,-2.743 -24.18,-8.532 -5.31,-5.589 -7.91,-14.269 -7.91,-25.961 v -3.769 h -28.5 c 0.33,22.109 5.61,38.262 15.87,48.422 10.12,10.199 26.2,15.23 48.23,15.23 20.54,0 35.72,-4.722 45.18,-14.082 9.56,-9.328 14.14,-24.117 14.14,-44.48 v -126.61 c 0,-5.55 1.08,-9.839 3.06,-12.32 2.07,-2.328 5.31,-3.648 9.84,-3.648 0.9,0 2.26,0.238 4.1,0.679 0.27,0 0.53,0 0.85,0.129 v -23.277"
         style="fill:#231f20;fill-opacity:1;fill-rule:nonzero;stroke:none"
         id="path110" />
      <path
         d="m 2851.16,590.031 c 0,31.649 -3.18,53.539 -9.3,66.129 -6.21,12.442 -16.83,18.738 -31.78,18.738 -14.17,0 -24.7,-6.878 -31.42,-20.277 -6.76,-13.48 -10.21,-34.16 -10.21,-62.34 0,-31.461 3.18,-54.172 9.7,-68.293 6.54,-14.308 16.7,-21.289 30.92,-21.289 14.86,0 25.57,6.563 32.2,20 6.58,13.34 9.89,35.731 9.89,67.332 m 28.47,-110.222 h -28.47 v 27.461 c -2.76,-9.598 -8.33,-17.239 -16.98,-23.04 -8.55,-5.789 -18.54,-8.808 -30.13,-8.808 -22.31,0 -39.42,10.277 -51.19,30.758 -11.78,20.351 -17.67,50.039 -17.67,89.019 0,33.832 5.94,60.102 17.8,78.832 11.78,18.629 28.2,27.91 49.45,27.91 11.32,0 21.39,-2.679 30.04,-7.769 8.88,-5.223 14.35,-11.543 16.65,-19.641 v 95.641 h 30.5 V 479.809"
         style="fill:#231f20;fill-opacity:1;fill-rule:nonzero;stroke:none"
         id="path112" />
      <path
         d="m 2966.89,479.809 -58.6,217.05 h 33.07 l 42.55,-170.07 44.44,170.07 h 31.69 l -60.3,-217.05 h -32.85"
         style="fill:#231f20;fill-opacity:1;fill-rule:nonzero;stroke:none"
         id="path114" />
      <path
         d="m 3089.3,696.879 h 31.19 V 479.832 h -31.19 z m 0,73.242 h 31.19 v -39.332 h -31.19 v 39.332"
         style="fill:#231f20;fill-opacity:1;fill-rule:nonzero;stroke:none"
         id="path116" />
      <path
         d="m 3160.73,545.051 h 30.23 c 0,-0.199 -0.1,-0.531 -0.28,-1 -0.42,-2.922 -0.5,-5.039 -0.5,-6.41 0,-11.731 3.35,-20.68 9.98,-26.891 6.67,-6.07 16.46,-9.27 29.43,-9.27 11.55,0 20.84,3.2 27.56,9.54 6.67,6.199 10.03,14.75 10.03,25.582 0,17.117 -13.02,30.25 -39.43,39.148 l -0.5,0.289 c -26.41,9.18 -43.56,18.27 -51.24,27.262 -7.78,9.039 -11.69,22.199 -11.69,39.488 0,18.981 5.43,33.762 16.66,44.422 11.17,10.648 26.49,15.82 46.45,15.82 21.11,0 37.08,-5.031 47.71,-15.23 10.66,-10.16 16,-25.18 16,-45.012 v -3.168 h -28.8 c -0.59,13.238 -3.63,22.77 -8.87,28.699 -5.29,5.989 -13.53,8.899 -24.66,8.899 -11.87,0 -20.78,-2.637 -26.72,-8.34 -5.98,-5.57 -9.06,-14.039 -9.06,-24.867 0,-5.043 0.92,-9.43 2.48,-13.25 1.52,-3.91 3.87,-7.203 6.89,-9.5 5.39,-4.711 16.48,-9.75 32.95,-15.082 8.92,-2.711 15.55,-5 20.41,-7.02 14.91,-5.75 25.54,-13.172 31.97,-21.941 6.49,-8.848 9.76,-20.539 9.76,-35.137 0,-21.762 -6.35,-38.48 -18.77,-50.301 -12.65,-11.73 -30.4,-17.769 -53.5,-17.769 -21.29,0 -37.3,5.648 -48.15,16.957 -10.91,11.16 -16.34,27.691 -16.34,49.633 v 4.449"
         style="fill:#231f20;fill-opacity:1;fill-rule:nonzero;stroke:none"
         id="path118" />
      <path
         d="m 3364.1,588.262 c 0,-32.364 3.4,-55.364 9.98,-68.543 6.67,-13.231 18.08,-19.867 33.81,-19.867 15.5,0 26.68,6.878 33.44,20.347 6.72,13.41 9.98,36.121 9.98,68.063 0,32.218 -3.26,54.918 -9.98,68.097 -6.76,13.34 -17.94,19.903 -33.44,19.903 -15.73,0 -27.05,-6.563 -33.77,-19.774 -6.52,-13.078 -10.02,-35.816 -10.02,-68.226 m -32.34,0 c 0,39.09 6.11,67.82 18.73,86.609 12.41,18.848 31.54,28.188 57.4,28.188 26.04,0 45.35,-9.34 57.77,-27.84 12.33,-18.731 18.59,-47.668 18.59,-86.957 0,-39.371 -6.26,-68.063 -18.59,-86.672 -12.32,-18.418 -31.55,-27.621 -57.77,-27.621 -26.41,0 -45.72,9.203 -57.91,27.511 -12.28,18.239 -18.22,47.258 -18.22,86.782"
         style="fill:#231f20;fill-opacity:1;fill-rule:nonzero;stroke:none"
         id="path120" />
      <path
         d="m 3524.4,479.809 v 217.05 h 27.92 v -35.461 c 4.42,12.723 11.14,22.653 19.96,29.801 8.93,7.11 19.01,10.742 30.46,10.742 3.41,0 6.07,-0.132 7.73,-0.132 1.83,-0.227 3.63,-0.321 5.33,-0.668 v -32.403 c -1.7,0.992 -3.5,1.461 -5.42,2.16 -1.88,0.25 -4.05,0.481 -6.53,0.481 -15.55,0 -27.74,-5.039 -36.29,-15.449 -8.7,-10.348 -13.12,-24.629 -13.12,-43.2 V 479.809 h -30.04"
         style="fill:#231f20;fill-opacity:1;fill-rule:nonzero;stroke:none"
         id="path122" />
      <path
         d="m 3642.3,410.379 v 27.562 c 3.31,-1.461 6.35,-2.601 9.48,-3.019 3.03,-0.762 6.25,-0.981 9.38,-0.981 8.93,0 15.92,2.77 21.25,9.028 5.16,6.121 10.4,17.633 15.56,35.101 l -63.76,218.828 h 32.88 l 46.33,-174.976 47.93,174.976 h 31 l -66.78,-226.656 c -6.91,-24.633 -15.05,-41.25 -24.3,-50.051 -9.1,-8.82 -22.07,-13.191 -39.04,-13.191 -2.45,0 -5.39,0.238 -8.89,0.82 -3.45,0.489 -7.13,1.391 -11.04,2.559"
         style="fill:#231f20;fill-opacity:1;fill-rule:nonzero;stroke:none"
         id="path124" />
      <path
         d="m 3912.5,545.051 h 30.27 c 0,-0.199 -0.27,-0.531 -0.27,-1 -0.47,-2.922 -0.65,-5.039 -0.65,-6.41 0,-11.731 3.4,-20.68 10.03,-26.891 6.81,-6.07 16.56,-9.27 29.35,-9.27 11.68,0 20.98,3.2 27.7,9.54 6.7,6.199 9.98,14.75 9.98,25.582 0,17.117 -13.03,30.25 -39.44,39.148 l -0.45,0.289 c -26.45,9.18 -43.61,18.27 -51.25,27.262 -7.81,9.039 -11.73,22.199 -11.73,39.488 0,18.981 5.48,33.762 16.66,44.422 11.18,10.648 26.64,15.82 46.41,15.82 21.2,0 37.03,-5.031 47.71,-15.23 10.8,-10.16 16.05,-25.18 16.05,-45.012 v -3.168 h -28.8 c -0.55,13.238 -3.58,22.77 -8.84,28.699 -5.23,5.989 -13.51,8.899 -24.69,8.899 -11.83,0 -20.76,-2.637 -26.63,-8.34 -6.04,-5.57 -9.12,-14.039 -9.12,-24.867 0,-5.043 0.97,-9.43 2.49,-13.25 1.57,-3.91 3.86,-7.203 6.8,-9.5 5.57,-4.711 16.52,-9.75 33.03,-15.082 8.75,-2.711 15.55,-5 20.38,-7.02 14.85,-5.75 25.62,-13.172 32.16,-21.941 6.35,-8.848 9.47,-20.539 9.47,-35.137 0,-21.762 -6.25,-38.48 -18.81,-50.301 -12.38,-11.73 -30.31,-17.769 -53.36,-17.769 -21.25,0 -37.3,5.648 -48.16,16.957 -10.95,11.16 -16.29,27.691 -16.29,49.633 v 4.449"
         style="fill:#231f20;fill-opacity:1;fill-rule:nonzero;stroke:none"
         id="path126" />
      <path
         d="m 4114.72,611.84 h 73.69 v 5.879 c 0,19.929 -2.94,35 -8.74,45.121 -5.84,10.039 -14.63,15.219 -26.31,15.219 -13.07,0 -22.91,-5.411 -29.07,-16.289 -6.35,-10.879 -9.57,-27.598 -9.57,-49.93 m 74.15,-58.711 h 29.66 c -0.13,-25.52 -6.11,-45.109 -17.61,-58.777 -11.51,-13.622 -27.83,-20.34 -49.08,-20.34 -23.36,0 -40.57,9.179 -51.75,27.359 -11.09,18.188 -16.69,46.41 -16.69,84.617 0,40.492 5.6,70.071 16.69,88.91 11.18,18.84 28.61,28.133 52.49,28.133 22.49,0 39.32,-7.91 50.37,-23.902 10.8,-16.09 16.37,-40.41 16.37,-72.949 0,-5.168 0,-9.039 -0.04,-11.692 0,-2.707 -0.19,-4.988 -0.28,-7.199 l -104.28,-0.09 v -9.711 c 0,-27.179 3.22,-46.867 9.48,-59.316 6.25,-12.5 16.19,-18.672 29.98,-18.672 10.59,0 19.04,4.691 25.25,14.121 6.35,9.277 9.44,21.988 9.44,38.168 v 1.34"
         style="fill:#231f20;fill-opacity:1;fill-rule:nonzero;stroke:none"
         id="path128" />
      <path
         d="m 4259.52,479.809 v 217.05 h 28.06 v -35.461 c 4.51,12.723 11.04,22.653 19.97,29.801 8.83,7.11 18.86,10.742 30.36,10.742 3.4,0 6.03,-0.132 7.81,-0.132 1.76,-0.227 3.5,-0.321 5.16,-0.668 v -32.403 c -1.66,0.992 -3.4,1.461 -5.38,2.16 -1.94,0.25 -4.05,0.481 -6.54,0.481 -15.59,0 -27.64,-5.039 -36.28,-15.449 -8.66,-10.348 -13.07,-24.629 -13.07,-43.2 V 479.809 h -30.09"
         style="fill:#231f20;fill-opacity:1;fill-rule:nonzero;stroke:none"
         id="path130" />
      <path
         d="m 4427.61,479.809 -58.57,217.05 h 33.18 l 42.31,-170.07 44.63,170.07 h 31.6 l -60.21,-217.05 h -32.94"
         style="fill:#231f20;fill-opacity:1;fill-rule:nonzero;stroke:none"
         id="path132" />
      <path
         d="m 4549.96,696.879 h 31.33 V 479.832 h -31.33 z m 0,73.242 h 31.33 v -39.332 h -31.33 v 39.332"
         style="fill:#231f20;fill-opacity:1;fill-rule:nonzero;stroke:none"
         id="path134" />
      <path
         d="m 4732.3,556.219 29.72,0.101 c 0,-26.148 -5.98,-46.488 -18.07,-60.769 -12.1,-14.313 -29.03,-21.582 -51.02,-21.582 -24.1,0 -42.04,9.48 -53.63,28.601 -11.68,18.828 -17.45,48 -17.45,87.461 0,37.789 6.04,66.051 18.09,84.668 12.05,18.692 30.36,27.973 54.83,27.973 20.24,0 36.11,-6.223 47.93,-18.621 11.78,-12.321 17.76,-29.211 17.76,-50.531 v -4.532 h -29.72 c -0.64,15.231 -3.86,26.703 -9.84,34.832 -5.84,7.719 -14.26,11.68 -25.02,11.68 -14.82,0 -25.39,-6.512 -31.74,-19.641 -6.44,-13.07 -9.48,-35.398 -9.48,-67.039 0,-31.89 3.04,-54.488 9.66,-67.871 6.34,-13.148 17.07,-19.789 32.02,-19.789 11.17,0 19.96,4.77 26.12,14.121 6.12,9.438 9.39,23.231 9.84,40.938"
         style="fill:#231f20;fill-opacity:1;fill-rule:nonzero;stroke:none"
         id="path136" />
      <path
         d="m 4829.92,611.84 h 73.69 v 5.879 c 0,19.929 -2.95,35 -8.7,45.121 -5.84,10.039 -14.67,15.219 -26.39,15.219 -13.12,0 -22.78,-5.411 -29.04,-16.289 -6.38,-10.879 -9.56,-27.598 -9.56,-49.93 m 74.05,-58.711 h 29.86 c -0.32,-25.52 -6.21,-45.109 -17.71,-58.777 -11.4,-13.622 -27.78,-20.34 -49.03,-20.34 -23.47,0 -40.66,9.179 -51.8,27.359 -11.13,18.188 -16.65,46.41 -16.65,84.617 0,40.492 5.52,70.071 16.65,88.91 11.14,18.84 28.52,28.133 52.53,28.133 22.36,0 39.29,-7.91 50.24,-23.902 10.89,-16.09 16.51,-40.41 16.51,-72.949 0,-5.168 0,-9.039 -0.05,-11.692 -0.18,-2.707 -0.32,-4.988 -0.46,-7.199 l -104.14,-0.09 v -9.711 c 0,-27.179 3.18,-46.867 9.47,-59.316 6.26,-12.5 16.2,-18.672 29.99,-18.672 10.58,0 19.05,4.691 25.31,14.121 6.3,9.277 9.28,21.988 9.28,38.168 v 1.34"
         style="fill:#231f20;fill-opacity:1;fill-rule:nonzero;stroke:none"
         id="path138" />
      <path
         d="m 4968.79,545.051 h 30.27 c 0,-0.199 0,-0.531 -0.23,-1 -0.32,-2.922 -0.56,-5.039 -0.56,-6.41 0,-11.731 3.32,-20.68 9.94,-26.891 6.81,-6.07 16.65,-9.27 29.45,-9.27 11.76,0 20.87,3.2 27.5,9.54 6.9,6.199 10.16,14.75 10.16,25.582 0,17.117 -13.1,30.25 -39.46,39.148 l -0.56,0.289 c -26.26,9.18 -43.46,18.27 -51.1,27.262 -7.86,9.039 -11.87,22.199 -11.87,39.488 0,18.981 5.62,33.762 16.74,44.422 11.13,10.648 26.68,15.82 46.47,15.82 21.16,0 37.07,-5.031 47.69,-15.23 10.64,-10.16 16.06,-25.18 16.06,-45.012 v -3.168 h -28.84 c -0.6,13.238 -3.63,22.77 -8.93,28.699 -5.19,5.989 -13.47,8.899 -24.61,8.899 -11.86,0 -20.7,-2.637 -26.68,-8.34 -5.88,-5.57 -8.96,-14.039 -8.96,-24.867 0,-5.043 0.78,-9.43 2.43,-13.25 1.56,-3.91 3.73,-7.203 6.77,-9.5 5.6,-4.711 16.51,-9.75 32.98,-15.082 8.82,-2.711 15.54,-5 20.42,-7.02 14.86,-5.75 25.67,-13.172 32.07,-21.941 6.38,-8.848 9.61,-20.539 9.61,-35.137 0,-21.762 -6.26,-38.48 -18.82,-50.301 -12.55,-11.73 -30.35,-17.769 -53.4,-17.769 -21.16,0 -37.35,5.648 -48.12,16.957 -10.86,11.16 -16.42,27.691 -16.42,49.633 v 4.449"
         style="fill:#231f20;fill-opacity:1;fill-rule:nonzero;stroke:none"
         id="path140" />
      <path
         d="m 3182.17,2036.37 3.26,-142.92 c 0,0 525.64,-77.37 868.85,261.62 0,76.27 -8.38,161.28 -8.38,161.28 0,0 -137.9,-297.55 -863.73,-279.98"
         style="fill:#ec1d27;fill-opacity:1;fill-rule:nonzero;stroke:none"
         id="path142" />
      <g
         id="g144">
        <g
           id="g146"
           clip-path="url(#clipPath150)">
          <path
             d="m 3398.22,2680.09 872.07,-500.48 -432.13,-752.85 -872.05,500.52 432.11,752.81"
             style="fill:#ec1d27;fill-opacity:1;fill-rule:nonzero;stroke:none"
             id="path152" />
        </g>
      </g>
    </g>
  </g>
</svg>
