<svg width="30" height="23" viewBox="0 0 30 23" fill="none" xmlns="http://www.w3.org/2000/svg">
<path d="M17.984 22.304C16.576 21.472 15.872 20.096 15.872 18.176C15.872 17.152 16.032 16.096 16.352 15.008C16.736 13.856 17.216 12.736 17.792 11.648C18.176 10.944 18.72 10.016 19.424 8.86399C20.192 7.64799 21.088 6.432 22.112 5.216C23.136 3.936 24.224 2.88 25.376 2.048C26.528 1.152 27.648 0.703997 28.736 0.703997C28.928 0.703997 29.088 0.735996 29.216 0.799995C29.408 0.799995 29.6 0.831995 29.792 0.895994C29.408 1.344 28.832 2.08 28.064 3.10399C27.296 4.128 26.496 5.28 25.664 6.56C24.896 7.776 24.224 8.896 23.648 9.92C23.072 10.944 22.752 11.648 22.688 12.032C23.968 11.904 24.928 12.224 25.568 12.992C26.208 13.696 26.528 14.592 26.528 15.68C26.528 16.96 26.112 18.336 25.28 19.808C23.936 21.856 22.208 22.88 20.096 22.88C19.392 22.88 18.688 22.688 17.984 22.304ZM2.912 22.304C1.504 21.472 0.8 20.096 0.8 18.176C0.8 17.152 0.96 16.096 1.28 15.008C1.664 13.856 2.144 12.736 2.72 11.648C3.104 10.944 3.648 10.016 4.352 8.86399C5.12 7.64799 6.016 6.432 7.04 5.216C8.064 3.936 9.152 2.88 10.304 2.048C11.456 1.152 12.576 0.703997 13.664 0.703997C13.856 0.703997 14.016 0.735996 14.144 0.799995C14.336 0.799995 14.528 0.831995 14.72 0.895994C14.336 1.344 13.76 2.08 12.992 3.10399C12.224 4.128 11.424 5.28 10.592 6.56C9.824 7.776 9.152 8.896 8.576 9.92C8 10.944 7.68 11.648 7.616 12.032C8.896 11.904 9.856 12.224 10.496 12.992C11.136 13.696 11.456 14.592 11.456 15.68C11.456 16.96 11.04 18.336 10.208 19.808C8.864 21.856 7.136 22.88 5.024 22.88C4.32 22.88 3.616 22.688 2.912 22.304Z" fill="#30475E"/>
</svg>
