<svg width="73" height="71" viewBox="0 0 73 71" fill="none" xmlns="http://www.w3.org/2000/svg">
<path d="M1.79389 0.188972C1.14661 0.438637 0.434603 1.15989 0.184938 1.81642C0 2.30651 0 2.43596 0 23.6668C0 44.8514 0 45.0271 0.184938 45.5172C0.406863 46.1182 1.0264 46.7747 1.64594 47.0799L2.08055 47.2926L23.5518 47.3203C44.9028 47.3388 45.023 47.3388 45.5224 47.1539C46.1234 46.9319 46.7799 46.3124 47.0851 45.6929L47.2978 45.2583L47.3255 23.787C47.344 2.38973 47.344 2.31575 47.1591 1.81642C46.9094 1.1414 46.1974 0.42939 45.5224 0.179726C45.0323 -0.00521469 44.9121 -0.00521469 23.6443 0.00403214C2.58913 0.00403214 2.25624 0.00403214 1.79389 0.188972ZM22.4699 5.21003V8.02108L21.8504 7.71593C21.0182 7.30907 20.4633 7.18886 19.4554 7.1981C15.2851 7.20735 12.8532 11.8585 15.1741 15.3446C15.6735 16.0751 16.404 16.7224 17.2269 17.12C18.0129 17.5084 18.6325 17.6563 19.5109 17.6563C20.5096 17.6563 21.1938 17.4621 22.3959 16.8426C22.4422 16.8241 22.4699 18.0817 22.4699 19.6352V22.4647H18.577C15.1371 22.4647 14.6563 22.4832 14.4251 22.6126C13.5837 23.112 13.6576 24.5915 14.6101 26.0617C15.2851 27.1066 15.396 27.9666 14.9707 28.9375C14.5638 29.8714 13.4635 30.602 12.4648 30.602C11.0038 30.602 9.77395 29.4831 9.64449 28.0221C9.57976 27.3563 9.74621 26.82 10.2548 26.034C10.7356 25.2942 11.0038 24.462 11.0038 23.75C11.0038 23.2137 10.9853 23.1675 10.6432 22.8253L10.2825 22.4647H6.34336H2.40419V12.6168C2.40419 2.88906 2.40419 2.76885 2.58913 2.58391C2.77406 2.39898 2.89427 2.39898 12.622 2.39898H22.4699V5.21003ZM44.7549 2.58391C44.9398 2.76885 44.9398 2.88906 44.9398 12.6168V22.4647H42.1195H39.29L39.5211 22.0671C40.1129 21.0499 40.3164 19.2468 39.9835 18.1094C39.3732 16.0566 37.792 14.6696 35.6744 14.3274C33.4829 13.9761 31.199 15.1874 30.2003 17.231C29.8304 18.0077 29.6825 18.6365 29.6825 19.5057C29.6825 20.5044 29.8767 21.1886 30.4962 22.3907C30.5147 22.437 29.2571 22.4647 27.7036 22.4647H24.8741V18.5718C24.8741 15.1319 24.8556 14.6511 24.7261 14.4199C24.2268 13.5785 22.7473 13.6524 21.2771 14.6049C20.5558 15.0764 19.8161 15.2891 19.252 15.2059C17.4026 14.9377 16.2837 13.1254 16.9218 11.4424C17.2732 10.4992 18.2163 9.75949 19.215 9.63928C19.853 9.56531 20.5188 9.75024 21.1938 10.1941C21.9891 10.7027 22.8398 10.9986 23.5703 10.9986C24.1251 10.9986 24.1713 10.9801 24.5135 10.6379L24.8741 10.2773V6.33814V2.39898H34.722C44.4497 2.39898 44.5699 2.39898 44.7549 2.58391ZM35.9241 16.9258C36.2385 17.0368 36.5899 17.268 36.8396 17.5176C37.9122 18.5903 37.9954 19.9496 37.08 21.3088C36.6176 21.9931 36.3402 22.8623 36.3402 23.5928C36.3402 24.1199 36.3587 24.1754 36.7009 24.5083L37.0615 24.8689H41.0006H44.9398V34.7168C44.9398 44.4445 44.9398 44.5647 44.7549 44.7497C44.5699 44.9346 44.4497 44.9346 34.722 44.9346H24.8741V42.1143V39.2848L25.2717 39.5159C26.2889 40.1077 28.092 40.3112 29.2294 39.9783C31.2822 39.368 32.6692 37.7868 33.0113 35.6692C33.3627 33.4777 32.1514 31.1938 30.1078 30.1951C29.3311 29.8252 28.7023 29.6773 27.8331 29.6773C26.8344 29.6773 26.1502 29.8714 24.9481 30.491C24.9018 30.5095 24.8741 29.2519 24.8741 27.6984V24.8689H28.767C33.0576 24.8689 32.9836 24.8781 33.335 24.2863C33.6771 23.713 33.4644 22.4739 32.8634 21.4938C32.2161 20.4489 32.1421 20.2455 32.1421 19.5519C32.1421 17.5639 34.0655 16.2323 35.9241 16.9258ZM7.72114 25.4884C7.31428 26.3206 7.19407 26.8755 7.20332 27.8834C7.21256 31.8318 11.3922 34.2822 14.9337 32.4236C15.7474 31.9982 16.7091 30.9903 17.1252 30.1396C17.5136 29.3259 17.6615 28.7063 17.6615 27.8279C17.6615 26.8292 17.4674 26.145 16.8478 24.9336C16.8293 24.8966 18.0869 24.8689 19.6404 24.8689H22.4699V28.7618C22.4699 33.0524 22.4607 32.9784 23.0525 33.3298C23.6258 33.6719 24.8649 33.4592 25.845 32.8582C26.8899 32.2109 27.0933 32.1369 27.7869 32.1369C28.8965 32.1369 29.8119 32.7195 30.339 33.7459C30.8383 34.7076 30.6072 36.0391 29.8212 36.8343C28.7485 37.907 27.3892 37.9902 26.03 37.0748C25.3457 36.6124 24.4765 36.335 23.746 36.335C23.2189 36.335 23.1634 36.3535 22.8305 36.6956L22.4699 37.0563V40.9954V44.9346H12.622C2.89427 44.9346 2.77406 44.9346 2.58913 44.7497C2.40419 44.5647 2.40419 44.4445 2.40419 34.7168V24.8689H5.21524H8.02629L7.72114 25.4884Z" fill="#30475E"/>
<circle cx="39.9315" cy="38.1093" r="22.0468" fill="#FAFAFA" stroke="#F05454" stroke-width="3"/>
<path d="M69.9327 70.2317C70.515 70.8209 71.4648 70.8265 72.054 70.2442C72.6432 69.6619 72.6488 68.7122 72.0665 68.1229L69.9327 70.2317ZM54.9331 55.0544L69.9327 70.2317L72.0665 68.1229L57.0669 52.9456L54.9331 55.0544Z" fill="#30475E"/>
<mask id="mask0_863_32318" style="mask-type:alpha" maskUnits="userSpaceOnUse" x="20" y="18" width="42" height="43">
<circle cx="40.9613" cy="39.139" r="20.1859" fill="#FAFAFA" stroke="black" stroke-width="1.5"/>
</mask>
<g mask="url(#mask0_863_32318)">
<path d="M-6.82665 -7.0453C-7.6482 -6.72838 -8.5519 -5.81282 -8.86879 -4.97942C-9.10352 -4.35731 -9.10352 -4.19298 -9.10352 22.7574C-9.10352 49.649 -9.10352 49.872 -8.86879 50.4941C-8.58711 51.2571 -7.80077 52.0905 -7.01443 52.4779L-6.46282 52.7478L20.7891 52.783C47.8885 52.8065 48.0411 52.8065 48.6749 52.5718C49.4378 52.29 50.271 51.5036 50.6583 50.7172L50.9283 50.1655L50.9635 22.91C50.987 -4.25167 50.987 -4.34557 50.7522 -4.97942C50.4353 -5.8363 49.5316 -6.74012 48.6749 -7.05704C48.0529 -7.2918 47.9003 -7.2918 20.9065 -7.28006C-5.81732 -7.28006 -6.23983 -7.28006 -6.82665 -7.0453ZM19.416 -0.671597V2.89674L18.6296 2.50939C17.5734 1.99292 16.8692 1.84032 15.5899 1.85206C10.2968 1.8638 7.21011 7.76799 10.156 12.1932C10.7897 13.1205 11.7169 13.9422 12.7614 14.4469C13.759 14.9399 14.5454 15.1277 15.6603 15.1277C16.9279 15.1277 17.7964 14.8812 19.3221 14.0948C19.3808 14.0713 19.416 15.6676 19.416 17.6396V21.2314H14.475C10.109 21.2314 9.49871 21.2549 9.2053 21.4192C8.13729 22.0531 8.23118 23.9312 9.44003 25.7975C10.2968 27.1239 10.4376 28.2155 9.89775 29.448C9.38135 30.6335 7.98471 31.5608 6.71718 31.5608C4.86283 31.5608 3.30188 30.1405 3.13757 28.2859C3.05542 27.4408 3.26667 26.76 3.91218 25.7623C4.52247 24.8232 4.86283 23.7668 4.86283 22.863C4.86283 22.1822 4.83935 22.1235 4.4051 21.6892L3.94738 21.2314H-1.05233H-6.05205V8.73051C-6.05205 -3.61782 -6.05205 -3.77042 -5.81732 -4.00517C-5.58259 -4.23993 -5.43002 -4.23993 6.9167 -4.23993H19.416V-0.671597ZM47.7008 -4.00517C47.9355 -3.77042 47.9355 -3.61782 47.9355 8.73051V21.2314H44.3559H40.7645L41.0579 20.7267C41.8091 19.4355 42.0673 17.1466 41.6448 15.7029C40.8702 13.097 38.8632 11.3363 36.1756 10.902C33.3941 10.456 30.4952 11.9937 29.2276 14.5877C28.7582 15.5737 28.5704 16.3719 28.5704 17.4753C28.5704 18.743 28.8169 19.6116 29.6032 21.1375C29.6267 21.1962 28.0305 21.2314 26.0588 21.2314H22.4675V16.2897C22.4675 11.9232 22.444 11.3129 22.2797 11.0194C21.6459 9.95126 19.7681 10.0452 17.902 11.2542C16.9865 11.8528 16.0476 12.1228 15.3317 12.0171C12.9844 11.6767 11.5643 9.37609 12.3741 7.23979C12.8201 6.04251 14.0172 5.10348 15.2848 4.95089C16.0946 4.85698 16.9396 5.09174 17.7964 5.65516C18.8057 6.30075 19.8854 6.67636 20.8126 6.67636C21.5168 6.67636 21.5755 6.65289 22.0097 6.21859L22.4675 5.76081V0.760433V-4.23993H34.9667C47.3135 -4.23993 47.466 -4.23993 47.7008 -4.00517ZM36.4925 14.2004C36.8915 14.3412 37.3375 14.6347 37.6544 14.9516C39.0158 16.3132 39.1214 18.0387 37.9595 19.7642C37.3727 20.6328 37.0206 21.7362 37.0206 22.6635C37.0206 23.3325 37.0441 23.4029 37.4783 23.8255L37.9361 24.2833H42.9358H47.9355V36.7842C47.9355 49.1325 47.9355 49.2851 47.7008 49.5199C47.466 49.7547 47.3135 49.7547 34.9667 49.7547H22.4675V46.1746V42.5828L22.9721 42.8762C24.2631 43.6274 26.5517 43.8857 27.9953 43.4631C30.6008 42.6884 32.3613 40.6812 32.7955 37.9932C33.2415 35.2113 31.704 32.3121 29.1103 31.0444C28.1244 30.5748 27.3263 30.387 26.2231 30.387C24.9556 30.387 24.0871 30.6335 22.5613 31.42C22.5027 31.4434 22.4675 29.8471 22.4675 27.8751V24.2833H27.4085C32.8542 24.2833 32.7603 24.295 33.2063 23.5438C33.6405 22.8161 33.3706 21.2432 32.6077 19.9989C31.7862 18.6726 31.6923 18.4143 31.6923 17.534C31.6923 15.0103 34.1335 13.32 36.4925 14.2004ZM0.696396 25.0697C0.179994 26.1262 0.02742 26.8304 0.039156 28.1099C0.0508928 33.122 5.35575 36.2325 9.8508 33.8732C10.8836 33.3333 12.1042 32.0538 12.6323 30.9739C13.1253 29.941 13.313 29.1545 13.313 28.0394C13.313 26.7717 13.0666 25.9031 12.2802 24.3655C12.2568 24.3185 13.8529 24.2833 15.8246 24.2833H19.416V29.225C19.416 34.6714 19.4043 34.5775 20.1554 35.0235C20.883 35.4578 22.4557 35.1879 23.6998 34.4249C25.026 33.6032 25.2842 33.5093 26.1644 33.5093C27.5728 33.5093 28.7347 34.2488 29.4037 35.5517C30.0374 36.7725 29.744 38.4627 28.7464 39.4722C27.385 40.8338 25.6598 40.9394 23.9345 39.7774C23.066 39.1905 21.9628 38.8384 21.0356 38.8384C20.3666 38.8384 20.2962 38.8618 19.8737 39.2961L19.416 39.7539V44.7543V49.7547H6.9167C-5.43002 49.7547 -5.58259 49.7547 -5.81732 49.5199C-6.05205 49.2851 -6.05205 49.1325 -6.05205 36.7842V24.2833H-2.48417H1.0837L0.696396 25.0697Z" fill="#F05454"/>
</g>
</svg>
