<svg width="468" height="434" viewBox="0 0 468 434" fill="none" xmlns="http://www.w3.org/2000/svg">
<g filter="url(#filter0_d_79_34911)">
<path d="M10.0697 221.71C10.0697 221.71 12.6597 300.44 78.3397 352.92C144.02 405.4 235.14 409.16 308.88 414.14C382.62 419.12 439.24 377.39 447.77 314.3C456.3 251.21 399.97 232.68 369.4 160.86C338.83 89.0403 341.55 65.4303 276.87 21.2503C212.19 -22.9297 111.02 4.25031 57.9697 79.8803C4.91973 155.51 10.0697 221.71 10.0697 221.71Z" fill="#F05454"/>
<path opacity="0.7" d="M10.0697 221.71C10.0697 221.71 12.6597 300.44 78.3397 352.92C144.02 405.4 235.14 409.16 308.88 414.14C382.62 419.12 439.24 377.39 447.77 314.3C456.3 251.21 399.97 232.68 369.4 160.86C338.83 89.0403 341.55 65.4303 276.87 21.2503C212.19 -22.9297 111.02 4.25031 57.9697 79.8803C4.91973 155.51 10.0697 221.71 10.0697 221.71Z" fill="white"/>
<path d="M443.66 77.41C444.3 73.76 445.23 64.69 439.66 60.25C432.66 54.6 427.66 64.76 421.59 56.86C415.52 48.96 413.71 31.78 395.66 32.03C377.61 32.28 376.24 42.42 376.24 45.81C376.24 49.2 370.82 51.68 369.69 51.68C368.56 51.68 362.23 48.74 359.97 55.3C357.71 61.86 359.25 65.64 355.66 65.77C352.07 65.9 347.58 61.03 342.66 63.44C337.74 65.85 337.77 71.09 335.74 72.9C333.71 74.71 330.32 71.54 325.8 73.35C323.06 74.44 322.24 76.2 322.01 77.41H443.66Z" fill="white" stroke="#263238" stroke-miterlimit="10"/>
<path d="M90.31 69.8503C90.77 67.2903 91.42 60.9303 87.55 57.8503C82.64 53.8503 79.15 61.0203 74.88 55.4803C70.61 49.9403 69.33 37.8503 56.66 38.0303C43.99 38.2103 43.03 45.3203 43.03 47.6903C43.03 50.0603 39.23 51.8103 38.44 51.8103C37.65 51.8103 33.21 49.7303 31.66 54.3303C30.11 58.9303 31.15 61.5803 28.66 61.6803C26.17 61.7803 22.95 58.3403 19.52 60.0303C16.09 61.7203 16.1 65.4203 14.66 66.6803C13.22 67.9403 10.86 65.6803 7.66 67.0003C7.00409 67.1975 6.41225 67.5652 5.94492 68.0659C5.4776 68.5666 5.15152 69.1824 5 69.8503H90.31Z" fill="white" stroke="#263238" stroke-miterlimit="10"/>
<path d="M337.31 198.85C337.77 196.29 338.42 189.93 334.55 186.85C329.64 182.85 326.15 190.02 321.88 184.48C317.61 178.94 316.33 166.85 303.66 167.03C290.99 167.21 290.03 174.32 290.03 176.69C290.03 179.06 286.23 180.81 285.44 180.81C284.65 180.81 280.21 178.75 278.62 183.35C277.03 187.95 278.11 190.6 275.62 190.7C273.13 190.8 269.97 187.36 266.54 189.08C263.11 190.8 263.12 194.44 261.69 195.7C260.26 196.96 257.89 194.7 254.69 196.02C254.034 196.217 253.443 196.585 252.975 197.086C252.508 197.587 252.182 198.202 252.03 198.87L337.31 198.85Z" fill="white" stroke="#263238" stroke-miterlimit="10"/>
<path d="M398.12 40.41C398.32 39.25 398.62 36.41 396.87 34.97C394.65 33.18 393.08 36.4 391.15 33.9C389.22 31.4 388.66 25.96 382.92 26.03C377.18 26.1 376.77 29.32 376.77 30.39C376.77 31.46 375.05 32.25 374.7 32.25C374.35 32.25 372.34 31.32 371.62 33.4C370.9 35.48 371.39 36.67 370.25 36.72C369.11 36.77 367.71 35.21 366.16 35.99C364.61 36.77 364.61 38.41 363.97 38.99C363.33 39.57 362.25 38.56 360.82 39.13C360.523 39.2178 360.255 39.3838 360.044 39.6108C359.833 39.8377 359.686 40.1172 359.62 40.42L398.12 40.41Z" fill="white" stroke="#263238" stroke-miterlimit="10"/>
<path d="M111.96 201.081V196.521" stroke="#263238" stroke-miterlimit="10"/>
<g opacity="0.3">
<path d="M372.47 89.1605C374.58 89.1605 376.29 87.4502 376.29 85.3405C376.29 83.2308 374.58 81.5205 372.47 81.5205C370.361 81.5205 368.65 83.2308 368.65 85.3405C368.65 87.4502 370.361 89.1605 372.47 89.1605Z" stroke="black" stroke-linecap="round" stroke-linejoin="round"/>
<path d="M37.2702 154.101C39.3799 154.101 41.0902 152.391 41.0902 150.281C41.0902 148.171 39.3799 146.461 37.2702 146.461C35.1605 146.461 33.4502 148.171 33.4502 150.281C33.4502 152.391 35.1605 154.101 37.2702 154.101Z" stroke="black" stroke-linecap="round" stroke-linejoin="round"/>
<path d="M324.72 351.771C326.83 351.771 328.54 350.061 328.54 347.951C328.54 345.841 326.83 344.131 324.72 344.131C322.611 344.131 320.9 345.841 320.9 347.951C320.9 350.061 322.611 351.771 324.72 351.771Z" stroke="black" stroke-linecap="round" stroke-linejoin="round"/>
<path d="M43.9606 320.26C46.0704 320.26 47.7806 318.55 47.7806 316.44C47.7806 314.33 46.0704 312.62 43.9606 312.62C41.8509 312.62 40.1406 314.33 40.1406 316.44C40.1406 318.55 41.8509 320.26 43.9606 320.26Z" stroke="black" stroke-linecap="round" stroke-linejoin="round"/>
<path d="M302.991 151.95L294.881 160.06" stroke="black" stroke-linecap="round" stroke-linejoin="round"/>
<path d="M302.991 160.06L294.881 151.95" stroke="black" stroke-linecap="round" stroke-linejoin="round"/>
<path d="M273.87 384.971L281.98 393.071" stroke="black" stroke-linecap="round" stroke-linejoin="round"/>
<path d="M281.98 384.971L273.87 393.071" stroke="black" stroke-linecap="round" stroke-linejoin="round"/>
<path d="M18.9004 202.57L27.0004 210.67" stroke="black" stroke-linecap="round" stroke-linejoin="round"/>
<path d="M27.0004 202.57L18.9004 210.67" stroke="black" stroke-linecap="round" stroke-linejoin="round"/>
<path d="M317.801 13.4805L325.911 21.5905" stroke="black" stroke-linecap="round" stroke-linejoin="round"/>
<path d="M325.911 13.4805L317.801 21.5905" stroke="black" stroke-linecap="round" stroke-linejoin="round"/>
<path d="M377.47 327.161C379.58 327.161 381.29 325.45 381.29 323.341C381.29 321.231 379.58 319.521 377.47 319.521C375.361 319.521 373.65 321.231 373.65 323.341C373.65 325.45 375.361 327.161 377.47 327.161Z" stroke="black" stroke-linecap="round" stroke-linejoin="round"/>
<path d="M426.661 213.851C428.771 213.851 430.481 212.141 430.481 210.031C430.481 207.921 428.771 206.211 426.661 206.211C424.551 206.211 422.841 207.921 422.841 210.031C422.841 212.141 424.551 213.851 426.661 213.851Z" stroke="black" stroke-linecap="round" stroke-linejoin="round"/>
<path d="M322.801 251.48L330.911 259.59" stroke="black" stroke-linecap="round" stroke-linejoin="round"/>
<path d="M330.911 251.48L322.801 259.59" stroke="black" stroke-linecap="round" stroke-linejoin="round"/>
<path d="M410.561 186.931L418.661 195.031" stroke="black" stroke-linecap="round" stroke-linejoin="round"/>
<path d="M418.661 186.931L410.561 195.031" stroke="black" stroke-linecap="round" stroke-linejoin="round"/>
<path d="M121.08 20.1709L129.18 28.2709" stroke="black" stroke-linecap="round" stroke-linejoin="round"/>
<path d="M129.18 20.1709L121.08 28.2709" stroke="black" stroke-linecap="round" stroke-linejoin="round"/>
</g>
<path d="M266.36 36.0205H64.5303V409.911H266.36V36.0205Z" fill="#F05454"/>
<path opacity="0.3" d="M204.99 36.0205L64.5303 281.051V368.721L255.24 36.0205H204.99Z" fill="white"/>
<path opacity="0.3" d="M266.36 189.16L263.02 186.75L141.62 401.2L144.93 409.91H266.36V189.16Z" fill="white"/>
<path d="M272.42 109.58C273.08 109.578 273.712 109.314 274.178 108.848C274.644 108.382 274.908 107.75 274.91 107.09V82.1603C274.91 81.499 274.648 80.8646 274.181 80.396C273.715 79.9275 273.081 79.6629 272.42 79.6603C272.262 79.6616 272.105 79.6783 271.95 79.7103V33.0803C271.942 28.8208 270.245 24.7385 267.23 21.7294C264.215 18.7203 260.13 17.0303 255.87 17.0303H78.7202C74.4641 17.0356 70.3838 18.7279 67.3734 21.7364C64.363 24.745 62.6681 28.8243 62.6602 33.0803V409.37C62.6602 413.633 64.3529 417.722 67.3663 420.737C70.3798 423.752 74.4672 425.448 78.7302 425.45H255.87C260.135 425.45 264.225 423.756 267.24 420.741C270.256 417.725 271.95 413.635 271.95 409.37V180.45C272.106 180.466 272.264 180.466 272.42 180.45C273.081 180.45 273.714 180.188 274.181 179.721C274.648 179.254 274.91 178.621 274.91 177.96V153.03C274.91 152.37 274.648 151.737 274.181 151.27C273.714 150.803 273.081 150.54 272.42 150.54C272.264 150.53 272.107 150.53 271.95 150.54V145.03C272.106 145.046 272.264 145.046 272.42 145.03C273.081 145.028 273.715 144.763 274.181 144.295C274.648 143.826 274.91 143.192 274.91 142.53V117.61C274.908 116.951 274.644 116.319 274.178 115.852C273.712 115.386 273.08 115.123 272.42 115.12C272.264 115.105 272.106 115.105 271.95 115.12V109.53C272.105 109.562 272.262 109.579 272.42 109.58ZM262.66 401.2H71.9602V44.7403H262.66V401.2Z" fill="#263238"/>
<path d="M197.32 298.76V287.76L185.81 286.45C185.469 284.227 184.933 282.039 184.21 279.91L193.79 272.91L188.19 263.34L177.55 267.89C176.121 266.139 174.549 264.51 172.85 263.02L177.6 252.21L167.89 246.69L160.98 255.86C158.859 255.037 156.671 254.398 154.44 253.95L153.07 242.26H141.87L140.54 253.61C138.29 253.948 136.072 254.477 133.91 255.19L126.79 245.74L117.08 251.26L121.69 261.76C119.917 263.158 118.267 264.708 116.76 266.39L105.76 261.71L100.16 271.27L109.46 278.09C108.628 280.175 107.982 282.33 107.53 284.53L95.6602 285.82V296.82L107.17 298.13C107.515 300.353 108.054 302.541 108.78 304.67L99.1902 311.67L104.79 321.23L115.43 316.69C116.859 318.44 118.431 320.069 120.13 321.56L115.38 332.37L125.09 337.89L132 328.72C134.123 329.538 136.311 330.177 138.54 330.63L139.91 342.31H151.11L152.48 331.03C154.731 330.691 156.949 330.163 159.11 329.45L166.23 338.9L175.94 333.37L171.33 322.88C173.104 321.481 174.753 319.932 176.26 318.25L187.26 322.93L192.86 313.36L183.56 306.55C184.394 304.461 185.04 302.303 185.49 300.1L197.32 298.76ZM146.51 318.57C141.329 318.497 136.285 316.894 132.012 313.962C127.739 311.03 124.428 306.901 122.496 302.093C120.564 297.285 120.096 292.013 121.151 286.94C122.206 281.867 124.738 277.219 128.428 273.58C132.117 269.942 136.8 267.475 141.888 266.491C146.975 265.507 152.24 266.048 157.021 268.048C161.801 270.047 165.884 273.415 168.756 277.729C171.627 282.042 173.16 287.108 173.16 292.29C173.137 295.765 172.429 299.202 171.076 302.404C169.724 305.606 167.754 308.51 165.28 310.951C162.805 313.391 159.873 315.32 156.653 316.628C153.432 317.935 149.986 318.595 146.51 318.57Z" stroke="#263238" stroke-miterlimit="10"/>
<path d="M246.941 243.58V236.44L239.511 235.59C239.296 234.157 238.962 232.746 238.511 231.37L244.711 226.84L241.081 220.65L234.211 223.59C233.301 222.457 232.297 221.404 231.211 220.44L234.281 213.44L228.011 209.87L223.541 215.8C222.173 215.265 220.761 214.85 219.321 214.56L218.431 207.01H211.191L210.331 214.34C208.879 214.554 207.447 214.888 206.051 215.34L201.441 209.24L195.171 212.81L198.171 219.59C197.022 220.495 195.954 221.498 194.981 222.59L187.891 219.59L184.271 225.78L190.271 230.18C189.731 231.53 189.313 232.925 189.021 234.35L181.351 235.22V242.36L188.791 243.21C189 244.643 189.335 246.055 189.791 247.43L183.591 251.96L187.211 258.15L194.091 255.21C195 256.342 196.004 257.396 197.091 258.36L194.021 265.36L200.291 268.93L204.761 263.03C206.128 263.568 207.54 263.983 208.981 264.27L209.871 271.82H217.111L217.971 264.49C219.423 264.276 220.854 263.941 222.251 263.49L226.851 269.59L233.131 266.02L230.131 259.24C231.28 258.335 232.347 257.331 233.321 256.24L240.401 259.24L244.031 253.05L238.031 248.65C238.57 247.3 238.989 245.904 239.281 244.48L246.941 243.58ZM214.111 256.38C210.758 256.336 207.493 255.303 204.727 253.408C201.96 251.514 199.815 248.844 198.562 245.734C197.309 242.624 197.004 239.213 197.684 235.93C198.365 232.647 200.001 229.639 202.387 227.283C204.773 224.928 207.803 223.33 211.094 222.692C214.386 222.054 217.792 222.403 220.886 223.696C223.98 224.989 226.622 227.168 228.48 229.958C230.339 232.749 231.33 236.027 231.331 239.38C231.316 241.627 230.859 243.849 229.986 245.919C229.113 247.99 227.841 249.868 226.242 251.446C224.642 253.025 222.748 254.273 220.667 255.12C218.585 255.966 216.358 256.394 214.111 256.38Z" stroke="#263238" stroke-miterlimit="10"/>
<path opacity="0.3" d="M361.85 141.97L364.47 134.7L358.42 131.4L353.72 137.54C352.371 137.221 350.987 137.07 349.6 137.09L346.31 130.09L339.71 132.03L340.71 139.69C339.537 140.425 338.456 141.298 337.49 142.29L330.22 139.68L326.92 145.73L333.06 150.42C332.743 151.77 332.592 153.153 332.61 154.54L325.61 157.84L327.56 164.44L335.21 163.44C335.949 164.614 336.825 165.695 337.82 166.66L335.21 173.93L341.21 177.23L345.91 171.09C347.26 171.407 348.644 171.558 350.03 171.54L353.32 178.54L359.93 176.6L358.93 168.94C360.107 168.21 361.189 167.337 362.15 166.34L369.43 168.95L372.72 162.95L366.59 158.25C366.9 156.899 367.047 155.516 367.03 154.13L374.03 150.84L372.09 144.23L364.43 145.23C364.25 144.94 364.06 144.66 363.87 144.38M341.66 161.51C339.918 159.522 338.96 156.967 338.965 154.324C338.971 151.68 339.939 149.129 341.689 147.148C343.44 145.167 345.852 143.892 348.474 143.561C351.097 143.23 353.75 143.866 355.938 145.35C358.125 146.834 359.697 149.065 360.359 151.624C361.021 154.183 360.728 156.896 359.534 159.254C358.34 161.613 356.328 163.456 353.874 164.438C351.42 165.42 348.692 165.474 346.2 164.59" stroke="black" stroke-linecap="round" stroke-linejoin="round"/>
<path opacity="0.3" d="M350.22 118.14C348.604 118.634 346.866 118.551 345.304 117.905C343.743 117.259 342.454 116.091 341.659 114.6C340.863 113.109 340.611 111.388 340.944 109.731C341.277 108.074 342.175 106.585 343.485 105.517C344.795 104.45 346.435 103.87 348.125 103.878C349.815 103.886 351.45 104.481 352.749 105.561C354.049 106.641 354.933 108.139 355.251 109.799C355.568 111.458 355.299 113.177 354.49 114.66C354.289 115.04 354.052 115.398 353.78 115.73M338.31 124.3L342.36 126.51L345.5 122.4C346.403 122.618 347.331 122.719 348.26 122.7L350.47 127.38L354.89 126.08L354.21 120.95C354.996 120.462 355.718 119.877 356.36 119.21L361.23 120.96L363.44 116.91L359.33 113.77C359.547 112.873 359.657 111.953 359.66 111.03L364.33 108.83L363.03 104.41L357.91 105.09C357.418 104.301 356.83 103.575 356.16 102.93L357.91 98.0602L353.91 95.8602L350.76 99.9602C349.859 99.7502 348.935 99.6528 348.01 99.6702L345.8 94.9902L341.38 96.2902L342.06 101.41C341.276 101.906 340.554 102.493 339.91 103.16L335.04 101.41L332.83 105.41L336.94 108.55C336.731 109.455 336.63 110.382 336.64 111.31L331.97 113.51L333.27 117.93L338.39 117.25C338.884 118.035 339.468 118.76 340.13 119.41L338.31 124.3Z" stroke="black" stroke-linecap="round" stroke-linejoin="round"/>
<path d="M86.9395 17.0303V355.62C86.9367 356.436 87.1998 357.23 87.6889 357.882C88.1779 358.534 88.8663 359.01 89.6496 359.236C90.433 359.462 91.2687 359.426 92.0302 359.135C92.7917 358.843 93.4373 358.312 93.8695 357.62C94.2418 357.02 94.4391 356.327 94.4395 355.62V17.0303" stroke="#263238" stroke-miterlimit="10"/>
<path d="M113.8 115.03C113.938 115.59 114.197 116.113 114.56 116.56C115.18 117.33 116.25 116.87 116.25 117.79C116.25 118.71 114.72 119.93 114.72 119.93C114.72 119.93 114.26 124.83 113.34 126.36C112.42 127.89 107.83 126.52 107.83 126.52L106.6 130.34L93.2802 129.27L94.0402 124.27L92.6602 116.55C92.6602 116.55 93.2702 113.49 95.7202 112.42C98.1702 111.35 107.97 112.11 109.81 112.42C111.65 112.73 113.8 115.03 113.8 115.03Z" fill="white" stroke="#263238" stroke-miterlimit="10"/>
<path d="M92.6602 116.551C92.6602 116.551 93.2702 122.681 94.0302 124.211C94.7902 125.741 97.4002 126.351 101.23 125.741C105.06 125.131 106.74 123.901 107.23 122.371C107.72 120.841 108.61 118.081 109.23 117.931C109.85 117.781 110 117.781 110.31 118.701C110.62 119.621 109.54 120.531 110.61 119.621C111.68 118.711 111.99 114.721 111.99 114.721C111.99 114.721 102.66 115.941 98.6602 115.941C96.7152 115.981 94.7699 115.877 92.8402 115.631L92.6602 116.551Z" fill="#263238" stroke="#263238" stroke-miterlimit="10"/>
<path d="M92.0501 116.4C92.0501 116.4 91.7501 123.29 95.7301 125.74C99.7101 128.19 104.61 125.59 106.45 123.9C108.29 122.21 109.2 117.01 109.2 117.01L107.37 117.17C107.37 117.17 107.98 120.99 103.37 122.37C98.7601 123.75 97.3701 123.44 96.0301 122.37C94.6901 121.3 92.6601 116.55 92.6601 116.55L92.0501 116.4Z" fill="white" stroke="#263238" stroke-miterlimit="10"/>
<path d="M92.2095 109.66C92.2095 109.66 92.3595 114.87 91.8995 115.66L91.4395 116.43C91.4395 116.43 94.0395 119.19 103.079 118.57C108.372 118.259 113.491 116.569 117.929 113.67L115.019 110.92C115.019 110.92 115.179 105.1 111.019 101.73C106.859 98.36 97.2395 100.51 94.7895 103.57C92.3395 106.63 92.0495 108.59 92.2095 109.66Z" fill="white" stroke="#263238" stroke-miterlimit="10"/>
<path d="M78.2697 166.32L77.9697 172.44L107.83 173.05L107.21 167.24C107.21 167.24 104.76 166.01 97.2097 164.94C91.8221 164.319 86.3872 164.215 80.9797 164.63C80.1052 164.651 79.2346 164.755 78.3797 164.94L78.2697 166.32Z" fill="#F05454" stroke="#263238" stroke-miterlimit="10"/>
<path d="M157.6 103.5H153.03H152.59H148.01L151.75 105.99V122.39H153.7V106.02L153.86 105.99L157.6 103.5Z" fill="white" stroke="#263238" stroke-miterlimit="10"/>
<path d="M167.31 102.41H137.88V104.04H167.31V102.41Z" fill="white" stroke="#263238" stroke-miterlimit="10"/>
<path d="M81.4502 131.36C81.4502 131.36 77.3902 133.5 77.3902 137.13C77.3902 140.76 69.6602 153.8 69.6602 160.85C69.6602 167.9 74.1402 166.85 77.1302 165.33C79.2678 164.192 81.279 162.831 83.1302 161.27L84.8702 133.03C84.8702 133.03 84.4402 131.15 81.4502 131.36Z" fill="white" stroke="#263238" stroke-miterlimit="10"/>
<path d="M81.4496 131.36C81.4496 131.36 77.3896 133.5 77.3896 137.13C77.3896 138.67 75.9996 141.91 74.3896 145.67L83.7296 151.67L84.8696 133.03C84.8696 133.03 84.4396 131.15 81.4496 131.36Z" fill="white" stroke="#263238" stroke-miterlimit="10"/>
<path d="M108.13 131.101C107.602 130.039 106.742 129.179 105.68 128.651C104 127.881 96.4898 126.511 93.8898 126.511C93.059 126.573 92.2539 126.826 91.5374 127.251C90.821 127.676 90.2125 128.261 89.7598 128.961L108.13 131.101Z" fill="white" stroke="#263238" stroke-miterlimit="10"/>
<path d="M91.4401 128.5C88.4764 129.042 85.558 129.808 82.7101 130.79C78.4301 132.32 78.5801 136.79 78.4301 140.79C78.2801 144.79 77.9701 160.08 77.8101 162.22C77.6501 164.36 77.6601 166.05 78.2701 166.36C78.8801 166.67 89.1401 165.29 95.2701 166.05C101.4 166.81 105.68 168.65 107.21 167.74C108.74 166.83 109.05 164.52 109.05 162.84C109.05 161.16 115.48 147.98 115.48 147.98C115.48 147.98 139.06 152.42 139.48 152.27C139.9 152.12 153 128.03 153 128.03C153 128.03 156.36 125.73 156.82 124.96C157.28 124.19 156.67 120.07 156.67 119.61C156.67 119.15 156.82 117.61 156.82 116.54C156.82 115.47 154.99 114.54 154.68 115.01C154.416 115.357 154.107 115.667 153.76 115.93L152.23 118.07C152.127 116.969 151.868 115.889 151.46 114.86C151.01 114.25 149.17 114.86 149.93 116.08C150.232 116.505 150.395 117.014 150.395 117.535C150.395 118.057 150.232 118.565 149.93 118.99C149.274 120.376 148.959 121.898 149.01 123.43C148.932 125.139 148.678 126.835 148.25 128.49C148.25 128.49 136.92 138.6 135.66 139.83C135.061 140.407 134.5 141.022 133.98 141.67C133.98 141.67 122.65 135.39 119.89 134.16C117.13 132.93 108.1 131.1 108.1 131.1C108.1 131.1 96.6601 128.5 91.4401 128.5Z" fill="white" stroke="#263238" stroke-miterlimit="10"/>
<path d="M119.92 134.16C117.17 132.94 108.13 131.1 108.13 131.1C108.13 131.1 96.6501 128.5 91.4401 128.5C88.4764 129.042 85.558 129.807 82.7101 130.79C78.4301 132.32 78.5801 136.79 78.4301 140.79C78.2801 144.79 77.9701 160.08 77.8101 162.22C77.6501 164.36 77.6601 166.05 78.2701 166.36C78.8801 166.67 89.1401 165.29 95.2701 166.05C101.4 166.81 105.68 168.65 107.21 167.74C108.74 166.83 109.05 164.52 109.05 162.84C109.05 161.16 115.48 147.98 115.48 147.98L123.3 149.44L127.4 138.09C124.39 136.42 121.21 134.74 119.92 134.16Z" fill="white" stroke="#263238" stroke-miterlimit="10"/>
<path d="M102.66 167.42C99.7877 162.069 97.2722 156.533 95.1301 150.85C92.4434 143.776 90.4018 136.473 89.0301 129.03C88.0301 129.25 86.8601 129.55 85.5801 129.92L85.7801 130.07L85.9301 130.64C86.9301 134.54 93.2101 157.4 97.6801 166.42C99.5801 166.71 101.24 167.11 102.66 167.42Z" fill="#F05454" stroke="#263238" stroke-miterlimit="10"/>
<path d="M80.2998 166.29L84.5398 166L109.42 131.37L108.13 131.1L105.38 130.79L80.2998 166.29Z" fill="#F05454" stroke="#263238" stroke-miterlimit="10"/>
<path d="M124.06 192.961C124.06 192.961 76.5896 193.731 75.3596 192.961C74.1296 192.191 71.6896 189.901 72.9096 183.961C73.9102 179.864 75.6229 175.975 77.9696 172.471L107.83 173.081L109.83 178.291C109.83 178.291 122.69 180.891 127.28 184.291C131.87 187.691 125.75 193.481 125.75 193.481" fill="#263238"/>
<path d="M124.06 192.961C124.06 192.961 76.5896 193.731 75.3596 192.961C74.1296 192.191 71.6896 189.901 72.9096 183.961C73.9102 179.864 75.6229 175.975 77.9696 172.471L107.83 173.081L109.83 178.291C109.83 178.291 122.69 180.891 127.28 184.291C131.87 187.691 125.75 193.481 125.75 193.481" stroke="#263238" stroke-miterlimit="10"/>
<path d="M109.82 178.261C109.82 178.261 110.73 182.261 111.04 183.621L109.82 178.261Z" fill="white"/>
<path d="M109.82 178.261C109.82 178.261 110.73 182.261 111.04 183.621" stroke="#263238" stroke-miterlimit="10"/>
<path d="M75.5195 194.641L79.3495 231.851L88.3495 232.461C88.3495 232.461 89.4195 203.531 89.4195 202.911C89.4195 202.291 90.3395 194.801 90.3395 194.801L75.5195 194.641Z" fill="#263238" stroke="#263238" stroke-miterlimit="10"/>
<path d="M79.3494 231.851C79.3494 231.851 78.4294 239.361 79.1894 240.121C79.9494 240.881 86.6894 241.041 87.6094 240.121C88.5294 239.201 88.2294 231.851 88.2294 231.851H79.3494Z" fill="white" stroke="#263238" stroke-miterlimit="10"/>
<path d="M88.1902 237.49L78.9002 237.38C78.7685 238.303 78.8681 239.245 79.1902 240.12C79.9602 240.89 86.6902 241.04 87.6102 240.12C88.023 239.306 88.2226 238.401 88.1902 237.49Z" fill="white" stroke="#263238" stroke-miterlimit="10"/>
<path d="M111.19 194.95L106.91 232.62H115.48C116.049 231.176 116.51 229.692 116.86 228.18C116.698 227.139 116.44 226.114 116.09 225.12L124.36 195.56L111.19 194.95Z" fill="#263238" stroke="#263238" stroke-miterlimit="10"/>
<path d="M115.479 232.62C115.479 232.62 118.389 235.37 120.229 235.99C122.069 236.61 124.519 237.67 124.519 238.59C124.519 239.51 119.919 239.97 116.519 239.97C113.022 239.743 109.545 239.282 106.109 238.59L106.879 232.59L115.479 232.62Z" fill="white" stroke="#263238" stroke-miterlimit="10"/>
<path d="M124.52 238.59C124.497 238.358 124.386 238.144 124.21 237.99C122.285 238.29 120.339 238.441 118.39 238.44C114.39 238.44 108.46 237.01 106.39 236.44L106.12 238.55C109.555 239.243 113.033 239.704 116.53 239.93C119.92 239.97 124.52 239.51 124.52 238.59Z" fill="white" stroke="#263238" stroke-miterlimit="10"/>
<path d="M126.35 217.311C126.35 217.311 130.49 206.891 132.17 201.231C133.85 195.571 135.08 198.011 135.08 200.161C135.08 202.311 128.34 217.461 128.08 218.681C127.82 219.901 125.28 219.761 126.35 217.311Z" fill="white" stroke="#263238" stroke-miterlimit="10"/>
<path d="M130.45 236.6H113.83L110.27 213.17H134.01L130.45 236.6Z" fill="white" stroke="#263238" stroke-miterlimit="10"/>
<path d="M111.66 213.03C111.66 213.03 112.98 200.93 122.38 201.09C131.78 201.25 132.66 213.03 132.66 213.03" stroke="#263238" stroke-miterlimit="10"/>
<path d="M129.11 192.65H64.3398V196.17H129.11V192.65Z" fill="white" stroke="#263238" stroke-miterlimit="10"/>
<path d="M129.11 192.65H114.72V196.17H129.11V192.65Z" fill="white" stroke="#263238" stroke-miterlimit="10"/>
<path d="M137.26 75.8204V71.4404" stroke="#263238" stroke-miterlimit="10"/>
<path d="M137.26 100.26V78.9004" stroke="#263238" stroke-miterlimit="10"/>
<path d="M167.63 100.52V85.3398" stroke="#263238" stroke-miterlimit="10"/>
<path d="M198.77 425.45H191.01L201.36 353.34H209.12L198.77 425.45Z" fill="#263238" stroke="#263238" stroke-miterlimit="10"/>
<path d="M214.29 425.45H222.05L211.7 353.34H203.94L214.29 425.45Z" fill="white" stroke="#263238" stroke-miterlimit="10"/>
<path d="M308.86 425.45H301.1L311.45 353.34H319.21L308.86 425.45Z" fill="#263238" stroke="#263238" stroke-miterlimit="10"/>
<path d="M324.38 425.45H332.14L321.79 353.34H314.04L324.38 425.45Z" fill="white" stroke="#263238" stroke-miterlimit="10"/>
<path d="M329.8 342.03H181.83V356.38H329.8V342.03Z" fill="#F05454" stroke="#263238" stroke-miterlimit="10"/>
<path d="M333.41 342.03H185.44V356.38H333.41V342.03Z" fill="#F05454" stroke="#263238" stroke-miterlimit="10"/>
<path d="M187.86 356.38H200.42L206.91 342.03H194.35L187.86 356.38Z" fill="#263238"/>
<path d="M237.571 342.03H225.011L218.521 356.38H231.081L237.571 342.03Z" fill="#263238"/>
<path d="M329.56 342.03H317L310.51 356.38H323.07L329.56 342.03Z" fill="#263238"/>
<path d="M298.9 342.03H286.34L279.85 356.38H292.41L298.9 342.03Z" fill="#263238"/>
<path d="M268.23 342.03H255.67L249.18 356.38H261.74L268.23 342.03Z" fill="#263238"/>
<path d="M332.6 348.391H308.11" stroke="#263238" stroke-miterlimit="10"/>
<path d="M332.17 350.79H328.3" stroke="#263238" stroke-miterlimit="10"/>
<path d="M184.811 350.19H209.301" stroke="#263238" stroke-miterlimit="10"/>
<path d="M185.24 347.49H216.17" stroke="#263238" stroke-miterlimit="10"/>
<path d="M369.71 422.62H331.98V425.45H369.71V422.62Z" fill="#263238" stroke="#263238" stroke-linecap="round" stroke-linejoin="round"/>
<path d="M363.341 422.54H338.351L348.151 369.24H353.551L363.341 422.54Z" fill="#F05454" stroke="#263238" stroke-linecap="round" stroke-linejoin="round"/>
<path d="M344.5 389.05H357.19L355.97 382.45H345.72L344.5 389.05Z" fill="white" stroke="#263238" stroke-linecap="round" stroke-linejoin="round"/>
<path d="M359.591 413.641L360.211 417.291" stroke="#263238" stroke-linecap="round" stroke-linejoin="round"/>
<path d="M352.45 372.19L358.8 409.06" stroke="#263238" stroke-linecap="round" stroke-linejoin="round"/>
</g>
<defs>
<filter id="filter0_d_79_34911" x="0.374023" y="0" width="470.786" height="433.95" filterUnits="userSpaceOnUse" color-interpolation-filters="sRGB">
<feFlood flood-opacity="0" result="BackgroundImageFix"/>
<feColorMatrix in="SourceAlpha" type="matrix" values="0 0 0 0 0 0 0 0 0 0 0 0 0 0 0 0 0 0 127 0" result="hardAlpha"/>
<feOffset dy="4"/>
<feGaussianBlur stdDeviation="2"/>
<feComposite in2="hardAlpha" operator="out"/>
<feColorMatrix type="matrix" values="0 0 0 0 0 0 0 0 0 0 0 0 0 0 0 0 0 0 0.25 0"/>
<feBlend mode="normal" in2="BackgroundImageFix" result="effect1_dropShadow_79_34911"/>
<feBlend mode="normal" in="SourceGraphic" in2="effect1_dropShadow_79_34911" result="shape"/>
</filter>
</defs>
</svg>
