<svg width="87" height="58" viewBox="0 0 87 58" fill="none" xmlns="http://www.w3.org/2000/svg">
<path d="M26.3038 32.3797C34.6929 32.3797 41.4937 25.579 41.4937 17.1899C41.4937 8.80074 34.6929 2 26.3038 2C17.9147 2 11.1139 8.80074 11.1139 17.1899C11.1139 25.579 17.9147 32.3797 26.3038 32.3797ZM26.3038 32.3797C12.8812 32.3797 2 40.5406 2 50.6076M26.3038 32.3797C39.7264 32.3797 50.6076 40.5406 50.6076 50.6076" stroke="#30475E" stroke-width="4" stroke-linecap="round"/>
<path d="M60.3038 32.3797C68.6929 32.3797 75.4937 25.579 75.4937 17.1899C75.4937 8.80074 68.6929 2 60.3038 2C51.9147 2 45.1139 8.80074 45.1139 17.1899C45.1139 25.579 51.9147 32.3797 60.3038 32.3797ZM60.3038 32.3797C46.8812 32.3797 36 40.5406 36 50.6076M60.3038 32.3797C73.7264 32.3797 84.6076 40.5406 84.6076 50.6076" stroke="#30475E" stroke-width="4" stroke-linecap="round"/>
<path d="M43.3038 37.3797C51.6929 37.3797 58.4937 30.579 58.4937 22.1899C58.4937 13.8007 51.6929 7 43.3038 7C34.9147 7 28.1139 13.8007 28.1139 22.1899C28.1139 30.579 34.9147 37.3797 43.3038 37.3797ZM43.3038 37.3797C29.8812 37.3797 19 45.5406 19 55.6076M43.3038 37.3797C56.7264 37.3797 67.6076 45.5406 67.6076 55.6076" stroke="#F05454" stroke-width="4" stroke-linecap="round"/>
<circle cx="43.5" cy="22.5" r="14.5" fill="white"/>
</svg>
