<svg width="61" height="60" viewBox="0 0 61 60" fill="none" xmlns="http://www.w3.org/2000/svg">
<rect opacity="0.1" x="4.03809" y="2.61328" width="39.9056" height="10.8078" rx="5.40388" fill="#FF0000"/>
<rect opacity="0.1" x="10.5703" y="45.6064" width="39.9056" height="10.8078" rx="5.40388" fill="#FF0000"/>
<path d="M3.68176 0.187153C2.24469 0.685974 1.03327 1.77863 0.380053 3.14444C0.0118767 3.91642 0 4.01144 0 5.44851C0 6.92122 0 6.94497 0.439436 7.82384C0.997639 8.95213 1.9834 9.92601 3.11168 10.4605L3.9193 10.8405L9.34693 10.8761L14.7746 10.9118L14.3945 11.7075C14.0263 12.4676 14.0145 12.5626 14.0145 13.9878C14.0145 15.413 14.0263 15.508 14.3945 16.2681L14.7627 17.052L12.5418 17.0995L10.3208 17.1351L9.43007 17.5746C8.30178 18.1328 7.3279 19.1185 6.79345 20.2468C6.42527 21.0188 6.4134 21.1138 6.4134 22.539C6.4134 23.9642 6.42527 24.0592 6.79345 24.8193C6.99535 25.2588 7.42291 25.8882 7.73171 26.2208L8.28991 26.8146L7.73171 27.4085C7.42291 27.741 6.99535 28.3705 6.79345 28.8099C6.42527 29.57 6.4134 29.665 6.4134 31.0902C6.4134 32.5154 6.42527 32.6104 6.79345 33.3705C6.99535 33.81 7.42291 34.4394 7.73171 34.772L8.28991 35.3658L7.73171 35.9597C7.42291 36.2922 6.99535 36.9217 6.79345 37.3611C6.42527 38.1212 6.4134 38.2162 6.4134 39.6414C6.4134 41.0666 6.42527 41.1616 6.79345 41.9217C6.99535 42.3612 7.42291 42.9906 7.73171 43.3232L8.28991 43.917L7.73171 44.5108C7.42291 44.8434 6.99535 45.4729 6.79345 45.9123C6.42527 46.6724 6.4134 46.7674 6.4134 48.2045C6.4134 49.6772 6.4134 49.7009 6.85283 50.5798C7.41104 51.7081 8.3968 52.682 9.52508 53.2164L10.3327 53.5965L17.9694 53.6321L25.6061 53.6677L26.8769 54.796C29.6916 57.3139 32.8271 58.9172 36.5564 59.7367C37.6253 59.9743 38.0884 60.0099 40.6182 59.998C43.3142 59.998 43.5398 59.9861 44.8938 59.6655C52.8511 57.8008 58.6826 51.8862 60.4166 43.917C60.6541 42.8125 60.6897 42.3493 60.6779 39.8789C60.6779 37.4324 60.6422 36.9335 60.4166 35.8409C59.2883 30.6152 56.331 26.1614 51.9841 23.1566C50.8202 22.349 48.3974 21.1376 47.0553 20.6863C46.0933 20.3775 45.9745 20.2943 45.7726 19.9024L45.547 19.4748L47.7798 19.4273L50.0126 19.3917L50.9034 18.9523C52.0316 18.3941 53.0055 17.4083 53.54 16.28C53.9082 15.508 53.92 15.413 53.92 13.9878C53.92 12.5626 53.9082 12.4676 53.54 11.6956C53.0055 10.5674 52.0316 9.58159 50.9034 9.02339L50.0126 8.58395L44.585 8.54832L39.1455 8.51269L39.5255 7.71696C39.8937 6.95685 39.9056 6.86184 39.9056 5.43664C39.9056 4.01144 39.8937 3.91642 39.5255 3.14444C38.9911 2.01616 38.0172 1.0304 36.8889 0.472195L35.9982 0.0327568L20.1428 0.00900269C5.33262 -0.0147476 4.23997 -0.00287247 3.68176 0.187153ZM35.5825 2.60999C36.2119 2.88316 36.9483 3.59576 37.2215 4.17771C37.554 4.86656 37.554 6.00672 37.2215 6.69556C36.9483 7.27752 36.2119 7.99012 35.5825 8.26328C35.1905 8.45331 33.8366 8.46519 19.9528 8.46519H4.75066L4.19246 8.19202C3.563 7.88323 2.8504 7.14688 2.60099 6.55304C2.38721 6.04235 2.38721 4.83093 2.60099 4.32023C2.98104 3.41761 3.95493 2.63375 4.90506 2.46747C5.21385 2.41997 12.1498 2.38433 20.3091 2.39621C33.8366 2.40809 35.1905 2.41997 35.5825 2.60999ZM49.5969 11.1612C50.2264 11.4343 50.9627 12.1469 51.2359 12.7289C51.5685 13.4178 51.5685 14.5579 51.2359 15.2468C50.9627 15.8287 50.2264 16.5413 49.5969 16.8145C49.205 17.0045 47.8511 17.0164 33.9672 17.0164H18.7651L18.2069 16.7432C17.5775 16.4344 16.8649 15.6981 16.6154 15.1042C16.4017 14.5935 16.4017 13.3821 16.6154 12.8714C16.9955 11.9688 17.9694 11.1849 18.9195 11.0187C19.2283 10.9712 26.1643 10.9355 34.3235 10.9474C47.8511 10.9593 49.205 10.9712 49.5969 11.1612ZM41.2714 19.558C41.6514 19.6174 41.2239 19.6649 39.7274 19.7124C38.2904 19.7599 37.2808 19.8668 36.4613 20.0449C33.029 20.7694 29.7985 22.3965 27.1025 24.7362L26.0693 25.6388L18.6107 25.6032L11.1641 25.5676L10.6059 25.2944C9.97639 24.9856 9.26379 24.2493 9.01438 23.6554C8.8006 23.1447 8.8006 21.9333 9.01438 21.4226C9.39444 20.52 10.3683 19.7361 11.3185 19.5699C12.0192 19.4511 40.5469 19.4392 41.2714 19.558ZM43.2904 22.3609C50.5114 23.4417 56.4141 29.0949 57.9818 36.4347C58.2906 37.8599 58.2906 41.8861 57.9818 43.2994C56.8061 48.7508 53.3024 53.3233 48.4568 55.7343C46.224 56.8388 44.1812 57.4089 41.8415 57.5514C38.4923 57.7652 35.6062 57.1951 32.6608 55.7343C27.8151 53.3233 24.2878 48.7271 23.1357 43.3232C22.8269 41.8861 22.8269 37.8718 23.1357 36.4347C24.2878 31.0308 27.8151 26.4464 32.6608 24.0236C36.0457 22.3371 39.5136 21.8027 43.2904 22.3609ZM24.0502 28.0617C24.0502 28.0854 23.8127 28.4774 23.5277 28.9168C22.8269 30.0213 22.0906 31.5059 21.5443 32.9311L21.0929 34.1188H16.1285C11.1878 34.1188 11.1641 34.1188 10.6059 33.8456C9.97639 33.5368 9.26379 32.8005 9.01438 32.2066C8.8006 31.6959 8.8006 30.4845 9.01438 29.9738C9.39444 29.0712 10.3683 28.2873 11.3185 28.1211C11.9004 28.026 24.0502 27.9667 24.0502 28.0617ZM20.511 36.9335C20.4635 37.1473 20.4279 38.5488 20.4279 40.0333V42.7412L15.796 42.7056C11.2353 42.67 11.1522 42.67 10.6059 42.3968C9.97639 42.088 9.26379 41.3517 9.01438 40.7578C8.8006 40.2471 8.8006 39.0357 9.01438 38.525C9.39444 37.6224 10.3683 36.8385 11.3185 36.6722C11.6272 36.6247 13.8363 36.5772 16.2354 36.5654L20.606 36.5535L20.511 36.9335ZM21.4136 46.4705C21.9006 47.8363 22.7319 49.5941 23.4208 50.663L23.8127 51.2924L17.4943 51.2568L11.1641 51.2212L10.6059 50.948C9.97639 50.6392 9.26379 49.9028 9.01438 49.309C8.8006 48.7983 8.8006 47.5869 9.01438 47.0762C9.39444 46.1736 10.3683 45.3897 11.3185 45.2234C11.6272 45.1759 13.9194 45.1403 16.4254 45.1522L20.9623 45.1641L21.4136 46.4705Z" fill="#282828"/>
<path d="M41.4616 24.7484C41.2122 24.9978 41.1528 25.176 41.1528 25.6273C41.1528 26.423 41.5566 26.8149 42.3643 26.8149C42.8512 26.8149 43.0056 26.7556 43.3025 26.4705C43.5757 26.1974 43.6469 26.0192 43.6469 25.6273C43.6469 25.2353 43.5757 25.0572 43.3025 24.784C43.0056 24.499 42.8512 24.4396 42.3643 24.4396C41.8892 24.4396 41.7229 24.499 41.4616 24.7484Z" fill="#282828"/>
<path d="M46.1408 25.9592C45.8439 26.1017 45.6776 26.2917 45.5826 26.5886C45.3094 27.4438 45.642 27.8832 47.2928 28.8096C50.167 30.4248 52.5661 33.8334 53.2905 37.3727C53.4806 38.3109 53.5162 38.8216 53.4687 40.2943C53.4093 42.2896 53.2074 43.2516 52.4829 44.9618C51.7941 46.5889 51.7941 47.1947 52.4711 47.5985C53.5993 48.2873 54.3119 47.5747 55.2264 44.8312C55.8678 42.9072 56.034 41.6958 55.9628 39.3442C55.9034 37.0876 55.6184 35.698 54.8701 33.9284C53.4687 30.5911 50.9152 27.8001 47.851 26.2086C46.8415 25.686 46.7227 25.6623 46.1408 25.9592Z" fill="#282828"/>
<path d="M39.7395 30.3301C39.4664 30.5558 39.3595 30.7695 39.3001 31.1971C39.2288 31.7553 39.2288 31.7672 38.4568 32.0997C37.4711 32.5273 36.4022 33.513 35.9865 34.3563C35.1195 36.1259 35.5589 38.3825 37.0198 39.7008C37.9461 40.5321 39.3238 41.0666 40.5471 41.0666C41.1291 41.0666 41.711 41.2685 42.198 41.6367C42.7918 42.0642 43.0531 42.5749 43.0531 43.2757C43.0531 45.069 40.654 46.0667 39.0032 44.9503C38.445 44.5702 38.1005 44.012 38.0055 43.2994C37.8868 42.4799 37.4473 42.0167 36.7822 42.0167C35.8321 42.0167 35.3927 42.7293 35.5946 43.9764C35.8559 45.6747 37.186 47.1356 39.0388 47.7532C39.1576 47.7888 39.2645 48.0144 39.312 48.3232C39.4307 49.0358 39.9177 49.499 40.5471 49.499C41.236 49.499 41.6517 49.1071 41.7348 48.3707C41.8061 47.8244 41.8179 47.8007 42.3049 47.6581C43.4688 47.3137 44.6208 46.2923 45.179 45.1165C45.4522 44.5346 45.4878 44.3089 45.4878 43.2044C45.4878 42.0642 45.4522 41.898 45.1553 41.3279C44.2645 39.6414 42.8987 38.7744 40.7847 38.5725C38.9913 38.4062 38.0412 37.6461 38.0412 36.3753C38.0412 35.152 39.1694 34.1781 40.559 34.1781C41.2716 34.1781 41.9129 34.4275 42.3761 34.867C42.8275 35.2945 43.0056 35.6627 43.1125 36.3634C43.2788 37.5749 44.4427 38.0143 45.274 37.1948C45.5591 36.9098 45.571 36.8385 45.5235 35.9834C45.4522 34.8195 45.0365 33.9287 44.1695 33.1092C43.5994 32.5629 42.2692 31.8028 41.9011 31.8028C41.7942 31.8028 41.7467 31.6128 41.7467 31.2565C41.7467 30.1519 40.5828 29.6175 39.7395 30.3301Z" fill="#282828"/>
<path d="M27.3401 32.1119C26.9363 32.3257 26.4256 33.3233 25.8911 34.9267C25.3329 36.6132 25.1191 37.9552 25.1191 39.8792C25.1191 41.8151 25.3329 43.1453 25.903 44.8674C26.7106 47.2665 28.0527 49.3568 29.9173 51.1383C31.0218 52.1835 32.5183 53.2286 33.5991 53.7274C34.2167 54.0125 34.3354 54.0243 34.7511 53.9056C35.3212 53.7393 35.6062 53.3236 35.6062 52.6942C35.6062 52.1122 35.3331 51.7915 34.3829 51.2927C31.0575 49.5112 28.5159 46.0314 27.8033 42.2546C27.5657 41.0194 27.5657 38.7628 27.7914 37.5395C27.9933 36.4706 28.3852 35.2711 28.8484 34.2972C29.3472 33.2402 29.2403 32.4563 28.5634 32.1C28.1358 31.8744 27.7676 31.8744 27.3401 32.1119Z" fill="#282828"/>
<path d="M37.8151 53.2875C37.542 53.5606 37.4707 53.7388 37.4707 54.1307C37.4707 54.5226 37.542 54.7008 37.8151 54.9739C38.112 55.259 38.2664 55.3184 38.7534 55.3184C39.561 55.3184 39.9648 54.9264 39.9648 54.1307C39.9648 53.335 39.561 52.943 38.7534 52.943C38.2664 52.943 38.112 53.0024 37.8151 53.2875Z" fill="#282828"/>
</svg>
