<svg width="70" height="64" viewBox="0 0 70 64" fill="none" xmlns="http://www.w3.org/2000/svg">
<path d="M9.53711 63.2744V57.864H16.2498V20.4797C16.2498 19.2345 16.6987 18.1591 17.5966 17.2533C18.4946 16.3474 19.574 15.8945 20.8349 15.8945H67.9092V19.5015H20.8349C20.5496 19.5015 20.3152 19.5932 20.1319 19.7766C19.9484 19.96 19.8567 20.1944 19.8567 20.4797V57.864H37.7816V63.2744H9.53711ZM48.196 63.2744C47.4137 63.2744 46.7561 62.9626 46.2232 62.339C45.6902 61.7155 45.4237 61.0144 45.4237 60.2359V28.6841C45.4237 27.9078 45.6902 27.2532 46.2232 26.7202C46.7561 26.1873 47.4137 25.9208 48.196 25.9208H66.6271C67.5103 25.9208 68.2933 26.1713 68.976 26.6724C69.6586 27.1735 70 27.844 70 28.6841V60.2465C70 61.0861 69.6719 61.8006 69.0157 62.3901C68.3595 62.9796 67.5699 63.2744 66.6469 63.2744H48.196ZM49.0307 57.864H66.3931V29.5277H49.0307V57.864Z" fill="#30475E"/>
<ellipse cx="17.4848" cy="17.4848" rx="17.4848" ry="17.4848" fill="white"/>
<path d="M15.0801 31.7908L14.3506 27.0131C13.7982 26.8276 13.2032 26.5581 12.5659 26.2045C11.9286 25.851 11.3792 25.4765 10.9177 25.0811L6.40461 27.1047L3.17969 21.4895L7.25824 18.5336C7.20444 18.2544 7.16563 17.9497 7.14183 17.6196C7.11802 17.2895 7.10612 16.9848 7.10612 16.7056C7.10612 16.4366 7.11802 16.1371 7.14183 15.8069C7.16563 15.4768 7.20444 15.1568 7.25824 14.8471L3.17969 11.8759L6.40461 6.30649L10.9022 8.29953C11.3947 7.90416 11.9492 7.53224 12.5659 7.18376C13.1826 6.83528 13.7723 6.57648 14.3351 6.40735L15.0801 1.58984H21.4803L22.2097 6.38287C22.8036 6.59889 23.3975 6.86687 23.9914 7.18682C24.5853 7.50676 25.1202 7.87767 25.5961 8.29953L30.1712 6.30649L33.3807 11.8759L29.2401 14.8288C29.3145 15.1446 29.3611 15.4625 29.3798 15.7825C29.3984 16.1024 29.4077 16.405 29.4077 16.6903C29.4077 16.9655 29.3958 17.2589 29.372 17.5707C29.3482 17.8825 29.3042 18.2065 29.2401 18.5428L33.3651 21.4895L30.1402 27.1047L25.5961 25.0659C25.0933 25.4816 24.5506 25.8652 23.9681 26.2168C23.3856 26.5683 22.7995 26.8286 22.2097 26.9978L21.4803 31.7908H15.0801ZM18.2336 21.1685C19.5 21.1685 20.5745 20.7339 21.457 19.8648C22.3395 18.9956 22.7808 17.9375 22.7808 16.6903C22.7808 15.4432 22.3395 14.385 21.457 13.5159C20.5745 12.6468 19.5 12.2122 18.2336 12.2122C16.9776 12.2122 15.9057 12.6468 15.018 13.5159C14.1303 14.385 13.6864 15.4432 13.6864 16.6903C13.6864 17.9375 14.1303 18.9956 15.018 19.8648C15.9057 20.7339 16.9776 21.1685 18.2336 21.1685Z" fill="#CF4545"/>
</svg>
