<svg width="56" height="64" viewBox="0 0 56 64" fill="none" xmlns="http://www.w3.org/2000/svg">
<mask id="mask0_863_32368" style="mask-type:alpha" maskUnits="userSpaceOnUse" x="0" y="0" width="52" height="64">
<path d="M24.902 0.449097C23.5556 1.53406 19.2549 3.86086 16.732 4.88047C12.0915 6.76282 7.68627 7.7955 2.95425 8.09615C1.68627 8.17458 0.509804 8.29223 0.326797 8.33145L0 8.43602V17.704C0.0130719 27.7432 0.0522876 28.436 0.784314 32.1223C3.26797 44.4752 10.6667 55.0765 21.451 61.7171C23.451 62.9458 25.6863 64.0569 26 63.9785C26.1438 63.9393 26.9935 63.521 27.8824 63.0504C36.4052 58.5145 43.3072 51.2857 47.4118 42.606C49.6601 37.8478 51.2157 32.1484 51.5163 27.5602L51.5948 26.3184L47.7516 30.1484L43.8954 33.9916L43.3726 35.5733C40.5621 44.0439 34.719 51.4295 27.1634 56.0962C26.4967 56.5014 25.8824 56.8412 25.8039 56.8412C25.7255 56.8412 25.2026 56.5667 24.6536 56.2269C16.1438 50.9458 10.0784 42.7759 7.5817 33.2465C6.57516 29.4033 6.37909 27.4818 6.26144 19.8347L6.16993 14.253L6.54902 14.1746C6.75817 14.1354 7.66013 13.9785 8.56209 13.8347C11.5817 13.3249 15.1111 12.3445 18.2353 11.1288C19.8954 10.4752 23.5033 8.77589 24.7582 8.03079C25.2026 7.76936 25.6601 7.56021 25.7778 7.56021C25.8824 7.56021 26.719 7.96544 27.6209 8.44909C31.0327 10.2922 34.0392 11.521 37.9739 12.6582L39.7386 13.1811L42.4314 10.5275C43.9085 9.07655 45.1373 7.84779 45.1373 7.80857C45.1503 7.76936 44.5882 7.62556 43.8954 7.50792C40.5359 6.91968 37.0719 5.83472 33.6601 4.31837C31.3333 3.28569 27.6209 1.18112 26.5621 0.292233C26.0392 -0.139137 25.5948 -0.0999222 24.902 0.449097Z" fill="black"/>
</mask>
<g mask="url(#mask0_863_32368)">
<rect x="-5" y="-5" width="31" height="71" fill="#30475E"/>
<rect x="26" y="-5" width="31" height="71" fill="#F05454"/>
</g>
<path d="M15.4296 21.762C16.7679 20.3977 18.9479 20.3432 20.3527 21.6389L25.189 26.0997C26.7524 27.5416 29.1708 27.5081 30.6935 26.0232L47.4745 9.65983C49.0011 8.17128 51.428 8.14549 52.9859 9.60126C54.6342 11.1416 54.6792 13.7408 53.0852 15.3372L31.3165 37.1398C29.7441 38.7146 27.1887 38.7033 25.6303 37.1146L15.4296 26.7157C14.0803 25.3401 14.0803 23.1375 15.4296 21.762Z" fill="#24C7CC"/>
</svg>
