<svg width="25" height="26" viewBox="0 0 25 26" fill="none" xmlns="http://www.w3.org/2000/svg">
<path d="M16.3981 7.45122L13.6481 2.66429C13.1376 1.77548 11.8568 1.77122 11.3403 2.65662L8.43851 7.63112C8.05416 8.29 7.40606 8.75275 6.65808 8.90234L2.69312 9.69533C1.66621 9.90072 1.26607 11.1555 1.98449 11.9175L4.85226 14.959C5.46549 15.6094 5.71205 16.5238 5.50893 17.3943L4.21089 22.9574C3.94406 24.101 5.17885 25.0061 6.18908 24.4074L11.1414 21.4727C11.9796 20.976 13.0221 20.976 13.8603 21.4727L18.8126 24.4074C19.8228 25.0061 21.0576 24.101 20.7908 22.9574L19.4814 17.3456C19.2846 16.5021 19.5097 15.6155 20.0852 14.9681L22.9565 11.7378C23.6406 10.9682 23.2312 9.74653 22.2214 9.54458L18.1874 8.73777C17.4334 8.58696 16.7811 8.11799 16.3981 7.45122Z" stroke="#F05454" stroke-width="2" stroke-miterlimit="10"/>
</svg>
