<svg width="53" height="54" viewBox="0 0 53 54" fill="none" xmlns="http://www.w3.org/2000/svg">
<path d="M35.1231 13.86L29.1455 3.45458C28.0356 1.52256 25.2516 1.51332 24.1289 3.43792L17.8212 14.251C16.9858 15.6833 15.577 16.6891 13.9511 17.0143L5.3324 18.7381C3.10019 19.1845 2.23039 21.912 3.79204 23.5683L10.0257 30.1798C11.3587 31.5936 11.8947 33.5812 11.4532 35.4735L8.63159 47.566C8.05157 50.0518 10.7357 52.0192 12.9316 50.7179L23.6965 44.3387C25.5186 43.259 27.7845 43.259 29.6067 44.3387L40.3715 50.7179C42.5675 52.0192 45.2516 50.0518 44.6715 47.566L41.8252 35.3676C41.3974 33.534 41.8868 31.6067 43.1378 30.1994L49.3792 23.1779C50.8663 21.5049 49.9763 18.8493 47.7814 18.4104L39.0125 16.6566C37.3734 16.3288 35.9557 15.3094 35.1231 13.86Z" stroke="#282828" stroke-width="4" stroke-miterlimit="10"/>
</svg>
