<svg width="24" height="24" viewBox="0 0 24 24" fill="none" xmlns="http://www.w3.org/2000/svg">
<path d="M23.7633 12.2763C23.7633 11.4605 23.6972 10.6404 23.5561 9.83789H12.2373V14.4589H18.719C18.4501 15.9492 17.5858 17.2676 16.3204 18.1054V21.1037H20.1873C22.4582 19.0137 23.7633 15.9272 23.7633 12.2763Z" fill="white"/>
<path d="M12.2372 24.0003C15.4736 24.0003 18.203 22.9377 20.1916 21.1034L16.3246 18.1051C15.2487 18.837 13.8598 19.2515 12.2416 19.2515C9.11096 19.2515 6.45653 17.1394 5.50412 14.2998H1.51367V17.3907C3.55078 21.4429 7.69997 24.0003 12.2372 24.0003Z" fill="white"/>
<path d="M5.49984 14.3007C4.99718 12.8103 4.99718 11.1965 5.49984 9.70618V6.61523H1.51381C-0.188196 10.006 -0.188196 14.0009 1.51381 17.3916L5.49984 14.3007Z" fill="white"/>
<path d="M12.2372 4.74966C13.948 4.7232 15.6015 5.36697 16.8405 6.54867L20.2666 3.12262C18.0972 1.0855 15.2179 -0.034466 12.2372 0.000808666C7.69997 0.000808666 3.55078 2.55822 1.51367 6.61481L5.49971 9.70575C6.44772 6.86173 9.10654 4.74966 12.2372 4.74966Z" fill="white"/>
</svg>
