<svg width="48" height="49" viewBox="0 0 48 49" fill="none" xmlns="http://www.w3.org/2000/svg">
<path opacity="0.1" d="M10.1868 39.5076L24.6868 17.5076C27.3232 13.5076 30.4521 15.1743 31.687 16.5076C35.687 22.1743 44.287 34.5076 46.687 38.5076C49.087 42.5076 45.687 45.5076 43.687 46.5076H14.6868C9.88684 46.5076 9.68684 41.841 10.1868 39.5076Z" fill="#FF0000"/>
<rect x="26" y="18" width="5" height="17" rx="2.5" fill="white"/>
<rect x="26" y="37" width="5" height="5" rx="2.5" fill="white"/>
<path d="M20.3103 0.57478C15.5779 2.90264 9.8972 4.25337 3.37345 4.58866C1.60121 4.68446 1.18928 4.81857 0.614503 5.47957C-0.0464943 6.25552 -0.027335 5.97771 0.0205634 14.0055C0.0684617 21.6596 0.0780414 22.0045 0.576184 24.5239C1.00727 26.7464 1.69701 29.036 2.52086 30.9519L2.95194 31.9674L2.75077 32.5805C2.47296 33.4618 2.41548 34.9275 2.62623 35.8663C2.9232 37.217 3.73747 38.5486 4.8104 39.4491C5.80668 40.2729 7.44481 40.8956 8.64227 40.9052C9.08293 40.9052 9.12125 40.9243 10.3187 42.0068C12.7136 44.1623 14.1506 45.1394 18.4423 47.4864L21.2108 49H22.1209H23.0405L25.9048 47.4289C29.957 45.2256 31.643 44.0761 34.0188 41.9206C35.1205 40.9339 35.1588 40.9052 35.5995 40.9052C37.2663 40.8956 39.1631 39.9376 40.351 38.5103C40.8683 37.8876 41.4335 36.7189 41.6155 35.8663C41.8262 34.9275 41.7688 33.4618 41.4909 32.5805L41.2898 31.9578L41.5867 31.2872C42.4393 29.3329 43.1387 27.1105 43.5793 24.9071C44.1637 21.9949 44.1733 21.8512 44.2212 14.063C44.2691 6.08309 44.2786 6.24594 43.6272 5.48915C43.0524 4.81857 42.6501 4.68446 40.8683 4.58866C34.4499 4.25337 29.047 2.99844 24.2284 0.708893C22.8393 0.0478973 22.6861 0 22.1017 0C21.5269 0 21.3736 0.0478973 20.3103 0.57478ZM23.6632 2.38534C28.386 4.64614 34.1529 5.97771 40.5905 6.30342C41.922 6.37048 42.0657 6.39922 42.2669 6.59081L42.4777 6.81114V13.7277C42.4777 18.7953 42.4489 20.9124 42.3531 21.65C42.0561 24.112 41.5484 26.3345 40.8012 28.4899C40.1785 30.2909 40.2552 30.2334 39.6708 29.3425L39.1822 28.5953L39.5942 27.3021C40.0253 25.9609 40.4084 24.3419 40.6479 22.8283C40.9257 21.0944 41.0024 18.8815 40.9736 13.8809L40.9449 8.94741L40.6863 8.54506C40.2839 7.94154 40.0253 7.85533 38.1764 7.70205C33.195 7.29013 28.4339 6.10225 23.9218 4.15757C22.9543 3.73607 22.3891 3.54448 22.1209 3.54448C21.8622 3.54448 21.3545 3.70733 20.6073 4.03304C15.7504 6.15015 10.9031 7.3476 5.53845 7.74995C4.25478 7.84575 3.93865 7.97028 3.55546 8.54506L3.29681 8.94741L3.26807 13.8809C3.23933 19.1114 3.31597 21.1232 3.64168 23.1253C3.88117 24.5814 4.2931 26.2866 4.73376 27.5799L5.06905 28.5857L4.57091 29.3425C3.99613 30.2239 4.07276 30.2813 3.46924 28.5666C2.71245 26.4016 2.19515 24.1599 1.8886 21.65C1.7928 20.9124 1.76406 18.7953 1.76406 13.7277V6.81114L1.97482 6.59081C2.17599 6.39922 2.31968 6.37048 3.65126 6.30342C10.0888 5.97771 15.9516 4.6174 20.5402 2.39492C21.2778 2.03089 21.9676 1.73392 22.0825 1.73392C22.1975 1.72434 22.9064 2.02131 23.6632 2.38534ZM23.6249 5.92981C28.089 7.82659 33.5302 9.12942 38.2913 9.44555L39.2876 9.51261L39.2397 15.1263C39.1918 21.0369 39.1631 21.5351 38.6841 23.9013C38.4446 25.07 38.0231 26.6315 37.9369 26.6315C37.9082 26.6315 35.4941 23.0104 32.5723 18.5846C27.8112 11.3615 27.1981 10.461 26.5754 9.88622C24.0847 7.55836 20.157 7.55836 17.6759 9.87664C17.0532 10.461 16.421 11.3711 11.6694 18.575C8.74764 23.0104 6.33356 26.6315 6.30483 26.6315C6.21861 26.6315 5.7971 25.07 5.55761 23.9013C5.07863 21.5351 5.04989 21.0369 5.00199 15.1263L4.95409 9.51261L5.99828 9.44555C10.7306 9.139 16.2773 7.79785 20.6743 5.89149C21.4407 5.56578 22.1209 5.29755 22.1688 5.31672C22.2262 5.33587 22.8777 5.6041 23.6249 5.92981ZM23.098 9.97243C23.3758 10.0299 23.8835 10.2119 24.2092 10.3652C25.4546 10.9496 25.4546 10.9496 32.7926 22.0811C36.4999 27.7236 39.6325 32.5709 39.7474 32.8583C40.0444 33.5959 40.1115 34.8413 39.8911 35.598C39.5271 36.8721 38.5596 38.0888 37.4675 38.6444C36.3562 39.2096 37.1035 39.1808 22.1209 39.1808C10.0792 39.1808 8.2974 39.1617 7.79925 39.0371C6.14197 38.5965 4.83914 37.3128 4.35057 35.598C4.13024 34.8413 4.1973 33.5959 4.49427 32.8583C4.60922 32.5709 7.74178 27.7236 11.4491 22.0811C18.7105 11.0645 18.7776 10.9687 19.9654 10.3939C20.9713 9.8958 22.0538 9.7521 23.098 9.97243ZM15.0319 41.6332C16.2102 42.4858 17.4364 43.2235 19.6972 44.4401C21.4694 45.3885 21.958 45.5417 22.7435 45.3214C23.165 45.216 26.288 43.53 27.6579 42.687C28.1273 42.39 28.8937 41.8727 29.3631 41.5279L30.2061 40.9052H31.3652L32.5148 40.9148L32.0837 41.2979C31.3652 41.9398 29.5738 43.2618 28.5871 43.8845C26.767 45.034 22.4561 47.3236 22.1209 47.3236C21.7951 47.3236 17.4747 45.034 15.6642 43.894C14.6679 43.2618 12.8765 41.9398 12.158 41.2979L11.7269 40.9148L12.8765 40.9052H14.026L15.0319 41.6332ZM26.5658 41.2884C25.6941 41.844 22.2837 43.6833 22.1209 43.6833C21.9676 43.6833 18.5285 41.8344 17.6663 41.2788L17.0915 40.9052H22.1209H27.1502L26.5658 41.2884Z" fill="black"/>
<path d="M21.4491 13.1134C20.721 13.3529 20.1462 13.8606 19.8301 14.5599C19.6385 14.9814 19.6289 15.1634 19.6289 21.6105C19.6289 28.8049 19.6193 28.6612 20.1654 29.3796C20.2899 29.5521 20.606 29.8107 20.8551 29.9544C21.2479 30.1939 21.4012 30.2227 22.1196 30.2227C22.8285 30.2227 22.9914 30.1939 23.3746 29.964C23.6141 29.8203 23.9302 29.5521 24.0739 29.3701C24.6199 28.642 24.6103 28.8144 24.6103 21.6105V14.991L24.3804 14.512C23.9589 13.6115 23.2405 13.1229 22.2633 13.0655C21.9472 13.0463 21.5832 13.0655 21.4491 13.1134ZM22.6082 15.0293L22.886 15.3071V21.6968V28.0768L22.6465 28.3067C22.34 28.6229 21.8993 28.6229 21.5927 28.3067L21.3533 28.0768V21.6968V15.3071L21.6311 15.0293C21.7843 14.876 22.0047 14.7515 22.1196 14.7515C22.2346 14.7515 22.4549 14.876 22.6082 15.0293Z" fill="black"/>
<path d="M21.421 31.9378C20.2715 32.254 19.5434 33.3461 19.6584 34.5914C19.7733 35.9038 20.76 36.7852 22.1299 36.7852C23.6435 36.7852 24.7164 35.6069 24.5823 34.0933C24.5248 33.4419 24.2566 32.8862 23.7872 32.4743C23.1358 31.9091 22.2545 31.7079 21.421 31.9378ZM22.676 33.8729C22.7909 34.0071 22.8867 34.2178 22.8867 34.3519C22.8867 34.6872 22.4844 35.0608 22.1204 35.0608C21.7659 35.0608 21.354 34.6872 21.354 34.3711C21.354 34.0837 21.6031 33.7292 21.8713 33.6239C22.1491 33.5089 22.4173 33.5951 22.676 33.8729Z" fill="black"/>
</svg>
