<svg width="68" height="59" viewBox="0 0 68 59" fill="none" xmlns="http://www.w3.org/2000/svg">
<path fill-rule="evenodd" clip-rule="evenodd" d="M5.88173 0.219009C3.15527 0.812272 0.805153 3.18716 0.221943 5.93841C-0.0739809 7.33505 -0.0739809 51.5843 0.221943 52.9809C0.518857 54.3814 1.18886 55.5794 2.2927 56.6832C3.37445 57.765 4.734 58.492 6.16817 58.7558C6.75662 58.8641 15.1113 58.9097 34.0615 58.908C56.9904 58.9059 61.2604 58.8746 62.0713 58.7027C64.8512 58.1137 67.1863 55.7725 67.7781 52.9809C68.074 51.5843 68.074 7.33505 67.7781 5.93841C67.1863 3.14681 64.8512 0.805617 62.0713 0.216601C60.7014 -0.0738003 7.2165 -0.071393 5.88173 0.219009ZM61.6809 4.80823C61.9924 4.95237 62.4191 5.25367 62.6291 5.47767C63.3897 6.2887 63.4508 6.64508 63.4508 10.2697V13.6016H34H4.54922V10.2697C4.54922 6.64508 4.61025 6.2887 5.37087 5.47767C5.58085 5.25367 6.0076 4.95237 6.3191 4.80823C6.86408 4.55592 7.90633 4.54601 34 4.54601C60.0937 4.54601 61.1359 4.55592 61.6809 4.80823ZM10.349 7.1238C9.66899 7.46673 9.08011 8.37022 9.08011 9.07067C9.08011 9.77111 9.66899 10.6746 10.349 11.0175C10.6965 11.1927 11.1449 11.3361 11.3456 11.3361C12.046 11.3361 12.9495 10.7472 13.2924 10.0672C13.4676 9.71972 13.611 9.2713 13.611 9.07067C13.611 8.87003 13.4676 8.42162 13.2924 8.07415C12.9495 7.39409 12.046 6.80522 11.3456 6.80522C11.1449 6.80522 10.6965 6.94865 10.349 7.1238ZM17.1454 7.1238C16.4653 7.46673 15.8764 8.37022 15.8764 9.07067C15.8764 9.77111 16.4653 10.6746 17.1454 11.0175C17.4928 11.1927 17.9413 11.3361 18.1419 11.3361C18.8423 11.3361 19.7458 10.7472 20.0888 10.0672C20.264 9.71972 20.4073 9.2713 20.4073 9.07067C20.4073 8.87003 20.264 8.42162 20.0888 8.07415C19.7458 7.39409 18.8423 6.80522 18.1419 6.80522C17.9413 6.80522 17.4928 6.94865 17.1454 7.1238ZM23.9417 7.1238C23.2617 7.46673 22.6728 8.37022 22.6728 9.07067C22.6728 9.2713 22.8161 9.71972 22.9914 10.0672C23.3343 10.7472 24.2378 11.3361 24.9382 11.3361C25.6387 11.3361 26.5422 10.7472 26.8851 10.0672C27.0604 9.71972 27.2037 9.2713 27.2037 9.07067C27.2037 8.87003 27.0604 8.42162 26.8851 8.07415C26.5422 7.39409 25.6387 6.80522 24.9382 6.80522C24.7376 6.80522 24.2892 6.94865 23.9417 7.1238ZM63.4477 35.0879C63.4447 51.2895 63.4329 52.0685 63.1823 52.6097C62.861 53.3037 62.2773 53.8681 61.5792 54.1597C61.1096 54.3559 58.1373 54.3796 34 54.3796C9.86268 54.3796 6.89042 54.3559 6.42076 54.1597C5.72272 53.8681 5.13895 53.3037 4.81768 52.6097C4.56707 52.0685 4.55531 51.2895 4.55234 35.0879L4.54922 18.1324H34H63.4508L63.4477 35.0879ZM24.1684 22.8698C23.764 23.0172 22.8612 23.822 20.8795 25.8017L18.1481 28.5304L16.4813 26.8854C15.1481 25.5698 14.694 25.2083 14.2128 25.0791C12.5482 24.633 11.0537 26.1259 11.493 27.796C11.6269 28.3054 12.0566 28.8031 14.2947 31.0405C18.3282 35.0727 17.8961 35.122 23.0017 30.0487C25.0127 28.0504 26.7602 26.2243 26.8849 25.9907C27.1983 25.4041 27.178 24.3903 26.8415 23.8188C26.3085 22.9134 25.1635 22.507 24.1684 22.8698ZM30.738 27.5128C30.058 27.8557 29.4691 28.7592 29.4691 29.4597C29.4691 30.1601 30.058 31.0636 30.738 31.4065L31.3698 31.7251H43.0618H54.7537L55.3855 31.4065C56.0656 31.0636 56.6544 30.1601 56.6544 29.4597C56.6544 28.7592 56.0656 27.8557 55.3855 27.5128L54.7537 27.1942H43.0618H31.3698L30.738 27.5128ZM24.1684 36.4624C23.764 36.6098 22.8612 37.4146 20.8795 39.3943L18.1481 42.1231L16.4813 40.4781C15.1481 39.1624 14.694 38.8009 14.2128 38.6718C12.5482 38.2257 11.0537 39.7186 11.493 41.3886C11.6269 41.8981 12.0566 42.3958 14.2947 44.6332C18.3282 48.6654 17.8961 48.7147 23.0017 43.6413C25.0127 41.6431 26.7602 39.817 26.8849 39.5834C27.1983 38.9968 27.178 37.983 26.8415 37.4115C26.3085 36.506 25.1635 36.0997 24.1684 36.4624ZM30.738 41.1055C30.058 41.4484 29.4691 42.3519 29.4691 43.0523C29.4691 43.7528 30.058 44.6563 30.738 44.9992L31.3698 45.3178H43.0618H54.7537L55.3855 44.9992C56.0656 44.6563 56.6544 43.7528 56.6544 43.0523C56.6544 42.3519 56.0656 41.4484 55.3855 41.1055L54.7537 40.7869H43.0618H31.3698L30.738 41.1055Z" fill="#282828"/>
</svg>
