<svg width="605" height="356" viewBox="0 0 605 356" fill="none" xmlns="http://www.w3.org/2000/svg">
<path d="M265.155 74.5695L252.849 74.8321L246.602 74.9353C244.51 74.9353 242.409 74.9353 240.317 74.9915H239.905V74.5695L239.848 64.0735V63.6045H240.317L252.736 63.6702C256.882 63.6702 261.018 63.7733 265.155 63.8202H265.417V64.0735C265.417 65.8556 265.342 67.6284 265.296 69.3824L265.155 74.5695ZM265.155 74.5695L265.024 69.2699C265.024 67.5252 264.92 65.79 264.902 64.0735L265.155 64.3361C261.018 64.3361 256.882 64.4768 252.736 64.4862L240.317 64.5425L240.786 64.0735L240.739 74.5695L240.317 74.1567C242.362 74.1567 244.407 74.1567 246.461 74.2036L252.633 74.3068L265.155 74.5695Z" fill="#EBEBEB"/>
<path d="M292.872 74.5695L280.556 74.8321L274.309 74.9353C272.218 74.9353 270.126 74.9353 268.025 74.9915H267.612V74.5695L267.565 64.0735V63.6045H268.034L280.463 63.6702C284.599 63.6702 288.735 63.7733 292.881 63.8202H293.134V64.0735C293.134 65.8556 293.05 67.6284 293.013 69.3824L292.872 74.5695ZM292.872 74.5695L292.731 69.2699C292.731 67.5252 292.628 65.79 292.609 64.0735L292.872 64.3361C288.726 64.3361 284.59 64.4768 280.453 64.4862L268.025 64.5425L268.494 64.0735L268.447 74.5695L268.025 74.1567C270.079 74.1567 272.115 74.1567 274.169 74.2036L280.341 74.3068L292.872 74.5695Z" fill="#EBEBEB"/>
<path d="M25.2595 10.9747L12.944 11.2374L6.69711 11.3405C4.61481 11.3405 2.51376 11.3405 0.422087 11.3968H0V10.9747V0.478754V0.00976562H0.478363L12.8971 0.0754238C17.0335 0.0754238 21.17 0.178601 25.3158 0.2255H25.5691V0.478754C25.5691 2.26091 25.4846 4.03369 25.4471 5.78771L25.2595 10.9747ZM25.2595 10.9747L25.1188 5.67515C25.1188 3.92113 25.0157 2.19525 24.9969 0.478754L25.2595 0.732009C21.1137 0.788287 16.9773 0.882083 12.8408 0.891463L0.422087 0.947743L0.891072 0.478754L0.834793 10.9747L0.422087 10.6089C2.46686 10.6089 4.50226 10.6089 6.55641 10.6089L12.7283 10.7121L25.2595 10.9747Z" fill="#EBEBEB"/>
<path d="M14.8106 196.328C15.2504 196.062 15.7548 195.921 16.2691 195.921C16.7834 195.921 17.2879 196.062 17.7277 196.328C17.9715 196.478 18.2154 196.619 18.4687 196.75C18.7219 196.882 18.9845 197.022 19.2472 197.144C19.7114 197.36 20.1078 197.699 20.3938 198.124C20.6797 198.549 20.8443 199.043 20.8699 199.555L20.9824 203.138L32.6695 202.782L32.557 199.189C32.5497 198.676 32.683 198.17 32.9426 197.727C33.2022 197.284 33.5781 196.92 34.0296 196.675C34.5361 196.394 35.0332 196.084 35.5116 195.737C35.9319 195.445 36.424 195.274 36.9347 195.241C37.4454 195.208 37.9554 195.314 38.4099 195.55L41.5615 197.266L47.0861 186.948L43.9345 185.251C43.4866 185.003 43.1145 184.639 42.8583 184.196C42.6021 183.753 42.4716 183.249 42.4807 182.737C42.4994 182.155 42.4806 181.572 42.4244 180.992C42.387 180.489 42.4856 179.985 42.7101 179.532C42.9345 179.08 43.2764 178.697 43.7 178.422L46.7485 176.546L40.6047 166.594L37.5376 168.47C37.0989 168.735 36.5962 168.875 36.0837 168.875C35.5713 168.875 35.0686 168.735 34.6299 168.47L33.8889 168.039L33.1197 167.654C32.6573 167.437 32.2628 167.098 31.9786 166.673C31.6943 166.248 31.5311 165.754 31.5064 165.244L31.3751 161.623L19.6974 161.989L19.81 165.563C19.8278 166.079 19.7034 166.59 19.4503 167.04C19.1971 167.489 18.8251 167.861 18.3749 168.114C17.862 168.401 17.3642 168.714 16.8835 169.052C16.4631 169.344 15.9711 169.515 15.4604 169.548C14.9497 169.582 14.4397 169.475 13.9852 169.239L10.8242 167.551L5.29956 177.869L8.45114 179.557C8.90055 179.805 9.27357 180.171 9.52983 180.616C9.78609 181.061 9.91583 181.567 9.90499 182.08C9.90499 182.662 9.92375 183.243 9.96127 183.825C10.0055 184.338 9.90825 184.853 9.68002 185.314C9.45179 185.776 9.10136 186.166 8.66687 186.442L5.62785 188.318L11.8091 198.204L14.8106 196.328ZM17.737 177.869C18.6324 176.2 20.0023 174.835 21.6736 173.944C23.3449 173.054 25.2426 172.679 27.1268 172.868C29.011 173.056 30.7972 173.798 32.2596 175.001C33.7219 176.204 34.7949 177.814 35.3427 179.626C35.8905 181.439 35.8887 183.373 35.3375 185.185C34.7863 186.996 33.7103 188.604 32.2457 189.804C30.7811 191.004 28.9935 191.744 27.109 191.928C25.2244 192.113 23.3274 191.734 21.6578 190.841C19.4251 189.638 17.7595 187.601 17.0248 185.173C16.2901 182.746 16.5462 180.127 17.737 177.888V177.869Z" fill="#EBEBEB"/>
<path d="M468.826 46.4588C469.135 46.6431 469.387 46.9103 469.553 47.2302C469.718 47.5501 469.791 47.91 469.763 48.2691C469.763 48.4661 469.763 48.6631 469.763 48.8695C469.763 49.0758 469.763 49.2728 469.763 49.4791C469.789 49.8366 469.714 50.1941 469.549 50.512C469.383 50.8298 469.133 51.0957 468.826 51.2801L466.649 52.5369L470.739 59.6281L472.915 58.3712C473.23 58.1942 473.587 58.1075 473.948 58.1207C474.309 58.134 474.659 58.2466 474.96 58.4462C475.299 58.6674 475.65 58.8709 476.01 59.0559C476.332 59.2164 476.602 59.4625 476.793 59.767C476.983 60.0715 477.085 60.4227 477.089 60.7818V63.2955H485.278V60.7818C485.281 60.4227 485.384 60.0715 485.574 59.767C485.764 59.4625 486.035 59.2164 486.356 59.0559C486.72 58.8709 487.073 58.6674 487.416 58.4462C487.715 58.2464 488.064 58.1336 488.423 58.1204C488.783 58.1071 489.139 58.1939 489.451 58.3712L491.628 59.6281L495.726 52.5369L493.541 51.2707C493.234 51.0863 492.983 50.8205 492.818 50.5026C492.652 50.1847 492.578 49.8273 492.603 49.4698C492.603 49.2728 492.603 49.0664 492.603 48.8695C492.603 48.6725 492.603 48.4661 492.603 48.2691C492.577 47.9102 492.651 47.5512 492.817 47.2317C492.982 46.9122 493.233 46.6448 493.541 46.4588L495.726 45.202L491.628 38.1108L489.461 39.3677C489.146 39.5447 488.789 39.6314 488.428 39.6182C488.067 39.6049 487.717 39.4923 487.416 39.2927C487.078 39.077 486.722 38.8706 486.356 38.683C486.034 38.5218 485.762 38.2742 485.572 37.9679C485.381 37.6616 485.279 37.3084 485.278 36.9478V34.4434H477.089V36.9478C477.087 37.3084 476.985 37.6616 476.795 37.9679C476.605 38.2742 476.333 38.5218 476.01 38.683C475.645 38.8706 475.288 39.077 474.95 39.2927C474.65 39.4923 474.299 39.6049 473.939 39.6182C473.578 39.6314 473.22 39.5447 472.906 39.3677L470.739 38.1108L466.649 45.202L468.826 46.4588ZM481.188 42.1535C482.517 42.1517 483.816 42.544 484.922 43.2808C486.027 44.0176 486.89 45.0659 487.399 46.2929C487.909 47.5199 488.043 48.8705 487.785 50.1739C487.527 51.4773 486.888 52.6748 485.949 53.615C485.011 54.5552 483.814 55.1957 482.511 55.4556C481.208 55.7155 479.857 55.5831 478.629 55.075C477.402 54.567 476.352 53.7062 475.614 52.6016C474.876 51.497 474.481 50.1981 474.481 48.8695C474.484 47.0907 475.191 45.3853 476.448 44.1266C477.705 42.8679 479.409 42.1585 481.188 42.1535Z" fill="#EBEBEB"/>
<path d="M528.509 44.986C528.509 51.2935 530.379 57.4593 533.883 62.7038C537.387 67.9483 542.368 72.0359 548.195 74.4496C554.023 76.8634 560.435 77.495 566.621 76.2644C572.807 75.0339 578.49 71.9965 582.95 67.5365C587.41 63.0764 590.447 57.3939 591.678 51.2076C592.908 45.0213 592.277 38.6091 589.863 32.7817C587.449 26.9544 583.362 21.9736 578.117 18.4694C572.873 14.9651 566.707 13.0947 560.4 13.0947C551.942 13.0947 543.83 16.4547 537.849 22.4355C531.868 28.4162 528.509 36.5279 528.509 44.986ZM545.505 44.986C545.503 42.0373 546.375 39.1544 548.012 36.702C549.649 34.2495 551.977 32.3377 554.701 31.2085C557.425 30.0792 560.422 29.7833 563.314 30.3581C566.206 30.9328 568.863 32.3525 570.948 34.4375C573.033 36.5225 574.453 39.1791 575.027 42.0712C575.602 44.9632 575.306 47.9608 574.177 50.6846C573.048 53.4084 571.136 55.7361 568.683 57.3731C566.231 59.0101 563.348 59.8829 560.4 59.881C556.452 59.8761 552.667 58.3049 549.876 55.5123C547.085 52.7198 545.516 48.934 545.514 44.986H545.505Z" fill="#A6A6A6"/>
<path d="M554.275 14.4077H566.534L565.859 5.73145H554.95L554.275 14.4077Z" fill="#A6A6A6"/>
<path d="M577.621 18.5443L586.287 27.2206L591.953 20.5985L584.233 12.8789L577.621 18.5443Z" fill="#A6A6A6"/>
<path d="M591.203 37.9795V50.2389L599.888 49.5635V38.6548L591.203 37.9795Z" fill="#A6A6A6"/>
<path d="M587.075 61.3252L578.399 69.9921L585.021 75.6575L592.731 67.9379L587.075 61.3252Z" fill="#A6A6A6"/>
<path d="M567.641 74.9072H555.372L556.057 83.5929H566.965L567.641 74.9072Z" fill="#A6A6A6"/>
<path d="M544.295 70.7798L535.618 62.1035L529.962 68.7256L537.673 76.4358L544.295 70.7798Z" fill="#A6A6A6"/>
<path d="M530.704 51.3449V39.0762L522.027 39.7609V50.6696L530.704 51.3449Z" fill="#A6A6A6"/>
<path d="M534.84 27.9993L543.516 19.323L536.894 13.667L529.184 21.3772L534.84 27.9993Z" fill="#A6A6A6"/>
<path d="M537.072 187.474C536.538 187.474 536.015 187.315 535.57 187.018C535.126 186.721 534.78 186.298 534.576 185.804C534.371 185.31 534.318 184.766 534.423 184.242C534.528 183.718 534.787 183.237 535.165 182.859C535.544 182.482 536.026 182.225 536.551 182.122C537.076 182.019 537.619 182.074 538.113 182.28C538.606 182.486 539.027 182.833 539.323 183.279C539.619 183.724 539.775 184.247 539.774 184.782C539.774 185.136 539.704 185.487 539.568 185.814C539.432 186.142 539.233 186.439 538.982 186.689C538.731 186.939 538.433 187.137 538.105 187.272C537.778 187.407 537.427 187.475 537.072 187.474ZM537.072 183.019C536.723 183.019 536.382 183.122 536.093 183.316C535.803 183.51 535.577 183.785 535.443 184.107C535.31 184.429 535.275 184.784 535.343 185.126C535.411 185.468 535.579 185.782 535.825 186.029C536.072 186.276 536.386 186.444 536.728 186.512C537.07 186.58 537.425 186.545 537.747 186.411C538.069 186.278 538.345 186.052 538.538 185.762C538.732 185.472 538.836 185.131 538.836 184.782C538.836 184.314 538.65 183.866 538.319 183.535C537.988 183.204 537.54 183.019 537.072 183.019Z" fill="#EBEBEB"/>
<path d="M560.212 336.771H44.9382V355.54H560.212V336.771Z" fill="#C7C7C7"/>
<path d="M352.808 336.771H252.352V344.407H352.808V336.771Z" fill="#A6A6A6"/>
<path d="M506.973 63.3135H98.1868V336.762H506.973V63.3135Z" fill="#DBDBDB"/>
<path d="M504.009 66.6523H101.16V333.432H504.009V66.6523Z" fill="#263238"/>
<path d="M486.159 83.7988H118.991V316.286H486.159V83.7988Z" fill="white"/>
<path d="M486.159 83.7988H118.991V92.7471H486.159V83.7988Z" fill="#455A64"/>
<path d="M127.414 88.273C127.414 88.6091 127.314 88.9377 127.127 89.2171C126.94 89.4965 126.675 89.7141 126.364 89.8423C126.053 89.9706 125.711 90.0036 125.382 89.9373C125.052 89.8711 124.75 89.7084 124.512 89.4701C124.275 89.2317 124.114 88.9283 124.05 88.5984C123.986 88.2684 124.021 87.9268 124.15 87.6167C124.28 87.3067 124.499 87.0422 124.78 86.8568C125.06 86.6713 125.389 86.5734 125.726 86.5752C125.948 86.5752 126.168 86.6192 126.374 86.7046C126.579 86.7901 126.766 86.9153 126.923 87.073C127.08 87.2308 127.204 87.418 127.288 87.624C127.372 87.8299 127.415 88.0505 127.414 88.273Z" fill="#C7C7C7"/>
<path d="M134.327 88.273C134.327 88.6091 134.227 88.9377 134.04 89.2171C133.853 89.4965 133.587 89.7141 133.277 89.8423C132.966 89.9706 132.624 90.0036 132.294 89.9373C131.965 89.8711 131.662 89.7084 131.425 89.4701C131.188 89.2317 131.027 88.9283 130.963 88.5984C130.898 88.2684 130.933 87.9268 131.063 87.6167C131.193 87.3067 131.412 87.0422 131.693 86.8568C131.973 86.6713 132.302 86.5734 132.639 86.5752C132.861 86.5752 133.081 86.6192 133.287 86.7046C133.492 86.7901 133.679 86.9153 133.836 87.073C133.993 87.2308 134.117 87.418 134.201 87.624C134.285 87.8299 134.328 88.0505 134.327 88.273Z" fill="white"/>
<path d="M141.249 88.273C141.249 88.6091 141.149 88.9377 140.962 89.2171C140.775 89.4965 140.51 89.7141 140.199 89.8423C139.888 89.9706 139.546 90.0036 139.217 89.9373C138.887 89.8711 138.585 89.7084 138.347 89.4701C138.11 89.2317 137.949 88.9283 137.885 88.5984C137.821 88.2684 137.856 87.9268 137.985 87.6167C138.115 87.3067 138.334 87.0422 138.615 86.8568C138.895 86.6713 139.224 86.5734 139.561 86.5752C139.783 86.5752 140.003 86.6192 140.209 86.7046C140.414 86.7901 140.601 86.9153 140.758 87.073C140.915 87.2308 141.039 87.418 141.123 87.624C141.207 87.8299 141.25 88.0505 141.249 88.273Z" fill="#F05454"/>
<path d="M480.381 92.7471H118.991V142.544H480.381V92.7471Z" fill="#F05454"/>
<path d="M486.169 92.7471H480.391V290.829H486.169V92.7471Z" fill="#DBDBDB"/>
<path d="M483.27 161.417C482.875 161.417 482.496 161.26 482.216 160.98C481.936 160.7 481.779 160.321 481.779 159.926V95.3927C481.782 94.998 481.939 94.6201 482.219 94.3409C482.498 94.0617 482.876 93.9038 483.27 93.9014C483.666 93.9014 484.045 94.0585 484.325 94.3382C484.605 94.6179 484.762 94.9972 484.762 95.3927V159.926C484.762 160.321 484.605 160.7 484.325 160.98C484.045 161.26 483.666 161.417 483.27 161.417Z" fill="#A6A6A6"/>
<path d="M464.455 102.408H386.688V112.792H464.455V102.408Z" fill="white"/>
<path d="M464.558 112.895H386.575V102.306H464.558V112.895ZM386.791 112.68H464.342V102.531H386.791V112.68Z" fill="#C7C7C7"/>
<path d="M464.558 102.306H453.959V112.905H464.558V102.306Z" fill="#455A64"/>
<path d="M462.551 110.512L461.613 111.235L459.831 108.89L459.183 108.036C459.317 107.981 459.443 107.908 459.559 107.82C459.775 107.655 459.943 107.435 460.046 107.183L460.74 108.121L462.551 110.512Z" fill="white"/>
<path d="M460.665 104.988C460.362 104.592 459.952 104.29 459.483 104.119C459.014 103.948 458.506 103.915 458.019 104.023C457.531 104.132 457.085 104.377 456.733 104.731C456.38 105.084 456.137 105.531 456.03 106.019C455.923 106.506 455.958 107.014 456.131 107.483C456.303 107.951 456.606 108.36 457.004 108.662C457.401 108.964 457.877 109.146 458.374 109.186C458.872 109.227 459.371 109.124 459.812 108.89C459.942 108.827 460.065 108.748 460.178 108.656C460.384 108.494 460.567 108.305 460.722 108.093C461.045 107.637 461.214 107.09 461.204 106.531C461.194 105.973 461.005 105.432 460.665 104.988ZM459.54 107.802C459.424 107.89 459.298 107.962 459.165 108.018C458.894 108.125 458.598 108.155 458.312 108.103C458.025 108.052 457.758 107.921 457.541 107.727C457.325 107.532 457.167 107.281 457.085 107.001C457.003 106.722 457.001 106.425 457.078 106.144C457.156 105.864 457.31 105.61 457.524 105.412C457.738 105.214 458.002 105.08 458.288 105.024C458.574 104.968 458.87 104.993 459.142 105.096C459.415 105.199 459.653 105.376 459.83 105.607C459.996 105.827 460.101 106.087 460.135 106.36C460.17 106.633 460.133 106.91 460.027 107.164C459.927 107.423 459.759 107.65 459.54 107.821V107.802Z" fill="white"/>
<path d="M389.408 104.453H388.854V110.756H389.408V104.453Z" fill="#C7C7C7"/>
<path d="M372.956 102.408H161.415V112.792H372.956V102.408Z" fill="white"/>
<path d="M373.068 112.895H161.312V102.306H373.068V112.895ZM161.528 112.68H372.853V102.531H161.528V112.68Z" fill="#C7C7C7"/>
<path d="M164.145 104.453H163.592V110.756H164.145V104.453Z" fill="#C7C7C7"/>
<path d="M141.831 111.15L138.051 107.67L141.821 104.05L142.412 104.659L139.289 107.661L142.403 110.531L141.831 111.15Z" fill="white"/>
<path d="M150.948 104.05L154.737 107.53L150.957 111.15L150.375 110.531L153.499 107.539L150.375 104.669L150.948 104.05Z" fill="white"/>
<path d="M262.369 272.755H304.259V228.21H262.369V272.755Z" fill="#EBEBEB"/>
<path d="M268.147 237.955C267.919 239.065 268.054 240.218 268.532 241.244C269.01 242.27 269.806 243.115 270.802 243.654C271.798 244.193 272.941 244.397 274.062 244.235C275.183 244.074 276.222 243.556 277.025 242.758C277.828 241.96 278.353 240.924 278.522 239.805C278.692 238.685 278.496 237.541 277.964 236.541C277.432 235.542 276.592 234.74 275.569 234.255C274.546 233.769 273.394 233.627 272.283 233.847C271.267 234.05 270.332 234.548 269.597 235.279C268.861 236.009 268.357 236.94 268.147 237.955Z" fill="white"/>
<path d="M304.259 263.159H262.369V272.755H304.259V263.159Z" fill="#DBDBDB"/>
<path d="M276.204 263.197L304.259 263.159L290.246 245.882L276.204 263.197Z" fill="#C7C7C7"/>
<path d="M262.369 263.196H287.282L274.825 251.922L262.369 263.196Z" fill="#DBDBDB"/>
<path d="M135.649 219.374H218.022V156.173H135.649V219.374Z" fill="#EBEBEB"/>
<path d="M143.856 169.999C143.538 171.579 143.736 173.22 144.422 174.678C145.108 176.136 146.246 177.335 147.666 178.096C149.086 178.858 150.714 179.142 152.308 178.907C153.902 178.671 155.378 177.929 156.518 176.789C157.658 175.65 158.4 174.174 158.635 172.579C158.871 170.985 158.587 169.357 157.825 167.937C157.063 166.517 155.865 165.379 154.406 164.693C152.948 164.007 151.308 163.809 149.728 164.128C148.28 164.42 146.951 165.133 145.906 166.177C144.862 167.222 144.149 168.551 143.856 169.999Z" fill="white"/>
<path d="M162.832 205.765H218.022L190.427 171.744L162.832 205.765Z" fill="#C7C7C7"/>
<path d="M135.659 205.764H184.602L160.13 183.609L135.659 205.764Z" fill="#DBDBDB"/>
<path d="M218.031 205.764H135.659V219.383H218.031V205.764Z" fill="#DBDBDB"/>
<path d="M178.712 228.21H135.096V231.877H178.712V228.21Z" fill="#A6A6A6"/>
<path d="M251.929 236.727H135.096V240.394H251.929V236.727Z" fill="#EBEBEB"/>
<path d="M251.929 244.793H135.096V248.46H251.929V244.793Z" fill="#EBEBEB"/>
<path d="M251.929 252.869H135.096V256.537H251.929V252.869Z" fill="#EBEBEB"/>
<path d="M251.929 260.945H135.096V264.613H251.929V260.945Z" fill="#EBEBEB"/>
<path d="M251.929 269.012H135.096V272.679H251.929V269.012Z" fill="#EBEBEB"/>
<path d="M363.801 156.183H318.319V159.85H363.801V156.183Z" fill="#A6A6A6"/>
<path d="M384.549 164.69H318.319V168.358H384.549V164.69Z" fill="#EBEBEB"/>
<path d="M384.549 172.766H318.319V176.433H384.549V172.766Z" fill="#EBEBEB"/>
<path d="M384.549 180.842H318.319V184.509H384.549V180.842Z" fill="#EBEBEB"/>
<path d="M384.549 188.908H318.319V192.576H384.549V188.908Z" fill="#EBEBEB"/>
<path d="M384.549 205.061H318.319V208.728H384.549V205.061Z" fill="#EBEBEB"/>
<path d="M384.549 213.127H318.319V216.794H384.549V213.127Z" fill="#EBEBEB"/>
<path d="M384.549 221.203H318.319V224.871H384.549V221.203Z" fill="#EBEBEB"/>
<path d="M384.549 229.279H318.319V232.947H384.549V229.279Z" fill="#EBEBEB"/>
<path d="M384.549 245.422H318.319V249.089H384.549V245.422Z" fill="#EBEBEB"/>
<path d="M384.549 253.498H318.319V257.166H384.549V253.498Z" fill="#EBEBEB"/>
<path d="M384.549 261.564H318.319V265.232H384.549V261.564Z" fill="#EBEBEB"/>
<path d="M384.549 269.641H318.319V273.308H384.549V269.641Z" fill="#EBEBEB"/>
<path d="M464.558 164.69H398.328V168.358H464.558V164.69Z" fill="#EBEBEB"/>
<path d="M464.558 172.766H398.328V176.433H464.558V172.766Z" fill="#EBEBEB"/>
<path d="M464.558 156.623H398.328V160.291H464.558V156.623Z" fill="#EBEBEB"/>
<path d="M464.558 180.842H398.328V184.509H464.558V180.842Z" fill="#EBEBEB"/>
<path d="M464.558 188.908H398.328V192.576H464.558V188.908Z" fill="#EBEBEB"/>
<path d="M464.558 196.984H398.328V200.652H464.558V196.984Z" fill="#EBEBEB"/>
<path d="M464.558 205.061H398.328V208.728H464.558V205.061Z" fill="#EBEBEB"/>
<path d="M464.558 221.203H398.328V224.871H464.558V221.203Z" fill="#EBEBEB"/>
<path d="M464.558 229.279H398.328V232.947H464.558V229.279Z" fill="#EBEBEB"/>
<path d="M464.558 237.346H398.328V241.013H464.558V237.346Z" fill="#EBEBEB"/>
<path d="M464.558 245.422H398.328V249.089H464.558V245.422Z" fill="#EBEBEB"/>
<path d="M464.558 253.498H398.328V257.166H464.558V253.498Z" fill="#EBEBEB"/>
<path d="M274.45 156.183H230.834V166.003H274.45V156.183Z" fill="#A6A6A6"/>
<path d="M304.268 172.766H230.834V176.433H304.268V172.766Z" fill="#EBEBEB"/>
<path d="M304.268 180.842H230.834V184.509H304.268V180.842Z" fill="#EBEBEB"/>
<path d="M304.268 188.908H230.834V192.576H304.268V188.908Z" fill="#EBEBEB"/>
<path d="M304.268 196.984H230.834V200.652H304.268V196.984Z" fill="#EBEBEB"/>
<path d="M304.268 207.725H230.834V211.392H304.268V207.725Z" fill="#EBEBEB"/>
<path d="M304.268 215.791H230.834V219.459H304.268V215.791Z" fill="#EBEBEB"/>
<path opacity="0.7" d="M486.159 83.7988H118.991V316.286H486.159V83.7988Z" fill="white"/>
<path d="M321.273 178.507V194.312H315.57V178.507C315.57 170.834 309.745 164.596 302.579 164.596C295.413 164.596 289.588 170.834 289.588 178.507V194.312H283.885V178.507C283.885 167.514 292.271 158.584 302.579 158.584C312.888 158.584 321.273 167.476 321.273 178.507Z" fill="#455A64"/>
<path d="M283.885 179.342L289.579 179.567V194.274H283.885V179.342Z" fill="#263238"/>
<path d="M321.273 180.861V194.275H315.58V180.627L321.273 180.861Z" fill="#263238"/>
<path d="M328.589 182.418H276.579V229.598H328.589V182.418Z" fill="#F05454"/>
<path opacity="0.1" d="M328.58 182.418H302.579V229.598H328.58V182.418Z" fill="black"/>
<path d="M304.774 207.735L306.96 218.052H297.721L299.897 207.735C299.043 207.205 298.384 206.41 298.022 205.473C297.66 204.535 297.613 203.505 297.888 202.538C298.164 201.571 298.747 200.72 299.55 200.115C300.352 199.509 301.33 199.182 302.335 199.182C303.341 199.182 304.319 199.509 305.121 200.115C305.923 200.72 306.507 201.571 306.782 202.538C307.058 203.505 307.011 204.535 306.649 205.473C306.286 206.41 305.628 207.205 304.774 207.735Z" fill="#263238"/>
<path d="M302.739 116.666L304.727 121.403L309.849 121.834L305.956 125.192L307.128 130.192L302.739 127.528L298.34 130.192L299.512 125.192L295.629 121.834L300.741 121.403L302.739 116.666Z" fill="#F05454"/>
<path d="M263.372 127.134L267.462 130.238L272.105 128.053L270.416 132.902L273.934 136.645L268.803 136.542L266.327 141.044L264.835 136.12L259.798 135.163L264.01 132.227L263.372 127.134Z" fill="#F05454"/>
<path d="M234.511 155.883L239.604 156.521L242.53 152.31L243.497 157.347L248.411 158.838L243.919 161.314L244.022 166.445L240.279 162.927L235.43 164.616L237.606 159.973L234.511 155.883Z" fill="#F05454"/>
<path d="M223.884 195.203L228.62 193.214L229.052 188.093L232.41 191.985L237.409 190.813L234.745 195.203L237.409 199.602L232.41 198.429L229.052 202.313L228.62 197.201L223.884 195.203Z" fill="#F05454"/>
<path d="M234.351 234.569L237.456 230.48L235.271 225.837L240.12 227.516L243.862 224.008L243.759 229.139L248.252 231.615L243.346 233.106L242.38 238.143L239.444 233.932L234.351 234.569Z" fill="#F05454"/>
<path d="M263.1 263.431L263.738 258.338L259.526 255.411L264.563 254.445L266.055 249.53L268.531 254.023L273.662 253.92L270.154 257.663L271.833 262.512L267.19 260.336L263.1 263.431Z" fill="#F05454"/>
<path d="M302.42 274.059L300.431 269.322L295.31 268.891L299.203 265.533L298.03 260.533L302.42 263.197L306.819 260.533L305.646 265.533L309.53 268.891L304.418 269.322L302.42 274.059Z" fill="#F05454"/>
<path d="M341.786 263.591L337.697 260.486L333.054 262.672L334.742 257.822L331.225 254.08L336.356 254.183L338.832 249.681L340.323 254.605L345.36 255.562L341.149 258.498L341.786 263.591Z" fill="#F05454"/>
<path d="M370.648 234.842L365.555 234.204L362.628 238.416L361.662 233.379L356.747 231.887L361.24 229.411L361.137 224.28L364.879 227.798L369.729 226.109L367.552 230.752L370.648 234.842Z" fill="#F05454"/>
<path d="M381.275 195.522L376.538 197.511L376.107 202.622L372.749 198.739L367.749 199.912L370.413 195.522L367.749 191.123L372.749 192.295L376.107 188.412L376.538 193.524L381.275 195.522Z" fill="#F05454"/>
<path d="M370.807 156.155L367.703 160.244L369.888 164.887L365.039 163.199L361.296 166.716L361.399 161.586L356.906 159.109L361.812 157.618L362.778 152.581L365.714 156.793L370.807 156.155Z" fill="#F05454"/>
<path d="M342.058 127.293L341.421 132.386L345.632 135.313L340.595 136.279L339.104 141.194L336.628 136.701L331.497 136.804L335.005 133.062L333.326 128.212L337.969 130.388L342.058 127.293Z" fill="#F05454"/>
<path d="M525.084 180.758C551.006 180.758 572.021 159.743 572.021 133.821C572.021 107.899 551.006 86.8848 525.084 86.8848C499.162 86.8848 478.148 107.899 478.148 133.821C478.148 159.743 499.162 180.758 525.084 180.758Z" fill="#A6A6A6"/>
<path d="M525.084 185.429C514.881 185.429 504.907 182.403 496.424 176.734C487.94 171.066 481.328 163.009 477.423 153.582C473.518 144.155 472.497 133.783 474.487 123.775C476.478 113.768 481.391 104.576 488.606 97.361C495.821 90.1462 505.013 85.2328 515.02 83.2423C525.027 81.2517 535.4 82.2733 544.826 86.178C554.253 90.0826 562.31 96.6949 567.979 105.179C573.647 113.662 576.673 123.636 576.673 133.84C576.653 147.516 571.211 160.626 561.541 170.297C551.871 179.967 538.76 185.409 525.084 185.429ZM525.084 83.189C515.067 83.189 505.274 86.1596 496.945 91.7252C488.615 97.2907 482.123 105.201 478.29 114.457C474.456 123.712 473.453 133.896 475.407 143.721C477.362 153.547 482.186 162.572 489.269 169.655C496.353 176.739 505.378 181.563 515.203 183.517C525.028 185.472 535.212 184.469 544.468 180.635C553.723 176.801 561.633 170.309 567.199 161.98C572.764 153.65 575.735 143.858 575.735 133.84C575.725 120.407 570.386 107.526 560.89 98.0253C551.395 88.5241 538.517 83.1782 525.084 83.1608V83.189Z" fill="#A6A6A6"/>
<path d="M520.216 127.855L542.184 105.888H552.905V116.365H546.048V123.465H539.182V130.575H532.072V137.563L530.928 138.708L520.216 127.855Z" fill="#F05454"/>
<path opacity="0.3" d="M552.895 105.897V116.365H546.039V123.475H539.182V130.585H532.072V137.564L530.965 138.67L525.544 133.249L552.895 105.897Z" fill="white"/>
<path opacity="0.1" d="M530.628 125.501L529.549 124.413L541.19 112.764L542.259 113.833L530.628 125.501Z" fill="black"/>
<path d="M502.367 156.661C504.8 159.093 507.901 160.75 511.276 161.42C514.65 162.091 518.149 161.746 521.327 160.429C524.506 159.112 527.223 156.881 529.134 154.02C531.046 151.159 532.066 147.795 532.066 144.355C532.066 140.914 531.046 137.55 529.134 134.689C527.223 131.828 524.506 129.598 521.327 128.28C518.149 126.963 514.65 126.618 511.276 127.289C507.901 127.959 504.8 129.616 502.367 132.048C499.104 135.313 497.271 139.739 497.271 144.355C497.271 148.97 499.104 153.396 502.367 156.661ZM512.506 146.521C513.142 147.158 513.575 147.968 513.751 148.851C513.926 149.733 513.836 150.648 513.492 151.479C513.147 152.31 512.564 153.02 511.816 153.52C511.068 154.02 510.189 154.287 509.289 154.287C508.389 154.287 507.51 154.02 506.762 153.52C506.014 153.02 505.431 152.31 505.086 151.479C504.742 150.648 504.652 149.733 504.827 148.851C505.003 147.968 505.436 147.158 506.072 146.521C506.494 146.099 506.996 145.763 507.548 145.535C508.1 145.306 508.691 145.188 509.289 145.188C509.886 145.188 510.478 145.306 511.03 145.535C511.582 145.763 512.084 146.099 512.506 146.521Z" fill="#F05454"/>
<path d="M170.373 319.306C196.295 319.306 217.309 298.292 217.309 272.37C217.309 246.448 196.295 225.434 170.373 225.434C144.45 225.434 123.437 246.448 123.437 272.37C123.437 298.292 144.45 319.306 170.373 319.306Z" fill="#A6A6A6"/>
<path d="M170.373 323.969C160.169 323.969 150.195 320.943 141.712 315.274C133.228 309.606 126.616 301.549 122.711 292.122C118.807 282.695 117.785 272.323 119.775 262.315C121.766 252.308 126.679 243.116 133.894 235.901C141.109 228.686 150.301 223.773 160.308 221.782C170.315 219.792 180.688 220.813 190.115 224.718C199.541 228.623 207.598 235.235 213.267 243.719C218.935 252.202 221.961 262.176 221.961 272.38C221.941 286.056 216.499 299.166 206.829 308.837C197.159 318.507 184.049 323.949 170.373 323.969ZM170.373 221.729C160.355 221.729 150.562 224.7 142.233 230.265C133.903 235.831 127.411 243.741 123.578 252.997C119.744 262.252 118.741 272.436 120.695 282.261C122.65 292.087 127.474 301.112 134.557 308.195C141.641 315.279 150.666 320.103 160.491 322.057C170.316 324.012 180.5 323.009 189.756 319.175C199.011 315.341 206.921 308.849 212.487 300.52C218.052 292.19 221.023 282.398 221.023 272.38C221.01 258.948 215.671 246.071 206.175 236.571C196.68 227.072 183.804 221.728 170.373 221.71V221.729Z" fill="#A6A6A6"/>
<path d="M199.947 257.457C199.947 257.457 195.763 290.971 188.888 298.512C180.625 307.554 174.631 306.232 171.301 310.903C167.962 306.213 161.968 307.564 153.705 298.512C146.82 291.008 142.646 257.457 142.646 257.457C160.777 248.649 171.301 238.791 171.301 238.791C171.62 239.101 182.107 248.79 199.947 257.457Z" fill="#F05454"/>
<path opacity="0.1" d="M171.264 238.8V310.903C167.924 306.213 161.931 307.564 153.667 298.512C146.783 291.008 142.609 257.457 142.609 257.457C160.74 248.649 171.264 238.791 171.264 238.791V238.8Z" fill="black"/>
<path d="M147.083 260.158C147.083 260.158 150.619 288.466 156.462 294.863C163.441 302.517 168.506 301.429 171.329 305.34C174.143 301.401 179.208 302.526 186.196 294.863C192.002 288.494 195.529 260.158 195.529 260.158C180.221 252.719 171.329 244.381 171.329 244.381C171.329 244.381 162.4 252.719 147.083 260.158Z" fill="#F05454"/>
<path opacity="0.3" d="M195.501 260.158C195.501 260.158 191.965 288.466 186.121 294.863C179.143 302.508 174.087 301.429 171.264 305.322V244.391C171.564 244.653 180.418 252.832 195.501 260.158Z" fill="white"/>
<path d="M176.563 269.078V273.478H175.016V269.078C175.041 268.588 174.966 268.098 174.795 267.637C174.625 267.177 174.362 266.756 174.024 266.4C173.686 266.044 173.279 265.761 172.828 265.567C172.376 265.373 171.891 265.274 171.4 265.274C170.909 265.274 170.423 265.373 169.972 265.567C169.521 265.761 169.113 266.044 168.775 266.4C168.437 266.756 168.175 267.177 168.004 267.637C167.834 268.098 167.759 268.588 167.784 269.078V273.478H166.199V269.078C166.146 268.363 166.241 267.645 166.479 266.968C166.716 266.292 167.091 265.671 167.579 265.146C168.067 264.621 168.658 264.201 169.316 263.915C169.973 263.628 170.683 263.48 171.4 263.48C172.117 263.48 172.826 263.628 173.484 263.915C174.141 264.201 174.732 264.621 175.22 265.146C175.708 265.671 176.083 266.292 176.32 266.968C176.558 267.645 176.653 268.363 176.601 269.078H176.563Z" fill="white"/>
<path d="M164.126 270.176V283.307H178.599V270.176H164.126ZM172.567 280.1H169.997L170.607 277.22C170.416 277.102 170.26 276.937 170.153 276.739C170.046 276.542 169.993 276.321 169.998 276.097C170.003 275.873 170.067 275.654 170.183 275.462C170.299 275.27 170.463 275.112 170.659 275.003C170.855 274.894 171.076 274.839 171.3 274.842C171.524 274.845 171.744 274.907 171.937 275.021C172.13 275.135 172.289 275.297 172.4 275.492C172.511 275.687 172.568 275.908 172.567 276.132C172.568 276.349 172.513 276.563 172.408 276.753C172.303 276.944 172.151 277.104 171.967 277.22L172.567 280.1Z" fill="white"/>
<path d="M143.814 82.6342C149.9 57.4367 134.408 32.0758 109.211 25.9892C84.0133 19.9026 58.6527 35.3951 52.5661 60.5926C46.4795 85.7902 61.9719 111.151 87.1692 117.238C112.367 123.324 137.727 107.832 143.814 82.6342Z" fill="#A6A6A6"/>
<path d="M98.1863 123.166C87.9831 123.166 78.009 120.14 69.5253 114.472C61.0417 108.803 54.4295 100.746 50.5249 91.3192C46.6203 81.8926 45.5986 71.5198 47.5892 61.5126C49.5797 51.5054 54.493 42.3131 61.7078 35.0983C68.9226 27.8835 78.1147 22.9701 88.1219 20.9796C98.129 18.989 108.502 20.0106 117.928 23.9153C127.355 27.8199 135.412 34.4322 141.08 42.9159C146.749 51.3996 149.775 61.3738 149.775 71.5771C149.76 85.2547 144.32 98.3678 134.648 108.039C124.977 117.711 111.864 123.151 98.1863 123.166ZM98.1863 20.9263C88.1686 20.9263 78.3758 23.8969 70.0464 29.4625C61.717 35.0281 55.225 42.9386 51.3914 52.1939C47.5578 61.4491 46.5548 71.6333 48.5091 81.4586C50.4635 91.2838 55.2875 100.309 62.371 107.393C69.4546 114.476 78.4797 119.3 88.3049 121.255C98.1301 123.209 108.314 122.206 117.569 118.372C126.824 114.539 134.735 108.047 140.301 99.7171C145.866 91.3877 148.837 81.5949 148.837 71.5771C148.819 58.149 143.477 45.2758 133.982 35.7807C124.487 26.2856 111.614 20.9437 98.1863 20.9263Z" fill="#A6A6A6"/>
<path d="M66.9144 94.3515H126.532L126.213 53.1367H66.5955L66.9144 94.3515Z" fill="#F05454"/>
<path d="M104.921 48.8691H125.988L126.213 53.1369H103.936L104.921 48.8691Z" fill="#F05454"/>
<g opacity="0.1">
<path d="M66.9144 94.3515H126.532L126.213 53.1367H66.5955L66.9144 94.3515Z" fill="black"/>
<path d="M104.921 48.8691H125.988L126.213 53.1369H103.936L104.921 48.8691Z" fill="black"/>
</g>
<path d="M66.9614 94.3514H126.579L131.175 55.5566H71.5575L66.9614 94.3514Z" fill="#F05454"/>
<path d="M110.586 51.542H131.653L131.175 55.5565H108.898L110.586 51.542Z" fill="#F05454"/>
<path d="M104.668 68.4448V73.0033H103.026V68.4448C103.026 67.4497 102.631 66.4954 101.927 65.7917C101.224 65.0881 100.269 64.6928 99.2743 64.6928C98.2793 64.6928 97.325 65.0881 96.6214 65.7917C95.9177 66.4954 95.5225 67.4497 95.5225 68.4448V73.0033H93.881V68.4448C93.8275 67.7044 93.9271 66.9609 94.1736 66.2607C94.4202 65.5605 94.8084 64.9186 95.314 64.3751C95.8196 63.8316 96.4318 63.3981 97.1124 63.1017C97.793 62.8053 98.5273 62.6523 99.2696 62.6523C100.012 62.6523 100.746 62.8053 101.427 63.1017C102.107 63.3981 102.72 63.8316 103.225 64.3751C103.731 64.9186 104.119 65.5605 104.366 66.2607C104.612 66.9609 104.712 67.7044 104.658 68.4448H104.668Z" fill="white"/>
<path d="M91.8081 69.5791V83.1798H106.816V69.5791H91.8081ZM100.569 79.8968H97.9049L98.5334 76.9141C98.2876 76.7612 98.0983 76.5324 97.9941 76.2623C97.89 75.9923 97.8766 75.6956 97.9561 75.4173C98.0356 75.139 98.2036 74.8941 98.4347 74.7198C98.6658 74.5455 98.9474 74.4512 99.2368 74.4512C99.5263 74.4512 99.8079 74.5455 100.039 74.7198C100.27 74.8941 100.438 75.139 100.518 75.4173C100.597 75.6956 100.584 75.9923 100.48 76.2623C100.375 76.5324 100.186 76.7612 99.9403 76.9141L100.569 79.8968Z" fill="white"/>
<path d="M467.296 177.475C477.867 182.164 484.348 201.581 476.901 219.243C470.119 235.301 451.341 244.062 440.32 240.113C428.605 235.929 424.994 223.023 430.265 215.266C435.368 207.762 443.8 205.52 446.051 198.682C447.13 195.409 445.948 189.706 447.327 184.8C448.902 179.332 458.807 173.676 467.296 177.475Z" fill="#263238"/>
<path d="M452.129 241.22C457.964 240.011 463.397 237.339 467.915 233.453C472.429 229.538 475.981 224.638 478.299 219.13C480.727 213.65 481.637 207.618 480.934 201.665C480.137 195.753 477.751 190.167 474.031 185.504C477.5 190.283 479.692 195.868 480.4 201.731C480.713 204.639 480.631 207.577 480.156 210.463C479.663 213.351 478.819 216.167 477.642 218.849C476.492 221.541 475.065 224.106 473.384 226.503C469.986 231.306 465.516 235.25 460.327 238.021C457.746 239.441 454.99 240.517 452.129 241.22Z" fill="#263238"/>
<path d="M428.436 217.386C429.148 215.706 430.12 214.149 431.316 212.771C432.495 211.393 433.829 210.156 435.293 209.085C436.775 208.015 438.238 206.899 439.654 205.727C441.101 204.563 442.407 203.234 443.547 201.768C444.115 201.019 444.617 200.222 445.047 199.386C445.441 198.529 445.718 197.624 445.873 196.694C446.134 194.869 446.284 193.031 446.323 191.188C446.39 189.376 446.686 187.579 447.205 185.842C447.753 184.099 448.614 182.472 449.747 181.039C448.511 182.403 447.555 183.997 446.933 185.729C446.331 187.48 445.962 189.303 445.835 191.15C445.648 193.026 445.62 194.809 445.282 196.572C445.129 197.446 444.857 198.295 444.475 199.095C444.061 199.886 443.574 200.636 443.021 201.337C440.874 204.226 437.853 206.364 435.011 208.644C433.551 209.788 432.232 211.1 431.081 212.555C429.934 214.005 429.039 215.638 428.436 217.386Z" fill="#263238"/>
<path d="M543.487 346.752C542.943 344.632 509.495 293.643 507.047 292.537C506.766 292.396 489.563 302.976 489.563 302.976C488.832 303.83 458.076 295.135 458.076 295.135L455.262 332.757L512.178 335.374C512.178 335.374 519.56 340.402 526.332 344.557C529.209 346.434 532.194 348.141 535.271 349.669C538.01 350.588 544.05 348.862 543.487 346.752Z" fill="#EB9481"/>
<path d="M535.252 349.659C534.173 349.312 530.487 347.136 526.322 344.557C519.55 340.411 512.178 335.374 512.178 335.374L499.506 334.792L481.825 301.504C486.121 302.564 489.329 303.248 489.573 302.967C489.573 302.967 506.766 292.396 507.047 292.537C509.495 293.643 542.943 344.632 543.487 346.752C544.031 348.871 538.01 350.588 535.252 349.659Z" fill="white"/>
<path d="M543.825 346.846C543.244 344.669 509.627 293.69 507.113 292.555C506.175 292.124 497.799 296.542 489.563 302.976L511.278 335.806C511.278 335.806 532.476 348.937 535.355 349.875C538.235 350.813 544.397 349.012 543.825 346.846Z" fill="#F05454"/>
<path d="M541.302 347.455C535.458 339.013 512.675 304.589 507.535 295.866C507.535 295.791 507.535 295.763 507.535 295.866C513.519 304.073 536.021 338.713 541.396 347.455C541.555 347.549 541.424 347.633 541.302 347.455Z" fill="#263238"/>
<path d="M531.359 347.811C530.708 346.877 530.258 345.818 530.036 344.7C529.815 343.583 529.828 342.432 530.074 341.32C530.504 339.317 531.69 337.556 533.386 336.405C533.386 336.405 533.498 336.462 533.451 336.508C531.944 337.915 530.935 339.774 530.578 341.805C530.221 343.836 530.535 345.928 531.472 347.764C531.472 347.777 531.469 347.79 531.461 347.801C531.454 347.812 531.444 347.821 531.432 347.826C531.42 347.831 531.406 347.832 531.393 347.829C531.38 347.827 531.369 347.82 531.359 347.811Z" fill="#263238"/>
<path d="M513.904 337.962C511.606 334.576 510.199 329.811 511.587 325.844C511.643 325.694 511.859 325.769 511.878 325.9C512.283 329.926 513.116 333.897 514.363 337.747C514.392 337.808 514.395 337.877 514.372 337.941C514.35 338.004 514.302 338.056 514.242 338.084C514.181 338.113 514.111 338.116 514.047 338.093C513.984 338.07 513.932 338.023 513.904 337.962Z" fill="#263238"/>
<path d="M516.68 339.886C514.373 336.499 512.928 331.735 514.363 327.767C514.42 327.617 514.635 327.692 514.645 327.833C515.054 331.856 515.89 335.824 517.14 339.67C517.154 339.7 517.162 339.733 517.163 339.766C517.165 339.799 517.16 339.833 517.149 339.864C517.137 339.895 517.12 339.924 517.098 339.949C517.075 339.973 517.048 339.993 517.018 340.007C516.988 340.022 516.955 340.03 516.922 340.031C516.888 340.033 516.855 340.028 516.824 340.016C516.792 340.005 516.764 339.988 516.739 339.965C516.714 339.943 516.694 339.916 516.68 339.886Z" fill="#263238"/>
<path d="M519.447 341.846C517.149 338.459 515.695 333.695 517.13 329.727C517.187 329.577 517.402 329.652 517.421 329.793C517.822 333.816 518.656 337.785 519.907 341.63C519.935 341.691 519.939 341.761 519.916 341.824C519.893 341.887 519.846 341.939 519.785 341.967C519.724 341.996 519.654 341.999 519.591 341.976C519.527 341.954 519.476 341.907 519.447 341.846Z" fill="#263238"/>
<path d="M522.214 343.806C519.916 340.42 518.509 335.665 519.907 331.688C519.907 331.538 520.179 331.613 520.188 331.753C520.596 335.777 521.433 339.745 522.683 343.591C522.698 343.65 522.692 343.713 522.665 343.768C522.639 343.823 522.594 343.868 522.538 343.893C522.483 343.919 522.42 343.924 522.361 343.908C522.301 343.892 522.25 343.856 522.214 343.806Z" fill="#263238"/>
<path d="M500.847 303.36C498.333 299.524 504.299 295.594 506.822 299.449C509.345 303.304 503.38 307.215 500.847 303.36Z" fill="#263238"/>
<path d="M512.047 344.059C513.219 340.645 512.863 336.846 512.938 333.301C512.933 333.221 512.91 333.145 512.87 333.076C512.829 333.008 512.774 332.951 512.707 332.909C512.64 332.866 512.563 332.841 512.485 332.834C512.406 332.827 512.326 332.839 512.253 332.869C512.248 332.852 512.239 332.837 512.227 332.825C512.214 332.812 512.199 332.803 512.182 332.799C512.165 332.794 512.147 332.794 512.13 332.798C512.113 332.802 512.097 332.81 512.084 332.822C509.114 335.147 506.805 338.209 505.387 341.705C504.609 343.75 504.637 346.854 507.216 347.642C509.796 348.43 511.371 346.057 512.047 344.059ZM509.327 346.085C505.378 348.205 506.025 342.962 506.663 341.47C507.095 340.516 507.59 339.592 508.145 338.703C509.32 336.883 510.588 335.123 511.944 333.432C511.794 335.167 511.803 336.912 511.718 338.647C511.625 340.776 511.493 344.922 509.327 346.085Z" fill="#263238"/>
<path d="M501.898 322.12C499.844 323.855 501.035 326.726 502.573 328.292C505.254 330.944 508.587 332.842 512.234 333.798C512.251 333.802 512.267 333.803 512.284 333.8C512.3 333.796 512.316 333.79 512.329 333.78C512.343 333.77 512.354 333.757 512.362 333.742C512.37 333.728 512.374 333.711 512.375 333.695C512.454 333.691 512.53 333.668 512.599 333.629C512.667 333.59 512.726 333.535 512.769 333.47C512.813 333.404 512.841 333.329 512.851 333.251C512.86 333.173 512.852 333.094 512.825 333.019C511.353 329.802 510.171 326.163 507.751 323.49C506.334 321.933 503.839 320.469 501.898 322.12ZM509.589 328.592C510.358 330.159 511.034 331.753 511.859 333.282C509.945 332.27 508.085 331.159 506.288 329.952C505.426 329.354 504.605 328.699 503.83 327.992C502.648 326.876 499.984 322.317 504.44 322.702C506.907 322.955 508.679 326.707 509.589 328.583V328.592Z" fill="#263238"/>
<path d="M467.587 287.162C467.587 287.162 419.75 265.119 398.43 265.326C373.03 265.57 353.22 295.679 384.314 317.487C411.796 336.762 498.615 335.561 498.615 335.561L478.42 299.102C460.611 292.837 441.949 289.329 423.08 288.7L466.855 297.705L467.587 287.162Z" fill="#455A64"/>
<path d="M466.724 294.412C462.972 293.474 459.154 292.799 455.346 292.105C451.538 291.411 447.655 290.782 443.79 290.229C436.092 289.035 428.337 288.233 420.557 287.828C419.835 287.828 419.103 287.771 418.371 287.743L417.902 287.593C417.537 287.48 417.171 287.359 416.805 287.265C416.111 287.087 415.407 286.936 414.713 286.777C413.26 286.458 411.796 286.195 410.352 285.839C410.343 285.836 410.334 285.835 410.325 285.835C410.316 285.836 410.307 285.838 410.299 285.842C410.29 285.846 410.283 285.851 410.277 285.858C410.271 285.865 410.266 285.873 410.263 285.881C410.26 285.89 410.258 285.899 410.259 285.908C410.259 285.917 410.261 285.926 410.265 285.935C410.269 285.943 410.275 285.95 410.282 285.956C410.288 285.963 410.296 285.967 410.305 285.97C411.759 286.392 413.175 286.908 414.62 287.34L415.876 287.696C413.016 287.649 410.164 287.696 407.303 287.743C407.21 287.743 407.2 287.884 407.303 287.884C411.187 287.884 415.079 288.156 418.953 288.484C422.827 288.812 426.635 289.15 430.462 289.628C438.2 290.566 445.92 291.814 453.602 293.146C457.916 293.896 462.231 294.731 466.583 295.2C466.635 295.209 466.688 295.208 466.739 295.197C466.791 295.186 466.839 295.164 466.882 295.134C466.925 295.104 466.962 295.066 466.99 295.022C467.019 294.978 467.038 294.928 467.047 294.876C467.057 294.825 467.056 294.772 467.044 294.72C467.033 294.669 467.012 294.62 466.982 294.577C466.952 294.534 466.913 294.497 466.869 294.469C466.825 294.441 466.776 294.421 466.724 294.412Z" fill="#263238"/>
<path d="M489.742 333.892C488.504 331.575 487.481 329.127 486.365 326.745C485.249 324.362 484.123 321.97 482.998 319.588C480.747 314.832 472.624 298.802 471.742 297.667C471.731 297.65 471.714 297.637 471.694 297.632C471.674 297.626 471.652 297.629 471.634 297.638C471.615 297.647 471.601 297.663 471.593 297.682C471.585 297.702 471.585 297.723 471.592 297.742C471.939 298.962 476.976 309.561 478.158 311.925C480.484 316.615 482.951 321.304 485.38 325.994C486.074 327.326 486.787 328.649 487.5 329.981C488.213 331.313 488.954 332.616 489.592 333.977C489.657 334.042 489.789 333.977 489.742 333.892Z" fill="#263238"/>
<path d="M376.679 346.254C377.307 344.153 412.753 294.524 415.239 293.521C415.52 293.389 432.291 304.636 432.291 304.636C432.995 305.527 464.069 298.07 464.069 298.07L465.43 335.777L408.448 336.142C408.448 336.142 400.878 340.832 393.947 344.753C391.002 346.521 387.951 348.106 384.811 349.499C382.007 350.296 376.069 348.336 376.679 346.254Z" fill="#EB9481"/>
<path d="M384.83 349.481C387.969 348.093 391.017 346.508 393.956 344.734C400.888 340.861 408.457 336.114 408.457 336.114L421.139 336.039L440.095 303.473C435.762 304.364 432.526 304.917 432.3 304.636C432.3 304.636 415.539 293.38 415.248 293.521C412.763 294.524 377.317 344.172 376.688 346.245C376.06 348.318 382.007 350.297 384.83 349.481Z" fill="white"/>
<path d="M376.379 346.329C377.045 344.172 412.659 294.571 415.211 293.54C416.149 293.136 424.356 297.882 432.329 304.636L409.33 336.593C409.33 336.593 387.634 348.861 384.717 349.724C381.8 350.587 375.741 348.477 376.379 346.329Z" fill="#F05454"/>
<path d="M378.874 347.042C385.046 338.872 409.18 305.34 414.657 296.795C414.704 296.729 414.657 296.691 414.61 296.795C408.317 304.758 384.455 338.478 378.742 346.976C378.62 347.117 378.742 347.211 378.874 347.042Z" fill="#263238"/>
<path d="M388.788 347.783C389.476 346.877 389.968 345.838 390.235 344.732C390.501 343.627 390.535 342.478 390.336 341.358C389.987 339.337 388.871 337.529 387.222 336.312C387.175 336.312 387.109 336.368 387.156 336.405C388.6 337.87 389.529 339.764 389.805 341.802C390.081 343.84 389.688 345.912 388.685 347.708C388.647 347.783 388.741 347.849 388.788 347.783Z" fill="#263238"/>
<path d="M406.628 338.601C409.058 335.308 410.652 330.6 409.442 326.585C409.442 326.426 409.18 326.491 409.161 326.632C408.595 330.637 407.604 334.571 406.206 338.366C406.196 338.419 406.202 338.474 406.224 338.522C406.247 338.571 406.284 338.612 406.331 338.638C406.378 338.664 406.433 338.674 406.486 338.668C406.539 338.661 406.589 338.638 406.628 338.601Z" fill="#263238"/>
<path d="M403.777 340.448C406.215 337.156 407.81 332.457 406.591 328.433C406.544 328.274 406.319 328.349 406.3 328.48C405.739 332.486 404.749 336.42 403.345 340.214C403.331 340.269 403.336 340.326 403.359 340.378C403.381 340.43 403.42 340.472 403.47 340.499C403.519 340.526 403.576 340.536 403.632 340.527C403.688 340.517 403.739 340.49 403.777 340.448Z" fill="#263238"/>
<path d="M400.935 342.306C403.364 339.004 404.968 334.305 403.748 330.281C403.748 330.121 403.476 330.196 403.458 330.328C402.893 334.333 401.902 338.266 400.503 342.062C400.494 342.115 400.501 342.17 400.524 342.22C400.547 342.269 400.585 342.31 400.632 342.336C400.68 342.363 400.734 342.375 400.788 342.369C400.843 342.364 400.894 342.341 400.935 342.306Z" fill="#263238"/>
<path d="M398.083 344.153C400.522 340.852 402.117 336.152 400.897 332.129C400.85 331.978 400.635 332.044 400.607 332.185C400.045 336.191 399.054 340.125 397.652 343.919C397.638 343.974 397.643 344.031 397.665 344.083C397.688 344.135 397.727 344.177 397.776 344.204C397.826 344.231 397.883 344.241 397.939 344.232C397.994 344.222 398.045 344.195 398.083 344.153Z" fill="#263238"/>
<path d="M421.035 304.58C423.709 300.828 417.893 296.682 415.22 300.434C412.547 304.186 418.362 308.332 421.035 304.58Z" fill="#263238"/>
<path d="M412.922 348.571C415.53 347.886 415.689 344.819 414.986 342.709C413.707 339.162 411.52 336.012 408.645 333.573C408.579 333.516 408.514 333.573 408.476 333.573C408.404 333.542 408.325 333.528 408.247 333.532C408.168 333.537 408.092 333.559 408.023 333.598C407.955 333.637 407.897 333.692 407.853 333.758C407.81 333.823 407.782 333.898 407.773 333.976C407.716 337.522 407.21 341.311 408.232 344.763C408.832 346.826 410.446 349.218 412.922 348.571ZM408.786 339.407C408.786 337.662 408.842 335.927 408.786 334.192C410.071 335.934 411.267 337.74 412.369 339.604C412.891 340.51 413.352 341.45 413.747 342.418C414.32 343.937 414.76 349.199 410.933 346.93C408.757 345.691 408.795 341.489 408.786 339.407Z" fill="#263238"/>
<path d="M413.344 324.418C410.821 326.997 409.498 330.581 407.894 333.742C407.866 333.815 407.856 333.894 407.864 333.972C407.872 334.05 407.897 334.125 407.939 334.192C407.981 334.258 408.038 334.314 408.105 334.354C408.172 334.395 408.248 334.42 408.326 334.426C408.324 334.443 408.326 334.461 408.332 334.477C408.338 334.493 408.348 334.507 408.361 334.518C408.374 334.529 408.39 334.537 408.406 334.541C408.423 334.544 408.441 334.544 408.457 334.539C412.141 333.732 415.548 331.969 418.334 329.427C419.929 327.917 421.242 325.103 419.272 323.283C417.302 321.463 414.817 322.955 413.344 324.418ZM416.683 323.771C421.157 323.565 418.306 328.02 417.086 329.08C416.29 329.767 415.443 330.394 414.554 330.956C412.708 332.091 410.804 333.13 408.851 334.07C409.733 332.569 410.483 331.003 411.309 329.464C412.322 327.645 414.198 323.893 416.683 323.771Z" fill="#263238"/>
<path d="M465.514 286.439C465.514 286.439 513.707 271.713 539.473 274.687C564.704 277.594 575.181 309.176 550.653 326.416C523.874 345.241 422.733 339.097 422.733 339.097L444.213 300.359C444.213 300.359 478.608 292.114 510.011 292.302L465.927 299.562L465.514 286.439Z" fill="#455A64"/>
<path d="M442.74 302.854C442.765 302.791 442.781 302.725 442.787 302.657V302.498C442.787 302.376 442.853 302.254 442.881 302.132C442.946 301.869 443.031 301.625 443.115 301.372C443.2 301.119 443.312 300.884 443.415 300.641C443.535 300.404 443.67 300.175 443.819 299.956C443.819 299.956 443.819 299.956 443.875 299.909H443.931H443.988C447.739 299.093 473.524 294.684 477.361 294.14C481.197 293.596 485.099 293.118 488.982 292.687C496.719 291.801 504.495 291.303 512.281 291.195H514.56C514.71 291.139 514.879 291.111 515.039 291.064C515.405 290.961 515.77 290.857 516.146 290.782C516.849 290.623 517.553 290.501 518.256 290.379C519.719 290.107 521.192 289.91 522.655 289.601C522.739 289.601 522.777 289.713 522.655 289.732C521.192 290.098 519.757 290.567 518.284 290.932L517.018 291.233C519.879 291.308 522.73 291.448 525.591 291.627C525.675 291.627 525.685 291.767 525.591 291.767C521.708 291.645 517.806 291.767 513.923 291.899C510.039 292.03 506.222 292.264 502.386 292.593C494.61 293.249 486.853 294.169 479.115 295.191C474.781 295.763 448.527 300.34 444.166 300.65H444.109C444.078 300.752 444.04 300.852 443.997 300.95C443.884 301.194 443.772 301.428 443.64 301.663C443.509 301.897 443.406 302.123 443.275 302.338L443.068 302.657L442.965 302.817C442.924 302.871 442.887 302.927 442.853 302.986C442.843 303.014 442.693 302.948 442.74 302.854Z" fill="#263238"/>
<path d="M430.781 336.556C432.113 334.295 433.238 331.866 434.448 329.549L438.097 322.533C440.526 317.843 449.287 302.179 450.169 301.072C450.169 300.997 450.338 301.072 450.309 301.156C449.916 302.357 444.466 312.74 443.209 315.057C440.695 319.691 438.041 324.24 435.433 328.817C434.692 330.13 433.914 331.415 433.163 332.719C432.413 334.023 431.597 335.299 430.912 336.631C430.907 336.639 430.901 336.647 430.893 336.653C430.885 336.659 430.876 336.663 430.867 336.666C430.857 336.669 430.847 336.669 430.837 336.668C430.827 336.667 430.818 336.664 430.809 336.659C430.8 336.654 430.793 336.647 430.787 336.639C430.781 336.632 430.776 336.623 430.774 336.613C430.771 336.603 430.77 336.593 430.772 336.584C430.773 336.574 430.776 336.564 430.781 336.556Z" fill="#263238"/>
<path d="M453.517 217.283C432.329 228.707 412.491 242.505 408.87 251.932C406.591 257.869 409.198 266.601 411.684 272.998C412.894 276.113 440.592 266.583 438.969 263.403C435.039 255.73 433.67 252.626 433.67 252.626C434.073 251.791 457.119 231.155 463.544 221.907C472.483 209.028 462.784 212.274 453.517 217.283Z" fill="#EB9481"/>
<path d="M430.659 248.001C431.529 248.625 432.263 249.419 432.816 250.337C433.409 251.231 433.794 252.247 433.942 253.31C433.304 252.438 432.779 251.575 432.225 250.712C431.672 249.849 431.137 248.967 430.659 248.001Z" fill="#263238"/>
<path d="M422.93 234.381L438.791 249.473C438.791 249.473 459.07 230.958 464.876 220.949C470.682 210.941 466.255 210.088 454.465 215.913C442.674 221.737 422.93 234.381 422.93 234.381Z" fill="#F05454"/>
<path d="M422.93 234.381L438.791 249.473C438.791 249.473 459.07 230.958 464.876 220.949C470.682 210.941 466.255 210.088 454.465 215.913C442.674 221.737 422.93 234.381 422.93 234.381Z" fill="#F05454"/>
<path d="M441.98 245.412C437.037 241.197 432.36 236.68 427.976 231.886C427.92 231.83 428.023 231.745 428.08 231.802C429.261 233.059 436.606 239.587 442.093 245.327C442.159 245.393 442.055 245.477 441.98 245.412Z" fill="#263238"/>
<path opacity="0.1" d="M464.848 220.94C459.051 230.948 438.772 249.473 438.772 249.473L433.276 244.249L467.043 213.099C467.896 214.309 467.23 216.86 464.848 220.94Z" fill="black"/>
<path d="M447.167 246.81L442.806 272.192C442.806 272.192 462.503 283.522 495.754 273.308C495.754 273.308 490.07 232.131 477.417 217.902C471.085 210.782 463.497 211.176 458.582 216.026C457.344 217.236 447.092 229.776 445.451 237.111C443.978 243.555 447.167 246.81 447.167 246.81Z" fill="#EB9481"/>
<path d="M447.167 246.81L444.288 257.297L459.154 252.775L493.925 257.297C493.925 257.297 490.051 232.159 477.398 217.902C471.067 210.782 463.478 211.176 458.563 216.026C457.325 217.236 447.073 229.776 445.432 237.111C443.978 243.555 447.167 246.81 447.167 246.81Z" fill="#F05454"/>
<path d="M450.159 248.461C452 248.081 453.86 247.802 455.731 247.626C456.669 247.551 457.607 247.523 458.545 247.514H459.886C460.383 247.514 460.824 247.607 461.368 247.617C461.424 247.617 461.424 247.692 461.368 247.692C460.899 247.692 460.43 247.786 459.971 247.823L458.573 247.926L455.759 248.142C453.883 248.264 452.007 248.405 450.131 248.592C450.12 248.584 450.112 248.572 450.107 248.559C450.103 248.546 450.102 248.532 450.105 248.518C450.108 248.504 450.114 248.492 450.124 248.482C450.134 248.472 450.146 248.464 450.159 248.461Z" fill="#263238"/>
<path d="M457.766 254.061C457.766 254.061 455.89 259.004 451.463 260.345C451.463 260.345 450.816 255.862 452.12 254.098C452.767 253.217 456.237 252.222 456.753 252.766C457.135 253.162 457.474 253.595 457.766 254.061Z" fill="#F05454"/>
<path d="M457.766 254.061C457.766 254.061 455.89 259.004 451.463 260.345C451.463 260.345 450.816 255.862 452.12 254.098C452.767 253.217 456.237 252.222 456.753 252.766C457.135 253.162 457.474 253.595 457.766 254.061Z" fill="#F05454"/>
<path d="M457.766 254.06C457.235 255.51 456.429 256.844 455.393 257.99C454.874 258.573 454.285 259.09 453.639 259.528C452.985 259.965 452.275 260.312 451.529 260.56L451.285 260.645V260.382C451.123 259.289 451.072 258.183 451.135 257.08C451.118 255.938 451.445 254.817 452.073 253.863C452.51 253.493 453.017 253.216 453.564 253.047C454.087 252.862 454.623 252.717 455.168 252.615C455.44 252.564 455.717 252.535 455.994 252.531C456.287 252.49 456.585 252.56 456.828 252.728C457.193 253.133 457.508 253.58 457.766 254.06ZM457.766 254.06C457.455 253.619 457.103 253.207 456.716 252.831C456.495 252.713 456.239 252.677 455.994 252.728C455.729 252.761 455.466 252.808 455.206 252.869C454.683 252.987 454.172 253.15 453.677 253.356C453.191 253.53 452.742 253.794 452.354 254.135C451.804 255.024 451.524 256.054 451.548 257.099C451.512 258.173 451.556 259.249 451.679 260.316L451.398 260.138C452.108 259.916 452.786 259.6 453.414 259.2C454.049 258.797 454.634 258.322 455.159 257.784C456.226 256.693 457.106 255.435 457.766 254.06Z" fill="#263238"/>
<path opacity="0.1" d="M457.766 254.061C457.476 253.597 457.139 253.163 456.763 252.766L456.678 252.71L456.566 252.663H456.463C455.799 252.614 455.132 252.7 454.502 252.916C454.724 253.567 455.007 254.195 455.346 254.792C455.756 255.262 456.305 255.591 456.913 255.73C457.247 255.201 457.533 254.642 457.766 254.061Z" fill="#050400"/>
<path d="M458.282 254.229C458.282 254.229 461.753 259.651 464.848 261.03C464.848 261.03 466.227 257.587 464.735 254.652C464.07 253.338 459.352 251.922 458.939 252.588C458.644 253.101 458.423 253.654 458.282 254.229Z" fill="#F05454"/>
<path d="M458.282 254.229C458.282 254.229 461.753 259.651 464.848 261.03C464.848 261.03 466.227 257.587 464.735 254.652C464.07 253.338 459.352 251.922 458.939 252.588C458.644 253.101 458.423 253.654 458.282 254.229Z" fill="#F05454"/>
<path d="M458.282 254.229C459.207 255.515 460.209 256.743 461.284 257.906C461.811 258.488 462.375 259.037 462.972 259.548C463.536 260.06 464.167 260.493 464.848 260.833L464.557 260.955C464.952 259.819 465.139 258.621 465.111 257.419C465.089 256.824 464.992 256.234 464.82 255.665C464.737 255.378 464.631 255.099 464.501 254.83C464.383 254.578 464.198 254.364 463.966 254.211C462.971 253.529 461.863 253.03 460.693 252.738C460.385 252.653 460.071 252.587 459.755 252.541C459.479 252.465 459.187 252.465 458.911 252.541C458.606 253.064 458.393 253.635 458.282 254.229ZM458.282 254.229C458.386 253.611 458.602 253.016 458.92 252.475C459.211 252.333 459.538 252.284 459.858 252.335C460.174 252.36 460.488 252.41 460.796 252.485C462.027 252.734 463.201 253.212 464.257 253.892C464.54 254.084 464.769 254.346 464.923 254.652C465.065 254.936 465.184 255.23 465.28 255.533C465.468 256.142 465.578 256.773 465.608 257.409C465.663 258.688 465.459 259.964 465.007 261.161L464.932 261.377L464.717 261.274C463.987 260.91 463.311 260.446 462.709 259.895C462.116 259.356 461.561 258.776 461.049 258.16C460.019 256.929 459.093 255.615 458.282 254.229Z" fill="#263238"/>
<path opacity="0.1" d="M459.079 255.421C459.711 255.08 460.232 254.566 460.58 253.939C460.754 253.523 460.834 253.075 460.815 252.625C459.877 252.382 459.042 252.325 458.882 252.625C458.594 253.14 458.38 253.693 458.245 254.267C458.245 254.267 458.554 254.717 459.079 255.421Z" fill="#050400"/>
<path d="M459.83 252.776C459.761 252.367 459.572 251.989 459.288 251.688C459.003 251.387 458.636 251.178 458.233 251.086C457.829 250.994 457.407 251.023 457.02 251.171C456.634 251.319 456.3 251.578 456.06 251.916C455.821 252.254 455.688 252.655 455.677 253.069C455.665 253.483 455.777 253.89 455.998 254.241C456.219 254.591 456.539 254.868 456.917 255.036C457.295 255.204 457.715 255.256 458.123 255.186C458.668 255.092 459.154 254.786 459.474 254.334C459.794 253.882 459.922 253.322 459.83 252.776Z" fill="#F05454"/>
<path d="M459.83 252.775C459.751 252.33 459.522 251.925 459.18 251.629C458.839 251.333 458.406 251.163 457.954 251.148C457.502 251.134 457.059 251.275 456.699 251.549C456.338 251.822 456.083 252.211 455.976 252.65C455.869 253.09 455.916 253.552 456.11 253.961C456.304 254.37 456.632 254.699 457.04 254.894C457.448 255.089 457.911 255.138 458.35 255.032C458.79 254.927 459.18 254.673 459.455 254.314C459.618 254.096 459.736 253.848 459.8 253.583C459.865 253.319 459.875 253.044 459.83 252.775ZM459.83 252.775C459.905 253.2 459.854 253.637 459.683 254.033C459.512 254.429 459.229 254.766 458.869 255.002C458.509 255.239 458.087 255.365 457.656 255.364C457.225 255.363 456.803 255.236 456.444 254.998C456.195 254.83 455.983 254.613 455.822 254.359C455.661 254.106 455.553 253.822 455.506 253.526C455.456 253.24 455.464 252.947 455.528 252.664C455.592 252.382 455.711 252.114 455.878 251.877C456.045 251.64 456.257 251.439 456.502 251.284C456.748 251.129 457.021 251.024 457.307 250.974C457.592 250.925 457.885 250.933 458.168 250.997C458.451 251.06 458.718 251.179 458.955 251.347C459.192 251.514 459.394 251.726 459.549 251.971C459.704 252.216 459.809 252.49 459.858 252.775H459.83Z" fill="#263238"/>
<path d="M457.091 260.561C457.505 260.762 457.871 261.052 458.161 261.411C458.451 261.769 458.659 262.186 458.77 262.633C458.908 263.077 458.977 263.539 458.976 264.003C459 264.469 458.959 264.936 458.854 265.391C458.796 265.646 458.691 265.887 458.545 266.104C458.457 266.238 458.339 266.349 458.201 266.429C458.062 266.508 457.907 266.555 457.748 266.564C457.585 266.571 457.424 266.536 457.279 266.462C457.134 266.388 457.011 266.277 456.922 266.141C456.78 265.918 456.693 265.664 456.669 265.401C456.631 264.935 456.685 264.466 456.828 264.022C456.946 263.579 457.187 263.179 457.523 262.868C457.303 263.239 457.174 263.657 457.147 264.087C457.1 264.497 457.119 264.912 457.204 265.316C457.391 266.198 458.029 266.057 458.142 265.222C458.292 264.413 458.292 263.583 458.142 262.774C458.068 262.366 457.942 261.968 457.766 261.592C457.623 261.202 457.392 260.849 457.091 260.561Z" fill="#263238"/>
<path d="M480.625 217.432C507.235 236.802 530.403 263.89 528.349 272.613C526.182 281.834 508.154 292.386 492.124 294.731C488.841 295.209 478.299 271.282 481.657 270.09C484.264 269.152 496.148 265.607 497.602 263.947C498.54 262.793 479.649 237.027 473.421 223.51C466.846 209.366 473.506 212.273 480.625 217.432Z" fill="#EB9481"/>
<path d="M488.419 269.256C488.419 269.256 478.402 270.41 471.883 271.479C468.243 272.079 462.1 273.655 459.623 275.315C455.928 277.801 442.055 290.548 445.075 293.981C447.805 297.086 451.782 292.039 451.782 292.039C451.782 292.039 446.914 297.142 450.572 299.393C454.23 301.644 458.807 294.591 458.807 294.591C458.807 294.591 453.264 299.646 457.4 301.672C460.983 303.436 467.099 295.857 467.099 295.857C467.099 295.857 460.702 300.547 464.201 302.695C468.065 305.077 478.655 294.872 478.655 294.872C487.265 295.707 492.546 295.041 498.568 293.249C499.675 292.94 488.419 269.256 488.419 269.256Z" fill="#EB9481"/>
<path d="M457.344 296.288L458.507 294.684C459.225 293.618 460.012 292.599 460.862 291.635C461.696 290.697 462.578 289.806 463.488 288.943C464.398 288.081 465.505 287.208 466.433 286.27C466.439 286.261 466.447 286.252 466.457 286.246C466.466 286.24 466.477 286.236 466.488 286.235C466.5 286.234 466.511 286.235 466.522 286.239C466.532 286.242 466.542 286.248 466.55 286.256C466.558 286.264 466.564 286.274 466.568 286.285C466.572 286.296 466.573 286.307 466.572 286.318C466.57 286.33 466.567 286.34 466.56 286.35C466.554 286.359 466.546 286.367 466.536 286.373C465.604 287.293 464.725 288.264 463.901 289.281C463.056 290.219 462.231 291.232 461.396 292.208C460.562 293.183 459.717 294.084 458.883 295.022C458.47 295.481 458.066 295.96 457.673 296.447C457.329 296.934 456.943 297.389 456.519 297.807C456.509 297.814 456.497 297.817 456.485 297.817C456.474 297.817 456.462 297.812 456.453 297.805C456.443 297.798 456.437 297.788 456.433 297.776C456.43 297.765 456.43 297.753 456.434 297.742C456.684 297.225 456.989 296.738 457.344 296.288Z" fill="#263238"/>
<path d="M450.778 293.127C452.06 291.112 453.48 289.187 455.027 287.368C456.599 285.56 458.349 283.917 460.252 282.462C460.266 282.453 460.283 282.45 460.3 282.452C460.317 282.454 460.332 282.461 460.344 282.473C460.356 282.485 460.364 282.501 460.366 282.517C460.367 282.534 460.364 282.551 460.355 282.565C458.779 284.376 457.185 286.158 455.59 287.949C454.802 288.822 451.388 292.902 450.975 293.286C450.882 293.371 450.778 293.23 450.778 293.127Z" fill="#263238"/>
<path d="M463.375 299.431C464.621 297.559 465.99 295.773 467.474 294.084C469.14 292.504 470.917 291.047 472.793 289.723C472.868 289.723 472.961 289.77 472.896 289.835C471.236 291.411 469.557 292.968 467.981 294.628C467.212 295.435 464.323 298.84 463.525 299.543C463.45 299.609 463.338 299.506 463.375 299.431Z" fill="#263238"/>
<path d="M510.255 241.351L490.417 254.642C490.417 254.642 475.166 231.868 471.179 221.025C467.193 210.182 471.658 210.088 482.285 217.826C492.912 225.564 510.255 241.351 510.255 241.351Z" fill="#F05454"/>
<path d="M505.659 238.537C500.4 242.712 494.887 246.555 489.151 250.046C489.076 250.046 489.01 249.98 489.076 249.933C490.586 248.995 498.662 242.852 505.575 238.415C505.659 238.377 505.725 238.537 505.659 238.537Z" fill="#263238"/>
<path d="M491.683 253.742C491.271 253.938 490.87 254.157 490.483 254.398C488.194 250.59 488.607 251.462 486.299 247.682L482.885 242.111C481.713 240.179 480.634 238.153 479.349 236.286C479.349 236.23 479.237 236.286 479.255 236.342C480.062 238.218 481.131 239.972 482.069 241.745C481.853 241.473 481.656 241.192 481.431 240.938C480.934 240.357 480.437 239.775 479.978 239.156C479.912 239.062 479.752 239.156 479.818 239.25C480.259 239.841 480.644 240.451 481.037 241.07C481.431 241.689 481.844 242.289 482.276 242.88C482.707 243.471 483.148 243.996 483.598 244.531L483.767 244.737C484.395 245.844 485.005 246.96 485.643 248.058C487.022 250.429 488.574 252.696 490.286 254.839C490.788 254.548 491.268 254.218 491.721 253.854C491.805 253.807 491.74 253.732 491.683 253.742Z" fill="#263238"/>
<path d="M494.488 265.635C492.38 266.466 490.267 267.279 488.147 268.073C486.027 268.868 483.889 269.652 481.731 270.428C479.912 270.625 478.101 270.887 476.282 271.122C474.462 271.356 472.652 271.647 470.851 271.966C469.05 272.285 467.249 272.613 465.467 273.054C463.676 273.423 461.951 274.055 460.346 274.93C461.086 274.377 461.896 273.926 462.756 273.589C463.608 273.23 464.479 272.917 465.364 272.651C467.137 272.144 468.928 271.713 470.738 271.347C472.549 270.981 474.368 270.7 476.188 270.409C478.008 270.118 479.837 269.94 481.666 269.752H481.6C483.739 269.021 485.887 268.311 488.044 267.623C490.201 266.935 492.349 266.273 494.488 265.635Z" fill="#263238"/>
<path d="M471.245 214.665C470.945 216.082 467.362 222.432 463.019 222.169C460.796 222.019 461.002 214.196 461.002 214.196L460.908 213.615L459.633 205.52L470.795 199.386C470.795 199.386 471.329 214.262 471.245 214.665Z" fill="#EB9481"/>
<path d="M470.992 204.92C470.006 206.987 468.601 208.826 466.864 210.32C465.128 211.814 463.1 212.93 460.909 213.596L459.624 205.501L470.804 199.357C470.804 199.357 470.898 201.899 470.992 204.92Z" fill="#263238"/>
<path d="M447.664 196.037C448.677 210.397 457.391 211.41 460.486 211.194C463.3 210.988 472.84 209.947 473.318 195.568C473.796 181.188 466.799 177.108 460.346 177.23C453.893 177.352 446.661 181.686 447.664 196.037Z" fill="#EB9481"/>
<path d="M450.844 194.189C451.172 194.095 451.454 193.954 451.782 193.832C452.125 193.753 452.432 193.562 452.654 193.288C452.709 193.189 452.729 193.075 452.712 192.963C452.695 192.851 452.642 192.748 452.561 192.669C452.374 192.542 452.156 192.466 451.931 192.45C451.705 192.433 451.479 192.477 451.276 192.575C450.834 192.715 450.46 193.012 450.225 193.41C450.176 193.504 450.156 193.609 450.166 193.714C450.176 193.819 450.216 193.918 450.281 194.001C450.347 194.083 450.435 194.145 450.535 194.178C450.635 194.212 450.742 194.215 450.844 194.189Z" fill="#263238"/>
<path d="M460.074 192.782C459.727 192.782 459.417 192.782 459.08 192.735C458.727 192.765 458.375 192.68 458.076 192.491C457.993 192.414 457.938 192.311 457.919 192.199C457.901 192.087 457.919 191.972 457.973 191.872C458.11 191.692 458.292 191.551 458.502 191.466C458.711 191.38 458.94 191.352 459.164 191.384C459.625 191.378 460.073 191.541 460.421 191.844C460.498 191.917 460.552 192.012 460.576 192.115C460.6 192.219 460.594 192.327 460.557 192.427C460.52 192.527 460.454 192.614 460.368 192.677C460.283 192.74 460.18 192.777 460.074 192.782Z" fill="#263238"/>
<path d="M458.761 196.675C458.761 196.628 458.845 196.675 458.845 196.75C458.948 197.688 459.23 198.823 460.158 199.02V199.076C459.061 199.076 458.704 197.613 458.761 196.675Z" fill="#263238"/>
<path d="M459.483 195.54C461.03 195.202 461.584 198.354 460.158 198.626C458.732 198.898 458.188 195.821 459.483 195.54Z" fill="#263238"/>
<path d="M460.158 195.597C460.458 195.719 460.777 195.981 461.096 195.953C461.415 195.925 461.706 195.55 461.903 195.193C461.903 195.193 461.903 195.193 461.959 195.193C462.062 195.469 462.053 195.773 461.936 196.042C461.819 196.312 461.602 196.525 461.331 196.638C460.768 196.825 460.252 196.375 459.999 195.803C459.942 195.719 460.008 195.54 460.158 195.597Z" fill="#263238"/>
<path d="M453.283 197.435C453.283 197.435 453.217 197.491 453.227 197.528C453.433 198.466 453.508 199.62 452.692 200.108C452.692 200.108 452.692 200.164 452.692 200.155C453.752 199.808 453.592 198.307 453.283 197.435Z" fill="#263238"/>
<path d="M452.232 196.581C450.666 196.75 451.116 199.883 452.57 199.733C454.024 199.583 453.592 196.45 452.232 196.581Z" fill="#263238"/>
<path d="M451.613 196.882C451.388 197.088 451.191 197.426 450.891 197.482C450.591 197.538 450.253 197.257 449.953 196.966C450.019 197.566 450.309 198.157 450.891 198.195C451.472 198.232 451.745 197.651 451.829 197.041C451.81 196.957 451.716 196.807 451.613 196.882Z" fill="#263238"/>
<path d="M460.73 204.001C460.618 204.31 460.543 204.695 460.233 204.873C459.905 205.03 459.546 205.11 459.183 205.107C459.183 205.107 459.136 205.154 459.183 205.173C459.391 205.289 459.628 205.345 459.866 205.335C460.104 205.325 460.335 205.25 460.533 205.117C460.69 204.983 460.804 204.805 460.861 204.607C460.918 204.408 460.915 204.197 460.852 204.001C460.824 203.944 460.749 203.954 460.73 204.001Z" fill="#263238"/>
<path d="M455.637 201.552C455.637 201.552 455.75 203.025 455.89 203.7C456.561 203.717 457.223 203.551 457.806 203.221C458.389 202.891 458.871 202.408 459.201 201.824C459.201 201.758 459.126 201.702 459.079 201.758C458.343 202.532 457.375 203.045 456.322 203.222C456.237 203.043 456.228 200.689 456.115 200.708C455.599 200.865 455.107 201.093 454.652 201.383C454.343 198.316 454.521 195.23 454.164 192.182C454.164 192.157 454.155 192.133 454.137 192.115C454.119 192.098 454.096 192.088 454.071 192.088C454.046 192.088 454.022 192.098 454.004 192.115C453.987 192.133 453.977 192.157 453.977 192.182C453.681 195.485 453.719 198.81 454.089 202.105C454.118 202.528 455.393 201.73 455.637 201.552Z" fill="#263238"/>
<path d="M456.8 203.438C457.273 203.827 457.839 204.086 458.442 204.188C458.763 204.231 459.09 204.176 459.38 204.029C460.018 203.682 459.896 203.091 459.642 202.547C459.505 202.274 459.334 202.019 459.136 201.787C458.552 202.571 457.734 203.149 456.8 203.438Z" fill="#263238"/>
<path d="M458.442 204.188C458.763 204.231 459.09 204.176 459.38 204.029C460.018 203.682 459.896 203.091 459.642 202.547C459.288 202.647 458.977 202.863 458.759 203.161C458.542 203.458 458.43 203.82 458.442 204.188Z" fill="#FF9ABB"/>
<path d="M472.455 196.525C469.829 197.247 468.262 191.225 468.262 191.225C468.262 191.225 456.603 190.953 454.286 181.846C453.403 185.825 451.017 189.31 447.627 191.573C447.627 191.573 446.548 181.358 454.315 178.216C454.315 178.216 463.779 173.132 470.551 180.242C477.323 187.352 474.228 196.037 472.455 196.525Z" fill="#263238"/>
<path d="M471.114 196.825C471.114 196.825 473.515 191.901 475.7 192.689C477.886 193.477 476.573 200.277 474.35 201.534C474.075 201.713 473.767 201.835 473.444 201.893C473.121 201.95 472.79 201.942 472.47 201.868C472.151 201.794 471.849 201.657 471.584 201.464C471.319 201.272 471.095 201.027 470.926 200.746L471.114 196.825Z" fill="#EB9481"/>
<path d="M475.278 194.63V194.686C473.731 195.624 473.102 197.294 472.736 198.991C472.808 198.811 472.917 198.648 473.057 198.513C473.197 198.378 473.364 198.275 473.547 198.21C473.73 198.145 473.925 198.12 474.118 198.137C474.312 198.153 474.499 198.211 474.668 198.307C474.679 198.311 474.687 198.318 474.693 198.328C474.699 198.337 474.702 198.347 474.702 198.358C474.702 198.369 474.699 198.38 474.693 198.389C474.687 198.398 474.679 198.406 474.668 198.41C474.363 198.362 474.049 198.41 473.772 198.547C473.495 198.685 473.267 198.906 473.121 199.179C472.878 199.638 472.686 200.123 472.549 200.624C472.492 200.783 472.211 200.745 472.249 200.567C471.864 198.419 473.046 195.202 475.278 194.63Z" fill="#263238"/>
<path d="M473.993 201.018C473.976 201.179 473.895 201.328 473.768 201.43C473.642 201.532 473.48 201.579 473.318 201.562C473.156 201.544 473.008 201.463 472.906 201.337C472.804 201.21 472.756 201.048 472.774 200.886C472.782 200.806 472.807 200.729 472.845 200.658C472.884 200.587 472.936 200.525 472.999 200.475C473.061 200.424 473.134 200.386 473.211 200.364C473.288 200.341 473.369 200.334 473.449 200.342C473.529 200.351 473.607 200.375 473.677 200.414C473.748 200.453 473.811 200.505 473.861 200.567C473.912 200.63 473.949 200.702 473.972 200.779C473.995 200.857 474.002 200.938 473.993 201.018Z" fill="white"/>
<path d="M454.155 181.151C454.226 182.6 454.607 184.017 455.271 185.307C455.922 186.622 456.839 187.787 457.963 188.73C458.24 188.971 458.535 189.19 458.845 189.387L459.295 189.706C459.445 189.8 459.614 189.884 459.774 189.968C460.102 190.137 460.421 190.315 460.711 190.465L461.734 190.841L462.25 191.019L462.775 191.141L463.835 191.375C464.548 191.469 465.27 191.525 465.983 191.572C465.289 191.375 464.585 191.263 463.901 191.066L462.897 190.747L462.39 190.587L461.912 190.372C461.593 190.231 461.274 190.081 460.974 189.95C460.674 189.818 460.364 189.603 460.036 189.434L459.586 189.18L459.164 188.871C458.875 188.677 458.599 188.464 458.338 188.233C457.267 187.343 456.361 186.27 455.665 185.063C455.299 184.466 454.985 183.838 454.727 183.187C454.475 182.527 454.283 181.846 454.155 181.151Z" fill="#263238"/>
<path d="M451.313 289.638C448.499 291.242 445.16 284.085 445.16 284.085C445.077 285.463 444.512 286.767 443.565 287.771C441.821 289.46 438.407 287.462 438.407 287.462C438.019 288.871 437.219 290.132 436.109 291.082C434.233 292.536 430.537 291.007 430.537 291.007C429.463 292.094 428.036 292.759 426.513 292.883C422.414 293.071 418.859 287.921 416.561 284.676C414.263 281.431 410.802 270.053 409.92 267.952L430.65 253.038C430.65 253.038 445.085 264.678 447.242 268.89C449.062 272.464 455.534 287.18 451.313 289.638Z" fill="#EB9481"/>
<path d="M445.207 283.982C444.175 279.761 442.14 275.784 440.133 271.967C440.128 271.958 440.121 271.951 440.113 271.945C440.105 271.938 440.096 271.934 440.087 271.931C440.077 271.929 440.067 271.928 440.057 271.929C440.047 271.931 440.038 271.934 440.029 271.939C440.021 271.944 440.013 271.95 440.007 271.958C440.001 271.966 439.996 271.975 439.994 271.984C439.991 271.994 439.991 272.004 439.992 272.014C439.993 272.024 439.996 272.033 440.001 272.042C442.037 275.794 443.125 280.212 445.01 284.057C445.02 284.083 445.04 284.105 445.065 284.116C445.091 284.127 445.12 284.128 445.146 284.118C445.172 284.108 445.193 284.088 445.205 284.063C445.216 284.037 445.217 284.008 445.207 283.982Z" fill="#263238"/>
<path d="M438.632 287.199C438.302 286.262 437.852 285.373 437.29 284.554C436.756 283.616 436.202 282.753 435.64 281.862C434.501 280.092 433.326 278.347 432.113 276.628C432.056 276.553 431.925 276.628 431.982 276.703C433.107 278.466 434.204 280.258 435.255 282.077C435.78 283.015 436.296 283.897 436.812 284.816C437.234 285.713 437.756 286.56 438.369 287.339C438.393 287.361 438.424 287.374 438.456 287.377C438.488 287.381 438.52 287.375 438.549 287.36C438.577 287.344 438.6 287.321 438.615 287.292C438.63 287.263 438.636 287.231 438.632 287.199Z" fill="#263238"/>
<path d="M430.49 290.933C430.183 290.088 429.736 289.302 429.168 288.606C428.633 287.809 428.098 287.012 427.582 286.205C426.532 284.601 425.481 282.988 424.497 281.347C424.45 281.271 424.318 281.347 424.365 281.422C425.359 283.091 426.335 284.779 427.348 286.449C427.845 287.265 428.352 288.081 428.858 288.897C429.253 289.679 429.78 290.387 430.415 290.989C430.415 290.989 430.499 290.97 430.49 290.933Z" fill="#263238"/>
<path d="M490.567 296.936H415.999V300.284H490.567V296.936Z" fill="#C7C7C7"/>
<path d="M474.059 296.936L474.669 300.275H415.999V296.936H474.059Z" fill="#A6A6A6"/>
<path d="M471.423 300.275H408.11L402.839 257.269H466.152L471.423 300.275Z" fill="#C7C7C7"/>
<path d="M440.986 278.776C441 279.277 440.913 279.776 440.731 280.243C440.548 280.711 440.274 281.137 439.924 281.496C439.575 281.855 439.156 282.141 438.694 282.336C438.232 282.531 437.736 282.631 437.234 282.631C436.207 282.626 435.222 282.221 434.49 281.501C433.758 280.781 433.335 279.803 433.313 278.776C433.3 278.275 433.387 277.776 433.569 277.308C433.751 276.841 434.025 276.415 434.375 276.056C434.725 275.697 435.143 275.411 435.605 275.216C436.067 275.021 436.564 274.921 437.065 274.921C438.092 274.926 439.077 275.331 439.809 276.051C440.542 276.771 440.964 277.749 440.986 278.776Z" fill="white"/>
</svg>
