<svg width="524" height="312" viewBox="0 0 524 312" fill="none" xmlns="http://www.w3.org/2000/svg">
<path d="M148.325 0H101.396V64.2882H148.325V0Z" fill="#F5F5F5"/>
<path d="M136.432 8.0957H89.502V72.3839H136.432V8.0957Z" fill="#E0E0E0"/>
<path d="M357.64 96.0087H357.337H356.428H352.893L339.632 96.0553L293.883 96.2108H293.759V96.0864C293.257 94.3651 293.168 92.5493 293.499 90.787C293.831 89.0247 294.574 87.3657 295.667 85.9452C296.76 84.5247 298.174 83.3829 299.791 82.6127C301.409 81.8426 303.186 81.4659 304.977 81.5133L304.814 81.7388C304.524 80.7287 304.403 79.6777 304.456 78.6282C304.51 76.8696 305.021 75.1554 305.939 73.6551C306.858 72.1549 308.151 70.9205 309.692 70.0741C311.192 69.2912 312.859 68.8869 314.55 68.8964C316.242 68.9059 317.905 69.3289 319.395 70.1285L319.154 70.2141C319.982 68.2944 321.199 66.5674 322.727 65.142C324.256 63.7165 326.062 62.6236 328.034 61.9321C329.848 61.2456 331.783 60.9383 333.721 61.0293C335.658 61.1202 337.556 61.6075 339.298 62.4609C342.439 64.1188 344.91 66.8144 346.29 70.0896C347.551 72.9637 347.85 76.1686 347.144 79.227L347.02 79.0793C348.823 78.8924 350.644 79.1597 352.318 79.8569C353.807 80.4588 355.148 81.3768 356.249 82.5476C356.749 83.0746 357.166 83.6752 357.484 84.3284C357.767 84.9318 357.988 85.5623 358.145 86.2103C358.412 87.3429 358.563 88.4998 358.595 89.663C358.649 91.2602 358.511 92.8582 358.183 94.4222C358.096 94.8303 357.984 95.2328 357.849 95.6276L357.709 96.0164" fill="#EBEBEB"/>
<path d="M479.66 65.4547C477.495 65.8164 475.475 66.781 473.832 68.2382C472.188 69.6953 470.988 71.5862 470.368 73.6943C469.748 75.8023 469.734 78.0425 470.327 80.1584C470.919 82.2743 472.095 84.1805 473.72 85.6587C475.344 87.1369 477.351 88.1274 479.512 88.517C481.672 88.9065 483.899 88.6793 485.936 87.8613C487.974 87.0434 489.74 85.6677 491.033 83.8918C492.326 82.1158 493.093 80.0114 493.247 77.8193L496.455 77.2827L498.196 73.6589L500.697 76.5673L504.713 75.8985L506.43 72.2902L508.932 75.1986L512.381 74.6232L513.43 72.4224L514.983 74.1955L516.995 73.8611L519.202 70.9371L515.418 66.7689L491.53 70.7427C490.296 68.7849 488.509 67.2375 486.396 66.2962C484.283 65.3549 481.939 65.0621 479.66 65.4547ZM473.15 78.4103C473.042 77.7559 473.129 77.084 473.402 76.4793C473.674 75.8746 474.119 75.3643 474.681 75.0126C475.243 74.6608 475.897 74.4835 476.559 74.503C477.221 74.5224 477.863 74.7377 478.404 75.1217C478.944 75.5058 479.359 76.0413 479.595 76.6609C479.832 77.2806 479.88 77.9564 479.734 78.6034C479.587 79.2504 479.253 79.8395 478.772 80.2964C478.292 80.7533 477.687 81.0576 477.034 81.171C476.598 81.2467 476.151 81.2353 475.719 81.1373C475.287 81.0394 474.879 80.8568 474.518 80.6002C474.157 80.3436 473.85 80.0179 473.615 79.6421C473.38 79.2663 473.222 78.8476 473.15 78.4103Z" fill="#EBEBEB"/>
<path d="M467.798 154.915L469.243 181.433C469.267 181.888 469.464 182.317 469.793 182.633C470.122 182.948 470.559 183.125 471.014 183.128L518.674 183.471C518.909 183.473 519.142 183.428 519.359 183.34C519.577 183.252 519.775 183.122 519.942 182.958C520.11 182.793 520.243 182.597 520.335 182.381C520.426 182.165 520.475 181.932 520.477 181.697L520.624 161.059C520.626 160.823 520.582 160.588 520.493 160.369C520.404 160.151 520.272 159.952 520.106 159.784C519.94 159.616 519.743 159.483 519.525 159.392C519.307 159.301 519.073 159.255 518.837 159.255H489.527C489.292 159.255 489.06 159.209 488.844 159.118C488.628 159.027 488.432 158.894 488.268 158.726L483.211 153.671C482.878 153.339 482.43 153.149 481.96 153.142L469.601 153.057C469.359 153.054 469.119 153.101 468.895 153.195C468.672 153.288 468.47 153.426 468.302 153.599C468.133 153.773 468.002 153.979 467.915 154.206C467.829 154.432 467.789 154.673 467.798 154.915Z" fill="#EBEBEB"/>
<path d="M520.665 156.144L468.586 155.762L468.358 186.913L520.437 187.296L520.665 156.144Z" fill="#F5F5F5"/>
<path d="M464.427 158.523L468.163 191.029C468.194 191.31 468.326 191.569 468.535 191.758C468.744 191.948 469.016 192.053 469.297 192.056L520.049 192.421C520.338 192.424 520.617 192.317 520.83 192.123C521.044 191.928 521.175 191.659 521.199 191.371L523.996 158.904C524.01 158.746 523.991 158.586 523.939 158.436C523.888 158.285 523.806 158.147 523.699 158.03C523.592 157.913 523.461 157.819 523.315 157.756C523.17 157.692 523.012 157.66 522.854 157.66L465.569 157.24C465.406 157.239 465.245 157.273 465.097 157.339C464.948 157.405 464.815 157.502 464.707 157.623C464.599 157.744 464.518 157.888 464.47 158.043C464.421 158.198 464.407 158.362 464.427 158.523Z" fill="#EBEBEB"/>
<path d="M461.785 301.316C449.705 292.871 446.963 277.209 447.444 263.087C447.522 260.754 447.266 258.25 448.384 256.189C449.503 254.128 452.105 252.713 454.211 253.7C455.959 254.525 456.72 256.562 457.699 258.242C459 260.485 460.91 262.313 463.207 263.514C464.706 264.292 466.563 264.766 468.039 263.95C470.066 262.83 470.307 260.023 470.291 257.682C470.26 253.317 470.232 248.957 470.206 244.602C470.065 242.262 470.303 239.914 470.913 237.65C471.643 235.426 473.244 233.365 475.473 232.735C477.703 232.105 480.445 233.396 480.911 235.69C480.998 236.66 481.019 237.634 480.973 238.606C481.043 239.578 481.494 240.651 482.41 240.939C483.327 241.227 484.283 240.55 484.982 239.858C487.398 237.525 489.029 234.454 490.56 231.429C492.09 228.404 493.581 225.301 495.772 222.719C497.963 220.137 500.985 218.1 504.318 217.913C507.65 217.726 511.239 219.795 512.086 223.084C512.933 226.374 511.006 229.733 508.917 232.416C505.809 236.378 502.146 239.869 498.041 242.782C497.253 243.23 496.628 243.916 496.254 244.742C495.749 246.297 497.225 247.852 498.763 248.366C500.503 248.949 502.399 248.762 504.201 248.98C506.003 249.198 508 249.999 508.691 251.725C509.647 254.113 507.65 256.624 505.685 258.265C501.753 261.552 497.286 264.138 492.478 265.909C490.754 266.539 488.944 267.091 487.561 268.305C486.178 269.518 485.331 271.617 486.17 273.266C487.009 274.915 489.161 275.443 490.963 275.109C492.766 274.775 494.374 273.795 496.091 273.149C499.307 271.936 503.455 272.154 505.514 274.938C506.142 275.894 506.539 276.984 506.674 278.12C506.808 279.257 506.677 280.409 506.291 281.486C505.508 283.632 504.303 285.599 502.748 287.271C497.652 293.379 491.028 298.024 483.552 300.733C476.102 303.322 469.196 304.022 461.8 301.308" fill="#EBEBEB"/>
<path d="M461.599 311.767C462.257 305.231 463.537 298.773 465.421 292.481C467.762 284.811 470.54 277.281 473.741 269.929L476.219 264.128C477.042 262.223 477.85 260.333 478.759 258.537C480.51 255.087 482.453 251.738 484.578 248.505C486.582 245.394 488.594 242.533 490.498 239.865C492.401 237.198 494.234 234.748 495.99 232.587C498.749 229.144 501.778 225.928 505.048 222.967C506.198 221.925 507.122 221.147 507.751 220.634L508.474 220.043C508.55 219.97 508.637 219.907 508.73 219.856L508.505 220.082C508.326 220.23 508.101 220.44 507.806 220.696C507.192 221.241 506.252 222.042 505.157 223.099C501.944 226.09 498.958 229.316 496.223 232.75C494.483 234.919 492.68 237.377 490.785 240.044C488.889 242.712 486.901 245.597 484.904 248.692C482.801 251.933 480.877 255.287 479.14 258.739C478.239 260.527 477.431 262.394 476.615 264.307L474.129 270.108C470.938 277.465 468.158 284.994 465.801 292.66C463.912 298.925 462.612 305.353 461.917 311.86" fill="#E0E0E0"/>
<path d="M478.883 258.49C478.775 258.164 478.7 257.828 478.658 257.487C478.533 256.841 478.386 255.932 478.223 254.734C477.889 252.401 477.547 249.174 477.174 245.604C476.801 242.035 476.397 238.816 476.048 236.498C475.869 235.339 475.713 234.399 475.605 233.753C475.52 233.42 475.475 233.078 475.473 232.734C475.607 233.052 475.706 233.383 475.768 233.722C475.931 234.352 476.133 235.277 476.351 236.444C476.793 238.777 477.236 241.988 477.601 245.558C477.966 249.127 478.277 252.261 478.526 254.695C478.642 255.792 478.743 256.725 478.821 257.464C478.881 257.802 478.902 258.147 478.883 258.49Z" fill="#E0E0E0"/>
<path d="M508.948 252.86C508.553 252.95 508.149 253 507.744 253.008C506.967 253.078 505.856 253.171 504.481 253.327C501.731 253.63 497.94 254.174 493.792 254.952C489.643 255.729 485.907 256.624 483.226 257.331C481.882 257.681 480.803 257.992 480.057 258.202C479.675 258.331 479.282 258.427 478.884 258.49C479.245 258.305 479.622 258.154 480.01 258.039C480.74 257.775 481.813 257.425 483.118 257.036C485.782 256.258 489.511 255.317 493.675 254.524C497.231 253.84 500.819 253.339 504.427 253.023C505.81 252.899 506.928 252.852 507.705 252.837C508.119 252.813 508.535 252.821 508.948 252.86Z" fill="#E0E0E0"/>
<path d="M465.794 291.929C465.709 291.814 465.639 291.689 465.584 291.556C465.445 291.268 465.274 290.903 465.072 290.467C464.629 289.526 464.023 288.134 463.3 286.408C461.848 282.963 459.999 278.142 458.026 272.791C456.052 267.441 454.242 262.596 452.867 259.128C452.192 257.441 451.64 256.018 451.22 255.014L450.785 253.895C450.725 253.766 450.681 253.63 450.653 253.49C450.738 253.606 450.809 253.731 450.863 253.864L451.376 254.952C451.819 255.893 452.425 257.285 453.147 259.012C454.6 262.457 456.449 267.278 458.422 272.636C460.395 277.994 462.205 282.823 463.58 286.291L465.227 290.405L465.662 291.525C465.722 291.654 465.766 291.79 465.794 291.929Z" fill="#E0E0E0"/>
<path d="M505.74 279.036C505.615 279.108 505.482 279.162 505.343 279.199L504.178 279.588L499.906 280.98C496.293 282.155 491.321 283.826 485.837 285.646C480.352 287.466 475.349 289.146 471.714 290.242C469.896 290.794 468.42 291.222 467.394 291.494L466.213 291.805C466.077 291.848 465.936 291.876 465.794 291.891C465.918 291.816 466.051 291.759 466.19 291.72L467.348 291.339L471.628 289.947C475.24 288.772 480.173 287.1 485.697 285.234C491.22 283.368 496.177 281.742 499.812 280.646C501.63 280.094 503.106 279.666 504.132 279.394L505.32 279.083C505.458 279.053 505.599 279.037 505.74 279.036Z" fill="#E0E0E0"/>
<path d="M510.935 311.798C510.935 311.915 399.247 312 261.504 312C123.76 312 12.041 311.915 12.041 311.798C12.041 311.681 123.706 311.619 261.504 311.619C399.302 311.619 510.935 311.689 510.935 311.798Z" fill="#263238"/>
<path d="M453.394 284.651C454.746 286.401 457.178 285.677 458.265 284.511C459.353 283.344 459.749 281.727 460.114 280.172C460.938 276.633 461.769 272.924 460.844 269.409C460.607 268.34 460.083 267.356 459.33 266.563C458.947 266.175 458.469 265.895 457.944 265.75C457.419 265.606 456.866 265.602 456.339 265.738C455.111 266.127 454.404 267.379 453.907 268.569C452.437 272.068 451.765 275.851 451.942 279.643C451.909 281.421 452.415 283.167 453.394 284.651Z" fill="#F05454"/>
<g opacity="0.2">
<path d="M453.394 284.651C454.746 286.401 457.178 285.677 458.265 284.511C459.353 283.344 459.749 281.727 460.114 280.172C460.938 276.633 461.769 272.924 460.844 269.409C460.607 268.34 460.083 267.356 459.33 266.563C458.947 266.175 458.469 265.895 457.944 265.75C457.419 265.606 456.866 265.602 456.339 265.738C455.111 266.127 454.404 267.379 453.907 268.569C452.437 272.068 451.765 275.851 451.942 279.643C451.909 281.421 452.415 283.167 453.394 284.651Z" fill="black"/>
</g>
<path d="M458.576 293.578C460.648 292.472 463.02 292.061 465.342 292.404C466.604 292.456 467.811 292.926 468.776 293.741C469.669 294.628 469.91 296.253 468.986 297.101C468.381 297.55 467.641 297.778 466.888 297.746C465.086 297.816 463.074 297.599 461.691 298.757C460.914 299.41 460.409 300.468 459.446 300.826C458.96 300.963 458.443 300.938 457.972 300.756C457.502 300.574 457.103 300.244 456.836 299.815C456.325 298.937 456.169 297.896 456.401 296.906C456.482 296.221 456.721 295.564 457.098 294.987C457.476 294.409 457.981 293.927 458.576 293.578Z" fill="#F05454"/>
<path d="M450.031 287.427C450.637 286.543 451.019 285.525 451.143 284.46C451.268 283.395 451.131 282.315 450.745 281.315C449.939 279.311 448.595 277.57 446.861 276.284C444.901 274.708 442.653 273.53 440.242 272.815C439.31 272.494 438.319 272.377 437.337 272.473C436.852 272.525 436.387 272.694 435.981 272.965C435.576 273.236 435.241 273.601 435.006 274.028C434.393 275.358 435.123 276.89 435.892 278.127C437.238 280.317 438.755 282.397 440.429 284.348C441.781 285.903 443.311 287.458 445.269 288.088C447.226 288.718 449.231 288.539 450.186 287.155" fill="#F05454"/>
<path d="M454.691 311.962C454.743 311.69 454.767 311.414 454.761 311.138C454.761 310.531 454.831 309.777 454.87 308.875C454.909 307.972 455.01 306.798 455.204 305.562C455.433 304.22 455.768 302.899 456.206 301.611C456.634 300.327 457.241 299.11 458.008 297.995C458.636 297.088 459.459 296.333 460.416 295.787C461.062 295.418 461.762 295.155 462.491 295.009C462.754 294.985 463.015 294.933 463.267 294.854C462.991 294.821 462.712 294.821 462.436 294.854C461.678 294.948 460.944 295.18 460.269 295.538C459.259 296.073 458.389 296.837 457.729 297.77C456.926 298.902 456.295 300.147 455.856 301.464C455.411 302.77 455.081 304.112 454.87 305.476C454.71 306.587 454.619 307.706 454.598 308.828C454.598 309.784 454.598 310.562 454.598 311.091C454.595 311.384 454.626 311.676 454.691 311.962Z" fill="#263238"/>
<path d="M454.753 310.228C454.764 310.101 454.764 309.973 454.753 309.847C454.753 309.559 454.753 309.193 454.699 308.75C454.645 307.809 454.575 306.417 454.544 304.737C454.458 301.347 454.544 296.665 454.816 291.517C455.087 286.369 455.639 281.688 456.152 278.336C456.276 277.496 456.4 276.742 456.517 276.081C456.633 275.42 456.727 274.845 456.828 274.378C456.929 273.911 456.975 273.6 457.03 273.305C457.056 273.179 457.071 273.052 457.076 272.924C457.02 273.039 456.981 273.162 456.96 273.289L456.696 274.355C456.579 274.814 456.462 275.381 456.33 276.042C456.198 276.703 456.051 277.458 455.919 278.297C455.201 282.675 454.719 287.088 454.474 291.517C454.171 296.689 454.155 301.394 454.303 304.784C454.365 306.487 454.474 307.856 454.567 308.805L454.683 309.893C454.692 310.007 454.715 310.12 454.753 310.228Z" fill="#263238"/>
<path d="M454.319 301.183C454.327 300.804 454.304 300.424 454.249 300.048C454.132 299.016 453.964 297.991 453.744 296.976C453.423 295.471 453.013 293.985 452.517 292.528C451.924 290.735 451.205 288.986 450.365 287.295C448.901 284.178 446.885 281.354 444.414 278.958C443.985 278.55 443.531 278.168 443.055 277.815C442.845 277.66 442.658 277.504 442.472 277.38L441.951 277.053C441.634 276.845 441.304 276.655 440.965 276.485C442.111 277.304 443.208 278.19 444.251 279.137C446.637 281.558 448.592 284.37 450.031 287.45C450.867 289.125 451.589 290.856 452.19 292.629C452.694 294.074 453.124 295.543 453.48 297.031C453.783 298.298 453.969 299.364 454.094 300.064C454.137 300.443 454.213 300.817 454.319 301.183Z" fill="#263238"/>
<path d="M87.9237 137.231H0.0927734V196.115H87.9237V137.231Z" fill="#FAFAFA"/>
<path d="M64.0594 172.949H61.7289V158.85C61.6723 157.26 61.0014 155.753 59.8574 154.648C58.7133 153.543 57.1855 152.925 55.5956 152.925C54.0058 152.925 52.4779 153.543 51.3339 154.648C50.1899 155.753 49.5189 157.26 49.4624 158.85V172.949H47.1318V158.85C47.1985 156.646 48.1203 154.554 49.7018 153.018C51.2832 151.482 53.4 150.623 55.6034 150.623C57.8068 150.623 59.9236 151.482 61.5051 153.018C63.0865 154.554 64.0083 156.646 64.075 158.85L64.0594 172.949Z" fill="#263238"/>
<path d="M64.5409 166.674H46.6345C45.1801 166.674 44.001 167.854 44.001 169.31V178.922C44.001 180.378 45.1801 181.558 46.6345 181.558H64.5409C65.9954 181.558 67.1745 180.378 67.1745 178.922V169.31C67.1745 167.854 65.9954 166.674 64.5409 166.674Z" fill="#263238"/>
<path d="M55.5916 174.116C55.209 174.116 54.835 174.002 54.5169 173.79C54.1988 173.577 53.9509 173.274 53.8045 172.921C53.6581 172.567 53.6198 172.177 53.6944 171.802C53.769 171.426 53.9533 171.081 54.2238 170.81C54.4943 170.54 54.839 170.355 55.2142 170.28C55.5894 170.206 55.9784 170.244 56.3318 170.391C56.6853 170.537 56.9874 170.785 57.1999 171.104C57.4125 171.422 57.5259 171.797 57.5259 172.18C57.5259 172.693 57.3222 173.186 56.9594 173.549C56.5966 173.912 56.1046 174.116 55.5916 174.116Z" fill="#455A64"/>
<path d="M56.12 172.949H55.0635V176.939H56.12V172.949Z" fill="#455A64"/>
<path d="M43.4255 172.779C45.1032 172.038 46.5269 170.821 47.5198 169.279C48.5128 167.736 49.0313 165.935 49.011 164.1C49.011 158.913 45.1268 154.69 40.2559 154.667C35.385 154.644 31.4464 158.828 31.4231 163.999C31.3827 165.852 31.8946 167.676 32.8935 169.236C33.8925 170.797 35.3332 172.025 37.032 172.763C23.5381 174.824 24.1129 189.529 24.1129 189.529L56.1115 189.677C56.1115 189.677 56.8417 174.808 43.4255 172.779Z" fill="#F05454"/>
<path d="M87.9163 196.123C87.9163 196.123 87.9163 195.75 87.9163 195.042C87.9163 194.335 87.9163 193.293 87.9163 191.932C87.9163 189.202 87.9163 185.205 87.8697 180.088C87.8697 169.854 87.8231 155.157 87.7921 137.232L87.9474 137.395H0.163138L0.365118 137.193C0.365118 158.19 0.365118 178.121 0.365118 196.084L0.186443 195.898L63.4455 195.983L81.5306 196.038H86.3393H87.5823H88.0096H86.3859H81.6083L63.5698 196.092L0.186443 196.178H0V195.999C0 178.035 0 158.088 0 137.107V136.905H0.20975L88.0329 136.952H88.196V137.107C88.196 155.071 88.1339 169.808 88.1106 180.065C88.1106 185.166 88.1106 189.155 88.0717 191.877C88.0717 193.223 88.0717 194.249 88.0717 194.988C88.0717 195.727 87.9163 196.123 87.9163 196.123Z" fill="#263238"/>
<path d="M87.9006 144.309C87.9006 144.418 68.2462 144.511 44.0162 144.511C19.7862 144.511 0.131836 144.418 0.131836 144.309C0.131836 144.2 19.7784 144.106 44.0162 144.106C68.254 144.106 87.9006 144.2 87.9006 144.309Z" fill="#263238"/>
<path d="M5.8735 140.778C5.8735 140.958 5.82019 141.134 5.72032 141.284C5.62045 141.433 5.47849 141.55 5.31241 141.619C5.14633 141.687 4.96357 141.705 4.78726 141.67C4.61095 141.635 4.44899 141.549 4.32188 141.421C4.19476 141.294 4.1082 141.132 4.07313 140.956C4.03806 140.779 4.05606 140.596 4.12485 140.43C4.19364 140.264 4.31014 140.121 4.45961 140.021C4.60908 139.922 4.78481 139.868 4.96458 139.868C5.20564 139.868 5.43683 139.964 5.60728 140.135C5.77774 140.305 5.8735 140.537 5.8735 140.778Z" fill="#263238"/>
<path d="M8.84908 140.778C8.84908 141.019 8.75332 141.251 8.58287 141.421C8.41241 141.592 8.18123 141.688 7.94017 141.688C7.69911 141.688 7.46792 141.592 7.29747 141.421C7.12701 141.251 7.03125 141.019 7.03125 140.778C7.03125 140.537 7.12701 140.305 7.29747 140.135C7.46792 139.964 7.69911 139.868 7.94017 139.868C8.18123 139.868 8.41241 139.964 8.58287 140.135C8.75332 140.305 8.84908 140.537 8.84908 140.778Z" fill="#263238"/>
<path d="M12.0415 140.778C12.0414 140.957 11.9886 141.132 11.8898 141.281C11.7909 141.43 11.6503 141.547 11.4855 141.616C11.3208 141.686 11.1393 141.705 10.9636 141.672C10.788 141.639 10.626 141.554 10.498 141.429C10.37 141.305 10.2817 141.145 10.244 140.97C10.2064 140.795 10.2211 140.613 10.2863 140.446C10.3515 140.279 10.4644 140.136 10.6108 140.033C10.7572 139.93 10.9305 139.873 11.1092 139.868C11.2306 139.865 11.3513 139.887 11.4642 139.931C11.5772 139.975 11.6802 140.042 11.7671 140.127C11.854 140.211 11.923 140.313 11.9701 140.425C12.0172 140.537 12.0415 140.657 12.0415 140.778Z" fill="#263238"/>
<path d="M87.9163 196.123C87.9163 196.123 87.9163 195.75 87.9163 195.042C87.9163 194.335 87.9163 193.293 87.9163 191.932C87.9163 189.202 87.9163 185.205 87.8697 180.088C87.8697 169.854 87.8231 155.157 87.7921 137.232L87.9474 137.395H0.163138L0.365118 137.193C0.365118 158.19 0.365118 178.121 0.365118 196.084L0.186443 195.898L63.4455 195.983L81.5306 196.038H86.3393H87.5823H88.0096H86.3859H81.6083L63.5698 196.092L0.186443 196.178H0V195.999C0 178.035 0 158.088 0 137.107V136.905H0.20975L88.0329 136.952H88.196V137.107C88.196 155.071 88.1339 169.808 88.1106 180.065C88.1106 185.166 88.1106 189.155 88.0717 191.877C88.0717 193.223 88.0717 194.249 88.0717 194.988C88.0717 195.727 87.9163 196.123 87.9163 196.123Z" fill="#263238"/>
<path d="M43.4344 198.083C43.3256 198.083 43.2324 197.647 43.2324 197.111C43.2324 196.574 43.3256 196.139 43.4344 196.139C43.5432 196.139 43.6442 196.574 43.6442 197.111C43.6442 197.647 43.5509 198.083 43.4344 198.083Z" fill="#263238"/>
<path d="M43.4333 206.575C43.2361 205.883 43.1677 205.161 43.2313 204.444C43.1672 203.73 43.2357 203.01 43.4333 202.321C43.6402 203.009 43.7115 203.73 43.643 204.444C43.7111 205.161 43.6399 205.885 43.4333 206.575Z" fill="#263238"/>
<path d="M43.4333 215.082C43.2361 214.39 43.1677 213.668 43.2313 212.951C43.1672 212.237 43.2357 211.517 43.4333 210.828C43.6402 211.515 43.7115 212.237 43.643 212.951C43.7111 213.668 43.6399 214.392 43.4333 215.082Z" fill="#263238"/>
<path d="M43.4333 223.59C43.2361 222.898 43.1677 222.176 43.2313 221.459C43.1672 220.745 43.2357 220.025 43.4333 219.336C43.6402 220.023 43.7115 220.744 43.643 221.459C43.7111 222.176 43.6399 222.9 43.4333 223.59Z" fill="#263238"/>
<path d="M43.4333 232.097C43.2361 231.406 43.1677 230.683 43.2313 229.967C43.1672 229.253 43.2357 228.533 43.4333 227.844C43.6402 228.531 43.7115 229.252 43.643 229.967C43.7111 230.684 43.6399 231.407 43.4333 232.097Z" fill="#263238"/>
<path d="M45.3765 238.295C44.7494 238.493 44.0888 238.562 43.4344 238.497L43.2324 238.295V237.564C43.2324 237.331 43.2324 237.121 43.279 236.942C43.279 236.592 43.3645 236.374 43.4189 236.374C43.4732 236.374 43.5276 236.592 43.5665 236.942C43.5665 237.121 43.5665 237.331 43.5665 237.564V237.929V238.295C43.4732 238.201 43.7607 238.497 43.3567 238.093C44.0367 238.017 44.7249 238.086 45.3765 238.295Z" fill="#263238"/>
<path d="M53.0126 238.296C52.396 238.493 51.7457 238.561 51.1015 238.498C50.46 238.561 49.8122 238.492 49.1982 238.296C49.8122 238.099 50.46 238.03 51.1015 238.093C51.7457 238.03 52.396 238.098 53.0126 238.296Z" fill="#263238"/>
<path d="M60.6493 238.296C60.0327 238.493 59.3823 238.561 58.7382 238.498C58.0941 238.561 57.4437 238.493 56.8271 238.296C57.4437 238.098 58.0941 238.03 58.7382 238.093C59.3823 238.03 60.0327 238.098 60.6493 238.296Z" fill="#263238"/>
<path d="M68.286 238.296C67.6694 238.493 67.019 238.561 66.3749 238.498C65.7308 238.561 65.0805 238.493 64.4639 238.296C65.0805 238.098 65.7308 238.03 66.3749 238.093C67.019 238.03 67.6694 238.098 68.286 238.296Z" fill="#263238"/>
<path d="M75.9139 238.295C74.6568 238.565 73.3568 238.565 72.0996 238.295C73.3568 238.025 74.6568 238.025 75.9139 238.295Z" fill="#263238"/>
<path d="M83.5507 238.295C82.2935 238.565 80.9935 238.565 79.7363 238.295C80.9935 238.025 82.2935 238.025 83.5507 238.295Z" fill="#263238"/>
<path d="M91.1873 238.295C89.9275 238.564 88.625 238.564 87.3652 238.295C88.625 238.025 89.9275 238.025 91.1873 238.295Z" fill="#263238"/>
<path d="M98.8153 238.295C97.5581 238.565 96.2582 238.565 95.001 238.295C96.2582 238.025 97.5581 238.025 98.8153 238.295Z" fill="#263238"/>
<path d="M106.451 238.295C105.194 238.565 103.894 238.565 102.637 238.295C103.894 238.025 105.194 238.025 106.451 238.295Z" fill="#263238"/>
<path d="M114.088 238.295C112.828 238.564 111.525 238.564 110.266 238.295C111.525 238.025 112.828 238.025 114.088 238.295Z" fill="#263238"/>
<path d="M121.717 238.295C120.46 238.565 119.16 238.565 117.902 238.295C119.16 238.025 120.46 238.025 121.717 238.295Z" fill="#263238"/>
<path d="M127.481 238.295C127.481 238.404 127.046 238.497 126.51 238.497C125.974 238.497 125.539 238.404 125.539 238.295C125.539 238.186 125.974 238.093 126.51 238.093C127.046 238.093 127.481 238.186 127.481 238.295Z" fill="#263238"/>
<path d="M128.391 17.9717H81.4609V82.2599H128.391V17.9717Z" fill="white"/>
<path d="M128.414 82.2135C128.414 82.2135 128.414 82.1047 128.414 81.8947C128.414 81.6847 128.414 81.3737 128.414 80.9848C128.414 80.2072 128.414 78.9941 128.414 77.4699C128.414 74.3982 128.414 69.9189 128.352 64.2498C128.352 52.9351 128.266 36.8922 128.212 17.9098L128.422 18.1198L81.4997 18.1742L81.7328 17.9409V82.2291L81.5464 82.0424L115.627 82.1124L125.112 82.1591H127.606H128.476C128.476 82.1591 128.204 82.1591 127.653 82.1591H125.19L115.743 82.2135L81.5619 82.338H81.3677V82.1435C81.3677 64.1021 81.3133 41.8691 81.2822 17.8554V17.6221H81.523H128.445H128.662V17.8398C128.662 36.8766 128.608 52.974 128.585 64.3198C128.585 69.9578 128.585 74.4293 128.538 77.4776C128.538 78.9863 128.538 80.145 128.538 80.946C128.538 81.327 128.538 81.6225 128.538 81.8325C128.509 81.9633 128.468 82.0909 128.414 82.2135Z" fill="#263238"/>
<path d="M110.15 30.8886C110.15 31.0208 105.046 31.1219 98.746 31.1297C92.4457 31.1375 87.3418 31.0364 87.3418 30.9042C87.3418 30.772 92.4457 30.6631 98.746 30.6631C105.046 30.6631 110.15 30.7564 110.15 30.8886Z" fill="#263238"/>
<path d="M122.487 36.4648C122.487 36.597 114.617 36.7059 104.914 36.7137C95.2113 36.7214 87.3418 36.6203 87.3418 36.4881C87.3418 36.3559 95.2113 36.2471 104.914 36.2471C114.617 36.2471 122.487 36.3326 122.487 36.4648Z" fill="#263238"/>
<path d="M122.494 42.2972C122.494 42.4217 114.625 42.5305 104.922 42.5383C95.2191 42.5461 87.3496 42.445 87.3496 42.3206C87.3496 42.1961 95.2191 42.0795 104.922 42.0717C114.625 42.0639 122.494 42.165 122.494 42.2972Z" fill="#263238"/>
<path d="M122.494 48.1214C122.494 48.2536 114.633 48.3625 104.93 48.3703C95.2269 48.378 87.3574 48.2769 87.3574 48.1447C87.3574 48.0125 95.2192 47.9037 104.93 47.8959C114.64 47.8881 122.494 47.997 122.494 48.1214Z" fill="#263238"/>
<path d="M122.502 53.9467C122.502 54.0789 114.633 54.1877 104.93 54.1955C95.2269 54.2033 87.3574 54.1022 87.3574 53.9778C87.3574 53.8534 95.2269 53.7367 104.93 53.7289C114.633 53.7212 122.502 53.8223 122.502 53.9467Z" fill="#263238"/>
<path d="M122.502 59.7786C122.502 59.9108 114.641 60.0197 104.938 60.0275C95.2347 60.0352 87.3652 59.9342 87.3652 59.802C87.3652 59.6697 95.227 59.5609 104.938 59.5531C114.648 59.5453 122.502 59.662 122.502 59.7786Z" fill="#263238"/>
<path d="M122.51 65.6029C122.51 65.7351 114.641 65.844 104.938 65.8518C95.2347 65.8596 87.3652 65.7584 87.3652 65.634C87.3652 65.5096 95.2347 65.393 104.938 65.3852C114.641 65.3774 122.51 65.4785 122.51 65.6029Z" fill="#263238"/>
<path d="M106.258 71.4433C106.258 71.5755 102.032 71.6844 96.8196 71.6844C91.6069 71.6844 87.373 71.591 87.373 71.4588C87.373 71.3266 91.5991 71.2178 96.8196 71.2178C102.04 71.2178 106.258 71.3266 106.258 71.4433Z" fill="#263238"/>
<path d="M124.311 86.9184C129.576 86.9184 133.843 82.6465 133.843 77.3767C133.843 72.1069 129.576 67.835 124.311 67.835C119.047 67.835 114.779 72.1069 114.779 77.3767C114.779 82.6465 119.047 86.9184 124.311 86.9184Z" fill="#F05454"/>
<path d="M129.782 73.699C130.186 74.08 128.314 76.7474 125.602 79.6635C125.16 80.1301 124.732 80.5734 124.321 80.9855L123.66 81.6388L123 81.0866C120.631 79.0959 119.077 77.385 119.364 77.0118C119.652 76.6385 121.695 77.735 124.204 79.5469L122.891 79.648C123.272 79.2125 123.668 78.7459 124.119 78.2793C126.861 75.3632 129.37 73.3179 129.782 73.699Z" fill="#E0E0E0"/>
<path d="M101.371 85.7671C101.102 84.4851 101.102 83.161 101.371 81.8789C101.64 83.161 101.64 84.4851 101.371 85.7671Z" fill="#263238"/>
<path d="M101.371 93.5435C101.102 92.2614 101.102 90.9373 101.371 89.6553C101.64 90.9373 101.64 92.2614 101.371 93.5435Z" fill="#263238"/>
<path d="M101.371 101.32C101.102 100.038 101.102 98.7137 101.371 97.4316C101.64 98.7137 101.64 100.038 101.371 101.32Z" fill="#263238"/>
<path d="M101.371 109.097C101.102 107.815 101.102 106.491 101.371 105.209C101.64 106.491 101.64 107.815 101.371 109.097Z" fill="#263238"/>
<path d="M101.371 116.874C101.102 115.592 101.102 114.267 101.371 112.985C101.64 114.267 101.64 115.592 101.371 116.874Z" fill="#263238"/>
<path d="M101.371 124.65C101.102 123.368 101.102 122.044 101.371 120.762C101.64 122.044 101.64 123.368 101.371 124.65Z" fill="#263238"/>
<path d="M101.371 132.426C101.102 131.144 101.102 129.82 101.371 128.538C101.64 129.82 101.64 131.144 101.371 132.426Z" fill="#263238"/>
<path d="M101.371 140.203C101.102 138.921 101.102 137.597 101.371 136.314C101.64 137.597 101.64 138.921 101.371 140.203Z" fill="#263238"/>
<path d="M105.109 144.224C104.482 144.421 103.821 144.489 103.167 144.426C102.561 144.441 101.955 144.399 101.357 144.301H101.271V144.247C101.271 144.161 101.318 144.115 101.341 144.115C101.365 144.115 101.396 144.161 101.419 144.247L101.341 144.177C101.939 144.072 102.545 144.027 103.151 144.045C103.809 143.971 104.475 144.032 105.109 144.224Z" fill="#263238"/>
<path d="M112.876 144.224C111.596 144.493 110.273 144.493 108.992 144.224C110.273 143.954 111.596 143.954 112.876 144.224Z" fill="#263238"/>
<path d="M120.645 144.224C119.364 144.493 118.041 144.493 116.761 144.224C118.041 143.954 119.364 143.954 120.645 144.224Z" fill="#263238"/>
<path d="M128.414 144.224C127.133 144.493 125.81 144.493 124.529 144.224C125.81 143.954 127.133 143.954 128.414 144.224Z" fill="#263238"/>
<path d="M136.182 144.224C134.901 144.493 133.579 144.493 132.298 144.224C133.579 143.954 134.901 143.954 136.182 144.224Z" fill="#263238"/>
<path d="M265.582 73.8765C265.313 72.5945 265.313 71.2703 265.582 69.9883C265.851 71.2703 265.851 72.5945 265.582 73.8765Z" fill="#263238"/>
<path d="M265.582 81.6529C265.313 80.3708 265.313 79.0467 265.582 77.7646C265.851 79.0467 265.851 80.3708 265.582 81.6529Z" fill="#263238"/>
<path d="M265.582 89.4293C265.313 88.1472 265.313 86.8231 265.582 85.541C265.851 86.8231 265.851 88.1472 265.582 89.4293Z" fill="#263238"/>
<path d="M265.582 97.1978C265.313 95.9158 265.313 94.5916 265.582 93.3096C265.851 94.5916 265.851 95.9158 265.582 97.1978Z" fill="#263238"/>
<path d="M265.582 104.982C265.314 103.7 265.314 102.376 265.582 101.094C265.85 102.376 265.85 103.7 265.582 104.982Z" fill="#263238"/>
<path d="M265.582 112.758C265.313 111.476 265.313 110.152 265.582 108.87C265.851 110.152 265.851 111.476 265.582 112.758Z" fill="#263238"/>
<path d="M265.582 120.535C265.313 119.253 265.313 117.929 265.582 116.646C265.851 117.929 265.851 119.253 265.582 120.535Z" fill="#263238"/>
<path d="M265.582 128.312C265.313 127.03 265.313 125.706 265.582 124.424C265.851 125.706 265.851 127.03 265.582 128.312Z" fill="#263238"/>
<path d="M318.338 78.8696H317.88H316.505H311.152L291.078 78.9396L221.791 79.1029H221.636L221.581 78.9241C220.82 76.3175 220.685 73.5678 221.187 70.8991C221.689 68.2304 222.814 65.7182 224.471 63.5674C226.127 61.4167 228.267 59.6882 230.718 58.5229C233.168 57.3577 235.859 56.7886 238.571 56.8622L238.315 57.1966C237.889 55.6799 237.708 54.1047 237.779 52.5307C237.988 47.1649 241.034 41.9858 245.71 39.5906C247.978 38.4035 250.502 37.7899 253.061 37.8035C255.62 37.8171 258.138 38.4573 260.393 39.6684L260.035 39.8006C261.285 36.899 263.122 34.2887 265.432 32.1349C267.741 29.981 270.472 28.3307 273.452 27.2882C279.169 25.2041 285.508 25.4763 290.496 28.0659C295.239 30.5765 298.967 34.6545 301.045 39.6062C302.955 43.9572 303.413 48.8086 302.351 53.4405L302.156 53.2228C304.892 52.9325 307.658 53.3363 310.197 54.3971C312.452 55.3111 314.482 56.704 316.147 58.4797C316.909 59.2728 317.54 60.1808 318.02 61.1704C318.447 62.0861 318.783 63.0421 319.022 64.0243C319.425 65.7362 319.654 67.4844 319.705 69.2424C319.79 71.6646 319.579 74.0881 319.076 76.4589C318.944 77.0716 318.778 77.6765 318.579 78.2709C318.439 78.6752 318.361 78.8696 318.361 78.8696" fill="#F05454"/>
<path d="M309.552 52.2345H306.561V34.2242C306.561 32.1432 305.735 30.1474 304.265 28.6759C302.795 27.2044 300.802 26.3777 298.723 26.3777C296.644 26.3777 294.65 27.2044 293.18 28.6759C291.71 30.1474 290.884 32.1432 290.884 34.2242V52.2345H287.894V34.2242C287.894 31.3491 289.034 28.5918 291.065 26.5589C293.096 24.5259 295.851 23.3838 298.723 23.3838C301.595 23.3838 304.349 24.5259 306.38 26.5589C308.411 28.5918 309.552 31.3491 309.552 34.2242V52.2345Z" fill="#E0E0E0"/>
<path d="M310.896 44.2168H286.55C285.095 44.2168 283.916 45.3971 283.916 46.853V60.6019C283.916 62.0578 285.095 63.2381 286.55 63.2381H310.896C312.351 63.2381 313.53 62.0578 313.53 60.6019V46.853C313.53 45.3971 312.351 44.2168 310.896 44.2168Z" fill="#E0E0E0"/>
<path d="M298.722 53.727C298.231 53.7285 297.751 53.5842 297.343 53.3122C296.934 53.0402 296.615 52.6528 296.426 52.1992C296.238 51.7456 296.188 51.2462 296.284 50.7643C296.379 50.2823 296.615 49.8396 296.962 49.4922C297.309 49.1448 297.751 48.9084 298.233 48.8129C298.714 48.7174 299.213 48.7672 299.666 48.9559C300.12 49.1447 300.507 49.4638 300.778 49.873C301.05 50.2821 301.194 50.7628 301.193 51.2541C301.193 51.9099 300.932 52.5389 300.469 53.0027C300.006 53.4665 299.377 53.727 298.722 53.727Z" fill="#455A64"/>
<path d="M299.399 52.2344H298.047V57.328H299.399V52.2344Z" fill="#455A64"/>
<path d="M480.802 46.2548C483.029 44.1807 484.627 41.5207 485.414 38.5793C486.202 35.638 486.145 32.5343 485.252 29.6234C484.359 26.7126 482.665 24.1123 480.364 22.1204C478.064 20.1284 475.249 18.8253 472.243 18.3602C469.236 17.8951 466.16 18.2868 463.366 19.4904C460.572 20.6941 458.173 22.6611 456.443 25.1662C454.714 27.6713 453.724 30.6132 453.588 33.6552C453.451 36.6971 454.173 39.7162 455.67 42.3666L452.369 45.4772L453.146 50.9207L448.042 49.552L443.917 53.4403L444.693 58.8838L439.574 57.4452L436.047 60.7346L436.529 64.0707L433.421 63.1998L431.386 65.105L431.075 70.1831L438.634 72.0883L463.159 49.1788C466.062 50.4788 469.283 50.8948 472.42 50.3749C475.557 49.8549 478.472 48.422 480.802 46.2548ZM478.409 26.3159C479.04 26.9896 479.458 27.8358 479.608 28.7472C479.759 29.6586 479.636 30.5942 479.255 31.4355C478.873 32.2768 478.251 32.9859 477.467 33.473C476.683 33.9601 475.772 34.2032 474.85 34.1715C473.928 34.1399 473.035 33.8349 472.286 33.2952C471.538 32.7555 470.965 32.0054 470.643 31.14C470.32 30.2745 470.261 29.3327 470.474 28.4337C470.686 27.5348 471.161 26.7192 471.837 26.0904C472.739 25.2507 473.938 24.803 475.169 24.8452C476.401 24.8875 477.566 25.4163 478.409 26.3159Z" fill="#263238"/>
<path d="M478.409 26.316C478.409 26.316 478.106 26.0283 477.484 25.6472C476.609 25.1155 475.581 24.8911 474.563 25.0095C473.737 25.0976 472.951 25.4144 472.294 25.9244C471.638 26.4344 471.136 27.1174 470.845 27.8969C470.554 28.6764 470.486 29.5215 470.648 30.3376C470.81 31.1537 471.197 31.9084 471.763 32.5171C472.33 33.1259 473.055 33.5646 473.856 33.7842C474.658 34.0037 475.505 33.9953 476.302 33.76C477.1 33.5247 477.816 33.0718 478.37 32.452C478.925 31.8322 479.296 31.07 479.442 30.2509C479.628 29.2397 479.475 28.1955 479.007 27.2803C478.673 26.6348 478.378 26.3393 478.409 26.316C478.44 26.2927 478.494 26.3704 478.634 26.5182C478.832 26.7275 479.004 26.9598 479.147 27.2103C479.697 28.1475 479.903 29.2477 479.729 30.3209C479.625 30.951 479.395 31.5538 479.055 32.094C478.714 32.6342 478.269 33.1008 477.746 33.4666C477.223 33.8324 476.632 34.0899 476.008 34.2241C475.384 34.3583 474.74 34.3664 474.113 34.248C473.101 34.0601 472.177 33.5509 471.477 32.7959C470.778 32.0409 470.34 31.0803 470.229 30.0565C470.153 29.4202 470.206 28.7753 470.384 28.1599C470.563 27.5445 470.862 26.9711 471.266 26.4737C471.669 25.9763 472.168 25.5649 472.733 25.264C473.298 24.9631 473.918 24.7787 474.556 24.7218C475.628 24.6175 476.703 24.8927 477.593 25.4995C477.833 25.6588 478.052 25.8468 478.246 26.0594C478.313 26.1356 478.368 26.2223 478.409 26.316Z" fill="#263238"/>
<path d="M480.802 46.2541C480.731 46.3352 480.653 46.4106 480.569 46.4796L479.854 47.1172C478.894 47.8943 477.852 48.5645 476.747 49.1158C474.62 50.1343 472.298 50.679 469.94 50.7126C467.582 50.7461 465.245 50.2677 463.09 49.3102H463.222L438.743 72.2586L438.666 72.3208H438.573L431.014 70.4234L430.858 70.3845V70.2289C430.952 68.6736 431.053 66.9162 431.161 65.1587V65.0809L431.223 65.0265L433.282 63.0979L433.36 63.0279H433.469L436.576 63.9067L436.327 64.1244C436.18 63.0824 436.017 61.9392 435.846 60.7883V60.6794L435.916 60.6094L439.466 57.2967L439.544 57.2189H439.652L444.772 58.6575L444.515 58.8753C444.267 57.1411 443.995 55.2748 443.739 53.4317V53.3307L443.809 53.2529L444.904 52.2342L447.934 49.4035L448.019 49.3258H448.128L453.247 50.7644L452.991 50.9822C452.727 49.1417 452.468 47.3272 452.214 45.5386V45.4375L452.292 45.3675L455.586 42.2569L455.547 42.498C454.28 40.2357 453.56 37.7086 453.441 35.1181C453.383 33.8598 453.475 32.5989 453.713 31.3621C453.934 30.1469 454.296 28.9619 454.793 27.8316C456.03 24.9603 458.064 22.5047 460.653 20.7566C463.243 19.0085 466.28 18.0413 469.403 17.9701C472.525 17.8988 475.603 18.7265 478.269 20.3546C480.936 21.9828 483.08 24.3431 484.446 27.155C485.73 29.8124 486.267 32.7695 485.999 35.7091C485.823 37.8851 485.204 40.002 484.182 41.9303L483.879 42.5058L483.552 43.019C483.327 43.3456 483.148 43.6723 482.931 43.9367C482.496 44.4655 482.154 44.9398 481.828 45.2742L481.051 46.0519L480.787 46.2929L481.028 46.0208L481.75 45.2431C482.068 44.9087 482.395 44.4655 482.814 43.9056C483.024 43.6334 483.203 43.3068 483.412 42.9802L483.739 42.4669L484.026 41.8914C485.179 39.6383 485.79 37.147 485.812 34.6157C485.833 32.0844 485.264 29.5831 484.15 27.3105C482.443 23.8725 479.562 21.1599 476.03 19.6636C472.497 18.1673 468.547 17.9862 464.892 19.153C462.724 19.8457 460.727 20.9923 459.036 22.5168C457.344 24.0412 455.996 25.9086 455.081 27.9949C454.597 29.0981 454.245 30.2543 454.032 31.4399C453.798 32.6458 453.712 33.8758 453.776 35.1026C453.888 37.6348 454.596 40.1047 455.842 42.3114L455.912 42.4436L455.803 42.5524L452.509 45.663L452.571 45.492C452.83 47.2961 453.089 49.1106 453.348 50.9355L453.395 51.2388L453.1 51.161L447.98 49.7224L448.174 49.6757L445.145 52.5063L444.049 53.5251L444.111 53.354C444.383 55.2281 444.648 57.0945 444.888 58.7975L444.935 59.1008L444.64 59.023L439.52 57.5844L439.714 57.5377L436.164 60.8505L436.226 60.6716C436.39 61.8226 436.553 62.9657 436.708 64.0078V64.311L436.421 64.2333L433.313 63.3545L433.5 63.3079L431.441 65.2364L431.503 65.1042C431.394 66.8617 431.286 68.5959 431.185 70.1745L431.045 69.9801L438.604 71.8931H438.433L462.997 49.038L463.051 48.9836H463.129C465.255 49.9376 467.56 50.423 469.89 50.4069C472.219 50.3908 474.518 49.8736 476.63 48.8903C477.744 48.3607 478.799 47.7143 479.777 46.9617C480.095 46.7051 480.336 46.5029 480.507 46.3551L480.802 46.2541Z" fill="#263238"/>
<path d="M480.259 44.4189C482.486 42.3447 484.085 39.6847 484.872 36.7434C485.659 33.8021 485.603 30.6983 484.71 27.7875C483.817 24.8766 482.123 22.2764 479.822 20.2845C477.521 18.2925 474.707 16.9894 471.701 16.5243C468.694 16.0591 465.618 16.4508 462.824 17.6545C460.03 18.8582 457.631 20.8252 455.901 23.3302C454.172 25.8353 453.182 28.7773 453.046 31.8192C452.909 34.8612 453.631 37.8802 455.128 40.5306L451.834 43.6412L452.611 49.0848L447.492 47.6461L443.367 51.5344L444.144 56.9779L439.024 55.5392L435.505 58.8831L435.987 62.2192L432.879 61.3483L430.821 63.2768L430.51 68.3471L438.069 70.2523L462.594 47.3506C465.5 48.6547 468.726 49.0721 471.868 48.5506C475.01 48.0292 477.929 46.592 480.259 44.4189ZM477.867 24.4722C478.499 25.1455 478.918 25.9917 479.069 26.9034C479.22 27.8152 479.098 28.7514 478.717 29.5933C478.336 30.4352 477.714 31.145 476.93 31.6325C476.145 32.12 475.234 32.3634 474.311 32.3317C473.388 32.3 472.496 31.9946 471.747 31.4544C470.998 30.9142 470.425 30.1635 470.103 29.2974C469.781 28.4313 469.723 27.4889 469.936 26.5897C470.15 25.6905 470.625 24.875 471.302 24.2467C472.205 23.4093 473.401 22.9631 474.631 23.0054C475.861 23.0476 477.024 23.5749 477.867 24.4722Z" fill="#E0E0E0"/>
<path d="M477.866 24.4727C477.866 24.4727 477.563 24.1928 476.941 23.8117C476.067 23.2768 475.039 23.0496 474.02 23.1663C473.194 23.2558 472.41 23.5737 471.754 24.0845C471.098 24.5952 470.597 25.2787 470.308 26.0582C470.018 26.8377 469.951 27.6825 470.114 28.4981C470.277 29.3136 470.664 30.0676 471.23 30.6756C471.797 31.2837 472.522 31.7217 473.324 31.9407C474.125 32.1597 474.972 32.151 475.769 31.9156C476.565 31.6801 477.281 31.2273 477.835 30.6077C478.39 29.9881 478.761 29.2263 478.907 28.4076C479.094 27.3982 478.938 26.3552 478.464 25.4448C478.13 24.7993 477.835 24.5038 477.866 24.4727C477.897 24.4416 477.951 24.5349 478.091 24.6749C478.289 24.8842 478.461 25.1166 478.604 25.367C479.154 26.3043 479.36 27.4045 479.186 28.4776C479.084 29.1103 478.857 29.7161 478.518 30.2596C478.178 30.8032 477.734 31.2734 477.211 31.6428C476.688 32.0122 476.096 32.2734 475.471 32.4109C474.846 32.5484 474.199 32.5595 473.57 32.4436C472.559 32.2519 471.636 31.7404 470.936 30.9846C470.237 30.2287 469.799 29.2682 469.685 28.2443C469.571 27.2942 469.747 26.3315 470.19 25.4837C470.559 24.7669 471.103 24.1551 471.771 23.7051C472.439 23.2551 473.21 22.9814 474.013 22.9097C475.084 22.81 476.158 23.0848 477.05 23.6873C477.291 23.8442 477.511 24.0325 477.703 24.2472C477.822 24.3924 477.876 24.4675 477.866 24.4727Z" fill="#263238"/>
<path d="M480.258 44.4192C480.185 44.4962 480.107 44.5689 480.025 44.6369L479.318 45.2746C478.358 46.0519 477.316 46.722 476.211 47.2732C474.084 48.2916 471.761 48.8364 469.403 48.8699C467.046 48.9035 464.709 48.4251 462.554 47.4676H462.686L438.176 70.3926L438.106 70.4626H438.005L430.446 68.5652H430.291V68.4096C430.384 66.8543 430.485 65.0891 430.594 63.3316V63.2538L430.648 63.2072C431.285 62.6084 431.992 61.9396 432.707 61.2786L432.792 61.2008H432.893L436.001 62.0718L435.752 62.2896C435.597 61.2475 435.434 60.1044 435.271 58.9534V58.8523L435.341 58.7746L438.891 55.4696L438.968 55.3918H439.077L444.197 56.8227L443.94 57.0482C443.692 55.3063 443.42 53.4477 443.163 51.6047V51.5036L443.241 51.4336L444.329 50.4071L447.358 47.5764L447.444 47.4987H447.553L452.672 48.9373L452.416 49.1628C452.152 47.312 451.887 45.4923 451.639 43.7193V43.6182L451.717 43.5482L455.01 40.4376V40.6787C453.738 38.4184 453.014 35.8905 452.897 33.2988C452.794 30.8015 453.256 28.3131 454.249 26.02C455.486 23.1487 457.52 20.6931 460.109 18.945C462.699 17.1969 465.736 16.2298 468.859 16.1585C471.981 16.0873 475.059 16.9149 477.725 18.5431C480.392 20.1713 482.536 22.5316 483.902 25.3435C485.192 27.9826 485.743 30.9231 485.494 33.851C485.318 36.0271 484.7 38.1442 483.676 40.0721L483.381 40.6476L483.047 41.1608C482.822 41.4952 482.643 41.8141 482.433 42.0863C481.99 42.6151 481.656 43.0816 481.33 43.416L480.553 44.1937C480.382 44.3648 480.289 44.4425 480.289 44.4425C480.289 44.4425 480.367 44.3414 480.53 44.1703L481.252 43.3927C481.571 43.0583 481.897 42.615 482.325 42.0474C482.527 41.7752 482.705 41.4486 482.915 41.122L483.241 40.6087L483.536 40.0333C484.447 38.1271 484.973 36.0602 485.086 33.9504C485.198 31.8406 484.895 29.7292 484.192 27.7369C483.49 25.7446 482.402 23.9103 480.991 22.3388C479.58 20.7673 477.874 19.4894 475.97 18.5779C474.066 17.6665 472.001 17.1394 469.893 17.0268C467.786 16.9142 465.676 17.2182 463.686 17.9215C461.696 18.6249 459.863 19.7138 458.294 21.126C456.724 22.5382 455.447 24.2461 454.537 26.1522C453.569 28.3947 453.123 30.8276 453.231 33.2677C453.344 35.7975 454.052 38.2648 455.298 40.4687L455.376 40.6087L455.259 40.7098L451.965 43.8204L452.027 43.6493C452.281 45.4535 452.54 47.268 452.804 49.0929L452.851 49.4039L452.556 49.3184L447.436 47.8797L447.63 47.8331L444.601 50.6637L443.505 51.6902L443.567 51.5113C443.839 53.3855 444.103 55.2518 444.344 56.9549L444.391 57.2659L444.096 57.1804L438.992 55.7729L439.186 55.7262L435.636 59.039L435.698 58.8679C435.861 60.0188 436.032 61.2008 436.18 62.204L436.218 62.4995L435.931 62.4218L432.824 61.543L433.01 61.4963L430.944 63.4249L431.006 63.2927C430.897 65.0502 430.788 66.7844 430.687 68.363L430.547 68.1686L438.106 70.0816L437.935 70.1282L462.46 47.2654L462.523 47.2109H462.592C465.03 48.3023 467.697 48.7802 470.361 48.6029C472.34 48.4559 474.276 47.9555 476.079 47.1254C477.176 46.5877 478.217 45.9416 479.186 45.1968L479.916 44.5825L480.258 44.4192Z" fill="#263238"/>
<path d="M478.776 43.1516C479.573 42.2965 480.301 41.3785 480.951 40.4065C481.691 39.2537 482.251 37.9951 482.613 36.6738C483.112 34.9292 483.27 33.1047 483.079 31.3002C482.858 29.1156 482.126 27.0137 480.943 25.1646C479.585 23.0411 477.687 21.3179 475.443 20.1721C474.24 19.5484 472.948 19.1131 471.613 18.8812C470.925 18.7574 470.229 18.6768 469.531 18.6401C468.817 18.63 468.104 18.6664 467.395 18.749C464.422 19.0919 461.637 20.3806 459.45 22.4257C457.263 24.4708 455.789 27.1644 455.245 30.1104C455.114 30.8118 455.028 31.521 454.988 32.2334C454.977 32.9345 455.008 33.6357 455.082 34.333C455.229 35.6728 455.575 36.9832 456.107 38.2213C457.091 40.5426 458.676 42.5589 460.698 44.0614C462.31 45.2502 464.154 46.0844 466.11 46.5093C468.066 46.9341 470.09 46.94 472.048 46.5266C473.391 46.2575 474.685 45.7855 475.886 45.1268C476.899 44.5415 477.865 43.8785 478.776 43.1438C478.776 43.1438 478.721 43.206 478.613 43.3071L478.108 43.7581C477.838 44.0132 477.547 44.2447 477.238 44.4503C476.83 44.737 476.405 44.9967 475.963 45.2279C474.752 45.9189 473.442 46.4198 472.079 46.7132C470.084 47.1561 468.017 47.1695 466.017 46.7525C464.016 46.3356 462.126 45.4978 460.473 44.2947C458.396 42.7615 456.763 40.703 455.742 38.3302C455.193 37.0665 454.839 35.7266 454.693 34.3564C454.609 33.6443 454.575 32.927 454.592 32.2101C454.624 31.4763 454.709 30.7459 454.849 30.0249C455.41 26.997 456.927 24.2294 459.177 22.1294C461.427 20.0295 464.292 18.7082 467.348 18.3602C468.075 18.2761 468.807 18.2423 469.539 18.2591C470.256 18.2945 470.969 18.3777 471.675 18.5079C473.046 18.7534 474.372 19.2071 475.606 19.8532C477.9 21.0349 479.837 22.8097 481.215 24.9935C482.418 26.8879 483.153 29.0417 483.359 31.2769C483.531 33.109 483.349 34.9572 482.823 36.7204C482.436 38.0547 481.847 39.3215 481.075 40.4765C480.806 40.9029 480.504 41.3085 480.174 41.6896C479.939 41.9713 479.679 42.2315 479.397 42.4672L478.908 42.9416C478.838 43.1049 478.776 43.1594 478.776 43.1516Z" fill="#263238"/>
<path d="M478.115 31.6655C478.115 31.6655 478.457 31.3156 478.892 30.5924C479.425 29.7285 479.704 28.7315 479.695 27.7161C479.687 26.7007 479.392 25.7084 478.845 24.8533C478.334 24.058 477.617 23.4159 476.771 22.9947C475.848 22.519 474.802 22.3347 473.772 22.4659C472.662 22.5932 471.621 23.0735 470.803 23.8362C469.985 24.599 469.433 25.6041 469.228 26.7041C469.028 27.7267 469.139 28.7857 469.546 29.7447C469.838 30.426 470.267 31.0395 470.807 31.5466C471.346 32.0537 471.985 32.4434 472.683 32.691C473.381 32.9387 474.122 33.039 474.86 32.9856C475.599 32.9323 476.318 32.7264 476.973 32.3809C477.75 31.9766 478.068 31.6033 478.1 31.6655C478.131 31.7277 478.03 31.7666 477.859 31.9221C477.624 32.1518 477.364 32.3528 477.082 32.5209C476.16 33.0528 475.103 33.3058 474.04 33.2492C472.977 33.1926 471.953 32.8289 471.092 32.2021C470.233 31.5784 469.568 30.7234 469.175 29.7364C468.781 28.7494 468.676 27.6709 468.871 26.6263C469.089 25.4428 469.683 24.361 470.562 23.5405C471.442 22.72 472.562 22.2043 473.757 22.0693C474.498 21.9799 475.25 22.0406 475.967 22.2477C476.684 22.4548 477.353 22.8042 477.932 23.275C478.512 23.7458 478.991 24.3284 479.342 24.9883C479.692 25.6482 479.906 26.3718 479.972 27.1163C480.088 28.374 479.764 29.6331 479.055 30.6779C478.866 30.9601 478.648 31.2209 478.403 31.4555C478.318 31.5394 478.221 31.6102 478.115 31.6655Z" fill="#263238"/>
<path d="M436.049 69.358C435.971 69.2803 441.487 64 448.377 57.5689C455.268 51.1377 460.916 45.9819 460.993 46.0675C461.071 46.153 455.555 51.4255 448.657 57.8644C441.759 64.3033 436.15 69.4436 436.049 69.358Z" fill="#263238"/>
<path d="M412.207 139.611C410.926 139.881 409.603 139.881 408.322 139.611C409.603 139.342 410.926 139.342 412.207 139.611Z" fill="#263238"/>
<path d="M419.975 139.611C418.694 139.881 417.372 139.881 416.091 139.611C417.372 139.342 418.694 139.342 419.975 139.611Z" fill="#263238"/>
<path d="M427.744 139.611C426.463 139.881 425.14 139.881 423.859 139.611C425.14 139.342 426.463 139.342 427.744 139.611Z" fill="#263238"/>
<path d="M435.512 139.611C434.231 139.881 432.909 139.881 431.628 139.611C432.909 139.342 434.231 139.342 435.512 139.611Z" fill="#263238"/>
<path d="M443.281 139.611C442 139.881 440.677 139.881 439.396 139.611C440.677 139.342 442 139.342 443.281 139.611Z" fill="#263238"/>
<path d="M451.049 139.611C449.769 139.881 448.446 139.881 447.165 139.611C448.446 139.342 449.769 139.342 451.049 139.611Z" fill="#263238"/>
<path d="M457.645 138.438C457.722 138.438 457.8 138.92 457.831 139.612V139.76H457.637H456.86C456.206 139.823 455.545 139.754 454.918 139.557C455.545 139.36 456.206 139.291 456.86 139.355H457.637L457.451 139.542C457.489 138.92 457.559 138.438 457.645 138.438Z" fill="#263238"/>
<path d="M457.645 130.661C457.915 131.943 457.915 133.267 457.645 134.549C457.376 133.267 457.376 131.943 457.645 130.661Z" fill="#263238"/>
<path d="M457.645 122.884C457.915 124.166 457.915 125.49 457.645 126.772C457.376 125.49 457.376 124.166 457.645 122.884Z" fill="#263238"/>
<path d="M457.645 115.107C457.915 116.389 457.915 117.714 457.645 118.996C457.376 117.714 457.376 116.389 457.645 115.107Z" fill="#263238"/>
<path d="M457.645 107.331C457.915 108.613 457.915 109.937 457.645 111.219C457.376 109.937 457.376 108.613 457.645 107.331Z" fill="#263238"/>
<path d="M457.645 99.5547C457.915 100.837 457.915 102.161 457.645 103.443C457.376 102.161 457.376 100.837 457.645 99.5547Z" fill="#263238"/>
<path d="M457.645 91.7783C457.915 93.0604 457.915 94.3845 457.645 95.6666C457.376 94.3845 457.376 93.0604 457.645 91.7783Z" fill="#263238"/>
<path d="M457.645 84.002C457.915 85.284 457.915 86.6081 457.645 87.8902C457.376 86.6081 457.376 85.284 457.645 84.002Z" fill="#263238"/>
<path d="M457.645 76.2256C457.915 77.5076 457.915 78.8318 457.645 80.1138C457.376 78.8318 457.376 77.5076 457.645 76.2256Z" fill="#263238"/>
<path d="M457.645 68.4492C457.915 69.7313 457.915 71.0554 457.645 72.3375C457.376 71.0554 457.376 69.7313 457.645 68.4492Z" fill="#263238"/>
<path d="M457.645 60.6729C457.915 61.9549 457.915 63.279 457.645 64.5611C457.376 63.279 457.376 61.9549 457.645 60.6729Z" fill="#263238"/>
<path d="M399.396 217.119C398.115 217.389 396.792 217.389 395.512 217.119C396.792 216.85 398.115 216.85 399.396 217.119Z" fill="#263238"/>
<path d="M407.165 217.119C405.884 217.389 404.561 217.389 403.28 217.119C404.561 216.85 405.884 216.85 407.165 217.119Z" fill="#263238"/>
<path d="M414.933 217.119C413.652 217.389 412.33 217.389 411.049 217.119C412.33 216.85 413.652 216.85 414.933 217.119Z" fill="#263238"/>
<path d="M422.702 217.119C421.421 217.389 420.098 217.389 418.817 217.119C420.098 216.85 421.421 216.85 422.702 217.119Z" fill="#263238"/>
<path d="M430.47 217.119C429.189 217.389 427.867 217.389 426.586 217.119C427.867 216.85 429.189 216.85 430.47 217.119Z" fill="#263238"/>
<path d="M438.239 217.119C436.958 217.389 435.635 217.389 434.354 217.119C435.635 216.85 436.958 216.85 438.239 217.119Z" fill="#263238"/>
<path d="M446.007 217.119C444.727 217.389 443.404 217.389 442.123 217.119C443.404 216.85 444.727 216.85 446.007 217.119Z" fill="#263238"/>
<path d="M453.776 217.119C452.495 217.389 451.172 217.389 449.892 217.119C451.172 216.85 452.495 216.85 453.776 217.119Z" fill="#263238"/>
<path d="M461.544 217.119C460.264 217.389 458.941 217.389 457.66 217.119C458.941 216.85 460.264 216.85 461.544 217.119Z" fill="#263238"/>
<path d="M469.313 217.119C468.032 217.389 466.709 217.389 465.429 217.119C466.709 216.85 468.032 216.85 469.313 217.119Z" fill="#263238"/>
<path d="M476.359 216.396C476.429 216.396 476.476 216.676 476.514 217.127V217.267H476.343C476.017 217.267 475.567 217.306 475.132 217.306C474.477 217.374 473.816 217.306 473.189 217.104C473.817 216.907 474.477 216.838 475.132 216.902C475.598 216.902 476.017 216.902 476.343 216.949L476.188 217.104C476.235 216.676 476.297 216.396 476.359 216.396Z" fill="#263238"/>
<path d="M476.444 208.62C476.64 209.248 476.703 209.91 476.63 210.564C476.689 211.221 476.612 211.883 476.405 212.508C476.214 211.879 476.153 211.218 476.226 210.564C476.168 209.908 476.242 209.247 476.444 208.62Z" fill="#263238"/>
<path d="M476.514 200.844C476.706 201.473 476.769 202.134 476.701 202.788C476.759 203.445 476.682 204.106 476.475 204.732C476.284 204.103 476.223 203.441 476.297 202.788C476.238 202.132 476.312 201.471 476.514 200.844Z" fill="#263238"/>
<path d="M476.591 193.066C476.782 193.695 476.846 194.357 476.777 195.011C476.831 195.667 476.755 196.328 476.552 196.955C476.361 196.326 476.297 195.665 476.366 195.011C476.312 194.354 476.388 193.693 476.591 193.066Z" fill="#263238"/>
<path d="M450.885 168.696L452.315 194.972C452.336 195.424 452.531 195.85 452.858 196.163C453.184 196.475 453.618 196.651 454.07 196.652L501.311 197.002C501.781 197.004 502.233 196.819 502.568 196.489C502.903 196.158 503.093 195.708 503.097 195.237L503.245 174.785C503.247 174.55 503.203 174.318 503.115 174.101C503.027 173.884 502.896 173.687 502.732 173.521C502.567 173.354 502.371 173.222 502.155 173.132C501.939 173.042 501.708 172.996 501.474 172.996H472.42C471.95 172.995 471.5 172.808 471.169 172.475L466.158 167.459C465.995 167.295 465.802 167.164 465.589 167.074C465.375 166.985 465.146 166.939 464.915 166.938L452.664 166.845C452.425 166.845 452.187 166.893 451.967 166.987C451.746 167.081 451.547 167.218 451.381 167.391C451.215 167.564 451.085 167.768 451 167.993C450.915 168.217 450.876 168.456 450.885 168.696Z" fill="#F05454"/>
<path d="M503.28 169.905L451.659 169.526L451.433 200.398L503.054 200.777L503.28 169.905Z" fill="#F5F5F5"/>
<path d="M447.537 172.265L451.243 204.49C451.272 204.769 451.403 205.026 451.611 205.213C451.819 205.4 452.089 205.503 452.369 205.501L502.67 205.875C502.958 205.877 503.236 205.77 503.448 205.576C503.66 205.381 503.791 205.112 503.812 204.825L506.586 172.646C506.598 172.489 506.579 172.33 506.528 172.181C506.476 172.032 506.395 171.895 506.289 171.779C506.182 171.663 506.053 171.57 505.909 171.507C505.765 171.443 505.609 171.41 505.451 171.409L448.679 170.997C448.518 170.996 448.359 171.029 448.211 171.094C448.064 171.159 447.932 171.255 447.824 171.375C447.716 171.494 447.635 171.635 447.586 171.789C447.536 171.942 447.52 172.104 447.537 172.265Z" fill="#F05454"/>
<path d="M405.377 122.16H145.372C139.121 122.16 134.054 127.233 134.054 133.49V297.932C134.054 304.19 139.121 309.262 145.372 309.262H405.377C411.628 309.262 416.696 304.19 416.696 297.932V133.49C416.696 127.233 411.628 122.16 405.377 122.16Z" fill="#263238"/>
<path d="M122.199 295.428H428.458V297.955C428.458 301.626 427.001 305.147 424.407 307.743C421.814 310.339 418.297 311.797 414.63 311.797H136.066C132.399 311.797 128.881 310.339 126.288 307.743C123.695 305.147 122.238 301.626 122.238 297.955V295.428H122.199Z" fill="#263238"/>
<path d="M408.321 129.594H141.644V287.596H408.321V129.594Z" fill="#455A64"/>
<path d="M247.514 295.428L251.312 301.478H304.783L308.318 295.428H247.514Z" fill="#455A64"/>
<path d="M400.84 134.945H149.676C148.273 134.945 147.136 136.084 147.136 137.488V284.549C147.136 285.954 148.273 287.092 149.676 287.092H400.84C402.243 287.092 403.38 285.954 403.38 284.549V137.488C403.38 136.084 402.243 134.945 400.84 134.945Z" fill="#EBEBEB"/>
<path d="M403.38 146.097H147.136V287.1H403.38V146.097Z" fill="#FAFAFA"/>
<path d="M168.15 140.824C168.15 141.231 168.029 141.628 167.803 141.966C167.578 142.304 167.257 142.567 166.882 142.722C166.507 142.877 166.094 142.917 165.696 142.837C165.298 142.758 164.932 142.561 164.646 142.273C164.359 141.986 164.165 141.619 164.086 141.22C164.008 140.821 164.05 140.408 164.206 140.033C164.363 139.658 164.627 139.338 164.965 139.114C165.303 138.889 165.701 138.77 166.107 138.771C166.375 138.771 166.642 138.825 166.89 138.928C167.139 139.031 167.364 139.183 167.554 139.373C167.744 139.564 167.894 139.79 167.996 140.039C168.099 140.288 168.151 140.555 168.15 140.824Z" fill="#263238"/>
<path d="M155.751 140.824C155.751 141.231 155.631 141.627 155.406 141.965C155.18 142.303 154.86 142.566 154.485 142.721C154.11 142.877 153.698 142.917 153.3 142.838C152.902 142.759 152.537 142.563 152.25 142.276C151.963 141.989 151.768 141.623 151.689 141.225C151.61 140.827 151.65 140.414 151.806 140.039C151.961 139.664 152.224 139.343 152.561 139.117C152.898 138.892 153.295 138.771 153.7 138.771C154.244 138.771 154.766 138.988 155.15 139.373C155.535 139.758 155.751 140.28 155.751 140.824Z" fill="#263238"/>
<path d="M161.702 140.824C161.702 141.231 161.582 141.628 161.356 141.966C161.13 142.304 160.81 142.567 160.435 142.722C160.059 142.877 159.647 142.917 159.249 142.837C158.85 142.758 158.485 142.561 158.199 142.273C157.912 141.986 157.717 141.619 157.639 141.22C157.561 140.821 157.603 140.408 157.759 140.033C157.915 139.658 158.179 139.338 158.518 139.114C158.856 138.889 159.253 138.77 159.659 138.771C159.928 138.771 160.195 138.825 160.443 138.928C160.691 139.031 160.917 139.183 161.107 139.373C161.297 139.564 161.447 139.79 161.549 140.039C161.651 140.288 161.703 140.555 161.702 140.824Z" fill="#263238"/>
<path d="M414.294 295.428C414.294 295.529 351.564 295.614 274.197 295.614C196.83 295.614 134.076 295.529 134.076 295.428C134.076 295.327 196.799 295.241 274.197 295.241C351.595 295.241 414.294 295.327 414.294 295.428Z" fill="#455A64"/>
<path d="M223.369 217.127H164.896V221.046H223.369V217.127Z" fill="#E0E0E0"/>
<path d="M298.894 162.761H240.42V166.68H298.894V162.761Z" fill="#E0E0E0"/>
<path d="M385.862 177.343C385.862 177.444 353.304 177.53 313.141 177.53C272.978 177.53 240.42 177.444 240.42 177.343C240.42 177.242 272.978 177.164 313.141 177.164C353.304 177.164 385.862 177.242 385.862 177.343Z" fill="#E0E0E0"/>
<path d="M385.862 185.896C385.862 185.997 353.304 186.074 313.141 186.074C272.978 186.074 240.42 185.997 240.42 185.896C240.42 185.795 272.978 185.709 313.141 185.709C353.304 185.709 385.862 185.795 385.862 185.896Z" fill="#E0E0E0"/>
<path d="M385.862 194.443C385.862 194.544 353.304 194.629 313.141 194.629C272.978 194.629 240.42 194.544 240.42 194.443C240.42 194.341 272.978 194.264 313.141 194.264C353.304 194.264 385.862 194.341 385.862 194.443Z" fill="#E0E0E0"/>
<path d="M385.862 202.996C385.862 203.097 353.304 203.175 313.141 203.175C272.978 203.175 240.42 203.097 240.42 202.996C240.42 202.895 272.978 202.81 313.141 202.81C353.304 202.81 385.862 202.895 385.862 202.996Z" fill="#E0E0E0"/>
<path d="M385.862 211.543C385.862 211.644 353.304 211.73 313.141 211.73C272.978 211.73 240.42 211.644 240.42 211.543C240.42 211.442 272.978 211.364 313.141 211.364C353.304 211.364 385.862 211.442 385.862 211.543Z" fill="#E0E0E0"/>
<path d="M297.192 220.098C297.192 220.199 284.483 220.277 268.806 220.277C253.129 220.277 240.42 220.199 240.42 220.098C240.42 219.997 253.129 219.911 268.806 219.911C284.483 219.911 297.192 219.997 297.192 220.098Z" fill="#E0E0E0"/>
<path d="M384.774 236.685C384.774 236.786 363.372 236.871 336.982 236.871C310.593 236.871 289.183 236.786 289.183 236.685C289.183 236.584 310.577 236.506 336.982 236.506C363.388 236.506 384.774 236.584 384.774 236.685Z" fill="#E0E0E0"/>
<path d="M384.774 245.768C384.774 245.869 363.372 245.947 336.982 245.947C310.593 245.947 289.183 245.869 289.183 245.768C289.183 245.667 310.577 245.581 336.982 245.581C363.388 245.581 384.774 245.667 384.774 245.768Z" fill="#E0E0E0"/>
<path d="M384.775 254.85C384.775 254.951 363.373 255.029 336.984 255.029C310.594 255.029 289.223 254.943 289.223 254.85C289.223 254.756 310.617 254.663 337.022 254.663C363.428 254.663 384.775 254.741 384.775 254.85Z" fill="#E0E0E0"/>
<path d="M384.774 263.917C384.774 264.018 363.372 264.096 336.982 264.096C310.593 264.096 289.183 264.018 289.183 263.917C289.183 263.816 310.577 263.73 336.982 263.73C363.388 263.73 384.774 263.816 384.774 263.917Z" fill="#E0E0E0"/>
<path d="M223.516 235.821C223.516 235.922 210.76 236 195.021 236C179.282 236 166.526 235.922 166.526 235.821C166.526 235.72 179.282 235.635 195.021 235.635C210.76 235.635 223.516 235.72 223.516 235.821Z" fill="#E0E0E0"/>
<path d="M223.516 242.944C223.516 243.046 210.76 243.131 195.021 243.131C179.282 243.131 166.526 243.046 166.526 242.944C166.526 242.843 179.282 242.766 195.021 242.766C210.76 242.766 223.516 242.843 223.516 242.944Z" fill="#E0E0E0"/>
<path d="M223.516 250.075C223.516 250.176 210.76 250.262 195.021 250.262C179.282 250.262 166.526 250.176 166.526 250.075C166.526 249.974 179.282 249.889 195.021 249.889C210.76 249.889 223.516 249.974 223.516 250.075Z" fill="#E0E0E0"/>
<path d="M223.516 257.183C223.516 257.284 210.76 257.362 195.021 257.362C179.282 257.362 166.526 257.284 166.526 257.183C166.526 257.082 179.282 256.996 195.021 256.996C210.76 256.996 223.516 257.105 223.516 257.183Z" fill="#E0E0E0"/>
<path d="M223.516 264.329C223.516 264.43 210.76 264.516 195.021 264.516C179.282 264.516 166.526 264.43 166.526 264.329C166.526 264.228 179.282 264.15 195.021 264.15C210.76 264.15 223.516 264.228 223.516 264.329Z" fill="#E0E0E0"/>
<path d="M281.867 232.36H240.383V272.541H281.867V232.36Z" fill="#F5F5F5"/>
<path d="M243.598 269.097L255.08 248.419L264.464 261.639L270.174 254.617L278.657 269.097H243.598Z" fill="#EBEBEB"/>
<path d="M268.465 244.398C268.467 244.991 268.292 245.571 267.964 246.065C267.636 246.558 267.169 246.943 266.622 247.171C266.076 247.398 265.474 247.458 264.893 247.343C264.312 247.228 263.778 246.942 263.359 246.523C262.941 246.104 262.656 245.57 262.54 244.988C262.425 244.407 262.485 243.804 262.713 243.257C262.94 242.709 263.324 242.242 263.817 241.913C264.311 241.585 264.89 241.411 265.482 241.412C266.273 241.412 267.032 241.727 267.591 242.287C268.151 242.847 268.465 243.606 268.465 244.398Z" fill="#EBEBEB"/>
<path d="M278.658 269.214C278.651 269.157 278.651 269.1 278.658 269.043C278.658 268.926 278.658 268.771 278.658 268.576C278.658 268.149 278.658 267.55 278.658 266.772C278.658 265.178 278.658 262.884 278.612 259.944C278.612 254.073 278.565 245.721 278.526 235.682L278.697 235.853H243.646L243.84 235.658V244.741C243.84 247.696 243.84 250.589 243.84 253.397C243.84 259.027 243.84 264.346 243.84 269.245L243.669 269.066L269.01 269.16L276.157 269.198H278.052H278.55H278.72H278.091H276.227L269.119 269.237L243.669 269.331H243.49V269.16C243.49 264.26 243.49 258.941 243.49 253.311C243.49 250.504 243.49 247.611 243.49 244.656V235.697L243.692 235.495H278.744H278.915V235.658C278.876 245.768 278.845 254.135 278.829 260.03C278.829 262.938 278.79 265.232 278.783 266.819C278.783 267.581 278.783 268.172 278.783 268.592C278.783 268.778 278.783 268.926 278.783 269.043C278.747 269.104 278.706 269.161 278.658 269.214Z" fill="#EBEBEB"/>
<path d="M222.266 156.073H165.999V210.571H222.266V156.073Z" fill="#F5F5F5"/>
<path d="M170.356 205.905L185.925 177.863L198.657 195.788L206.395 186.27L217.9 205.905H170.356Z" fill="#E0E0E0"/>
<path d="M204.08 172.42C204.08 173.221 203.843 174.004 203.398 174.671C202.953 175.337 202.321 175.856 201.582 176.163C200.842 176.469 200.028 176.55 199.243 176.393C198.458 176.237 197.737 175.851 197.171 175.285C196.605 174.718 196.219 173.996 196.063 173.21C195.907 172.424 195.987 171.61 196.293 170.869C196.6 170.129 197.119 169.496 197.784 169.051C198.45 168.606 199.232 168.368 200.033 168.368C201.106 168.368 202.136 168.795 202.895 169.555C203.654 170.315 204.08 171.345 204.08 172.42Z" fill="#E0E0E0"/>
<path d="M217.899 206.06C217.899 206.06 217.899 205.983 217.899 205.835C217.899 205.687 217.899 205.462 217.899 205.197C217.899 204.622 217.899 203.805 217.899 202.748C217.899 200.586 217.86 197.46 217.837 193.494C217.837 185.531 217.767 174.2 217.721 160.591L217.946 160.817L170.41 160.856C170.348 160.91 170.915 160.35 170.674 160.599V172.824C170.674 176.831 170.674 180.745 170.674 184.566C170.674 192.195 170.674 199.412 170.674 206.053L170.441 205.819L204.817 205.936L214.512 205.998H217.091H217.752H217.985H217.783H217.138H214.613L204.972 206.06L170.441 206.177H170.208V205.944C170.208 199.303 170.208 192.086 170.208 184.457C170.208 180.642 170.208 176.728 170.208 172.715V160.607C169.967 160.84 170.535 160.265 170.48 160.327L218.016 160.366H218.249V160.599C218.202 174.27 218.163 185.655 218.132 193.649C218.132 197.592 218.086 200.702 218.07 202.849C218.07 203.883 218.07 204.692 218.07 205.26C218.07 205.516 218.07 205.711 218.07 205.866C218.029 205.944 217.971 206.01 217.899 206.06Z" fill="#E0E0E0"/>
<path d="M229.808 176.782L232.59 182.42L238.804 183.322L234.306 187.716L235.363 193.914L229.808 190.99L224.246 193.914L225.31 187.716L220.812 183.322L227.027 182.42L229.808 176.782Z" fill="#F05454"/>
<path d="M249.386 157.186L252.167 162.823L258.382 163.726L253.884 168.119L254.948 174.317L249.386 171.385L243.823 174.317L244.888 168.119L240.39 163.726L246.604 162.823L249.386 157.186Z" fill="#F05454"/>
<path d="M275.55 149.495L278.331 155.133L284.546 156.035L280.048 160.421L281.112 166.619L275.55 163.695L269.987 166.619L271.052 160.421L266.554 156.035L272.769 155.133L275.55 149.495Z" fill="#F05454"/>
<path d="M302.631 157.372L305.412 163.01L311.627 163.912L307.129 168.298L308.193 174.496L302.631 171.572L297.068 174.496L298.133 168.298L293.635 163.912L299.85 163.01L302.631 157.372Z" fill="#F05454"/>
<path d="M321.29 176.051L324.071 181.689L330.286 182.591L325.788 186.985L326.852 193.175L321.29 190.251L315.735 193.175L316.792 186.985L312.294 182.591L318.509 181.689L321.29 176.051Z" fill="#F05454"/>
<path d="M328.065 203.16L330.846 208.798L337.061 209.7L332.563 214.086L333.62 220.284L328.065 217.36L322.503 220.284L323.567 214.086L319.069 209.7L325.284 208.798L328.065 203.16Z" fill="#F05454"/>
<path d="M321.476 230.082L324.258 235.72L330.472 236.622L325.974 241.016L327.039 247.214L321.476 244.282L315.914 247.214L316.978 241.016L312.48 236.622L318.695 235.72L321.476 230.082Z" fill="#F05454"/>
<path d="M301.652 248.769L304.433 254.406L310.648 255.309L306.15 259.695L307.215 265.892L301.652 262.968L296.098 265.892L297.154 259.695L292.664 255.309L298.879 254.406L301.652 248.769Z" fill="#F05454"/>
<path d="M275.022 256.468L277.803 262.106L284.018 263.008L279.52 267.402L280.585 273.592L275.022 270.668L269.468 273.592L270.524 267.402L266.026 263.008L272.241 262.106L275.022 256.468Z" fill="#F05454"/>
<path d="M249.588 248.777L252.369 254.415L258.584 255.317L254.086 259.703L255.15 265.901L249.588 262.977L244.033 265.901L245.09 259.703L240.592 255.317L246.814 254.415L249.588 248.777Z" fill="#F05454"/>
<path d="M229.467 229.593L232.24 235.231L238.455 236.141L233.965 240.526L235.021 246.724L229.467 243.8L223.904 246.724L224.969 240.526L220.471 236.141L226.686 235.231L229.467 229.593Z" fill="#F05454"/>
<path d="M222.692 203.191L225.473 208.829L231.688 209.731L227.19 214.125L228.254 220.315L222.692 217.391L217.13 220.315L218.194 214.125L213.696 209.731L219.911 208.829L222.692 203.191Z" fill="#F05454"/>
<path d="M294.731 222.531H289.293V192.903C289.293 189.549 287.962 186.333 285.593 183.962C283.224 181.59 280.011 180.258 276.661 180.258C273.311 180.258 270.098 181.59 267.729 183.962C265.361 186.333 264.03 189.549 264.03 192.903V222.531H258.592V192.903C258.592 190.527 259.059 188.175 259.967 185.981C260.875 183.786 262.206 181.792 263.884 180.112C265.562 178.433 267.554 177.1 269.746 176.191C271.939 175.282 274.288 174.814 276.661 174.814C279.034 174.814 281.384 175.282 283.576 176.191C285.769 177.1 287.761 178.433 289.438 180.112C291.116 181.792 292.447 183.786 293.355 185.981C294.264 188.175 294.731 190.527 294.731 192.903V222.531Z" fill="#263238"/>
<path d="M296.502 209.351H256.82C254.327 209.351 252.307 211.373 252.307 213.869V236.117C252.307 238.613 254.327 240.635 256.82 240.635H296.502C298.994 240.635 301.015 238.613 301.015 236.117V213.869C301.015 211.373 298.994 209.351 296.502 209.351Z" fill="#F05454"/>
<path d="M280.731 220.914C280.731 221.72 280.493 222.508 280.045 223.178C279.598 223.848 278.962 224.37 278.218 224.678C277.475 224.987 276.656 225.068 275.866 224.91C275.077 224.753 274.351 224.365 273.782 223.795C273.213 223.225 272.825 222.499 272.668 221.709C272.511 220.918 272.592 220.099 272.9 219.354C273.208 218.61 273.73 217.973 274.399 217.526C275.068 217.078 275.855 216.839 276.661 216.839C277.74 216.839 278.776 217.268 279.539 218.032C280.302 218.797 280.731 219.833 280.731 220.914Z" fill="#263238"/>
<path d="M277.772 222.531H275.55V230.914H277.772V222.531Z" fill="#263238"/>
<path d="M254.901 237.664C254.792 237.664 254.699 232.446 254.699 226C254.699 219.553 254.792 214.335 254.901 214.335C255.01 214.335 255.103 219.553 255.103 226C255.103 232.446 255.041 237.664 254.901 237.664Z" fill="#FAFAFA"/>
<path d="M273.475 226.14C273.475 226.14 273.281 226.078 272.994 225.868C272.591 225.566 272.237 225.204 271.945 224.795C271.441 224.124 271.091 223.35 270.92 222.529C270.749 221.707 270.761 220.858 270.954 220.042C271.148 219.225 271.518 218.461 272.04 217.804C272.562 217.147 273.222 216.613 273.973 216.241C274.419 216.008 274.898 215.845 275.394 215.758C275.574 215.721 275.759 215.721 275.938 215.758C275.311 215.972 274.701 216.232 274.112 216.536C273.422 216.917 272.819 217.438 272.341 218.065C271.864 218.693 271.523 219.414 271.341 220.182C271.159 220.95 271.139 221.747 271.283 222.523C271.428 223.298 271.732 224.035 272.178 224.686C272.571 225.205 273.005 225.691 273.475 226.14Z" fill="#FAFAFA"/>
<path d="M105.318 195.461C104.77 197.242 104.813 199.152 105.442 200.905C106.079 202.642 106.902 204.306 107.897 205.866C109.179 202.759 110.281 199.581 111.199 196.348C111.346 196.008 111.407 195.637 111.376 195.268C111.344 194.899 111.222 194.543 111.02 194.233C110.806 194.055 110.557 193.925 110.289 193.851C110.021 193.778 109.741 193.762 109.466 193.805C107.811 193.906 106.241 194.576 105.023 195.702" fill="#263238"/>
<path d="M36.8157 282.69L24.1064 311.767H41.6011L54.0619 282.457L36.8157 282.69Z" fill="#263238"/>
<path d="M112.387 311.424C129.533 305.74 117.779 283.04 117.779 283.04L42.8359 290.093C39.9581 290.093 37.1977 291.235 35.1591 293.268C33.1206 295.302 31.9702 298.061 31.96 300.942C31.96 303.829 33.1058 306.598 35.1455 308.64C37.1851 310.682 39.9514 311.829 42.8359 311.829L112.457 311.455" fill="#455A64"/>
<path d="M129.432 311.797C146.142 306.152 135.126 283.024 135.126 283.024L62.102 289.914C54.9705 290.008 51.4824 293.453 51.4824 300.747C51.4824 306.735 53.7042 311.79 62.0787 311.634L129.463 311.805" fill="#455A64"/>
<path d="M112.97 286.866H112.769H112.155L109.824 286.96L101.232 287.387L72.8849 288.943C71.4944 289.013 70.1271 289.129 68.7831 289.152C67.4392 289.176 66.0952 289.23 64.7901 289.308C63.485 289.386 62.2032 289.487 60.9059 289.619C59.659 289.71 58.4305 289.972 57.2547 290.397C56.1167 290.823 55.0817 291.486 54.2172 292.341C53.3953 293.184 52.7647 294.195 52.3683 295.304C51.9945 296.338 51.734 297.409 51.5914 298.5C51.4532 299.502 51.3857 300.513 51.3894 301.525C51.3608 303.271 51.6886 305.004 52.3527 306.618C52.8577 307.819 53.6373 308.885 54.6289 309.729C55.2352 310.251 55.937 310.65 56.6953 310.903C57.208 311.067 57.2236 311.012 56.6953 310.826C55.9608 310.543 55.2822 310.132 54.691 309.612C53.7428 308.768 53.0012 307.717 52.5236 306.541C51.8921 304.951 51.5882 303.25 51.6303 301.54C51.6348 300.544 51.71 299.548 51.8555 298.562C51.998 297.499 52.2586 296.456 52.6324 295.451C53.01 294.391 53.6175 293.427 54.4114 292.629C55.2454 291.809 56.2436 291.175 57.3401 290.77C58.4936 290.37 59.6955 290.127 60.9136 290.047C62.1566 289.922 63.4384 289.821 64.7435 289.751C66.0486 289.681 67.3693 289.619 68.721 289.596C70.0727 289.572 71.44 289.464 72.8228 289.394L101.224 287.675L109.816 287.123L112.147 286.952L112.753 286.897C112.827 286.902 112.901 286.891 112.97 286.866Z" fill="#263238"/>
<path d="M129.472 294.028C129.294 294.162 129.094 294.262 128.881 294.324C128.309 294.531 127.71 294.654 127.102 294.689C126.09 294.766 125.074 294.62 124.125 294.261C123.176 293.902 122.317 293.339 121.609 292.611C120.9 291.884 120.36 291.01 120.026 290.051C119.692 289.092 119.573 288.071 119.675 287.06C119.722 286.454 119.861 285.859 120.087 285.295C120.149 285.083 120.252 284.884 120.39 284.712C120.176 285.488 120.033 286.282 119.963 287.084C119.9 288.046 120.04 289.01 120.374 289.915C120.707 290.819 121.227 291.643 121.9 292.333C122.572 293.023 123.382 293.564 124.277 293.92C125.172 294.277 126.132 294.441 127.094 294.401C127.897 294.356 128.693 294.231 129.472 294.028Z" fill="#263238"/>
<path d="M92.3067 248.046L85.3694 271.795L59.71 274.548V279.105L97.4184 279.626L102.546 248.707L92.3067 248.046Z" fill="#FFBE9D"/>
<path d="M125.765 223.239C130.318 223.239 142.646 225.572 143.726 233.893C144.705 241.405 146.166 249.928 146.166 249.928L129.945 250.363L135.468 251.833L137.799 286.897L95.8023 285.435L98.0319 267.409L99.8963 249.407L90.7217 248.629C90.7217 248.629 93.8291 232.944 99.337 228.099C102.791 225.305 107 223.607 111.425 223.223C116.201 222.953 120.989 222.953 125.765 223.223" fill="#F05454"/>
<path d="M101.402 237.742C101.503 237.742 100.859 244.088 99.973 251.895C99.0873 259.703 98.2872 266.025 98.1862 266.01C98.0852 265.994 98.73 259.664 99.6234 251.856C100.517 244.049 101.309 237.742 101.402 237.742Z" fill="#263238"/>
<path d="M127.016 223.294C127.016 223.294 127.016 223.395 127.063 223.589C127.109 223.784 127.101 224.072 127.109 224.437C127.131 225.492 126.976 226.544 126.651 227.548C126.226 229.081 125.407 230.475 124.274 231.591C123.576 232.257 122.748 232.77 121.842 233.1C120.857 233.424 119.826 233.587 118.789 233.582C117.749 233.609 116.709 233.539 115.682 233.372C114.723 233.221 113.811 232.851 113.017 232.291C111.748 231.306 110.857 229.914 110.492 228.349C110.217 227.336 110.099 226.287 110.143 225.238C110.143 224.873 110.182 224.585 110.205 224.39C110.21 224.29 110.228 224.191 110.259 224.095C110.281 224.476 110.281 224.857 110.259 225.238C110.265 226.275 110.414 227.306 110.702 228.302C111.086 229.798 111.962 231.121 113.188 232.058C113.947 232.583 114.816 232.929 115.728 233.069C116.725 233.228 117.734 233.296 118.743 233.271C119.742 233.271 120.736 233.114 121.687 232.805C122.556 232.501 123.35 232.016 124.017 231.381C125.125 230.309 125.941 228.97 126.387 227.493C126.719 226.512 126.905 225.488 126.938 224.453C127 223.745 126.993 223.294 127.016 223.294Z" fill="#263238"/>
<g opacity="0.2">
<path d="M129.268 237.742C127.714 245.184 125.687 252.829 124.133 260.294C123.913 261.898 123.351 263.436 122.486 264.804C121.846 265.588 121.098 266.276 120.264 266.85C117.267 269.25 113.932 271.194 110.367 272.62C115.57 272.175 120.725 271.277 125.772 269.937C126.194 269.913 126.607 269.806 126.986 269.621C127.366 269.437 127.706 269.179 127.986 268.862C128.265 268.545 128.479 268.176 128.615 267.776C128.752 267.376 128.807 266.952 128.779 266.531C129.897 256.989 129.555 247.369 129.268 237.758" fill="black"/>
</g>
<path d="M146.43 250.052C146.027 250.122 145.619 250.153 145.21 250.145L141.878 250.27C139.073 250.363 135.189 250.456 130.893 250.542H129.518H129.347V250.371C129.192 246.381 129.262 242.835 129.347 240.261C129.347 238.994 129.432 237.967 129.479 237.26C129.481 236.892 129.514 236.525 129.58 236.163C129.61 236.528 129.61 236.895 129.58 237.26C129.58 238.037 129.58 239.04 129.58 240.269C129.58 242.82 129.533 246.366 129.697 250.332L129.518 250.161H130.901C135.189 250.075 139.073 250.021 141.885 249.997H145.218C145.623 249.985 146.028 250.003 146.43 250.052Z" fill="#263238"/>
<path d="M27.5719 251.74L41.9048 279.968H87.1021L85.2687 276.29L72.1787 275.893L61.5048 252.113C61.1805 251.389 60.6535 250.774 59.9876 250.344C59.3217 249.913 58.5454 249.685 57.7526 249.687H28.8459C28.6051 249.689 28.3687 249.752 28.1587 249.87C27.9487 249.988 27.772 250.157 27.6449 250.362C27.5178 250.567 27.4445 250.801 27.4317 251.042C27.4189 251.282 27.4672 251.522 27.5719 251.74Z" fill="#E0E0E0"/>
<path d="M48.4765 266.126C49.4333 266.126 50.2089 265.349 50.2089 264.391C50.2089 263.434 49.4333 262.657 48.4765 262.657C47.5198 262.657 46.7441 263.434 46.7441 264.391C46.7441 265.349 47.5198 266.126 48.4765 266.126Z" fill="#263238"/>
<path d="M127.241 201.97L125.625 224.926C125.496 226.731 124.688 228.42 123.365 229.654C122.042 230.887 120.302 231.574 118.494 231.575C117.516 231.575 116.548 231.374 115.65 230.985C114.753 230.595 113.945 230.026 113.276 229.312C112.607 228.598 112.091 227.754 111.76 226.832C111.43 225.911 111.292 224.931 111.354 223.954C111.502 221.769 111.626 219.972 111.626 219.972C111.626 219.972 106.087 219.109 106.01 213.557C106.01 210.936 106.321 205.78 106.709 200.889C106.929 198.151 108.17 195.595 110.184 193.73C112.199 191.864 114.84 190.825 117.585 190.818C118.957 190.897 120.3 191.249 121.534 191.856C122.767 192.463 123.867 193.312 124.767 194.351C125.668 195.391 126.35 196.601 126.775 197.91C127.2 199.218 127.359 200.599 127.241 201.97Z" fill="#FFBE9D"/>
<path d="M111.596 220.26C114.16 220.31 116.681 219.592 118.836 218.199C118.836 218.199 117.119 222.196 111.58 221.699L111.596 220.26Z" fill="#EB996E"/>
<path d="M108.449 204.512C108.449 204.719 108.531 204.916 108.677 205.062C108.822 205.208 109.02 205.29 109.226 205.29C109.428 205.301 109.627 205.232 109.779 205.098C109.932 204.965 110.026 204.777 110.042 204.575C110.042 204.368 109.96 204.171 109.814 204.025C109.669 203.879 109.471 203.797 109.265 203.797C109.063 203.786 108.864 203.855 108.712 203.989C108.559 204.122 108.465 204.31 108.449 204.512Z" fill="#263238"/>
<path d="M107.952 203.424C108.053 203.525 108.651 203.082 109.505 203.082C110.36 203.082 110.981 203.509 111.059 203.408C111.137 203.307 111.005 203.175 110.733 202.973C110.362 202.719 109.923 202.583 109.474 202.584C109.03 202.586 108.598 202.727 108.239 202.988C107.99 203.191 107.905 203.377 107.952 203.424Z" fill="#263238"/>
<path d="M116.481 204.747C116.481 204.953 116.563 205.151 116.709 205.297C116.855 205.442 117.052 205.524 117.258 205.524C117.454 205.525 117.643 205.452 117.787 205.319C117.931 205.186 118.019 205.004 118.035 204.809C118.035 204.603 117.953 204.405 117.808 204.259C117.662 204.113 117.464 204.031 117.258 204.031C117.063 204.031 116.874 204.104 116.73 204.237C116.586 204.369 116.497 204.551 116.481 204.747Z" fill="#263238"/>
<path d="M116.334 203.58C116.435 203.681 117.041 203.238 117.888 203.246C118.734 203.254 119.364 203.674 119.441 203.565C119.519 203.456 119.387 203.331 119.115 203.137C118.747 202.878 118.306 202.742 117.857 202.748C117.413 202.745 116.98 202.884 116.621 203.145C116.381 203.347 116.287 203.526 116.334 203.58Z" fill="#263238"/>
<path d="M113.242 209.91C112.793 209.772 112.328 209.688 111.859 209.662C111.642 209.662 111.432 209.599 111.393 209.452C111.376 209.224 111.427 208.996 111.541 208.798L112.185 207.142C112.78 205.736 113.263 204.285 113.63 202.803C112.923 204.159 112.323 205.568 111.836 207.018C111.626 207.601 111.416 208.153 111.222 208.682C111.082 208.947 111.043 209.254 111.113 209.545C111.146 209.621 111.194 209.689 111.256 209.745C111.318 209.8 111.391 209.84 111.471 209.864C111.59 209.893 111.713 209.908 111.836 209.91C112.302 209.975 112.775 209.975 113.242 209.91Z" fill="#263238"/>
<path d="M115.752 210.524C115.613 210.524 115.613 211.442 114.82 212.08C114.028 212.717 113.041 212.64 113.033 212.764C113.026 212.888 113.259 212.943 113.67 212.958C114.214 212.968 114.743 212.783 115.162 212.437C115.565 212.107 115.824 211.633 115.884 211.115C115.923 210.727 115.815 210.524 115.752 210.524Z" fill="#263238"/>
<path d="M116.116 200.236C116.202 200.47 117.056 200.361 118.051 200.477C119.045 200.594 119.861 200.874 119.993 200.664C120.125 200.454 119.915 200.345 119.589 200.12C119.154 199.844 118.662 199.671 118.151 199.614C117.639 199.558 117.121 199.619 116.637 199.793C116.264 199.941 116.078 200.127 116.116 200.236Z" fill="#263238"/>
<path d="M108.271 200.951C108.419 201.146 109.048 200.951 109.716 200.951C110.384 200.951 111.014 201.084 111.153 200.874C111.293 200.664 111.153 200.586 110.858 200.399C110.507 200.177 110.098 200.065 109.682 200.077C109.267 200.09 108.865 200.226 108.528 200.469C108.287 200.656 108.217 200.858 108.271 200.951Z" fill="#263238"/>
<path d="M125.369 206.504C125.462 206.458 129.183 205.377 129.059 209.172C128.935 212.967 125.175 212.065 125.175 211.956C125.175 211.847 125.369 206.504 125.369 206.504Z" fill="#FFBE9D"/>
<path d="M126.355 210.524C126.355 210.524 126.425 210.571 126.534 210.625C126.611 210.658 126.695 210.674 126.779 210.674C126.863 210.674 126.946 210.658 127.023 210.625C127.268 210.476 127.469 210.264 127.606 210.011C127.742 209.758 127.809 209.474 127.8 209.187C127.816 208.861 127.763 208.535 127.645 208.23C127.612 208.111 127.551 208.002 127.467 207.911C127.383 207.821 127.279 207.752 127.163 207.709C127.088 207.686 127.008 207.689 126.935 207.719C126.863 207.749 126.803 207.803 126.767 207.873C126.713 207.981 126.767 208.059 126.713 208.059C126.658 208.059 126.635 207.997 126.713 207.841C126.734 207.747 126.789 207.664 126.868 207.608C126.92 207.57 126.979 207.543 127.042 207.528C127.105 207.514 127.17 207.512 127.233 207.523C127.388 207.557 127.532 207.631 127.65 207.737C127.769 207.843 127.858 207.978 127.909 208.129C128.057 208.466 128.124 208.834 128.103 209.202C128.108 209.541 128.014 209.873 127.834 210.159C127.653 210.445 127.393 210.672 127.085 210.812C126.981 210.834 126.874 210.834 126.77 210.813C126.665 210.791 126.567 210.749 126.479 210.688C126.363 210.649 126.347 210.563 126.355 210.524Z" fill="#EB996E"/>
<path d="M91.9099 280.015H36.668V282.713H91.9099V280.015Z" fill="#263238"/>
<path d="M74.8975 281.368L91.7008 311.798H106.748L91.9105 282.713L74.8975 281.368Z" fill="#263238"/>
<path d="M91.9027 282.714C91.9027 282.823 79.5197 282.978 64.2467 283.056C48.9738 283.134 36.5908 283.103 36.5908 282.994C36.5908 282.885 48.9738 282.729 64.2467 282.652C79.5197 282.574 91.9027 282.605 91.9027 282.714Z" fill="#455A64"/>
<path d="M105.178 198.416C105.682 198.602 106.22 198.678 106.756 198.639C107.292 198.6 107.813 198.447 108.285 198.191C108.201 198.285 108.138 198.396 108.1 198.517C108.062 198.638 108.049 198.765 108.064 198.891C108.079 199.017 108.12 199.138 108.185 199.246C108.25 199.355 108.337 199.448 108.441 199.521C108.877 199.79 109.392 199.903 109.901 199.84C112.662 199.732 115.286 198.611 117.274 196.69C117.317 197.17 117.501 197.626 117.803 198.003C118.104 198.379 118.509 198.658 118.967 198.805C119.892 199.081 120.878 199.081 121.803 198.805C121.459 200.21 121.401 201.67 121.632 203.098C121.756 203.809 122.086 204.467 122.58 204.992C123.075 205.517 123.712 205.886 124.413 206.053C124.59 206.788 124.65 207.546 124.591 208.3C124.646 209.078 125.081 209.918 125.842 209.941C126.604 209.965 127 209.272 127.093 208.611C127.186 207.95 126.79 206.605 127.264 205.54C127.738 204.474 127.575 204.591 128.08 203.432C128.585 202.274 128.856 200.672 129.276 199.466C129.732 198.267 129.767 196.948 129.377 195.726C129.162 195.127 128.77 194.608 128.251 194.24C127.733 193.871 127.115 193.671 126.479 193.665C126.711 193.064 126.748 192.406 126.584 191.783C126.419 191.16 126.063 190.606 125.565 190.198C125.067 189.79 124.453 189.55 123.811 189.512C123.169 189.474 122.531 189.64 121.989 189.987C121.989 189.987 117.67 187.047 112.892 188.673C108.114 190.298 107.4 194.637 106.359 194.769C105.318 194.901 102.164 193.214 102.708 194.272C103.251 195.329 104.153 196.395 104.603 196.441C105.054 196.488 100.991 194.769 102.389 196.309C103.167 197.193 104.116 197.909 105.178 198.416Z" fill="#263238"/>
<path d="M143.26 235.409C142.815 234.874 142.312 234.392 141.76 233.97C140.196 232.893 138.328 232.348 136.431 232.415C134.031 232.415 131.28 233.449 128.577 235.106C125.874 236.762 123.1 238.994 119.667 240.495C116.422 241.962 112.733 242.099 109.389 240.876C107.95 240.337 106.607 239.57 105.411 238.605C104.285 237.734 103.29 236.855 102.304 236.148C100.833 234.946 99.0365 234.212 97.1456 234.04C96.4494 234.024 95.755 234.116 95.0869 234.312C95.0869 234.312 95.0869 234.312 95.2112 234.25C95.3349 234.193 95.4621 234.144 95.5919 234.102C96.0958 233.952 96.6196 233.878 97.1456 233.885C99.0885 233.995 100.95 234.704 102.475 235.914C104.464 237.291 106.491 239.476 109.466 240.526C112.727 241.681 116.306 241.539 119.465 240.129C122.821 238.667 125.571 236.404 128.344 234.787C131.117 233.169 133.914 232.08 136.384 232.127C138.339 232.084 140.253 232.694 141.822 233.861C142.24 234.178 142.614 234.55 142.933 234.966C143.06 235.099 143.17 235.248 143.26 235.409Z" fill="#FAFAFA"/>
<path d="M129.44 255.877C129.44 255.877 129.059 255.628 128.368 255.232C127.388 254.667 126.326 254.258 125.221 254.018C123.591 253.656 121.898 253.685 120.281 254.104C118.447 254.563 116.575 255.527 114.493 256.297C113.474 256.673 112.416 256.934 111.339 257.075C110.334 257.201 109.318 257.219 108.309 257.129C106.603 256.977 104.938 256.522 103.392 255.784C102.348 255.298 101.377 254.667 100.51 253.91C100.269 253.711 100.043 253.496 99.8338 253.264C99.6862 253.116 99.6085 253.031 99.624 253.015C99.6396 253 99.9736 253.295 100.611 253.793C101.503 254.489 102.476 255.074 103.508 255.535C105.038 256.215 106.672 256.633 108.34 256.771C110.384 256.93 112.437 256.635 114.353 255.908C116.257 255.079 118.204 254.354 120.187 253.738C121.584 253.39 123.037 253.329 124.458 253.56C125.879 253.792 127.238 254.31 128.453 255.084C128.722 255.256 128.981 255.443 129.23 255.644C129.37 255.791 129.447 255.869 129.44 255.877Z" fill="#FAFAFA"/>
<path d="M135.554 268.949C135.065 268.756 134.565 268.595 134.055 268.467C132.639 268.237 131.188 268.368 129.837 268.848C128.898 269.156 127.988 269.546 127.118 270.014C126.17 270.512 125.183 271.103 124.119 271.678C123.005 272.311 121.824 272.819 120.6 273.195C119.259 273.589 117.843 273.647 116.475 273.366C113.655 272.752 111.425 271.119 109.374 269.898C107.627 268.68 105.622 267.882 103.517 267.565C102.093 267.414 100.657 267.725 99.4228 268.451C98.9818 268.738 98.5751 269.075 98.2109 269.454C98.2737 269.331 98.352 269.216 98.444 269.112C98.7033 268.812 99.0041 268.55 99.3374 268.335C100.587 267.523 102.073 267.156 103.556 267.293C105.436 267.386 107.51 268.311 109.584 269.563C111.658 270.815 113.872 272.371 116.576 272.954C117.882 273.223 119.234 273.169 120.514 272.798C121.712 272.433 122.868 271.943 123.964 271.336C125.028 270.776 126.022 270.193 126.986 269.695C127.882 269.234 128.818 268.854 129.782 268.56C131.175 268.084 132.67 267.996 134.109 268.303C134.497 268.396 134.872 268.535 135.228 268.716C135.445 268.848 135.562 268.933 135.554 268.949Z" fill="#FAFAFA"/>
<path d="M137.535 283.81C137.415 283.885 137.284 283.94 137.146 283.973C136.754 284.085 136.35 284.153 135.942 284.175C134.437 284.176 132.947 283.863 131.569 283.258C130.62 282.886 129.65 282.572 128.663 282.317C127.527 282.078 126.362 282.01 125.206 282.115C122.751 282.325 120.164 283.258 117.438 284.051C116.087 284.453 114.704 284.737 113.305 284.899C111.994 285.021 110.673 285.003 109.366 284.844C107.167 284.538 105.015 283.96 102.957 283.126C101.573 282.583 100.216 281.971 98.8942 281.29C98.4203 281.057 98.063 280.855 97.8222 280.723C97.6918 280.662 97.5692 280.587 97.457 280.497C97.5965 280.527 97.7303 280.58 97.8532 280.653L98.9564 281.15C99.9197 281.586 101.287 282.216 103.058 282.869C105.103 283.655 107.233 284.196 109.405 284.479C110.696 284.621 111.998 284.621 113.289 284.479C114.666 284.318 116.025 284.037 117.352 283.639C120.094 282.861 122.712 281.92 125.237 281.726C126.431 281.622 127.634 281.703 128.803 281.967C129.8 282.236 130.779 282.571 131.732 282.97C133.075 283.582 134.522 283.931 135.997 283.996C136.514 283.978 137.028 283.915 137.535 283.81Z" fill="#FAFAFA"/>
<path d="M145.506 246.125C145.374 246.314 145.214 246.482 145.032 246.623C144.551 247.029 144.011 247.359 143.432 247.603C142.563 247.964 141.63 248.147 140.689 248.139C139.535 248.096 138.404 247.796 137.38 247.26C136.292 246.739 135.313 246.172 134.358 245.83C133.521 245.526 132.623 245.427 131.74 245.542C131.146 245.619 130.583 245.852 130.109 246.218C129.782 246.498 129.642 246.701 129.611 246.677C129.691 246.456 129.825 246.258 130 246.102C130.466 245.66 131.053 245.368 131.686 245.262C132.621 245.097 133.583 245.172 134.482 245.48C135.546 245.888 136.584 246.36 137.59 246.895C138.552 247.403 139.611 247.7 140.697 247.766C141.592 247.793 142.483 247.648 143.323 247.338C144.089 247.008 144.82 246.601 145.506 246.125Z" fill="#FAFAFA"/>
<path d="M100.385 245.736C100.385 245.736 100.338 245.869 100.136 246.009C99.8425 246.189 99.5018 246.279 99.1574 246.265C98.6519 246.247 98.1586 246.105 97.7202 245.853C97.2308 245.581 96.7647 245.2 96.2597 244.873C95.4034 244.309 94.3617 244.1 93.3543 244.29C92.5774 244.43 92.1502 244.718 92.1113 244.655C92.4272 244.321 92.8405 244.095 93.2921 244.01C93.8299 243.864 94.3926 243.836 94.9422 243.927C95.4917 244.019 96.0153 244.227 96.4772 244.539C97.0133 244.881 97.4638 245.262 97.9066 245.526C98.29 245.769 98.7226 245.923 99.1729 245.977C99.5912 246.008 100.01 245.924 100.385 245.736Z" fill="#FAFAFA"/>
<path d="M79.2869 270.846L90.5901 269.485L98.5528 274.711L129.005 267.409L129.899 250.394L143.571 250.052L143.253 270.022C143.221 271.55 142.887 273.056 142.271 274.454C141.655 275.852 140.768 277.114 139.663 278.168C138.557 279.222 137.255 280.047 135.83 280.594C134.405 281.142 132.885 281.402 131.359 281.36L86.7525 280.123L84.8569 276.321L75.2861 276.041L79.2869 270.846Z" fill="#FFBE9D"/>
<path d="M128.624 267.409C128.436 267.478 128.244 267.535 128.049 267.58L126.394 268.016L120.28 269.571L100.082 274.47L98.21 274.913H98.1323L98.0702 274.867L90.1074 269.625H90.2162L78.913 270.932H78.9829L75.9998 274.727C75.658 275.139 75.3938 275.505 75.2229 275.722C75.1348 275.842 75.036 275.954 74.9277 276.057C74.9998 275.925 75.083 275.8 75.1763 275.683L75.9532 274.649L78.8586 270.761H78.9052L90.2006 269.346H90.2628H90.3172L98.2877 274.556H98.1478L100.028 274.105L120.226 269.307L126.371 267.891L128.041 267.526C128.231 267.469 128.426 267.43 128.624 267.409Z" fill="#EB996E"/>
<path d="M85.4631 274.089C84.0043 274.264 82.5341 274.324 81.0661 274.268H80.2892H80.4057C79.5193 275.079 78.5655 275.813 77.5547 276.461C78.3544 275.567 79.2303 274.745 80.1727 274.004L80.2271 273.957H81.0894C82.5484 273.882 84.0112 273.927 85.4631 274.089Z" fill="#EB996E"/>
<path d="M134.233 270.815C133.693 269.873 132.931 269.077 132.013 268.498C131.094 267.92 130.048 267.575 128.966 267.495C129.28 267.384 129.617 267.357 129.945 267.417C130.748 267.499 131.521 267.765 132.205 268.195C132.888 268.623 133.46 269.207 133.876 269.898C134.075 270.166 134.198 270.483 134.233 270.815Z" fill="#EB996E"/>
</svg>
