<svg width="1920" height="762" viewBox="0 0 1920 762" fill="none" xmlns="http://www.w3.org/2000/svg">
<mask id="mask0_119_26672" style="mask-type:alpha" maskUnits="userSpaceOnUse" x="0" y="0" width="1920" height="762">
<rect width="1920" height="762" fill="white"/>
</mask>
<g mask="url(#mask0_119_26672)">
<path d="M1947.21 532H1667.55C1657.3 532 1649 540.303 1649 550.546V596.592C1649 606.835 1657.3 615.139 1667.55 615.139H1947.21C1957.45 615.139 1965.76 606.835 1965.76 596.592V550.546C1965.76 540.303 1957.45 532 1947.21 532Z" fill="#30475E"/>
<path d="M1769.54 561.016L1773.61 569.282L1782.73 570.609L1776.12 577.027L1777.68 586.099L1769.54 581.812L1761.39 586.099L1762.95 577.027L1756.34 570.609L1765.46 569.282L1769.54 561.016Z" fill="white"/>
<path d="M1806.54 561.016L1810.61 569.282L1819.73 570.609L1813.12 577.027L1814.68 586.099L1806.54 581.812L1798.39 586.099L1799.95 577.027L1793.34 570.609L1802.46 569.282L1806.54 561.016Z" fill="white"/>
<path opacity="0.3" d="M1843.53 566.368L1845.47 570.324C1845.65 570.672 1845.9 570.972 1846.21 571.2C1846.53 571.427 1846.89 571.573 1847.27 571.627L1851.61 572.29L1848.46 575.369C1848.18 575.635 1847.98 575.964 1847.86 576.327C1847.74 576.69 1847.71 577.076 1847.77 577.454L1848.51 581.812L1844.62 579.751C1844.28 579.566 1843.9 579.469 1843.51 579.467C1843.13 579.466 1842.75 579.564 1842.42 579.751L1838.51 581.812L1839.25 577.454C1839.31 577.076 1839.28 576.69 1839.16 576.327C1839.04 575.964 1838.83 575.635 1838.56 575.369L1835.41 572.29L1839.77 571.65C1840.15 571.597 1840.51 571.45 1840.83 571.223C1841.14 570.996 1841.4 570.696 1841.57 570.348L1843.51 566.392M1843.51 561.039L1839.43 569.306L1830.32 570.632L1836.92 577.051L1835.36 586.123L1843.51 581.836L1851.66 586.123L1850.09 577.051L1856.7 570.632L1847.58 569.306L1843.51 561.039Z" fill="white"/>
<path opacity="0.3" d="M1880.53 566.369L1882.47 570.324C1882.64 570.672 1882.9 570.973 1883.21 571.2C1883.53 571.427 1883.89 571.574 1884.27 571.627L1888.63 572.267L1885.48 575.346C1885.21 575.612 1885 575.941 1884.88 576.304C1884.76 576.667 1884.73 577.053 1884.8 577.43L1885.53 581.788L1881.65 579.728C1881.3 579.543 1880.92 579.445 1880.53 579.443C1880.15 579.442 1879.77 579.54 1879.44 579.728L1875.53 581.788L1876.27 577.43C1876.33 577.053 1876.3 576.667 1876.18 576.304C1876.06 575.941 1875.86 575.612 1875.58 575.346L1872.43 572.267L1876.79 571.627C1877.17 571.574 1877.54 571.427 1877.85 571.2C1878.17 570.973 1878.42 570.672 1878.59 570.324L1880.53 566.369ZM1880.53 561.016L1876.46 569.282L1867.34 570.609L1873.95 577.027L1872.38 586.099L1880.53 581.812L1888.68 586.099L1887.14 577.027L1893.75 570.609L1884.63 569.282L1880.56 561.016H1880.53Z" fill="white"/>
<path opacity="0.3" d="M1917.53 566.369L1919.47 570.324C1919.64 570.672 1919.89 570.973 1920.21 571.2C1920.52 571.427 1920.89 571.574 1921.27 571.627L1925.63 572.267L1922.48 575.346C1922.2 575.612 1922 575.941 1921.88 576.304C1921.76 576.667 1921.73 577.053 1921.79 577.43L1922.53 581.788L1918.64 579.728C1918.3 579.543 1917.92 579.445 1917.53 579.443C1917.15 579.442 1916.77 579.54 1916.44 579.728L1912.53 581.788L1913.26 577.43C1913.33 577.053 1913.3 576.667 1913.18 576.304C1913.06 575.941 1912.85 575.612 1912.58 575.346L1909.43 572.267L1913.79 571.627C1914.17 571.574 1914.53 571.427 1914.85 571.2C1915.16 570.973 1915.41 570.672 1915.59 570.324L1917.53 566.369ZM1917.53 561.016L1913.45 569.282L1904.33 570.609L1910.94 577.027L1909.38 586.099L1917.53 581.812L1925.68 586.099L1924.11 577.027L1930.72 570.609L1921.6 569.282L1917.53 561.016Z" fill="white"/>
<path opacity="0.2" d="M1706.77 602.015C1722.48 602.015 1735.21 589.279 1735.21 573.568C1735.21 557.857 1722.48 545.121 1706.77 545.121C1691.06 545.121 1678.32 557.857 1678.32 573.568C1678.32 589.279 1691.06 602.015 1706.77 602.015Z" fill="white"/>
<path d="M1730.27 573.567C1730.27 578.794 1728.53 583.873 1725.33 588C1722.12 592.127 1717.63 595.065 1712.56 596.348C1707.49 597.632 1702.14 597.188 1697.36 595.086C1692.57 592.985 1688.62 589.346 1686.14 584.747C1684.26 581.32 1683.28 577.474 1683.3 573.567C1683.2 570.42 1683.73 567.285 1684.87 564.349C1686 561.412 1687.71 558.733 1689.91 556.472C1692.1 554.211 1694.72 552.413 1697.62 551.185C1700.52 549.957 1703.63 549.324 1706.78 549.324C1709.93 549.324 1713.05 549.957 1715.95 551.185C1718.84 552.413 1721.47 554.211 1723.66 556.472C1725.85 558.733 1727.56 561.412 1728.7 564.349C1729.83 567.285 1730.37 570.42 1730.27 573.567Z" fill="white"/>
<path opacity="0.6" d="M1727.42 584.75C1725.41 588.469 1722.43 591.576 1718.8 593.74C1715.16 595.905 1711.01 597.048 1706.78 597.048C1702.55 597.048 1698.4 595.905 1694.77 593.74C1691.13 591.576 1688.15 588.469 1686.14 584.75C1692.25 580.671 1699.43 578.494 1706.78 578.494C1714.13 578.494 1721.31 580.671 1727.42 584.75Z" fill="#30475E"/>
<path d="M1717.24 565.538C1717.24 567.608 1716.62 569.632 1715.47 571.354C1714.32 573.076 1712.69 574.418 1710.77 575.21C1708.86 576.002 1706.76 576.21 1704.73 575.806C1702.69 575.402 1700.83 574.405 1699.36 572.941C1697.9 571.476 1696.9 569.611 1696.5 567.58C1696.1 565.549 1696.3 563.444 1697.1 561.531C1697.89 559.618 1699.23 557.983 1700.95 556.833C1702.67 555.682 1704.7 555.068 1706.77 555.068C1708.14 555.065 1709.51 555.334 1710.78 555.859C1712.05 556.384 1713.2 557.155 1714.18 558.128C1715.15 559.101 1715.92 560.256 1716.45 561.528C1716.97 562.799 1717.24 564.162 1717.24 565.538Z" fill="#30475E"/>
<path d="M1691.73 146H1669.84V148.891H1691.73V146Z" fill="#30475E"/>
<path d="M1588.89 178.786H1586C1586.01 170.118 1589.44 161.805 1595.56 155.662C1601.68 149.519 1609.97 146.046 1618.64 146H1657.96V148.891H1618.64C1610.74 148.937 1603.18 152.106 1597.6 157.707C1592.03 163.307 1588.9 170.885 1588.89 178.786Z" fill="#30475E"/>
<path d="M1960.01 156.119H1618.64C1606.14 156.119 1596.01 166.255 1596.01 178.757V234.962C1596.01 247.465 1606.14 257.6 1618.64 257.6H1960.01C1972.51 257.6 1982.65 247.465 1982.65 234.962V178.757C1982.65 166.255 1972.51 156.119 1960.01 156.119Z" fill="#30475E"/>
<path d="M1743.13 191.564L1748.11 201.626L1759.24 203.245L1751.17 211.08L1753.08 222.182L1743.13 216.949L1733.19 222.182L1735.1 211.08L1727.03 203.245L1738.16 201.626L1743.13 191.564Z" fill="white"/>
<path d="M1788.3 191.564L1793.27 201.626L1804.4 203.245L1796.34 211.08L1798.24 222.182L1788.3 216.949L1778.35 222.182L1780.26 211.08L1772.19 203.245L1783.32 201.626L1788.3 191.564Z" fill="white"/>
<path d="M1833.46 191.564L1838.43 201.626L1849.56 203.245L1841.52 211.08L1843.4 222.182L1833.46 216.949L1823.51 222.182L1825.42 211.08L1817.35 203.245L1828.48 201.626L1833.46 191.564Z" fill="white"/>
<path d="M1878.62 191.564L1883.59 201.626L1894.72 203.245L1886.69 211.08L1888.57 222.182L1878.62 216.949L1868.67 222.182L1870.58 211.08L1862.52 203.245L1873.65 201.626L1878.62 191.564Z" fill="white"/>
<path opacity="0.3" d="M1923.78 198.097L1926.15 202.925C1926.36 203.344 1926.67 203.706 1927.05 203.978C1927.44 204.25 1927.88 204.424 1928.35 204.487L1933.67 205.267L1929.82 209.026C1929.49 209.351 1929.23 209.752 1929.09 210.195C1928.94 210.638 1928.91 211.11 1928.98 211.57L1929.88 216.89L1925.14 214.519C1924.71 214.315 1924.25 214.207 1923.78 214.201C1923.32 214.199 1922.86 214.308 1922.45 214.519L1917.68 217.034L1918.49 211.628C1918.56 211.167 1918.53 210.696 1918.38 210.253C1918.23 209.81 1917.98 209.409 1917.65 209.084L1913.8 205.325L1919.12 204.544C1919.6 204.488 1920.06 204.313 1920.45 204.036C1920.85 203.758 1921.16 203.386 1921.38 202.954L1923.75 198.126M1923.75 191.592L1918.78 201.653L1907.65 203.272L1915.71 211.136L1913.8 222.21L1923.75 216.976L1933.69 222.21L1931.79 211.136L1939.85 203.272L1928.72 201.653L1923.75 191.592Z" fill="white"/>
<path opacity="0.2" d="M1666.52 241.583C1685.7 241.583 1701.24 226.037 1701.24 206.86C1701.24 187.683 1685.7 172.137 1666.52 172.137C1647.34 172.137 1631.8 187.683 1631.8 206.86C1631.8 226.037 1647.34 241.583 1666.52 241.583Z" fill="white"/>
<path d="M1695.2 206.86C1695.21 213.24 1693.08 219.44 1689.17 224.477C1685.25 229.514 1679.77 233.101 1673.58 234.668C1667.4 236.234 1660.87 235.692 1655.03 233.127C1649.19 230.562 1644.37 226.12 1641.34 220.506C1639.04 216.324 1637.85 211.629 1637.87 206.86C1638.1 199.415 1641.23 192.354 1646.58 187.171C1651.93 181.988 1659.08 179.09 1666.53 179.09C1673.98 179.09 1681.14 181.988 1686.49 187.171C1691.84 192.354 1694.96 199.415 1695.2 206.86Z" fill="white"/>
<path opacity="0.3" d="M1691.73 220.505C1689.28 225.053 1685.65 228.853 1681.21 231.501C1676.77 234.15 1671.7 235.548 1666.54 235.548C1661.37 235.548 1656.3 234.15 1651.86 231.501C1647.43 228.853 1643.79 225.053 1641.34 220.505C1648.8 215.526 1657.57 212.869 1666.54 212.869C1675.5 212.869 1684.27 215.526 1691.73 220.505Z" fill="#263238"/>
<path d="M1679.3 197.176C1679.3 199.703 1678.55 202.174 1677.14 204.275C1675.74 206.377 1673.74 208.015 1671.41 208.982C1669.07 209.949 1666.5 210.202 1664.03 209.709C1661.55 209.216 1659.27 207.999 1657.48 206.212C1655.7 204.425 1654.48 202.148 1653.99 199.669C1653.49 197.19 1653.75 194.62 1654.71 192.285C1655.68 189.95 1657.32 187.954 1659.42 186.55C1661.52 185.146 1663.99 184.396 1666.52 184.396C1669.91 184.396 1673.16 185.743 1675.55 188.139C1677.95 190.536 1679.3 193.786 1679.3 197.176Z" fill="#30475E"/>
<path d="M289.963 542.205H236.104V544.897H289.963V542.205Z" fill="#30475E"/>
<path d="M311.873 441H-5.92475C-17.5643 441 -27 450.436 -27 462.075V514.4C-27 526.04 -17.5643 535.475 -5.92475 535.475H311.873C323.512 535.475 332.948 526.04 332.948 514.4V462.075C332.948 450.436 323.512 441 311.873 441Z" fill="#30475E"/>
<path d="M109.971 473.973L114.601 483.366L124.963 484.847L117.454 492.168L119.23 502.477L109.971 497.605L100.712 502.477L102.489 492.168L94.979 484.847L105.342 483.366L109.971 473.973Z" fill="white"/>
<path d="M152.017 473.973L156.646 483.366L167.009 484.847L159.499 492.168L161.276 502.477L152.017 497.605L142.758 502.477L144.534 492.168L137.024 484.847L147.387 483.366L152.017 473.973Z" fill="white"/>
<path d="M194.058 473.973L198.687 483.366L209.05 484.847L201.567 492.168L203.317 502.477L194.058 497.605L184.799 502.477L186.575 492.168L179.065 484.847L189.428 483.366L194.058 473.973Z" fill="white"/>
<path d="M236.103 473.973L240.733 483.366L251.095 484.847L243.613 492.168L245.362 502.477L236.103 497.605L226.844 502.477L228.62 492.168L221.111 484.847L231.474 483.366L236.103 473.973Z" fill="white"/>
<path d="M278.144 473.973L282.774 483.366L293.136 484.847L285.654 492.168L287.403 502.477L278.144 497.605L268.885 502.477L270.661 492.168L263.152 484.847L273.515 483.366L278.144 473.973Z" fill="white"/>
<path opacity="0.2" d="M61.5194 511.092C74.1436 498.468 74.1435 478 61.5194 465.376C48.8953 452.752 28.4275 452.752 15.8033 465.376C3.17921 478 3.17919 498.468 15.8033 511.092C28.4275 523.717 48.8953 523.717 61.5194 511.092Z" fill="white"/>
<path d="M65.345 488.21C65.358 494.152 63.3866 499.928 59.7436 504.623C56.1005 509.317 50.9945 512.66 45.2353 514.122C39.4762 515.584 33.3937 515.082 27.9526 512.694C22.5116 510.306 18.0236 506.17 15.2005 500.942C13.0676 497.038 11.9565 492.659 11.9706 488.21C12.1907 481.279 15.0989 474.706 20.0797 469.881C25.0605 465.055 31.7231 462.357 38.6578 462.357C45.5925 462.357 52.2552 465.055 57.236 469.881C62.2168 474.706 65.1249 481.279 65.345 488.21Z" fill="white"/>
<path opacity="0.5" d="M62.1185 500.942C59.8304 505.169 56.4427 508.699 52.3137 511.159C48.1846 513.619 43.4675 514.918 38.6612 514.918C33.8548 514.918 29.1378 513.619 25.0087 511.159C20.8796 508.699 17.492 505.169 15.2039 500.942C22.149 496.308 30.3115 493.834 38.6612 493.834C47.0108 493.834 55.1733 496.308 62.1185 500.942Z" fill="#30475E"/>
<path d="M50.542 479.087C50.5473 481.441 49.8541 483.744 48.5501 485.704C47.2461 487.664 45.39 489.193 43.2166 490.097C41.0432 491.002 38.6503 491.241 36.3407 490.785C34.0312 490.329 31.9088 489.198 30.2423 487.536C28.5758 485.873 27.4401 483.753 26.9789 481.445C26.5176 479.136 26.7516 476.743 27.6513 474.567C28.551 472.392 30.0758 470.532 32.0328 469.224C33.9898 467.915 36.291 467.217 38.6451 467.217C41.7957 467.217 44.8177 468.466 47.048 470.692C49.2783 472.917 50.5349 475.936 50.542 479.087Z" fill="#596C7E"/>
</g>
</svg>
