<svg width="136" height="70" viewBox="0 0 136 70" fill="none" xmlns="http://www.w3.org/2000/svg">
<path d="M97.3463 24.625H91.0605V21.6923H97.3463V24.625Z" fill="white"/>
<mask id="mask0_96_43610" style="mask-type:luminance" maskUnits="userSpaceOnUse" x="74" y="13" width="40" height="16">
<path d="M105.852 16.1472C105.852 16.1472 101.863 20.2292 95.1097 23.2081C87.8126 25.3846 84.7568 24.2618 80.0648 23.4865C64.4473 29.7774 85.8157 28.9284 85.8157 28.9284C92.9254 28.5701 103.388 26.6945 111.5 19.556C111.5 19.556 115.314 16.0958 112.126 14.243C112.126 14.243 111.356 13.849 110.215 13.849C109.004 13.849 107.387 14.2962 105.852 16.1472Z" fill="white"/>
</mask>
<g mask="url(#mask0_96_43610)">
<path d="M64.4473 13.8494H115.313V29.7793H64.4473V13.8494Z" fill="white"/>
</g>
<path d="M11.3744 56.114L11.3894 38.4803C11.4065 37.5647 10.9461 37.0756 10.0007 37.0056C6.17619 36.977 4.27905 37.457 4.30833 38.4496V51.6497H0V26.5955L4.3361 26.612L4.30833 34.0294C4.27224 32.9982 6.1627 32.5036 9.98846 32.5525C13.8005 32.6128 15.7094 33.8609 15.7094 36.2977V56.1328L11.3744 56.114Z" fill="white"/>
<path d="M18.583 48.7571V44.3177C18.583 42.335 20.4987 40.9485 24.3204 40.16L30.0176 38.4073V36.8869H22.8916V39.1428H18.583V35.4143C18.583 33.4839 20.0156 32.5227 22.8772 32.5227H29.9712C32.8432 32.5227 34.2784 33.5168 34.2784 35.5032V51.6484H30.0176V42.8135L24.3944 44.4957C23.3931 44.8315 22.8916 45.5129 22.8916 46.5474V47.2669H24.3372V45.7781H28.5573V48.7732C28.5573 50.6899 27.1341 51.6484 24.2926 51.6484H22.9344C20.0345 51.6484 18.583 50.6817 18.583 48.7571Z" fill="white"/>
<path d="M41.4617 47.2367H48.6848V45.0274L53.0061 45.0405V48.6844C53.0061 50.6601 51.5458 51.6484 48.6263 51.6484H41.5045C38.6338 51.6484 37.1982 50.6543 37.1982 48.6695V35.5032C37.1982 33.5177 38.6338 32.5227 41.5045 32.5227H48.642C51.503 32.5227 52.9335 33.4845 52.9335 35.4158V39.2776H48.6263V36.8875H41.4617V47.2367Z" fill="white"/>
<path d="M67.1818 56.114L67.1535 45.8518C67.1357 44.8318 66.6883 44.319 65.8088 44.319L63.0753 44.3363V39.9097L65.7823 39.8985C66.7246 39.9055 67.1983 39.4327 67.1983 38.4803C67.2145 37.5647 66.7535 37.0756 65.8088 37.0056C61.9845 36.977 60.0865 37.457 60.1157 38.4496V51.6497H55.8086V26.5955L62.2038 26.612L62.1888 31.0194L60.1278 31.0474L60.1157 34.0294C60.0771 32.9982 61.9689 32.5036 65.7958 32.5525C69.6107 32.6128 71.5181 33.8609 71.5181 36.2977V39.9258C71.5344 41.3616 70.8759 42.134 69.5266 42.2429C70.8759 42.2228 71.5344 42.9036 71.5181 44.2901V56.1328L67.1818 56.114Z" fill="white"/>
<path d="M119.361 32.5098H123.64V47.2239H125.913L125.93 51.707L123.665 51.6903C120.787 51.6903 119.352 50.7297 119.361 48.8029V32.5098Z" fill="white"/>
<path d="M128.575 28.0722H132.853V32.5387L135.082 32.5828L135.115 36.8743L132.853 36.9029V47.2239H135.126L135.142 51.707L132.88 51.6897C130 51.6897 128.564 50.7297 128.575 48.8029V28.0722Z" fill="white"/>
<path d="M96.6914 56.0801C96.6914 56.0801 104.863 54.1917 108.833 47.7957C108.833 47.7957 108.05 46.325 107.104 45.4912C107.104 45.4912 110.393 41.3676 113.344 39.1637C113.344 39.1637 110.426 35.5304 105.883 33.9912C105.883 33.9912 103.748 47.4471 96.6914 56.0801Z" fill="white"/>
<mask id="mask1_96_43610" style="mask-type:luminance" maskUnits="userSpaceOnUse" x="96" y="33" width="18" height="24">
<path d="M96.6934 56.082C96.6934 56.082 104.865 54.1915 108.831 47.7971C108.831 47.7971 108.05 46.3272 107.103 45.4931C107.103 45.4931 110.393 41.3683 113.344 39.1641C113.344 39.1641 110.426 35.5306 105.883 33.9932C105.883 33.9932 103.75 47.4494 96.6934 56.082Z" fill="white"/>
</mask>
<g mask="url(#mask1_96_43610)">
<path d="M91.541 54.7214L97.7152 29.8671L118.494 35.3508L112.32 60.2012L91.541 54.7214Z" fill="white"/>
</g>
<path d="M106.041 34.2674C105.713 36.0943 103.438 47.7689 97.2522 55.7072C99.1909 55.1325 105.324 52.9603 108.596 47.7893C108.398 47.4422 107.734 46.3222 106.973 45.6499L106.821 45.5182L106.948 45.3582C106.978 45.3159 110.152 41.3526 113.044 39.132C112.419 38.4184 109.802 35.6143 106.041 34.2674ZM96.1484 56.418L96.5383 55.9465C103.473 47.4571 105.661 34.0925 105.683 33.9583L105.721 33.714L105.946 33.7931C110.494 35.3339 113.47 38.9912 113.502 39.0334L113.641 39.2047L113.462 39.3343C110.888 41.2568 108.015 44.7033 107.388 45.4665C108.283 46.3334 108.982 47.6387 109.014 47.6962L109.069 47.8054L109.005 47.9095C105.037 54.3026 96.8219 56.2702 96.7387 56.2863L96.1484 56.418Z" fill="white"/>
<path d="M75.4668 40.1787C80.0788 43.3971 82.521 46.1208 82.521 46.1208C81.5016 46.9589 80.1482 48.8461 80.1482 48.8461C86.3182 56.188 91.8079 55.9088 91.8079 55.9088C87.3349 51.3623 82.5886 34.7973 82.5886 34.7973C78.0451 35.9851 75.4668 40.1787 75.4668 40.1787Z" fill="white"/>
<mask id="mask2_96_43610" style="mask-type:luminance" maskUnits="userSpaceOnUse" x="75" y="34" width="17" height="22">
<path d="M75.4658 40.1787C80.0778 43.3959 82.5201 46.1223 82.5201 46.1223C81.5007 46.9589 80.1472 48.8479 80.1472 48.8479C86.3187 56.188 91.807 55.9088 91.807 55.9088C87.3339 51.3623 82.5876 34.7973 82.5876 34.7973C78.0456 35.9845 75.4658 40.1787 75.4658 40.1787Z" fill="white"/>
</mask>
<g mask="url(#mask2_96_43610)">
<path d="M76.5074 60.3008L70.3955 36.1601L90.7673 30.6798L96.8765 54.8208L76.5074 60.3008Z" fill="white"/>
</g>
<path d="M80.3222 48.8359C85.2831 54.6764 89.8013 55.5515 91.2306 55.6759C87.0914 50.9409 82.9194 36.9645 82.3604 35.0475C78.5751 36.1249 76.1886 39.3473 75.6603 40.1196C80.1337 43.264 82.5582 45.9491 82.5827 45.9771L82.7335 46.1423L82.5596 46.2828C81.7303 46.9679 80.651 48.393 80.3222 48.8359ZM91.642 56.1191C91.0529 56.1191 85.7323 55.9138 79.904 48.9847L79.7984 48.8548L79.8949 48.724C79.9504 48.647 81.1383 46.998 82.1349 46.1021C81.5414 45.4746 79.1754 43.0757 75.2666 40.3508L75.1025 40.2373L75.2067 40.0636C75.2297 40.0238 77.8786 35.7855 82.4484 34.5921L82.6384 34.5428L82.693 34.7354C82.7391 34.8997 87.4795 51.302 91.8645 55.7581L92.196 56.0887L91.642 56.1191Z" fill="white"/>
<path d="M95.587 44.1055C95.4241 44.1055 95.3276 44.0915 95.2913 44.0887C87.6288 43.8536 82.2662 32.558 80.8086 29.1024L81.1763 28.9345C82.6139 32.3336 87.8788 43.442 95.3264 43.6732C95.4335 43.6814 104.65 44.5097 109.429 20.6301L109.828 20.7168C105.382 42.9279 97.2515 44.1055 95.587 44.1055Z" fill="white"/>
<path d="M79.4829 20.8848C79.4829 20.8848 78.7675 10.2256 80.7007 6.62456C80.7007 6.62456 82.3637 3.16286 85.6547 4.17734C85.6547 4.17734 86.7895 4.61324 87.7354 3.68911C88.9425 2.51858 97.1492 -4.19189 102.44 4.91257C102.44 4.91257 104.538 9.10494 103.148 11.098C101.712 13.1571 89.8902 18.6121 79.4829 20.8848Z" fill="white"/>
<path d="M84.4754 4.20127C82.1253 4.20127 80.897 6.69139 80.8819 6.71724C79.1589 9.93407 79.5798 19.0285 79.6722 20.6273C89.8229 18.3708 101.582 12.9872 102.986 10.9759C104.289 9.11063 102.279 5.04997 102.258 5.00647C100.491 1.96577 98.2117 0.418343 95.4853 0.418343C91.4467 0.418343 87.9143 3.80582 87.8789 3.84019C87.3276 4.37892 86.7167 4.49087 86.3041 4.49087C85.8859 4.49087 85.5943 4.38044 85.5819 4.37497C85.2127 4.2615 84.8364 4.20127 84.4754 4.20127ZM79.2962 21.1387L79.2799 20.8996C79.2501 20.4615 78.5861 10.1348 80.5248 6.52256C80.5753 6.4164 81.87 3.78301 84.4754 3.78301C84.8759 3.78301 85.2912 3.84719 85.712 3.97678C85.7286 3.98225 85.9658 4.07138 86.3041 4.07138C86.8008 4.07138 87.2352 3.88917 87.5991 3.53509C87.636 3.4995 91.2865 7.82013e-05 95.4853 7.82013e-05C98.3649 7.82013e-05 100.762 1.61625 102.612 4.80448C102.707 4.99247 104.765 9.14774 103.317 11.2208C101.865 13.2984 90.1458 18.7718 79.5216 21.0903L79.2962 21.1387Z" fill="white"/>
<path d="M79.5508 20.7477C79.5508 20.7477 79.8548 12.3596 86.7012 6.90818C86.7012 6.90818 88.9752 4.80713 91.2477 7.00979C95.0136 10.9941 101.929 14.2097 101.929 4.21274C101.929 4.21274 106.135 10.7821 103.963 13.4069C103.963 13.4069 98.7771 20.9567 79.5508 20.7477Z" fill="white"/>
<path d="M79.7685 20.5357C79.9571 20.5357 80.1459 20.5369 80.3345 20.5369C98.5993 20.5369 103.746 13.3538 103.797 13.2826C105.481 11.2481 103.075 6.59401 102.12 4.93038C101.942 9.97388 99.8581 11.0632 98.0973 11.0632C95.6578 11.0632 92.8038 8.95818 91.103 7.15463C90.4596 6.52952 89.7466 6.21133 88.9946 6.21133C87.778 6.21133 86.8496 7.05243 86.8413 7.06003C80.7392 11.9155 79.8771 19.1945 79.7685 20.5357ZM80.3345 20.957C80.0739 20.957 79.8133 20.957 79.5471 20.954L79.3408 20.9497L79.3476 20.7365C79.3488 20.6519 79.7345 12.1847 86.578 6.73606C86.6108 6.70899 87.6207 5.79155 88.9946 5.79155C89.8537 5.79155 90.6618 6.15111 91.3893 6.85653C93.0429 8.60411 95.7906 10.6464 98.0973 10.6464C100.472 10.6464 101.723 8.41794 101.723 4.21097V3.51072L102.098 4.09659C102.275 4.37067 106.364 10.8311 104.118 13.5393C103.923 13.8268 98.8074 20.957 80.3345 20.957Z" fill="white"/>
<path d="M82.6328 28.9579C82.6328 28.9579 83.7189 31.9313 87.2472 31.8577C87.2472 31.8577 90.4367 32.4183 92.5365 28.4353C92.5365 28.4353 94.843 27.9422 95.7921 28.0155C95.7921 28.0155 97.6577 30.7404 101.559 30.2528C101.559 30.2528 106.051 29.9711 106.711 24.1507L109.255 20.9883C109.255 20.9883 100.368 29.2356 82.6328 28.9579Z" fill="white"/>
<mask id="mask3_96_43610" style="mask-type:luminance" maskUnits="userSpaceOnUse" x="82" y="20" width="28" height="12">
<path d="M82.7188 28.9618C82.7188 28.9618 83.8063 31.9353 87.3346 31.8616C87.3346 31.8616 90.5235 32.4223 92.624 28.4377C92.624 28.4377 94.9301 27.9461 95.8807 28.0194C95.8807 28.0194 97.7448 30.7443 101.646 30.2576C101.646 30.2576 106.14 29.975 106.798 24.1546L109.343 20.9923C109.343 20.9923 100.456 29.2395 82.7188 28.9618Z" fill="white"/>
</mask>
<g mask="url(#mask3_96_43610)">
<path d="M83.4395 36.8691L80.9238 21.303L108.623 16.5467L111.139 32.1152L83.4395 36.8691Z" fill="white"/>
</g>
<path d="M82.8719 29.3203C79.6505 29.3203 77.5557 29.0566 77.4908 29.0481C75.0034 28.6718 73.8102 28.0652 73.7311 27.1438C73.5832 25.3917 78.0849 23.7134 79.4714 23.2426L79.7196 24.0164C77.1552 24.8916 74.4509 26.3274 74.512 27.0739C74.5226 27.1925 74.7157 27.8057 77.5979 28.2413C77.7824 28.2675 97.2053 30.7062 109.208 20.3637L109.709 20.9897C101.397 28.1525 89.6464 29.3203 82.8719 29.3203Z" fill="white"/>
<path d="M2.05075 66.4075C2.05075 66.6785 2.09688 66.8644 2.19407 66.9465C2.29102 67.0325 2.51904 67.0776 2.8837 67.0776H3.0045C3.03507 67.0682 3.06146 67.0682 3.08256 67.0651L3.092 67.8722C3.03507 67.8803 2.9584 67.8834 2.86676 67.8834C2.63582 67.8965 2.49 67.9062 2.42613 67.9062C2.00465 67.9062 1.69096 67.8144 1.48333 67.6409C1.27615 67.4648 1.17365 67.2044 1.17365 66.8519V61.9355H0.285156V61.1705H1.17365V59.4111H2.05075V61.1705H3.092V61.9355H2.05075V66.4075Z" fill="white"/>
<path d="M4.56761 63.7586H6.74329V63.5797C6.74329 62.9735 6.65971 62.5151 6.48735 62.2072C6.31479 61.9018 6.05354 61.7442 5.70998 61.7442C5.3225 61.7442 5.03602 61.9088 4.84743 62.2397C4.66333 62.5707 4.56761 63.0792 4.56761 63.7586ZM6.75401 65.5445H7.63444C7.62639 66.3208 7.45379 66.9167 7.11451 67.3324C6.77638 67.7468 6.29127 67.9512 5.66456 67.9512C4.97492 67.9512 4.46721 67.672 4.13669 67.1189C3.81007 66.5657 3.64453 65.7072 3.64453 64.545C3.64453 63.3132 3.81007 62.4135 4.13669 61.8404C4.46721 61.2673 4.98174 60.9846 5.68843 60.9846C6.34959 60.9846 6.84429 61.2252 7.16881 61.7117C7.49393 62.2011 7.65971 62.9409 7.65971 63.9307C7.65971 64.0879 7.65693 64.2057 7.65487 64.2864C7.65221 64.3687 7.64805 64.4381 7.64539 64.5054L4.56761 64.5081V64.8035C4.56761 65.6303 4.66206 66.2292 4.84592 66.6079C5.03327 66.9881 5.32654 67.1758 5.73247 67.1758C6.04675 67.1758 6.29587 67.0332 6.48057 66.7463C6.66514 66.4641 6.75401 66.0774 6.75401 65.5853V65.5445Z" fill="white"/>
<path d="M11.9422 65.4511L12.8192 65.4481C12.8192 66.2435 12.6427 66.8622 12.287 67.2966C11.9299 67.732 11.425 67.9531 10.7788 67.9531C10.0654 67.9531 9.53861 67.6648 9.19505 67.0831C8.85302 66.5104 8.68066 65.623 8.68066 64.4226C8.68066 63.2731 8.85715 62.4134 9.21476 61.8471C9.5732 61.2785 10.1115 60.9962 10.8329 60.9962C11.4305 60.9962 11.9015 61.1855 12.2509 61.5626C12.5953 61.9374 12.7704 62.4512 12.7704 63.0997V63.2376H11.8961C11.8771 62.7743 11.7821 62.4253 11.6056 62.178C11.4305 61.9432 11.1873 61.8227 10.8677 61.8227C10.4285 61.8227 10.1183 62.0208 9.93025 62.4202C9.74152 62.8178 9.64861 63.497 9.64861 64.4595C9.64861 65.4295 9.74556 66.1169 9.93161 66.524C10.1224 66.924 10.4367 67.126 10.8784 67.126C11.2138 67.126 11.4671 66.9809 11.6517 66.6964C11.835 66.4094 11.9299 65.9898 11.9422 65.4511Z" fill="white"/>
<path d="M14.0801 67.7734V58.9408H14.9836V61.8831C15.1506 61.5962 15.3628 61.3841 15.6149 61.2409C15.8693 61.097 16.1721 61.0273 16.5292 61.0273C17.0232 61.0273 17.4096 61.1594 17.6817 61.4198C17.9559 61.6834 18.0931 62.0516 18.0931 62.5246V67.7734H17.1935V62.9632C17.1935 62.5767 17.1203 62.2931 16.9799 62.1221C16.8352 61.942 16.6045 61.8502 16.2901 61.8502C15.8923 61.8502 15.5774 61.9859 15.3378 62.2396C15.1002 62.5008 14.9836 62.8565 14.9836 63.2999V67.7734H14.0801Z" fill="white"/>
<path d="M19.4395 67.7734V61.171H20.2791V61.9886C20.4358 61.6741 20.6465 61.4274 20.916 61.2725C21.1828 61.1107 21.5036 61.0273 21.8905 61.0273C22.4519 61.0273 22.8524 61.178 23.0929 61.4702C23.3316 61.7598 23.4497 62.2684 23.4497 62.9918V67.7734H22.549V62.9194C22.549 62.5623 22.4746 62.2931 22.3285 62.1221C22.1786 61.942 21.9546 61.8502 21.647 61.8502C21.2465 61.8502 20.9266 61.9859 20.6961 62.2396C20.4571 62.5008 20.3402 62.8565 20.3402 63.2999V67.7734H19.4395Z" fill="white"/>
<path d="M25.572 64.4764C25.572 65.4609 25.6676 66.1606 25.8638 66.5614C26.0642 66.9639 26.3948 67.1658 26.8602 67.1658C27.3191 67.1658 27.6491 66.9566 27.8486 66.5468C28.0475 66.1389 28.1482 65.4481 28.1482 64.4764C28.1482 63.4964 28.0475 62.8059 27.8486 62.405C27.6491 61.9992 27.3191 61.7995 26.8602 61.7995C26.3986 61.7995 26.0654 61.9992 25.868 62.401C25.6676 62.7989 25.572 63.4905 25.572 64.4764ZM24.6143 64.4764C24.6143 63.2873 24.7987 62.4134 25.1688 61.8419C25.536 61.2685 26.1014 60.9844 26.8602 60.9844C27.6308 60.9844 28.2025 61.2685 28.5661 61.8313C28.9306 62.401 29.1165 63.2813 29.1165 64.4764C29.1165 65.6741 28.9335 66.5468 28.5675 67.1129C28.2063 67.6732 27.6361 67.9531 26.8602 67.9531C26.0837 67.9531 25.5135 67.6732 25.1517 67.1163C24.7949 66.5614 24.6143 65.6787 24.6143 64.4764Z" fill="white"/>
<path d="M30.2891 58.9441H31.1795V67.7715H30.2891V58.9441Z" fill="white"/>
<path d="M33.3027 64.4764C33.3027 65.4609 33.4045 66.1606 33.6002 66.5614C33.7962 66.9639 34.1267 67.1658 34.5945 67.1658C35.0528 67.1658 35.3825 66.9566 35.5814 66.5468C35.7803 66.1389 35.8801 65.4481 35.8801 64.4764C35.8801 63.4964 35.7803 62.8059 35.5814 62.405C35.3825 61.9992 35.0528 61.7995 34.5945 61.7995C34.1303 61.7995 33.7991 61.9992 33.6029 62.401C33.4045 62.7989 33.3027 63.4905 33.3027 64.4764ZM32.3477 64.4764C32.3477 63.2873 32.5324 62.4134 32.9022 61.8419C33.2723 61.2685 33.8336 60.9844 34.5945 60.9844C35.3657 60.9844 35.9359 61.2685 36.2989 61.8313C36.6642 62.401 36.8487 63.2813 36.8487 64.4764C36.8487 65.6741 36.6643 66.5468 36.3045 67.1129C35.94 67.6732 35.3695 67.9531 34.5945 67.9531C33.8159 67.9531 33.2472 67.6732 32.8886 67.1163C32.5283 66.5614 32.3477 65.6787 32.3477 64.4764Z" fill="white"/>
<path d="M38.8069 64.4877C38.8069 65.4034 38.8999 66.0664 39.0867 66.4695C39.2712 66.8647 39.5799 67.0652 40.0037 67.0652C40.4428 67.0652 40.7586 66.8647 40.9478 66.4589C41.1394 66.0525 41.2317 65.3732 41.2317 64.4001C41.2317 63.489 41.1326 62.8342 40.9322 62.4231C40.7347 62.0156 40.4183 61.8093 39.9786 61.8093C39.5684 61.8093 39.27 62.0156 39.0852 62.4327C38.8946 62.8484 38.8069 63.5316 38.8069 64.4877ZM38.0561 68.381L38.9448 68.388C38.9636 68.6546 39.0616 68.8531 39.2366 68.9897C39.4131 69.1254 39.6649 69.196 39.9901 69.196C40.4293 69.196 40.7477 69.0442 40.9395 68.7515C41.1337 68.458 41.2317 67.9793 41.2317 67.3231C41.2317 67.3075 41.2288 67.2543 41.2241 67.1837C41.2202 67.1071 41.2187 67.0347 41.2187 66.9747C41.0912 67.2713 40.9029 67.498 40.6654 67.6482C40.4293 67.8028 40.1347 67.873 39.7953 67.873C39.1463 67.873 38.6635 67.5784 38.3427 66.9854C38.0216 66.3907 37.8613 65.4857 37.8613 64.2742C37.8613 63.1894 38.0284 62.3779 38.3651 61.8309C38.6983 61.2906 39.2006 61.0174 39.8691 61.0174C40.2064 61.0174 40.4957 61.0975 40.7306 61.2621C40.967 61.4197 41.1337 61.6508 41.2317 61.9456V61.1708H42.1006V67.4651C42.1006 68.2819 41.9096 68.8994 41.5301 69.3466C41.1535 69.783 40.6182 70 39.9228 70C39.3745 70 38.925 69.8563 38.5773 69.5556C38.2285 69.2602 38.0561 68.8833 38.0561 68.4209V68.381Z" fill="white"/>
<path d="M43.1963 69.8855V69.0471C43.2869 69.0915 43.3825 69.1262 43.4734 69.1389C43.5679 69.1621 43.6608 69.1688 43.7511 69.1688C44.0165 69.1688 44.2242 69.0845 44.3783 68.8941C44.5324 68.7079 44.6838 68.3578 44.8384 67.8264L42.9561 61.1698H43.9235L45.2961 66.4924L46.7051 61.1698H47.6242L45.6544 68.0645C45.4461 68.8138 45.207 69.3193 44.937 69.587C44.6702 69.8553 44.2839 69.9883 43.7857 69.9883C43.7122 69.9883 43.6233 69.981 43.5215 69.9633C43.4206 69.9485 43.312 69.921 43.1963 69.8855Z" fill="white"/>
<path d="M53.7335 62.1911C54.0268 61.9876 54.2603 61.7558 54.4232 61.4866C54.5855 61.2201 54.6676 60.9418 54.6676 60.6571C54.6676 60.3701 54.5956 60.1378 54.4512 59.9803C54.3078 59.8068 54.1186 59.7296 53.8713 59.7296C53.6222 59.7296 53.4289 59.8068 53.2917 59.9803C53.1497 60.1378 53.0812 60.3754 53.0812 60.6665C53.0812 60.8541 53.1382 61.0795 53.2509 61.3546C53.3678 61.6226 53.5307 61.8987 53.7335 62.1911ZM55.3071 66.1891L53.4274 63.365C53.0305 63.6335 52.7371 63.9219 52.5476 64.2377C52.3585 64.5525 52.2614 64.9051 52.2614 65.2932C52.2614 65.7791 52.4139 66.1973 52.712 66.5359C53.0107 66.8781 53.3808 67.0444 53.8226 67.0444C54.1024 67.0444 54.373 66.9666 54.6304 66.8151C54.8889 66.669 55.1129 66.458 55.3071 66.1891ZM56.364 67.7736L55.774 66.911C55.506 67.2407 55.1917 67.4944 54.8305 67.6666C54.4633 67.8394 54.0758 67.9238 53.6541 67.9238C52.9579 67.9238 52.3874 67.6832 51.9512 67.2048C51.5132 66.7248 51.2969 66.1057 51.2969 65.3395C51.2969 64.783 51.427 64.2991 51.7042 63.8836C51.9707 63.4678 52.4072 63.0782 53.0024 62.7089C52.7439 62.3575 52.5438 62.0065 52.3977 61.6581C52.2531 61.3053 52.179 60.9932 52.179 60.717C52.179 60.1798 52.3378 59.7481 52.6536 59.4156C52.9658 59.0874 53.3808 58.918 53.8917 58.918C54.3813 58.918 54.7803 59.075 55.0946 59.3975C55.4075 59.7126 55.5671 60.1235 55.5671 60.6238C55.5671 61.0491 55.4488 61.4564 55.21 61.8203C54.9766 62.1911 54.6201 62.525 54.1437 62.8245L55.7855 65.2932C55.844 65.1044 55.8983 64.8765 55.9467 64.5929C55.9966 64.3135 56.0314 64.008 56.0591 63.6597H56.9728C56.9362 64.1668 56.8642 64.6258 56.753 65.0295C56.6417 65.442 56.4983 65.7791 56.3191 66.0589L57.4704 67.7736H56.364Z" fill="white"/>
<path d="M63.8911 64.2086C63.7506 64.375 63.4392 64.5448 62.9573 64.7211C62.9151 64.7373 62.8859 64.7486 62.867 64.754C62.4535 64.9061 62.1814 65.0725 62.0551 65.2614C61.9282 65.4509 61.8656 65.7302 61.8656 66.0925C61.8656 66.4195 61.9349 66.6774 62.0754 66.8535C62.2186 67.033 62.416 67.1258 62.6722 67.1258C63.0446 67.1258 63.338 66.977 63.5605 66.6859C63.7798 66.399 63.8911 66.0063 63.8911 65.5196V64.2086ZM65.3065 67.7864C65.1938 67.8053 65.0955 67.8163 65.0117 67.8276C64.9311 67.8382 64.8517 67.841 64.7797 67.841C64.5318 67.841 64.3291 67.7591 64.1871 67.5955C64.0398 67.4266 63.9631 67.1969 63.9536 66.8934C63.8158 67.2313 63.6154 67.4896 63.3575 67.6688C63.0978 67.8494 62.7902 67.9355 62.4343 67.9355C61.9689 67.9355 61.6071 67.7792 61.3538 67.4567C61.0926 67.1386 60.9648 66.6859 60.9648 66.1043C60.9648 65.5354 61.0829 65.1011 61.322 64.8045C61.5643 64.5052 62.0802 64.218 62.8738 63.9433L62.8885 63.9364C63.5437 63.7124 63.8686 63.445 63.8686 63.1436V62.5391C63.8686 62.2654 63.7955 62.0674 63.644 61.9457C63.4932 61.8186 63.253 61.7568 62.9254 61.7568C62.6028 61.7568 62.3658 61.8402 62.2118 62.0163C62.0551 62.1863 61.9783 62.4504 61.9783 62.806V62.9207H61.1372C61.1469 62.2481 61.3028 61.7568 61.6056 61.4477C61.9043 61.1375 62.3788 60.9844 63.029 60.9844C63.6352 60.9844 64.0832 61.1281 64.3624 61.4128C64.6445 61.6965 64.7797 62.1464 64.7797 62.7658V66.6172C64.7797 66.786 64.8116 66.9165 64.87 66.992C64.9311 67.0628 65.0267 67.1029 65.1604 67.1029C65.187 67.1029 65.2271 67.0957 65.2814 67.0823C65.2894 67.0823 65.2971 67.0823 65.3065 67.0784V67.7864Z" fill="white"/>
<path d="M69.4656 64.4219C69.4656 63.4592 69.3718 62.7933 69.1911 62.4103C69.0079 62.0318 68.6944 61.8403 68.2532 61.8403C67.835 61.8403 67.5242 62.0495 67.3259 62.4571C67.1264 62.8672 67.0246 63.4962 67.0246 64.3534C67.0246 65.3105 67.1184 66.0013 67.3109 66.4309C67.5039 66.8661 67.8037 67.0785 68.2234 67.0785C68.662 67.0785 68.9781 66.8788 69.1737 66.4701C69.3679 66.0643 69.4656 65.3832 69.4656 64.4219ZM70.3058 67.7748H69.4656V66.9394C69.3842 67.2314 69.2198 67.4638 68.9645 67.6403C68.7121 67.8164 68.4173 67.9082 68.0752 67.9082C67.4168 67.9082 66.9118 67.5956 66.5645 66.9726C66.2168 66.3535 66.043 65.4504 66.043 64.2647C66.043 63.2355 66.2183 62.4364 66.5683 61.8667C66.916 61.3 67.4006 61.0177 68.0277 61.0177C68.3618 61.0177 68.659 61.0992 68.9143 61.254C69.1764 61.4129 69.3378 61.6051 69.4057 61.8515V58.9422H70.3058V67.7748Z" fill="white"/>
<path d="M72.8818 67.7734L71.1523 61.171H72.1283L73.3841 66.3443L74.6957 61.171H75.631L73.8513 67.7734H72.8818Z" fill="white"/>
<path d="M76.4941 61.171H77.4147V67.7734H76.4941V61.171ZM76.4941 58.9431H77.4147V60.1395H76.4941V58.9431Z" fill="white"/>
<path d="M78.6025 65.7902H79.4947C79.4947 65.7963 79.4918 65.8064 79.4865 65.8206C79.4741 65.9095 79.4717 65.9739 79.4717 66.0156C79.4717 66.3725 79.5706 66.6447 79.7662 66.8336C79.9631 67.0183 80.252 67.1156 80.6348 67.1156C80.9757 67.1156 81.2499 67.0183 81.4482 66.8254C81.645 66.6369 81.7442 66.3767 81.7442 66.0472C81.7442 65.5266 81.36 65.1271 80.5805 64.8564L80.5658 64.8476C79.7863 64.5683 79.2802 64.2918 79.0535 64.0183C78.8239 63.7433 78.7085 63.343 78.7085 62.8171C78.7085 62.2397 78.8687 61.7901 79.2002 61.4658C79.5298 61.1419 79.982 60.9846 80.5711 60.9846C81.1941 60.9846 81.6654 61.1376 81.9791 61.4479C82.2937 61.7569 82.4513 62.2138 82.4513 62.8171V62.9135H81.6014C81.584 62.5108 81.4942 62.2208 81.3396 62.0405C81.1835 61.8583 80.9403 61.7698 80.6118 61.7698C80.2615 61.7698 79.9985 61.85 79.8232 62.0235C79.6467 62.1929 79.5558 62.4505 79.5558 62.7799C79.5558 62.9333 79.583 63.0668 79.629 63.183C79.6739 63.3019 79.7432 63.4021 79.8323 63.4719C79.9914 63.6153 80.3187 63.7685 80.8048 63.9307C81.0681 64.0132 81.2637 64.0828 81.4072 64.1443C81.8472 64.3192 82.1609 64.545 82.3507 64.8117C82.5422 65.0808 82.6388 65.4365 82.6388 65.8805C82.6388 66.5425 82.4513 67.0511 82.0848 67.4107C81.7115 67.7675 81.1876 67.9512 80.5058 67.9512C79.8775 67.9512 79.405 67.7794 79.0848 67.4354C78.7628 67.0959 78.6025 66.593 78.6025 65.9256V65.7902Z" fill="white"/>
<path d="M84.6048 64.4764C84.6048 65.4609 84.7052 66.1606 84.8994 66.5614C85.0962 66.9639 85.433 67.1658 85.8972 67.1658C86.3547 67.1658 86.6846 66.9566 86.8841 66.5468C87.0825 66.1389 87.1787 65.4481 87.1787 64.4764C87.1787 63.4964 87.0825 62.8059 86.8841 62.405C86.6846 61.9992 86.3547 61.7995 85.8972 61.7995C85.433 61.7995 85.0989 61.9992 84.9006 62.401C84.7081 62.7989 84.6048 63.4905 84.6048 64.4764ZM83.6504 64.4764C83.6504 63.2873 83.8307 62.4134 84.2032 61.8419C84.5694 61.2685 85.134 60.9844 85.8972 60.9844C86.6657 60.9844 87.2356 61.2685 87.6022 61.8313C87.9661 62.401 88.1508 63.2813 88.1508 64.4764C88.1508 65.6741 87.9661 66.5468 87.6022 67.1129C87.2386 67.6732 86.6711 67.9531 85.8972 67.9531C85.1178 67.9531 84.5479 67.6732 84.1881 67.1163C83.8257 66.5614 83.6504 65.6787 83.6504 64.4764Z" fill="white"/>
<path d="M89.3359 67.7734V61.171H90.1599V62.2496C90.2904 61.8626 90.4887 61.5606 90.749 61.3431C91.0126 61.1268 91.3101 61.0164 91.648 61.0164C91.7486 61.0164 91.8271 61.0204 91.8761 61.0204C91.9301 61.0273 91.9833 61.0301 92.0334 61.0407V62.0264C91.9833 61.9962 91.9301 61.9819 91.8735 61.9607C91.818 61.9531 91.754 61.946 91.6808 61.946C91.2218 61.946 90.8621 62.0993 90.6097 62.416C90.353 62.7308 90.2225 63.1652 90.2225 63.7301V67.7734H89.3359Z" fill="white"/>
<path d="M92.8149 69.8855V69.0471C92.9126 69.0915 93.0023 69.1262 93.0947 69.1389C93.1841 69.1621 93.2792 69.1688 93.3715 69.1688C93.6351 69.1688 93.8414 69.0845 93.9987 68.8941C94.151 68.7079 94.3056 68.3578 94.4579 67.8264L92.5762 61.1698H93.5466L94.9139 66.4924L96.3285 61.1698H97.2434L95.2725 68.0645C95.0686 68.8138 94.8283 69.3193 94.5553 69.587C94.2868 69.8553 93.904 69.9883 93.4031 69.9883C93.3308 69.9883 93.2441 69.981 93.1408 69.9633C93.0389 69.9485 92.9303 69.921 92.8149 69.8855Z" fill="white"/>
<path d="M100.789 65.7902H101.682C101.682 65.7963 101.674 65.8064 101.674 65.8206C101.661 65.9095 101.655 65.9739 101.655 66.0156C101.655 66.3725 101.756 66.6447 101.951 66.8336C102.152 67.0183 102.44 67.1156 102.818 67.1156C103.162 67.1156 103.437 67.0183 103.635 66.8254C103.833 66.6369 103.93 66.3767 103.93 66.0472C103.93 65.5266 103.545 65.1271 102.766 64.8564L102.752 64.8476C101.972 64.5683 101.465 64.2918 101.24 64.0183C101.009 63.7433 100.894 63.343 100.894 62.8171C100.894 62.2397 101.055 61.7901 101.385 61.4658C101.715 61.1419 102.171 60.9846 102.755 60.9846C103.381 60.9846 103.848 61.1376 104.163 61.4479C104.482 61.7569 104.637 62.2138 104.637 62.8171V62.9135H103.787C103.77 62.5108 103.681 62.2208 103.526 62.0405C103.371 61.8583 103.127 61.7698 102.797 61.7698C102.448 61.7698 102.184 61.85 102.011 62.0235C101.833 62.1929 101.742 62.4505 101.742 62.7799C101.742 62.9333 101.771 63.0668 101.816 63.183C101.862 63.3019 101.929 63.4021 102.016 63.4719C102.181 63.6153 102.504 63.7685 102.991 63.9307C103.249 64.0132 103.45 64.0828 103.593 64.1443C104.031 64.3192 104.349 64.545 104.542 64.8117C104.729 65.0808 104.821 65.4365 104.821 65.8805C104.821 66.5425 104.637 67.0511 104.266 67.4107C103.901 67.7675 103.371 67.9512 102.691 67.9512C102.064 67.9512 101.59 67.7794 101.27 67.4354C100.947 67.0959 100.789 66.593 100.789 65.9256V65.7902Z" fill="white"/>
<path d="M106.757 63.7586H108.932V63.5797C108.932 62.9735 108.845 62.5151 108.674 62.2072C108.502 61.9018 108.242 61.7442 107.898 61.7442C107.512 61.7442 107.222 61.9088 107.04 62.2397C106.852 62.5707 106.757 63.0792 106.757 63.7586ZM108.946 65.5445H109.821C109.817 66.3208 109.641 66.9167 109.301 67.3324C108.962 67.7468 108.48 67.9512 107.853 67.9512C107.163 67.9512 106.656 67.672 106.326 67.1189C105.998 66.5657 105.833 65.7072 105.833 64.545C105.833 63.3132 105.998 62.4135 106.326 61.8404C106.656 61.2673 107.17 60.9846 107.875 60.9846C108.538 60.9846 109.035 61.2252 109.361 61.7117C109.68 62.2011 109.844 62.9409 109.844 63.9307C109.844 64.0879 109.844 64.2057 109.843 64.2864C109.843 64.3687 109.838 64.4381 109.835 64.5054L106.757 64.5081V64.8035C106.757 65.6303 106.852 66.2292 107.037 66.6079C107.222 66.9881 107.515 67.1758 107.922 67.1758C108.235 67.1758 108.484 67.0332 108.667 66.7463C108.855 66.4641 108.946 66.0774 108.946 65.5853V65.5445Z" fill="white"/>
<path d="M111.031 67.7734V61.171H111.859V62.2496C111.992 61.8626 112.185 61.5606 112.449 61.3431C112.709 61.1268 113.005 61.0164 113.345 61.0164C113.445 61.0164 113.523 61.0204 113.575 61.0204C113.627 61.0273 113.679 61.0301 113.728 61.0407V62.0264C113.679 61.9962 113.627 61.9819 113.569 61.9607C113.512 61.9531 113.449 61.946 113.376 61.946C112.916 61.946 112.56 62.0993 112.305 62.416C112.049 62.7308 111.919 63.1652 111.919 63.7301V67.7734H111.031Z" fill="white"/>
<path d="M115.992 67.7734L114.264 61.171H115.243L116.492 66.3443L117.809 61.171H118.741L116.964 67.7734H115.992Z" fill="white"/>
<path d="M119.603 61.171H120.527V67.7734H119.603V61.171ZM119.603 58.9431H120.527V60.1395H119.603V58.9431Z" fill="white"/>
<path d="M124.984 65.4511L125.861 65.4481C125.861 66.2435 125.685 66.8622 125.328 67.2966C124.971 67.732 124.471 67.9531 123.822 67.9531C123.111 67.9531 122.582 67.6648 122.24 67.0831C121.895 66.5104 121.725 65.623 121.725 64.4226C121.725 63.2731 121.903 62.4134 122.258 61.8471C122.614 61.2785 123.155 60.9962 123.877 60.9962C124.474 60.9962 124.942 61.1855 125.291 61.5626C125.639 61.9374 125.815 62.4512 125.815 63.0997V63.2376H124.938C124.919 62.7743 124.824 62.4253 124.648 62.178C124.476 61.9432 124.227 61.8227 123.909 61.8227C123.472 61.8227 123.16 62.0208 122.973 62.4202C122.783 62.8178 122.693 63.497 122.693 64.4595C122.693 65.4295 122.783 66.1169 122.978 66.524C123.165 66.924 123.482 67.126 123.923 67.126C124.253 67.126 124.512 66.9809 124.694 66.6964C124.875 66.4094 124.971 65.9898 124.984 65.4511Z" fill="white"/>
<path d="M127.866 63.7586H130.04V63.5797C130.04 62.9735 129.953 62.5151 129.784 62.2072C129.611 61.9018 129.351 61.7442 129.005 61.7442C128.618 61.7442 128.332 61.9088 128.148 62.2397C127.959 62.5707 127.866 63.0792 127.866 63.7586ZM130.051 65.5445H130.932C130.923 66.3208 130.749 66.9167 130.41 67.3324C130.073 67.7468 129.59 67.9512 128.963 67.9512C128.27 67.9512 127.763 67.672 127.434 67.1189C127.105 66.5657 126.942 65.7072 126.942 64.545C126.942 63.3132 127.105 62.4135 127.434 61.8404C127.763 61.2673 128.275 60.9846 128.984 60.9846C129.644 60.9846 130.144 61.2252 130.467 61.7117C130.788 62.2011 130.954 62.9409 130.954 63.9307C130.954 64.0879 130.954 64.2057 130.953 64.2864C130.947 64.3687 130.943 64.4381 130.939 64.5054L127.866 64.5081V64.8035C127.866 65.6303 127.959 66.2292 128.145 66.6079C128.33 66.9881 128.623 67.1758 129.03 67.1758C129.342 67.1758 129.592 67.0332 129.777 66.7463C129.963 66.4641 130.051 66.0774 130.051 65.5853V65.5445Z" fill="white"/>
<path d="M131.964 65.7902H132.857C132.857 65.7963 132.857 65.8064 132.85 65.8206C132.841 65.9095 132.834 65.9739 132.834 66.0156C132.834 66.3725 132.932 66.6447 133.127 66.8336C133.328 67.0183 133.619 67.1156 133.996 67.1156C134.344 67.1156 134.612 67.0183 134.808 66.8254C135.012 66.6369 135.108 66.3767 135.108 66.0472C135.108 65.5266 134.721 65.1271 133.943 64.8564L133.927 64.8476C133.152 64.5683 132.644 64.2918 132.419 64.0183C132.187 63.7433 132.068 63.343 132.068 62.8171C132.068 62.2397 132.234 61.7901 132.562 61.4658C132.891 61.1419 133.35 60.9846 133.934 60.9846C134.558 60.9846 135.028 61.1376 135.341 61.4479C135.655 61.7569 135.815 62.2138 135.815 62.8171V62.9135H134.964C134.946 62.5108 134.857 62.2208 134.701 62.0405C134.547 61.8583 134.303 61.7698 133.974 61.7698C133.624 61.7698 133.363 61.85 133.187 62.0235C133.013 62.1929 132.922 62.4505 132.922 62.7799C132.922 62.9333 132.945 63.0668 132.994 63.183C133.04 63.3019 133.104 63.4021 133.194 63.4719C133.359 63.6153 133.681 63.7685 134.167 63.9307C134.428 64.0132 134.626 64.0828 134.77 64.1443C135.209 64.3192 135.528 64.545 135.716 64.8117C135.905 65.0808 136 65.4365 136 65.8805C136 66.5425 135.815 67.0511 135.445 67.4107C135.074 67.7675 134.549 67.9512 133.869 67.9512C133.244 67.9512 132.766 67.7794 132.448 67.4354C132.128 67.0959 131.964 66.593 131.964 65.9256V65.7902Z" fill="white"/>
<path d="M79.2344 20.4252L79.3306 24.7727C79.3306 24.7727 94.8439 27.1263 104.973 16.8145C104.973 14.4944 104.726 11.9085 104.726 11.9085C104.726 11.9085 100.656 20.9597 79.2344 20.4252Z" fill="#EC1D27"/>
<mask id="mask4_96_43610" style="mask-type:luminance" maskUnits="userSpaceOnUse" x="79" y="12" width="26" height="14">
<path d="M79.2354 20.581L79.3333 24.9285C79.3333 24.9285 94.846 27.2842 104.974 16.9703C104.974 14.6508 104.727 12.0655 104.727 12.0655C104.727 12.0655 100.657 21.1155 79.2354 20.581Z" fill="white"/>
</mask>
<g mask="url(#mask4_96_43610)">
<path d="M85.6113 0.843479L111.349 16.0677L98.5953 38.9688L72.8584 23.7433L85.6113 0.843479Z" fill="#EC1D27"/>
</g>
</svg>
